<?xml version="1.0" encoding="utf-8"?>
<!-- Generator: Adobe Illustrator 24.3.0, SVG Export Plug-In . SVG Version: 6.00 Build 0)  -->
<svg version="1.1" id="Layer_1" xmlns="http://www.w3.org/2000/svg" xmlns:xlink="http://www.w3.org/1999/xlink" x="0px" y="0px"
	 viewBox="0 0 40 40" style="enable-background:new 0 0 40 40;" xml:space="preserve">
<style type="text/css">
	.st0{fill:#E07C00;}
</style>
<path class="st0" d="M20,19.17c-1.11,0-2.16-0.44-2.95-1.22c-0.78-0.78-1.22-1.84-1.22-2.95c0-1.1,0.44-2.16,1.22-2.95
	c0.78-0.78,1.84-1.22,2.95-1.22c1.11,0,2.16,0.44,2.95,1.22c0.78,0.78,1.22,1.84,1.22,2.95c0,0.55-0.11,1.09-0.32,1.59
	c-0.21,0.51-0.52,0.96-0.9,1.35s-0.85,0.69-1.35,0.9C21.09,19.06,20.55,19.17,20,19.17z M20,3.33c-3.09,0-6.06,1.23-8.25,3.42
	C9.56,8.94,8.33,11.91,8.33,15C8.33,23.75,20,36.67,20,36.67S31.67,23.75,31.67,15c0-3.09-1.23-6.06-3.42-8.25
	C26.06,4.56,23.09,3.33,20,3.33z"/>
</svg>
