<svg id="Layer_1" data-name="Layer 1" xmlns="http://www.w3.org/2000/svg" viewBox="0 0 141.73 85.23"><defs><style>.cls-1,.cls-2{fill:#fff;}.cls-2{stroke:#fff;stroke-linejoin:round;stroke-width:4px;}.cls-3{fill:#b8d637;}.cls-4{fill:#78a9d1;}</style></defs><title>1</title><circle class="cls-1" cx="70.51" cy="28.31" r="20.84"/><path class="cls-2" d="M9.14,57.41h9.8a1,1,0,0,1,.89,1.37l-.41.95a1.84,1.84,0,0,1-1.69,1.11h-4.4v4.22h5.48a.5.5,0,0,1,.49.4,2.47,2.47,0,0,1-2.41,3H13.33v3.37a3.61,3.61,0,0,1-2.41,3.42l-.42.16a1,1,0,0,1-1.36-1Z"/><path class="cls-2" d="M33.93,68.31a6.73,6.73,0,0,1-7.08,7.16,6.56,6.56,0,0,1-6.93-6.91c0-4.34,2.85-7.1,7.15-7.1a6.52,6.52,0,0,1,6.86,6.85m-9.71.14c0,2.3,1,4,2.74,4,1.62,0,2.66-1.62,2.66-4,0-2-.77-4-2.66-4s-2.74,2-2.74,4"/><path class="cls-2" d="M49.08,68.31A6.73,6.73,0,0,1,42,75.47a6.56,6.56,0,0,1-6.93-6.91c0-4.34,2.85-7.1,7.15-7.1a6.52,6.52,0,0,1,6.86,6.85m-9.71.14c0,2.3,1,4,2.74,4,1.62,0,2.66-1.62,2.66-4,0-2-.76-4-2.66-4s-2.74,2-2.74,4"/><path class="cls-2" d="M63.23,55.7V71.16a6.59,6.59,0,0,0,.25,1.65,1.88,1.88,0,0,1-1.83,2.35h-2l-.19-2h-.06a4.67,4.67,0,0,1-4.19,2.28c-3.18,0-5.73-2.72-5.73-6.89,0-4.52,2.79-7.12,6-7.12A4.08,4.08,0,0,1,59,63h.05V59a3,3,0,0,1,2.52-3ZM59.06,67.43a6.13,6.13,0,0,0-.05-.74,2.5,2.5,0,0,0-2.44-2c-1.89,0-2.88,1.7-2.88,3.81,0,2.27,1.12,3.7,2.85,3.7a2.43,2.43,0,0,0,2.41-2,3.29,3.29,0,0,0,.11-1Z"/><path class="cls-2" d="M65.8,71.52a8.2,8.2,0,0,0,3.59,1c1.26,0,1.78-.44,1.78-1.12s-.41-1-2-1.54c-2.77-.93-3.84-2.44-3.81-4,0-2.49,2.13-4.38,5.45-4.38a10.36,10.36,0,0,1,1.62.12,2.07,2.07,0,0,1,1.67,2.57l-.24.95A6.62,6.62,0,0,0,71,64.33c-1,0-1.59.42-1.59,1.1s.52,1,2.16,1.54c2.55.87,3.62,2.16,3.65,4.14,0,2.49-2,4.33-5.81,4.33a11.17,11.17,0,0,1-2.32-.24,2.06,2.06,0,0,1-1.56-2.52Z"/><path class="cls-2" d="M86.66,72.5a2.49,2.49,0,0,1-2.24,2.89c-.36,0-.73,0-1.12,0-4.33,0-7.1-2.63-7.1-6.86,0-3.92,2.69-7.12,7.68-7.12.33,0,.66,0,1,0A2.05,2.05,0,0,1,86.64,64l-.24,1.1a5.67,5.67,0,0,0-2.33-.41,3.76,3.76,0,0,0,.08,7.52,6.36,6.36,0,0,0,2.39-.42Z"/><path class="cls-2" d="M96.32,75.16l-.25-1.34H96a4.84,4.84,0,0,1-3.84,1.65,4.12,4.12,0,0,1-4.33-4.12c0-3.48,3.12-5.15,7.87-5.12V66c0-.71-.39-1.72-2.44-1.72a7.5,7.5,0,0,0-3.7,1l-.77-2.69A11.09,11.09,0,0,1,94,61.46c4.47,0,5.89,2.63,5.89,5.78V71.9a2.27,2.27,0,0,0,.27,1,1.57,1.57,0,0,1-1.42,2.26Zm-.5-6.33c-2.19,0-3.89.49-3.89,2.11a1.5,1.5,0,0,0,1.65,1.59A2.26,2.26,0,0,0,95.74,71a2.79,2.79,0,0,0,.08-.72Z"/><path class="cls-2" d="M102.42,66.25c0-1.75,0-2.51-.11-3.74l1.44-.89a1.52,1.52,0,0,1,2.33,1.2l0,.8h.06a5.12,5.12,0,0,1,4.47-2.16c2.93,0,5.56,2.54,5.56,6.82,0,4.88-3.1,7.19-6.09,7.19a4.18,4.18,0,0,1-3.48-1.54h0v5.16l-1.75.63a1.81,1.81,0,0,1-2.42-1.7Zm4.17,3.16a4.37,4.37,0,0,0,.08.87,2.51,2.51,0,0,0,2.44,2c1.81,0,2.88-1.51,2.88-3.79,0-2.13-1-3.75-2.82-3.75a2.62,2.62,0,0,0-2.5,2.11,3.5,3.5,0,0,0-.08.74Z"/><path class="cls-2" d="M121.67,69.79a.26.26,0,0,0-.27.31c.3,1.52,1.91,2.24,3.74,2.24a2.5,2.5,0,0,0,1.49-.27.89.89,0,0,1,1.11.28l.48.65a1.41,1.41,0,0,1-.9,2.2,15.5,15.5,0,0,1-2.79.24c-4.55,0-7.15-2.63-7.15-6.83,0-3.4,2.11-7.15,6.77-7.15,4.33,0,6,3.37,6,6.69,0,.61-1.6,1.24-2.2,1.53a1.17,1.17,0,0,1-.49.11ZM126,66.94a.28.28,0,0,0,.27-.3,2.34,2.34,0,0,0-2.35-2.42,2.64,2.64,0,0,0-2.53,2.41.27.27,0,0,0,.27.31Z"/><path class="cls-2" d="M130,62.53a1.53,1.53,0,0,1,0-2.15,1.52,1.52,0,0,1,2.16,0,1.51,1.51,0,0,1,0,2.15,1.52,1.52,0,0,1-2.16,0m.15-2a1.32,1.32,0,0,0,.94,2.24,1.32,1.32,0,1,0,0-2.63,1.28,1.28,0,0,0-.94.39m.73,1.39a1,1,0,0,0,0,.22.14.14,0,0,0,.07,0l.07,0s0,0,0,0v0h-.68V62.2l.09,0s.06,0,.06,0a.75.75,0,0,0,0-.2V61a.91.91,0,0,0,0-.21l-.06,0-.09,0v-.08H131a.85.85,0,0,1,.38.09.35.35,0,0,1,.17.32.58.58,0,0,1-.06.26.43.43,0,0,1-.18.15,0,0,0,0,0,0,0,1.47,1.47,0,0,0,.33.51.36.36,0,0,0,.26.16.06.06,0,0,1,0,0,0,0,0,0,1,0,0h-.06a.8.8,0,0,1-.67-.38s-.07-.11-.11-.17L131,61.6l-.06-.06h0s0,0,0,0Zm.18-.5a.22.22,0,0,0,.15-.08.36.36,0,0,0,.06-.22.38.38,0,0,0-.06-.24.19.19,0,0,0-.16-.09l-.15,0s0,0,0,0a1.22,1.22,0,0,0,0,.22v.29a.09.09,0,0,0,0,.06l.05,0h.1Z"/><path class="cls-2" d="M63,28.21h-.07l.18.41c0-.13,0-.27,0-.41H63M70.86,5.4A23.4,23.4,0,0,0,54.54,45.57,23.67,23.67,0,0,0,63,49.64a3.87,3.87,0,0,0,4.47-2.31,5.55,5.55,0,0,0,.28-1.17,4.94,4.94,0,0,0-.27-1.95,13,13,0,0,0-3-5,25.67,25.67,0,0,0-4.91-3.87,22,22,0,0,1,4.9,2.5,28.15,28.15,0,0,1-3-11.59,37.31,37.31,0,0,0,5.76,14,15.08,15.08,0,0,1,1.29,1.53.77.77,0,0,0,0-.15,15.52,15.52,0,0,1,.76-3.09c-.21-.59-.46-1.2-.74-1.83a27,27,0,0,0-3-4.95,2.61,2.61,0,0,1,.11.64,3.32,3.32,0,0,1-3-3.91c0-.15.07-.25.2-.27a11.28,11.28,0,0,0-5.38-5.51c1.78,1,3.67,4.4,3.77,6.72C56.2,29,51.87,24.11,53.05,19c.11-.47.22-.78.71-.76a10.14,10.14,0,0,1,6.82,2.62,7.18,7.18,0,0,0,1.6,2.33,11.87,11.87,0,0,1,.92,5c1.88.17,3.38,1.25,3.23,3.89a4.14,4.14,0,0,0-2-2.22,3.21,3.21,0,0,1,1.12,1.55,23.65,23.65,0,0,1,3.26,3.32c.27.34.54.7.81,1.07,0-1.47.16-2.9.3-4.25-.12-.44-.25-.89-.4-1.35A25.94,25.94,0,0,0,66.8,24.6a18,18,0,0,1,3,4c.12.21.23.41.34.63a67.1,67.1,0,0,1,1.3-6.93,62.08,62.08,0,0,0-.32,12.66,19.66,19.66,0,0,1,5.34-5.46,25.42,25.42,0,0,0-5.09,7.94c.16,1.31.36,2.5.58,3.58h0a21.59,21.59,0,0,1,6.43-8.68,8.52,8.52,0,0,1-3.26.19c.56-2.12,3-4.91,4.85-5.46a10.65,10.65,0,0,0-6.34,4.37c1.23-6.84,5.79-8.59,10.73-7.76.46.08.5.4.5.85a7.28,7.28,0,0,1-1.11,4l.52-.29-.6.42h0A26.74,26.74,0,0,0,80,31.73a28.3,28.3,0,0,0-4.1,5.4,19.87,19.87,0,0,1,6.42-2.9,8,8,0,0,1,4.52-2,9.72,9.72,0,0,0-6.73,1.94c3-5.55,7.47-5.73,11.5-3.59.37.2.32.48.19.88-1.38,4.3-6.77,6.05-10.72,4.09a6.06,6.06,0,0,1,1.15-1.26,25.79,25.79,0,0,0-4.4,2.78,12.24,12.24,0,0,0-5,8.24,4.8,4.8,0,0,0,0,.83,4.62,4.62,0,0,0,.33,1.17,4.18,4.18,0,0,0,3.47,2.39,4.72,4.72,0,0,0,1.4-.08,26.85,26.85,0,0,0,9.13-4A23.4,23.4,0,0,0,70.86,5.4M57.18,30a8.41,8.41,0,0,0,2.58,1.55,7.54,7.54,0,0,1,2.3,3.78c-1.89.23-4.9-.84-5.93-2.15a9.21,9.21,0,0,0,5.52,3.7C55.77,38,52.93,34.93,52,30.71c-.09-.4.15-.53.51-.68A6.39,6.39,0,0,1,57.18,30M79.61,13.42c.17,0,.3-.05.36.12.75,1.79.48,3.67-2,4.73a4.11,4.11,0,0,0,1.1-2.78,3.54,3.54,0,0,1-1.64,2.31,3.29,3.29,0,0,1,2.18-4.38m-18-2c0-.17.08-.29.27-.27,1.94.13,3.5,1.2,3.35,3.9a4.21,4.21,0,0,0-2-2.23,3.63,3.63,0,0,1,1.34,2.51,3.31,3.31,0,0,1-3-3.91m6.82,13.79c-1.74-.75-3.81-3.2-4-4.85a9.14,9.14,0,0,0,2.9,6c-5.68-1.94-6.58-6.05-5.23-10.16.13-.38.4-.37.79-.32,4.25.59,6.76,5.34,5.57,9.35M67.86,10c.18-.23.36-.16.6,0,2.69,1.45,3.18,5.22,1.4,7.59a5.66,5.66,0,0,1-1.49-4.21A6.5,6.5,0,0,0,68.83,18c-3.3-2.69-2.88-5.65-1-8m4,16.05c-.55-1.92.08-5.24,1.27-6.52a9.72,9.72,0,0,0-3,6.36c-2.2-5.93.57-9.41,4.82-11,.39-.15.57.07.79.42,2.35,3.87.14,9.08-3.93,10.78m5-2.2a5.79,5.79,0,0,0,3-3,5.07,5.07,0,0,1-3.46,2.05,4.69,4.69,0,0,1,5.35-4.43c.24.05.41.11.4.36-.06,2.76-1.48,5-5.31,5M62.91,28.22l.18.41c0-.13,0-.27,0-.41h-.19"/><path class="cls-2" d="M66.89,42.78A19.3,19.3,0,0,0,54,45.07s8.3,6.69,12,4c0,0,3.14-1.95.82-6.27"/><path class="cls-2" d="M73.15,43.88s4.44-4.44,18.28-3.9c0,0-3.15,4.9-4.28,5.63,0,0-6.15,3.86-9.91,4.13,0,0-5.56.2-4.09-5.86"/><path class="cls-3" d="M9.14,57.41h9.8a1,1,0,0,1,.89,1.37l-.41.95a1.84,1.84,0,0,1-1.69,1.11h-4.4v4.22h5.48a.5.5,0,0,1,.49.4,2.47,2.47,0,0,1-2.41,3H13.33v3.37a3.61,3.61,0,0,1-2.41,3.42l-.42.16a1,1,0,0,1-1.36-1Z"/><path class="cls-3" d="M33.93,68.31a6.73,6.73,0,0,1-7.08,7.16,6.56,6.56,0,0,1-6.93-6.91c0-4.34,2.85-7.1,7.15-7.1a6.52,6.52,0,0,1,6.86,6.85m-9.71.14c0,2.3,1,4,2.74,4,1.62,0,2.66-1.62,2.66-4,0-2-.77-4-2.66-4s-2.74,2-2.74,4"/><path class="cls-3" d="M49.08,68.31A6.73,6.73,0,0,1,42,75.47a6.56,6.56,0,0,1-6.93-6.91c0-4.34,2.85-7.1,7.15-7.1a6.52,6.52,0,0,1,6.86,6.85m-9.71.14c0,2.3,1,4,2.74,4,1.62,0,2.66-1.62,2.66-4,0-2-.76-4-2.66-4s-2.74,2-2.74,4"/><path class="cls-3" d="M63.23,55.7V71.16a6.59,6.59,0,0,0,.25,1.65,1.88,1.88,0,0,1-1.83,2.35h-2l-.19-2h-.06a4.67,4.67,0,0,1-4.19,2.28c-3.18,0-5.73-2.72-5.73-6.89,0-4.52,2.79-7.12,6-7.12A4.08,4.08,0,0,1,59,63h.05V59a3,3,0,0,1,2.52-3ZM59.06,67.43a6.13,6.13,0,0,0-.05-.74,2.5,2.5,0,0,0-2.44-2c-1.89,0-2.88,1.7-2.88,3.81,0,2.27,1.12,3.7,2.85,3.7a2.43,2.43,0,0,0,2.41-2,3.29,3.29,0,0,0,.11-1Z"/><path class="cls-3" d="M65.8,71.52a8.2,8.2,0,0,0,3.59,1c1.26,0,1.78-.44,1.78-1.12s-.41-1-2-1.54c-2.77-.93-3.84-2.44-3.81-4,0-2.49,2.13-4.38,5.45-4.38a10.36,10.36,0,0,1,1.62.12,2.07,2.07,0,0,1,1.67,2.57l-.24.95A6.62,6.62,0,0,0,71,64.33c-1,0-1.59.42-1.59,1.1s.52,1,2.16,1.54c2.55.87,3.62,2.16,3.65,4.14,0,2.49-2,4.33-5.81,4.33a11.17,11.17,0,0,1-2.32-.24,2.06,2.06,0,0,1-1.56-2.52Z"/><path class="cls-3" d="M86.66,72.5a2.49,2.49,0,0,1-2.24,2.89c-.36,0-.73,0-1.12,0-4.33,0-7.1-2.63-7.1-6.86,0-3.92,2.69-7.12,7.68-7.12.33,0,.66,0,1,0A2.05,2.05,0,0,1,86.64,64l-.24,1.1a5.67,5.67,0,0,0-2.33-.41,3.76,3.76,0,0,0,.08,7.52,6.36,6.36,0,0,0,2.39-.42Z"/><path class="cls-3" d="M96.32,75.16l-.25-1.34H96a4.84,4.84,0,0,1-3.84,1.65,4.12,4.12,0,0,1-4.33-4.12c0-3.48,3.12-5.15,7.87-5.12V66c0-.71-.39-1.72-2.44-1.72a7.5,7.5,0,0,0-3.7,1l-.77-2.69A11.09,11.09,0,0,1,94,61.46c4.47,0,5.89,2.63,5.89,5.78V71.9a2.27,2.27,0,0,0,.27,1,1.57,1.57,0,0,1-1.42,2.26Zm-.5-6.33c-2.19,0-3.89.49-3.89,2.11a1.5,1.5,0,0,0,1.65,1.59A2.26,2.26,0,0,0,95.74,71a2.79,2.79,0,0,0,.08-.72Z"/><path class="cls-3" d="M102.42,66.25c0-1.75,0-2.51-.11-3.74l1.44-.89a1.52,1.52,0,0,1,2.33,1.2l0,.8h.06a5.12,5.12,0,0,1,4.47-2.16c2.93,0,5.56,2.54,5.56,6.82,0,4.88-3.1,7.19-6.09,7.19a4.18,4.18,0,0,1-3.48-1.54h0v5.16l-1.75.63a1.81,1.81,0,0,1-2.42-1.7Zm4.17,3.16a4.37,4.37,0,0,0,.08.87,2.51,2.51,0,0,0,2.44,2c1.81,0,2.88-1.51,2.88-3.79,0-2.13-1-3.75-2.82-3.75a2.62,2.62,0,0,0-2.5,2.11,3.5,3.5,0,0,0-.08.74Z"/><path class="cls-3" d="M121.67,69.79a.26.26,0,0,0-.27.31c.3,1.52,1.91,2.24,3.74,2.24a2.5,2.5,0,0,0,1.49-.27.89.89,0,0,1,1.11.28l.48.65a1.41,1.41,0,0,1-.9,2.2,15.5,15.5,0,0,1-2.79.24c-4.55,0-7.15-2.63-7.15-6.83,0-3.4,2.11-7.15,6.77-7.15,4.33,0,6,3.37,6,6.69,0,.61-1.6,1.24-2.2,1.53a1.17,1.17,0,0,1-.49.11ZM126,66.94a.28.28,0,0,0,.27-.3,2.34,2.34,0,0,0-2.35-2.42,2.64,2.64,0,0,0-2.53,2.41.27.27,0,0,0,.27.31Z"/><path class="cls-3" d="M130,62.53a1.53,1.53,0,0,1,0-2.15,1.52,1.52,0,0,1,2.16,0,1.51,1.51,0,0,1,0,2.15,1.52,1.52,0,0,1-2.16,0m.15-2a1.32,1.32,0,0,0,.94,2.24,1.32,1.32,0,1,0,0-2.63,1.28,1.28,0,0,0-.94.39m.73,1.39a1,1,0,0,0,0,.22.14.14,0,0,0,.07,0l.07,0s0,0,0,0v0h-.68V62.2l.09,0s.06,0,.06,0a.75.75,0,0,0,0-.2V61a.91.91,0,0,0,0-.21l-.06,0-.09,0v-.08H131a.85.85,0,0,1,.38.09.35.35,0,0,1,.17.32.58.58,0,0,1-.06.26.43.43,0,0,1-.18.15,0,0,0,0,0,0,0,1.47,1.47,0,0,0,.33.51.36.36,0,0,0,.26.16.06.06,0,0,1,0,0,0,0,0,0,1,0,0h-.06a.8.8,0,0,1-.67-.38s-.07-.11-.11-.17L131,61.6l-.06-.06h0s0,0,0,0Zm.18-.5a.22.22,0,0,0,.15-.08.36.36,0,0,0,.06-.22.38.38,0,0,0-.06-.24.19.19,0,0,0-.16-.09l-.15,0s0,0,0,0a1.22,1.22,0,0,0,0,.22v.29a.09.09,0,0,0,0,.06l.05,0h.1Z"/><path class="cls-3" d="M63,28.21h-.07l.18.41c0-.13,0-.27,0-.41H63M70.86,5.4A23.4,23.4,0,0,0,54.54,45.57,23.67,23.67,0,0,0,63,49.64a3.87,3.87,0,0,0,4.47-2.31,5.55,5.55,0,0,0,.28-1.17,4.94,4.94,0,0,0-.27-1.95,13,13,0,0,0-3-5,25.67,25.67,0,0,0-4.91-3.87,22,22,0,0,1,4.9,2.5,28.15,28.15,0,0,1-3-11.59,37.31,37.31,0,0,0,5.76,14,15.08,15.08,0,0,1,1.29,1.53.77.77,0,0,0,0-.15,15.52,15.52,0,0,1,.76-3.09c-.21-.59-.46-1.2-.74-1.83a27,27,0,0,0-3-4.95,2.61,2.61,0,0,1,.11.64,3.32,3.32,0,0,1-3-3.91c0-.15.07-.25.2-.27a11.28,11.28,0,0,0-5.38-5.51c1.78,1,3.67,4.4,3.77,6.72C56.2,29,51.87,24.11,53.05,19c.11-.47.22-.78.71-.76a10.14,10.14,0,0,1,6.82,2.62,7.18,7.18,0,0,0,1.6,2.33,11.87,11.87,0,0,1,.92,5c1.88.17,3.38,1.25,3.23,3.89a4.14,4.14,0,0,0-2-2.22,3.21,3.21,0,0,1,1.12,1.55,23.65,23.65,0,0,1,3.26,3.32c.27.34.54.7.81,1.07,0-1.47.16-2.9.3-4.25-.12-.44-.25-.89-.4-1.35A25.94,25.94,0,0,0,66.8,24.6a18,18,0,0,1,3,4c.12.21.23.41.34.63a67.1,67.1,0,0,1,1.3-6.93,62.08,62.08,0,0,0-.32,12.66,19.66,19.66,0,0,1,5.34-5.46,25.42,25.42,0,0,0-5.09,7.94c.16,1.31.36,2.5.58,3.58h0a21.59,21.59,0,0,1,6.43-8.68,8.52,8.52,0,0,1-3.26.19c.56-2.12,3-4.91,4.85-5.46a10.65,10.65,0,0,0-6.34,4.37c1.23-6.84,5.79-8.59,10.73-7.76.46.08.5.4.5.85a7.28,7.28,0,0,1-1.11,4l.52-.29-.6.42h0A26.74,26.74,0,0,0,80,31.73a28.3,28.3,0,0,0-4.1,5.4,19.87,19.87,0,0,1,6.42-2.9,8,8,0,0,1,4.52-2,9.72,9.72,0,0,0-6.73,1.94c3-5.55,7.47-5.73,11.5-3.59.37.2.32.48.19.88-1.38,4.3-6.77,6.05-10.72,4.09a6.06,6.06,0,0,1,1.15-1.26,25.79,25.79,0,0,0-4.4,2.78,12.24,12.24,0,0,0-5,8.24,4.8,4.8,0,0,0,0,.83,4.62,4.62,0,0,0,.33,1.17,4.18,4.18,0,0,0,3.47,2.39,4.72,4.72,0,0,0,1.4-.08,26.85,26.85,0,0,0,9.13-4A23.4,23.4,0,0,0,70.86,5.4M57.18,30a8.41,8.41,0,0,0,2.58,1.55,7.54,7.54,0,0,1,2.3,3.78c-1.89.23-4.9-.84-5.93-2.15a9.21,9.21,0,0,0,5.52,3.7C55.77,38,52.93,34.93,52,30.71c-.09-.4.15-.53.51-.68A6.39,6.39,0,0,1,57.18,30M79.61,13.42c.17,0,.3-.05.36.12.75,1.79.48,3.67-2,4.73a4.11,4.11,0,0,0,1.1-2.78,3.54,3.54,0,0,1-1.64,2.31,3.29,3.29,0,0,1,2.18-4.38m-18-2c0-.17.08-.29.27-.27,1.94.13,3.5,1.2,3.35,3.9a4.21,4.21,0,0,0-2-2.23,3.63,3.63,0,0,1,1.34,2.51,3.31,3.31,0,0,1-3-3.91m6.82,13.79c-1.74-.75-3.81-3.2-4-4.85a9.14,9.14,0,0,0,2.9,6c-5.68-1.94-6.58-6.05-5.23-10.16.13-.38.4-.37.79-.32,4.25.59,6.76,5.34,5.57,9.35M67.86,10c.18-.23.36-.16.6,0,2.69,1.45,3.18,5.22,1.4,7.59a5.66,5.66,0,0,1-1.49-4.21A6.5,6.5,0,0,0,68.83,18c-3.3-2.69-2.88-5.65-1-8m4,16.05c-.55-1.92.08-5.24,1.27-6.52a9.72,9.72,0,0,0-3,6.36c-2.2-5.93.57-9.41,4.82-11,.39-.15.57.07.79.42,2.35,3.87.14,9.08-3.93,10.78m5-2.2a5.79,5.79,0,0,0,3-3,5.07,5.07,0,0,1-3.46,2.05,4.69,4.69,0,0,1,5.35-4.43c.24.05.41.11.4.36-.06,2.76-1.48,5-5.31,5M62.91,28.22l.18.41c0-.13,0-.27,0-.41h-.19"/><path class="cls-4" d="M66.89,42.78A19.3,19.3,0,0,0,54,45.07s8.3,6.69,12,4c0,0,3.14-1.95.82-6.27"/><path class="cls-4" d="M73.15,43.88s4.44-4.44,18.28-3.9c0,0-3.15,4.9-4.28,5.63,0,0-6.15,3.86-9.91,4.13,0,0-5.56.2-4.09-5.86"/></svg>