<svg id="Layer_1" data-name="Layer 1" xmlns="http://www.w3.org/2000/svg" viewBox="0 0 2916.26 765.41"><defs><style>.cls-1{fill:#5d4319;}.cls-2{fill:none;}.cls-3{fill:#f8b916;}.cls-4{fill:#fff;}</style></defs><polygon class="cls-1" points="2858.19 74 2820.36 75.6 2782.39 75.92 2744.5 77.72 2706.69 81.09 2668.71 80.98 2630.78 81.89 2592.85 83.31 2555.01 86.51 2517.02 86.24 2479.09 87.47 2441.15 88.64 2403.23 90.17 2365.26 90.23 2327.37 92.55 2289.42 92.14 2251.51 92.94 2213.61 94.71 2175.69 95.83 2137.76 97.16 2099.81 98.06 2061.82 97.46 2023.87 98.25 1985.93 98.74 1947.99 99.59 1910.08 101.72 1872.11 100.64 1834.17 102.09 1796.2 101.75 1758.25 103.09 1720.27 102.73 1682.32 104.96 1644.33 103.38 1606.38 104.63 1568.39 105.21 1530.43 105.31 1492.46 103.51 1454.43 104.01 1416.45 104.67 1378.46 105.61 1340.47 104.4 1302.51 103.56 1264.56 102.9 1226.58 103.83 1188.61 103.84 1150.63 104.3 1112.68 103.04 1074.73 101.48 1036.74 102.02 998.76 102.34 960.8 101.5 922.89 98.9 884.88 100.4 846.95 98.48 809 97.92 771.08 96.32 733.14 95.66 695.19 95.23 657.23 94.92 619.33 92.84 581.35 92.96 543.42 91.54 505.5 90.16 467.57 89.32 429.68 87.34 391.73 86.74 353.77 86.69 315.87 85.14 277.95 84.13 240.09 81.72 202.19 79.63 164.21 79.57 126.34 77.93 88.45 76.48 50.76 74.76 47.82 109.1 45.07 143.49 43.31 177.94 41.9 212.38 40.05 246.84 35.7 281.19 34.73 315.56 78.12 316.47 121.62 318.82 165.95 320.7 132.32 326.62 100.11 334.13 66.93 337.61 34.4 344.43 37.68 373.1 38.6 401.75 80.37 411.08 36.04 417.08 34.32 450.44 34.47 484.63 35.59 518.46 74.96 525.96 115.61 531.46 75.06 536.8 34.04 539.86 36.05 574.8 40.74 609.08 42.24 643.53 44.98 677.93 48.76 712.3 49.74 747.11 88.58 745.06 126.46 743.1 164.41 742.56 202.33 741.38 240.26 740.86 278.16 739.24 316.04 736.86 353.97 735.71 391.92 735.05 429.82 733.09 467.83 734.08 505.77 733.11 543.7 732.23 581.6 730.35 619.53 730.38 657.38 727.55 695.31 726.9 733.25 726.36 771.2 725.76 809.17 725.88 847.12 725.38 885.05 723.64 923.01 724.16 960.91 721.97 998.85 721.27 1036.82 722.5 1074.74 720.23 1112.72 721.58 1150.67 720.34 1188.64 720.41 1226.6 719.12 1264.58 720.43 1302.53 719.85 1340.5 718.13 1378.46 718.24 1416.46 718.6 1454.46 718.74 1492.57 719.05 1530.67 719.28 1568.74 718.17 1606.8 720.24 1644.88 719.59 1682.96 719.32 1721.02 720.63 1759.11 719.58 1797.16 721.77 1835.23 722.17 1873.3 722.9 1911.39 722.32 1949.44 723.81 1987.52 723.95 2025.61 723.59 2063.67 724.2 2101.73 724.73 2139.77 726.02 2177.78 728.02 2215.85 727.52 2253.91 728.2 2291.95 729.18 2330.03 729.54 2368.01 732.38 2406.07 732.59 2444.12 733.03 2482.14 734.43 2520.16 736.01 2558.19 736.81 2596.19 738.71 2634.24 738.96 2672.26 740.17 2710.31 741.39 2748.38 741.75 2786.37 743.12 2824.31 745.48 2862.95 747.03 2865.23 713.34 2867.97 679.88 2873.41 646.64 2874.57 613.05 2878.43 579.64 2882.22 546.31 2842 535.4 2879.14 524.87 2880.76 492.51 2842.78 490.61 2805.45 487.75 2767.89 487.22 2730.49 484.51 2694.47 481.44 2730.55 481.57 2767.9 479.83 2805.26 477.43 2842.7 476.71 2880.7 477.06 2880.39 444.44 2880.27 412.29 2879.87 380.11 2879.79 347.91 2879.36 316.3 2846.5 314.79 2812.98 311.76 2780.05 309.82 2813.14 305.88 2847.2 304.25 2881.78 301.39 2876.42 268.63 2875.69 236.03 2870.47 203.76 2868.95 171.23 2863.91 138.94 2862.66 106.34 2858.19 74"/><path class="cls-2" d="M462.55,19a107.38,107.38,0,0,1-10.78,21.28A100.71,100.71,0,0,0,462.55,19Z"/><path class="cls-2" d="M380.92,86.74c7.36-5.19,18.79-10.23,30.62-16.18C400.07,76.25,388.92,81.1,380.92,86.74Z"/><path class="cls-2" d="M446.51,46.9a74.4,74.4,0,0,1-7.36,6.83A68.68,68.68,0,0,0,446.51,46.9Z"/><path class="cls-2" d="M293.26,212.31s1.24-5.1,3.59-12.85C294.45,207.28,293.26,212.31,293.26,212.31Z"/><path class="cls-3" d="M576,485.13c0-1.37,0-2.7-.06-4-.21-2.17-8.76-86.27-65.85-129.3-45.17-34.05-115-48.41-106.32-104.8,3.26-21.15,16.61-32,31.05-37.16A173.75,173.75,0,0,1,449,160c.94-2.27-.54-3.38-3.34-3.32-3.2.08-6.15.37-9.74.72-65.12,6.23-116.15,67.38-118.62,132.75-.88,23.19,5.63,49.86,17.69,70.17,1.59,2.68,3,5,4.39,7.23a105.42,105.42,0,0,1,21.75,26.22c10.53,18.61,16,36.5,14.81,58.56-1.07,20.3-4.77,37.16-5.5,37S368,474.62,357.36,445s-44.64-70-71.27-84.81c-14.5-8.07-32.77-16.28-49.46-17.78-1-.1-2.09-.16-3.14-.16H233c0-.05.1-.09.14-.14l-.14,0a2.4,2.4,0,0,0,.54,2.86l3.9,3.5.37.37a77.39,77.39,0,0,1,19.48,36.32c4.83,20.94-5.73,53-9.33,73.08h.44c-1.73,5.75-2.64,15.92-2.64,26.92A165.11,165.11,0,0,0,350.39,638.8a100.49,100.49,0,0,0,11.75,3.73,98.93,98.93,0,0,0,122.31-98.36S502.9,573,500,597c-1.32,11-4.17,20.1-8.73,28.26,0,.08,0,.15-.08.23-1.66,3-2.13,4.83,2.87,2.3A165,165,0,0,0,576,485.13Z"/><path class="cls-4" d="M403.78,247c-8.71,56.39,61.15,70.75,106.32,104.8,57.09,43,65.64,127.13,65.85,129.3,0,0,0,.1,0,.1C576,374,525.31,329.29,469.47,289.79c-34.69-24.54-19.32-68.65,7.09-78,1.82-.64,1.49-2.64-.44-3.23-5.85-1.8-24.74-4.65-41.29,1.32C420.39,215.07,407,225.88,403.78,247Z"/><path class="cls-4" d="M233.49,342.25c1,0,2.09.06,3.14.16,16.69,1.5,35,9.71,49.46,17.78C312.72,375,346.77,415.38,357.36,445s12.34,44.22,13.06,44.36,4.43-16.71,5.5-37c1.15-22.06-4.28-40-14.81-58.56a105.42,105.42,0,0,0-21.75-26.22,112,112,0,0,0-52.09-26c-15.22-3.09-32.72-4.49-47.09-1.76l-.71.14-4.83,1.17a2.75,2.75,0,0,0-1.51,1s-.1.09-.14.14Z"/><path class="cls-3" d="M293.26,212.31s1.19-5,3.59-12.85c4.52-14.94,13.19-39.74,25.11-56.88,14.32-20.59,23.35-30.73,59-55.84,8-5.64,19.15-10.49,30.62-16.18,9.6-4.82,19.46-10.24,27.61-16.83a74.4,74.4,0,0,0,7.36-6.83,59.2,59.2,0,0,0,5.26-6.66A107.38,107.38,0,0,0,462.55,19a2.51,2.51,0,0,0-3.77.44S453,26.83,438,34.27c-22,10.86-50.1,10.13-84.34,37.91-12.2,9.9-26.32,24.49-40.33,56.66-18.29,42-21.51,80.3-21.51,80.3A2.66,2.66,0,0,0,293.26,212.31Z"/><path class="cls-4" d="M446.51,46.9a68.68,68.68,0,0,1-7.36,6.83c-8.15,6.59-18,12-27.61,16.83-11.83,6-23.26,11-30.62,16.18-35.61,25.11-44.64,35.25-59,55.84-11.92,17.14-20.59,41.94-25.11,56.88-2.35,7.75-3.59,12.85-3.59,12.85a2.67,2.67,0,0,0,3.36-.83l36-40.67c29.19-33.28,75.42-47.65,94.43-62.16,17.08-13,23.54-21.93,29.93-39.52,6.67-18.36,6.33-47.66,6.33-47.66l0-.45a2.45,2.45,0,0,0-.82-2.06,100.71,100.71,0,0,1-10.78,21.28A59.2,59.2,0,0,1,446.51,46.9Z"/><path class="cls-3" d="M1286,583.43c-40.61.16-75.64-14.18-104.47-43C1152.72,511.74,1138,477.1,1138,436.49V269.32c0-5.12,2.09-8.46,5.66-12s8.37-4.35,13.33-4.35h55.57c5.11,0,8.2.79,11.76,4.35s4.1,6.91,4.1,12V436.49c0,15.19,6.68,28.13,17.53,38.83s24.49,16,39.68,15.81c15-.31,27.32-5.89,37.71-16.74,10.38-10.7,15.15-23.56,15.15-38.6V269.32c0-5.12,2.6-8.46,6.32-12,3.56-3.56,8.65-4.35,13.76-4.35h55.34c5.11,0,7.77.79,11.33,4.35s3.66,6.91,3.66,12V435.09c0,40.77-12.57,75.64-41.09,104.63S1326.47,583.28,1286,583.43Z"/><path class="cls-3" d="M1933.68,252.94c5.11,0,9.11.79,12.68,4.35a15.31,15.31,0,0,1,5,12V565.06a17.63,17.63,0,0,1-5,12.89,16.87,16.87,0,0,1-12.68,5.2h-55.57c-5,0-10.66-1.64-14.38-5.2-3.57-3.72-6.71-7.93-6.71-12.89V269.32c0-5.12,3.14-8.46,6.71-12,3.72-3.56,9.42-4.35,14.38-4.35Z"/><path class="cls-3" d="M2135,583.15a18.24,18.24,0,0,1-13.08-5.2,18,18,0,0,1-5.42-12.89V347.9c0-3.1-1.41-4.55-4.51-4.55h-78.59A19.15,19.15,0,0,1,2020,338a18.18,18.18,0,0,1-5.72-13.07V269.32c0-5.12,2.15-8.46,5.72-12,3.72-3.56,8.43-4.35,13.39-4.35h258.78c5.11,0,8.74.79,12.31,4.35s4.63,6.91,4.63,12v55.57c0,5.11-1.07,9.5-4.63,13.07s-7.2,5.39-12.31,5.39h-78.59c-3.1,0-6.67,1.45-6.67,4.55V565.06c0,5-.77,9.17-4.34,12.89-3.56,3.56-6.89,5.2-12,5.2Z"/><path class="cls-3" d="M2518.64,588.08q-70.76,0-120.7-50.19-50.19-50-50.19-120.7t50.19-120.7q49.95-50.19,120.7-50.19t120.7,50.19q50.19,50,50.19,120.7t-50.19,120.7Q2589.38,588.08,2518.64,588.08Zm0-246.89q-31.32,0-53.78,22.22-22.23,22.47-22.23,53.78T2464.86,471q22.47,22.23,53.78,22.23T2572.41,471q22.23-22.47,22.23-53.78t-22.23-53.78Q2550,341.2,2518.64,341.19Z"/><path class="cls-3" d="M875.91,565.06c0,5-1,9.17-4.56,12.89a15.87,15.87,0,0,1-12.22,5.2H803.56a19.72,19.72,0,0,1-13.71-5.2c-3.56-3.72-6-7.93-6-12.89V269.32c0-5.12,2.47-8.46,6-12,3.72-3.56,8.75-4.35,13.71-4.35h55.57c5.11,0,7.82.79,11.39,4.35s3.72,6.91,3.72,12v85.32c0,2.17,2.63,3.56,4.65,4.18a5.51,5.51,0,0,0,5.93-1.16L972.18,258c3.57-4,8.55-5.05,14.13-5.05h74.86c7.91,0,13.49,2.65,16.74,9.93,3.26,7.44,2.17,13.61-3.25,19.5L962.05,409.7a4.3,4.3,0,0,0-.7,5.45l.75.76,120.61,136.63c5.42,5.89,6.51,12.4,3.25,19.84s-8.83,10.77-16.74,10.77H994.36a17.36,17.36,0,0,1-13.72-5.9L885.55,467.76c-1.4-1.55-4.69-1.9-6.7-1.13s-4.61,2.05-4.61,4.22v85.32Z"/><path class="cls-3" d="M1590.45,565.06a17.64,17.64,0,0,1-5,12.89,16.9,16.9,0,0,1-12.7,5.2h-55.56c-5,0-11-1.64-14.74-5.2-3.57-3.72-7.07-7.93-7.07-12.89V269.32c0-5.12,3.5-8.46,7.07-12s9.78-4.35,14.74-4.35h55.56c5.12,0,8.76.79,12.33,4.35s4.65,6.91,4.65,12v85.32c0,2.17,1.7,3.56,3.72,4.18a4.76,4.76,0,0,0,5.46-1.16L1686,258c3.57-4,8.31-5.05,13.89-5.05h74.87c7.91,0,13.49,2.65,16.74,9.93,3.26,7.44,2.17,13.61-3.25,19.5L1675.66,409.7a4.3,4.3,0,0,0-.7,5.45l.75.76,120.61,136.63c5.42,5.89,6.51,12.4,3.25,19.84s-8.83,10.77-16.74,10.77H1708a17.34,17.34,0,0,1-13.71-5.9l-95.1-109.49a5.25,5.25,0,0,0-5.77-1.13c-2,.62-3.67,2.05-3.67,4.22v85.32Z"/></svg>