<svg width="40" height="40" viewBox="0 0 40 40" fill="none" xmlns="http://www.w3.org/2000/svg">
<path d="M19.9999 19.1667C18.8949 19.1667 17.835 18.7277 17.0536 17.9463C16.2722 17.1649 15.8333 16.1051 15.8333 15C15.8333 13.895 16.2722 12.8352 17.0536 12.0538C17.835 11.2724 18.8949 10.8334 19.9999 10.8334C21.105 10.8334 22.1648 11.2724 22.9462 12.0538C23.7276 12.8352 24.1666 13.895 24.1666 15C24.1666 15.5472 24.0588 16.089 23.8494 16.5946C23.64 17.1001 23.3331 17.5594 22.9462 17.9463C22.5593 18.3332 22.1 18.6401 21.5944 18.8495C21.0889 19.0589 20.5471 19.1667 19.9999 19.1667ZM19.9999 3.33337C16.9057 3.33337 13.9383 4.56254 11.7503 6.75046C9.56242 8.93839 8.33325 11.9058 8.33325 15C8.33325 23.75 19.9999 36.6667 19.9999 36.6667C19.9999 36.6667 31.6666 23.75 31.6666 15C31.6666 11.9058 30.4374 8.93839 28.2495 6.75046C26.0616 4.56254 23.0941 3.33337 19.9999 3.33337Z" fill="#004F71"/>
</svg>
