<svg width="24" height="24" xmlns="http://www.w3.org/2000/svg">
 <title/>
 <desc/>

 <g>
  <title>background</title>
  <rect fill="none" id="canvas_background" height="402" width="582" y="-1" x="-1"/>
 </g>
 <g>
  <title>Layer 1</title>
  <path id="circle-arrow_back-previous-outline-stroke" fill="#a3accc" d="m8.916565,11.997635l3.035553,3.035538l-0.707123,0.707108l-4.242645,-4.242645l4.242645,-4.24263l0.707123,0.707108l-3.037109,3.037094l9.082642,0l0,0.998428l-9.081085,0zm15.083435,-0.497635c0,-6.351273 -5.148712,-11.5 -11.5,-11.5c-6.351288,0 -11.5,5.148727 -11.5,11.5c0,6.351273 5.148712,11.5 11.5,11.5c6.351288,0 11.5,-5.148727 11.5,-11.5zm-22,0c0,-5.798996 4.701019,-10.5 10.5,-10.5c5.798981,0 10.5,4.701004 10.5,10.5c0,5.798996 -4.701019,10.5 -10.5,10.5c-5.798981,0 -10.5,-4.701004 -10.5,-10.5z"/>
 </g>
</svg>