<svg width="40" height="40" viewBox="0 0 40 40" fill="none" xmlns="http://www.w3.org/2000/svg">
<path d="M11 18C13.3333 22.6667 17.3333 26.5 22 29L25.6667 25.3333C26.1667 24.8333 26.8333 24.6667 27.3333 25C29.1667 25.6667 31.1667 26 33.3333 26C34.3333 26 35 26.6667 35 27.6667V33.3333C35 34.3333 34.3333 35 33.3333 35C17.6667 35 5 22.3333 5 6.66667C5 5.66667 5.83333 5 6.66667 5H12.5C13.5 5 14.1667 5.66667 14.1667 6.66667C14.1667 8.66667 14.5 10.6667 15.1667 12.6667C15.3333 13.1667 15.1667 13.8333 14.8333 14.3333L11 18ZM23.3333 5C22.3333 5 21.6667 5.66667 21.6667 6.66667C21.6667 7.66667 22.3333 8.33333 23.3333 8.33333C24.3333 8.33333 25 7.66667 25 6.66667C25 5.66667 24.3333 5 23.3333 5ZM28.3333 5C27.3333 5 26.6667 5.66667 26.6667 6.66667C26.6667 7.66667 27.3333 8.33333 28.3333 8.33333C29.3333 8.33333 30 7.66667 30 6.66667C30 5.66667 29.3333 5 28.3333 5ZM33.3333 5C32.3333 5 31.6667 5.66667 31.6667 6.66667C31.6667 7.66667 32.3333 8.33333 33.3333 8.33333C34.3333 8.33333 35 7.66667 35 6.66667C35 5.66667 34.3333 5 33.3333 5ZM23.3333 10C22.3333 10 21.6667 10.6667 21.6667 11.6667C21.6667 12.6667 22.3333 13.3333 23.3333 13.3333C24.3333 13.3333 25 12.6667 25 11.6667C25 10.6667 24.3333 10 23.3333 10ZM28.3333 10C27.3333 10 26.6667 10.6667 26.6667 11.6667C26.6667 12.6667 27.3333 13.3333 28.3333 13.3333C29.3333 13.3333 30 12.6667 30 11.6667C30 10.6667 29.3333 10 28.3333 10ZM33.3333 10C32.3333 10 31.6667 10.6667 31.6667 11.6667C31.6667 12.6667 32.3333 13.3333 33.3333 13.3333C34.3333 13.3333 35 12.6667 35 11.6667C35 10.6667 34.3333 10 33.3333 10ZM23.3333 15C22.3333 15 21.6667 15.6667 21.6667 16.6667C21.6667 17.6667 22.3333 18.3333 23.3333 18.3333C24.3333 18.3333 25 17.6667 25 16.6667C25 15.6667 24.3333 15 23.3333 15ZM28.3333 15C27.3333 15 26.6667 15.6667 26.6667 16.6667C26.6667 17.6667 27.3333 18.3333 28.3333 18.3333C29.3333 18.3333 30 17.6667 30 16.6667C30 15.6667 29.3333 15 28.3333 15ZM33.3333 15C32.3333 15 31.6667 15.6667 31.6667 16.6667C31.6667 17.6667 32.3333 18.3333 33.3333 18.3333C34.3333 18.3333 35 17.6667 35 16.6667C35 15.6667 34.3333 15 33.3333 15Z" fill="#004F71"/>
</svg>
