<svg width="40" height="40" viewBox="0 0 40 40" fill="none" xmlns="http://www.w3.org/2000/svg">
<path d="M9.16659 11.6667C8.50354 11.6667 7.86766 11.4033 7.39882 10.9345C6.92998 10.4656 6.66659 9.82975 6.66659 9.16671C6.66659 8.50367 6.92998 7.86778 7.39882 7.39894C7.86766 6.9301 8.50354 6.66671 9.16659 6.66671C9.82963 6.66671 10.4655 6.9301 10.9344 7.39894C11.4032 7.86778 11.6666 8.50367 11.6666 9.16671C11.6666 9.82975 11.4032 10.4656 10.9344 10.9345C10.4655 11.4033 9.82963 11.6667 9.16659 11.6667ZM35.6833 19.3L20.6833 4.30004C20.0833 3.70004 19.2499 3.33337 18.3333 3.33337H6.66659C4.81659 3.33337 3.33325 4.81671 3.33325 6.66671V18.3334C3.33325 19.25 3.69992 20.0834 4.31659 20.6834L19.2999 35.6834C19.9166 36.2834 20.7499 36.6667 21.6666 36.6667C22.5833 36.6667 23.4166 36.2834 24.0166 35.6834L35.6833 24.0167C36.2999 23.4167 36.6666 22.5834 36.6666 21.6667C36.6666 20.7334 36.2833 19.9 35.6833 19.3Z" fill="#004F71"/>
</svg>
