<svg width="52" height="59" viewBox="0 0 52 59" fill="none" xmlns="http://www.w3.org/2000/svg">
<path d="M30.2157 54.5294C30.3137 54.5294 30.4117 54.6274 30.4117 54.7255C30.4117 54.8235 30.4117 55.0196 30.3137 55.2157C30.2157 55.4118 30.0196 55.6078 29.8235 55.7059C29.6274 55.8039 29.2353 55.902 28.9411 55.902C28.7451 55.902 28.647 55.8039 28.3529 55.8039C28.1568 55.7059 27.9608 55.6078 27.7647 55.4118C27.5686 55.2157 27.3725 55.0196 27.2745 54.8235C27.1764 54.6274 27.0784 54.3333 26.9804 54.1372C26.8823 53.9412 26.8823 53.6471 26.8823 53.451C26.8823 53.3529 26.8823 53.2549 26.8823 53.1569C26.8823 53.0588 26.8823 52.9608 26.8823 52.9608C26.8823 52.8627 26.8823 52.8627 26.8823 52.7647C26.8823 52.6667 26.8823 52.6667 26.8823 52.5686C26.8823 52.4706 26.9804 52.4706 26.9804 52.4706C26.9804 52.4706 26.9804 52.4706 27.0784 52.5686C27.0784 52.6667 27.1764 52.7647 27.1764 52.8627C27.1764 52.9608 27.2745 52.9608 27.2745 53.0588C27.2745 53.1569 27.3725 53.1569 27.3725 53.2549C27.4706 53.3529 27.5686 53.549 27.6666 53.6471C27.7647 53.7451 27.8627 53.9412 28.0588 54.0392C28.1568 54.1372 28.3529 54.2353 28.451 54.2353C28.549 54.3333 28.647 54.3333 28.7451 54.3333C28.7451 54.3333 28.7451 54.3333 28.8431 54.3333C28.8431 54.3333 28.8431 54.3333 28.9411 54.3333C28.9411 54.3333 28.9411 54.3333 29.0392 54.3333C29.1372 54.3333 29.2353 54.3333 29.3333 54.3333C29.4313 54.3333 29.5294 54.3333 29.6274 54.3333C29.8235 54.5294 30.0196 54.4314 30.2157 54.5294Z" fill="#F8E0A4"/>
<path d="M26.7844 55.4117C26.0981 53.8431 25.902 51.7843 25.902 51.4902L25.2158 50.7059C25.1177 50.6078 25.0197 50.6078 24.9217 50.7059L24.2354 51.3921C24.2354 51.6862 24.0393 53.647 23.353 55.3137C23.353 55.3137 24.7256 57.7647 25.0197 58.2549C25.0197 58.3529 25.1177 58.3529 25.1177 58.2549C25.4119 57.7647 26.7844 55.4117 26.7844 55.4117Z" fill="#F8E0A4"/>
<path d="M19.9217 54.5294C19.8236 54.5294 19.7256 54.6274 19.7256 54.7255C19.7256 54.8235 19.7256 55.0196 19.8236 55.2157C19.9217 55.4118 20.1177 55.6078 20.3138 55.7059C20.5099 55.8039 20.9021 55.902 21.1962 55.902C21.3923 55.902 21.4903 55.8039 21.7844 55.8039C21.9805 55.7059 22.1766 55.6078 22.3726 55.4118C22.5687 55.2157 22.7648 55.0196 22.8628 54.8235C22.9609 54.6274 23.0589 54.3333 23.157 54.1372C23.255 53.9412 23.255 53.6471 23.255 53.451C23.255 53.3529 23.255 53.2549 23.255 53.1569C23.255 53.0588 23.255 52.9608 23.255 52.9608C23.255 52.8627 23.255 52.8627 23.255 52.7647C23.255 52.6667 23.255 52.6667 23.255 52.5686C23.255 52.4706 23.157 52.4706 23.157 52.4706C23.157 52.4706 23.157 52.4706 23.0589 52.5686C23.0589 52.6667 22.9609 52.7647 22.9609 52.8627C22.9609 52.9608 22.8628 52.9608 22.8628 53.0588C22.8628 53.1569 22.7648 53.1569 22.7648 53.2549C22.6668 53.3529 22.5687 53.549 22.4707 53.6471C22.3726 53.7451 22.2746 53.9412 22.0785 54.0392C21.9805 54.1372 21.7844 54.2353 21.6864 54.2353C21.5883 54.3333 21.4903 54.3333 21.3923 54.3333C21.3923 54.3333 21.3923 54.3333 21.2942 54.3333C21.2942 54.3333 21.2942 54.3333 21.1962 54.3333C21.0981 54.3333 21.0001 54.3333 20.9021 54.3333C20.804 54.3333 20.706 54.3333 20.6079 54.3333C20.3138 54.5294 20.1177 54.4314 19.9217 54.5294Z" fill="#F8E0A4"/>
<path d="M26 47C37.598 47 47 37.598 47 26C47 14.402 37.598 5 26 5C14.402 5 5 14.402 5 26C5 37.598 14.402 47 26 47Z" stroke="#F8E0A4" stroke-miterlimit="10"/>
<path d="M26 51C39.8071 51 51 39.8071 51 26C51 12.1929 39.8071 1 26 1C12.1929 1 1 12.1929 1 26C1 39.8071 12.1929 51 26 51Z" stroke="#F8E0A4" stroke-width="2" stroke-miterlimit="10"/>
<path d="M9.03925 55.3138C7.37258 55.3138 5.90199 54.5295 5.01964 53.0589C3.94121 51.2942 4.13728 49.2353 5.50983 47.6667C7.76474 45.1177 10.3138 45.7059 12.3726 46.4902L11.9804 47.3726C9.4314 46.3922 7.6667 46.5883 6.19611 48.353C4.9216 49.8236 5.21572 51.4903 5.80395 52.5687C6.68631 54.0393 8.25493 54.6275 9.9216 54.2354C11.4902 53.8432 12.0785 52.7648 11.8824 51.8824C11.7843 51.2942 11.1961 50.6079 10.0196 50.7059L9.9216 50.2157C9.9216 50.2157 10.3138 50.3138 10.4118 50.1177C10.5098 50.0197 10.3138 49.6275 10.4118 49.7255C11.7843 49.7255 12.6667 50.7059 12.7647 51.6863C13.0589 53.0589 12.1765 54.6275 10.0196 55.2157C9.82356 55.3138 9.4314 55.3138 9.03925 55.3138Z" fill="#F8E0A4"/>
<path d="M41.5883 55.3137C41.1961 55.3137 40.804 55.3137 40.4118 55.1176C38.255 54.6274 37.4706 52.9608 37.6667 51.5882C37.8628 50.6078 38.6471 49.7255 40.0197 49.6274C40.1177 49.6274 39.8236 50.1176 39.9216 50.2157C40.0197 50.3137 40.5099 50.1176 40.5099 50.1176L40.4118 50.7059C39.2354 50.5098 38.6471 51.1961 38.5491 51.8823C38.353 52.7647 38.9412 53.8431 40.5099 54.2353C42.1765 54.6274 43.7452 53.9412 44.6275 52.5686C45.3138 51.4902 45.5099 49.8235 44.2354 48.3529C43.255 47.1764 42.0785 46.6862 40.6079 46.8823L40.5099 45.9019C42.2746 45.7059 43.7452 46.2941 45.0197 47.7647C46.3922 49.3333 46.4903 51.3921 45.5099 53.1568C44.7256 54.5294 43.1569 55.3137 41.5883 55.3137Z" fill="#F8E0A4"/>
<path d="M9.92159 49.3334C9.23531 49.3334 8.74512 49.9216 8.74512 50.5098C8.74512 51.0981 9.33335 51.6863 9.92159 51.6863C10.5098 51.6863 11.0981 51.0981 11.0981 50.5098C11.0981 49.9216 10.6079 49.3334 9.92159 49.3334ZM9.92159 50.0196C9.72551 50.1177 9.62747 50.4118 9.43139 50.4118C9.23531 50.4118 9.13727 50.2157 9.13727 50.0196C9.13727 49.8236 9.43139 49.6275 9.62747 49.6275C10.2157 49.5295 10.4118 50.0196 10.4118 50.0196C10.4118 50.0196 10.1177 49.9216 9.92159 50.0196Z" fill="#F8E0A4"/>
<path d="M40.6076 49.3334C39.9213 49.3334 39.4312 49.9216 39.4312 50.5098C39.4312 51.0981 40.0194 51.6863 40.6076 51.6863C41.1959 51.6863 41.7841 51.0981 41.7841 50.5098C41.7841 49.9216 41.2939 49.3334 40.6076 49.3334ZM41.0978 50.4118C40.9017 50.4118 40.8037 50.2157 40.6076 50.0196C40.4115 49.9216 40.1174 49.9216 40.1174 49.9216C40.1174 49.9216 40.2155 49.4314 40.9017 49.5294C41.0978 49.5294 41.3919 49.7255 41.3919 49.9216C41.3919 50.3138 41.2939 50.4118 41.0978 50.4118Z" fill="#F8E0A4"/>
</svg>
