<svg width="337" height="16" viewBox="0 0 337 16" fill="none" xmlns="http://www.w3.org/2000/svg">
<path d="M2.24866 0.0402396C3.12711 0.0402397 3.8754 0.671935 3.97299 1.55631C4.00552 1.93533 3.74524 2.28276 3.35483 2.31435C2.96442 2.34593 2.60654 2.09325 2.57401 1.71423C2.57401 1.5879 2.47641 1.52473 2.44388 1.49314C2.41135 1.46156 2.31372 1.39839 2.18359 1.42997C1.59796 1.49314 1.33771 2.03008 1.33771 2.53544C1.24011 5.82026 3.3223 8.09437 3.97299 8.69448L332.962 8.69451C333.58 8.0944 335.662 5.82029 335.565 2.53547C335.565 2.03012 335.272 1.46159 334.719 1.43C334.556 1.39842 334.393 1.52476 334.361 1.68268C334.328 2.0617 333.971 2.31438 333.58 2.28279C333.19 2.25121 332.897 1.90378 332.962 1.52476C333.06 0.6088 333.938 -0.0860656 334.881 0.00868871C336.085 0.166613 336.964 1.17733 336.996 2.50389C337.126 7.02052 333.84 9.79998 333.71 9.92632L333.515 10.0842L3.51752 10.0842L3.28976 9.92629C3.15964 9.79995 -0.126373 7.02048 0.00378519 2.50385C0.036317 1.17729 0.914766 0.166578 2.11853 0.0402396C2.11853 0.0402396 2.18359 0.0402396 2.24866 0.0402396Z" fill="white"/>
<path d="M320.957 6.60991L321.184 6.76784C321.315 6.89418 324.373 9.48413 324.275 13.6533C324.243 14.9167 323.429 15.8643 322.258 15.9906C321.347 16.0854 320.534 15.4537 320.436 14.5377C320.404 14.1587 320.664 13.8428 321.054 13.7797C321.445 13.7481 321.803 14.0323 321.835 14.4114C321.835 14.5377 321.965 14.6325 322.128 14.6325C322.616 14.5693 322.844 14.0955 322.844 13.6217C322.941 10.6528 321.054 8.56817 320.469 7.96806L16.1734 7.96803C15.5878 8.53656 13.7008 10.6212 13.7659 13.6217C13.7659 14.0639 14.0262 14.5693 14.5142 14.6008C14.6443 14.6008 14.7744 14.5061 14.807 14.3797C14.8395 14.0007 15.1974 13.7165 15.5878 13.7796C15.9782 13.8112 16.2711 14.1587 16.206 14.5377C16.1084 15.422 15.295 16.0853 14.384 15.9906C13.2453 15.8642 12.3994 14.9167 12.3669 13.6849C12.2693 9.4841 15.295 6.89415 15.4251 6.79939L15.6204 6.64147L320.957 6.60991Z" fill="white"/>
</svg>
