<svg width="337" height="16" viewBox="0 0 337 16" fill="none" xmlns="http://www.w3.org/2000/svg">
<path d="M334.751 15.9598C333.873 15.9598 333.125 15.3281 333.027 14.4437C332.994 14.0647 333.255 13.7172 333.645 13.6856C334.036 13.6541 334.393 13.9067 334.426 14.2858C334.426 14.4121 334.524 14.4753 334.556 14.5068C334.589 14.5384 334.686 14.6016 334.816 14.57C335.402 14.5068 335.662 13.9699 335.662 13.4645C335.76 10.1797 333.678 7.90558 333.027 7.30547L4.03805 7.30553C3.41989 7.90565 1.33768 10.1798 1.43529 13.4646C1.43529 13.97 1.7281 14.5385 2.28118 14.5701C2.44386 14.6017 2.60653 14.4753 2.63906 14.3174C2.6716 13.9384 3.02948 13.6857 3.41989 13.7173C3.8103 13.7489 4.10311 14.0963 4.03805 14.4753C3.94044 15.3913 3.06201 16.0862 2.11851 15.9914C0.914734 15.8335 0.0363017 14.8228 0.00376696 13.4962C-0.126372 8.97954 3.15961 6.20006 3.28975 6.07372L3.48496 5.91579L333.482 5.91573L333.71 6.07365C333.84 6.19999 337.126 8.97947 336.996 13.4961C336.964 14.8227 336.085 15.8334 334.881 15.9598C334.881 15.9598 334.816 15.9598 334.751 15.9598Z" fill="white"/>
<path d="M16.0433 9.39014L15.8155 9.23222C15.6854 9.10588 12.6272 6.51591 12.7248 2.34668C12.7573 1.08328 13.5707 0.135733 14.7419 0.00939296C15.6529 -0.0853623 16.4662 0.546338 16.5638 1.4623C16.5964 1.84132 16.3361 2.15717 15.9457 2.22034C15.5553 2.25193 15.1974 1.96766 15.1648 1.58864C15.1648 1.4623 15.0347 1.36755 14.872 1.36755C14.384 1.43072 14.1563 1.90449 14.1563 2.37827C14.0587 5.34726 15.9457 7.43187 16.5313 8.03199L320.827 8.03192C321.412 7.46339 323.299 5.37878 323.234 2.37821C323.234 1.93602 322.974 1.43066 322.486 1.39907C322.356 1.39907 322.226 1.49383 322.193 1.62017C322.16 1.99919 321.803 2.28345 321.412 2.22028C321.022 2.1887 320.729 1.84126 320.794 1.46224C320.892 0.57786 321.705 -0.085425 322.616 0.00932984C323.755 0.13567 324.601 1.08322 324.633 2.31504C324.731 6.51584 321.705 9.10581 321.575 9.20057L321.38 9.35849L16.0433 9.39014Z" fill="white"/>
</svg>
