<svg width="336" height="18" viewBox="0 0 336 18" fill="none" xmlns="http://www.w3.org/2000/svg">
<path d="M2.4194 1.0383C3.29263 1.0383 4.03647 1.68513 4.13349 2.59069C4.16583 2.97879 3.90711 3.33454 3.51901 3.36688C3.13092 3.39922 2.77515 3.14049 2.74283 2.7524C2.74283 2.62303 2.64578 2.55835 2.61344 2.52601C2.58112 2.49366 2.48407 2.42898 2.35471 2.46132C1.77255 2.52601 1.51386 3.07581 1.51386 3.59327C1.41684 6.95678 3.48666 9.28536 4.13348 9.89985L331.17 9.89988C331.784 9.28539 333.854 6.95681 333.757 3.5933C333.757 3.07584 333.466 2.49369 332.916 2.46135C332.755 2.42901 332.593 2.55838 332.561 2.72008C332.528 3.10818 332.173 3.36691 331.784 3.33457C331.396 3.30223 331.105 2.94647 331.17 2.55838C331.267 1.62048 332.14 0.908964 333.078 1.00599C334.275 1.1677 335.148 2.20262 335.18 3.56096C335.31 8.18578 332.043 11.0318 331.914 11.1612L331.72 11.3229L3.68073 11.3229L3.45435 11.1612C3.32495 11.0318 0.0584725 8.18576 0.187837 3.56093C0.220186 2.20259 1.09342 1.16766 2.29004 1.0383C2.29004 1.0383 2.35474 1.0383 2.4194 1.0383Z" fill="white"/>
<path d="M319.236 7.76535L319.462 7.92705C319.592 8.05642 322.632 10.7084 322.535 14.9775C322.503 16.2711 321.694 17.2414 320.53 17.3707C319.624 17.4678 318.816 16.8209 318.719 15.883C318.686 15.4949 318.945 15.1715 319.333 15.1068C319.721 15.0745 320.077 15.3656 320.109 15.7537C320.109 15.883 320.239 15.9801 320.4 15.9801C320.885 15.9154 321.112 15.4303 321.112 14.9451C321.209 11.905 319.333 9.77051 318.751 9.15603L16.2615 9.156C15.6794 9.73815 13.8036 11.8727 13.8683 14.9451C13.8683 15.3979 14.127 15.9154 14.6121 15.9477C14.7415 15.9477 14.8708 15.8507 14.9032 15.7213C14.9355 15.3332 15.2913 15.0421 15.6794 15.1068C16.0675 15.1392 16.3586 15.4949 16.2939 15.883C16.1969 16.7886 15.3883 17.4677 14.4828 17.3707C13.3508 17.2414 12.5099 16.2711 12.4776 15.0098C12.3806 10.7084 15.3883 8.05639 15.5177 7.95937L15.7117 7.79766L319.236 7.76535Z" fill="white"/>
</svg>
