<svg width="295" height="11" viewBox="0 0 295 11" fill="none" xmlns="http://www.w3.org/2000/svg">
<path d="M0.948731 6.46574C1.68152 9.03055 4.00211 10.313 7.87985 10.313L25.6198 10.313C89.9235 10.313 285.582 10.313 287.109 10.313C290.987 10.313 293.338 9.03058 294.04 6.46576C294.712 4.17575 293.43 1.8552 291.17 1.15292C290.254 0.878122 289.246 0.969722 288.392 1.45826C287.506 1.91626 286.895 2.6796 286.59 3.62614C286.346 4.45055 286.437 5.30549 286.834 6.03829C287.262 6.80163 287.934 7.35123 288.727 7.5955C289.43 7.80924 290.193 7.71764 290.834 7.38177C291.475 7.01537 291.964 6.43523 292.178 5.73296C292.544 4.45055 291.842 3.10707 290.559 2.74067C290.254 2.64907 289.918 2.83227 289.827 3.1376C289.735 3.44294 289.918 3.77881 290.224 3.87041C290.865 4.05361 291.231 4.75588 291.048 5.39709C290.926 5.79402 290.651 6.12989 290.285 6.34363C289.918 6.55736 289.491 6.5879 289.094 6.46576C288.575 6.31309 288.178 5.97722 287.903 5.48869C287.659 5.03068 287.598 4.48108 287.75 3.96201C287.934 3.32081 288.361 2.80174 288.972 2.4964C289.552 2.19106 290.224 2.09946 290.865 2.3132C292.483 2.80174 293.399 4.48108 292.911 6.16043C292.33 8.14511 290.437 9.12218 287.109 9.12218C285.582 9.12218 89.9235 9.12216 25.6198 9.12216L7.87985 9.12215C4.5517 9.12215 2.65863 8.14508 2.07849 6.1604C1.62048 4.48105 2.50595 2.80171 4.15476 2.31317C4.79596 2.12997 5.46771 2.19104 6.04785 2.49638C6.62799 2.80171 7.05542 3.35131 7.26917 3.96199C7.42181 4.48106 7.36078 5.00013 7.11652 5.48866C6.87222 5.94667 6.44476 6.31307 5.92569 6.46574C5.52875 6.58787 5.10129 6.55734 4.73489 6.3436C4.3685 6.12987 4.09369 5.82453 3.97156 5.39706C3.78836 4.75586 4.15476 4.05359 4.79596 3.87039C5.10129 3.77878 5.28449 3.44291 5.19287 3.13758C5.10129 2.83224 4.76544 2.64904 4.46008 2.74064C3.17767 3.13758 2.4754 4.48106 2.8418 5.73293C3.02499 6.4352 3.51355 7.01534 4.15475 7.38174C4.79596 7.71761 5.5593 7.80921 6.26157 7.59548C7.08597 7.35121 7.75772 6.80161 8.15466 6.0688C8.55161 5.336 8.64319 4.45052 8.39893 3.65665C8.12412 2.71011 7.48291 1.94677 6.62799 1.48877C6.07837 1.18343 5.4982 1.0613 4.88754 1.0613C4.52115 1.0613 4.18527 1.12237 3.81888 1.21397C1.55939 1.85517 0.307526 4.17572 0.948731 6.46574Z" fill="#F8E0A4" stroke="#F8E0A4" stroke-width="0.1"/>
</svg>
