<svg width="68" height="53" viewBox="0 0 68 53" fill="none" xmlns="http://www.w3.org/2000/svg">
<path fill-rule="evenodd" clip-rule="evenodd" d="M63.1168 4.30983H10.9073L10.8837 4.26262C10.506 2.94062 9.60894 1.8547 8.38137 1.1937C7.1538 0.532699 5.76098 0.391056 4.43898 0.768769C1.70056 1.59502 0.142489 4.47508 0.94513 7.21351C1.08677 7.70926 1.60613 7.99254 2.12548 7.8509C2.62123 7.70926 2.90452 7.16629 2.76288 6.67054C2.24352 4.94723 3.23502 3.10587 4.98194 2.58652C5.8318 2.32684 6.70526 2.42127 7.4843 2.84619C8.26333 3.27112 8.8299 3.95573 9.06597 4.75837L15.2746 31.1511C13.032 31.7885 11.4739 33.5354 11.4739 35.6129C11.4739 38.3513 13.7402 40.3579 16.8799 40.3579H60.5909C61.1102 40.3579 61.5351 39.9329 61.5351 39.4136C61.5351 38.8942 61.1102 38.4693 60.5909 38.4693H16.9035C14.8261 38.4693 13.3861 37.289 13.3861 35.6129C13.3861 34.2436 14.6845 33.0633 16.3842 32.8272L60.6381 30.2776H60.6617C60.8033 30.254 60.945 30.2068 61.063 30.136C61.1574 30.0888 61.2283 30.0416 61.2755 29.9708C61.2991 29.9471 61.2991 29.9235 61.2991 29.9235C61.3196 29.8961 61.3441 29.8688 61.3692 29.8408C61.4304 29.7723 61.4948 29.7004 61.5115 29.6166L67.012 10.5657C67.5077 8.866 67.2717 7.1899 66.351 5.96233C65.6192 4.90001 64.4388 4.30983 63.1168 4.30983ZM65.2415 10.0228L59.9063 28.4363L17.1632 30.8914L11.3559 6.1984H63.1168C63.8486 6.1984 64.4624 6.50529 64.8874 7.07186C65.4539 7.82729 65.572 8.88961 65.2415 10.0228ZM21.2944 42.034C18.3908 42.034 16.0301 44.3947 16.0301 47.2984C16.0301 50.202 18.3908 52.5627 21.2944 52.5627C24.1981 52.5627 26.5588 50.202 26.5588 47.2984C26.5588 44.3947 24.1981 42.034 21.2944 42.034ZM21.2944 50.6742C19.4295 50.6742 17.9186 49.1633 17.9186 47.2984C17.9186 45.4334 19.4295 43.9225 21.2944 43.9225C23.1594 43.9225 24.6703 45.4334 24.6703 47.2984C24.6703 49.1633 23.1594 50.6742 21.2944 50.6742ZM49.826 47.2984C49.826 44.3947 52.1867 42.034 55.0904 42.034C57.9941 42.034 60.3548 44.3947 60.3548 47.2984C60.3548 50.202 57.9941 52.5627 55.0904 52.5627C52.1867 52.5627 49.826 50.202 49.826 47.2984ZM51.7146 47.2984C51.7146 49.1633 53.2254 50.6742 55.0904 50.6742C56.9318 50.6742 58.4662 49.1633 58.4662 47.2984C58.4662 45.4334 56.9554 43.9225 55.0904 43.9225C53.2254 43.9225 51.7146 45.4334 51.7146 47.2984ZM17.8245 9.55023C17.7012 9.01187 17.1649 8.67534 16.6265 8.79858C16.0882 8.92182 15.7517 9.45815 15.8749 9.99651L19.7769 27.0422C19.9001 27.5805 20.4365 27.917 20.9748 27.7938C21.5132 27.6706 21.8497 27.1342 21.7265 26.5959L17.8245 9.55023Z" fill="white"/>
</svg>
