<svg width="71" height="70" viewBox="0 0 71 70" fill="none" xmlns="http://www.w3.org/2000/svg">
<rect x="1.18408" y="1" width="68" height="68" rx="34" stroke="#F8E0A4" stroke-width="2"/>
<rect x="4.68408" y="4.5" width="61" height="61" rx="30.5" stroke="#F8E0A4"/>
<path d="M47.9294 32.1049V32.6049H48.4294H48.891C48.9706 32.6049 49.0183 32.6368 49.0357 32.6565C49.0435 32.6653 49.0455 32.6713 49.0463 32.6747C49.0468 32.6772 49.0495 32.6896 49.0414 32.7165L49.0203 32.7868V32.8601V39.4895C49.0203 39.6329 48.9085 39.7448 48.7651 39.7448H48.3036H47.8036V40.2448V44.6923C47.8036 45.6749 46.9785 46.5 45.9959 46.5H23.1287C22.1461 46.5 21.321 45.6749 21.321 44.6923V25.3077C21.321 24.3251 22.1461 23.5 23.1287 23.5H44.5273C45.5099 23.5 46.335 24.3251 46.335 25.3077C46.335 25.4511 46.2232 25.5629 46.0798 25.5629C45.9363 25.5629 45.8245 25.4511 45.8245 25.3077C45.8245 24.612 45.265 24.0524 44.5693 24.0524H23.1707C22.475 24.0524 21.9155 24.612 21.9155 25.3077V25.4755C21.9155 25.8367 22.0599 26.1767 22.2645 26.4268C22.4628 26.6692 22.7805 26.8986 23.1707 26.8986H46.1217C47.1043 26.8986 47.9294 27.7237 47.9294 28.7063V32.1049ZM41.1287 39.2343H41.6287V39.1923H48.0938H48.5938V38.6923V33.6154V33.1154H48.0938H41.1287C39.4831 33.1154 38.1952 34.5417 38.1952 36.1748C38.1952 37.8554 39.4883 39.2343 41.1287 39.2343ZM22.4574 27.4091H21.9574V27.9091V44.6923C21.9574 45.388 22.5169 45.9476 23.2127 45.9476H46.0798C46.7755 45.9476 47.335 45.388 47.335 44.6923V40.2028V39.7028H46.835H41.1287C39.1913 39.7028 37.6427 38.1327 37.6427 36.1329C37.6427 34.175 39.2331 32.5629 41.1287 32.5629H46.877H47.377V32.0629V28.6643C47.377 27.9686 46.8175 27.4091 46.1217 27.4091H22.4574ZM42.265 36.1746C42.265 36.6632 41.869 37.0592 41.3804 37.0592C40.8918 37.0592 40.4958 36.6632 40.4958 36.1746C40.4958 35.6861 40.8918 35.29 41.3804 35.29C41.869 35.29 42.265 35.6861 42.265 36.1746Z" fill="white" stroke="white"/>
</svg>
