<svg width="313" height="793" viewBox="0 0 313 793" fill="none" xmlns="http://www.w3.org/2000/svg">
<rect x="0.5" y="0.5" width="312" height="792" rx="13.5" fill="black" fill-opacity="0.1" stroke="#F8E0A4"/>
<path d="M303.051 10.7159C302.318 8.15106 299.998 6.86865 296.12 6.86865H278.38C214.077 6.86865 18.4175 6.86865 16.8909 6.86865C13.0131 6.86865 10.662 8.15106 9.95974 10.7159C9.28801 13.0059 10.5704 15.3264 12.8299 16.0287C13.7459 16.3035 14.7535 16.2119 15.6084 15.7234C16.4939 15.2654 17.1046 14.502 17.4099 13.5555C17.6542 12.7311 17.5626 11.8762 17.1657 11.1433C16.7382 10.38 16.0665 9.83041 15.2726 9.58614C14.5703 9.3724 13.807 9.464 13.1658 9.79987C12.5246 10.1663 12.036 10.7464 11.8223 11.4487C11.4559 12.7311 12.1582 14.0746 13.4406 14.441C13.7459 14.5326 14.0818 14.3494 14.1734 14.044C14.265 13.7387 14.0818 13.4028 13.7764 13.3112C13.1352 13.128 12.7688 12.4258 12.952 11.7846C13.0742 11.3876 13.349 11.0517 13.7154 10.838C14.0818 10.6243 14.5092 10.5937 14.9062 10.7159C15.4252 10.8685 15.8222 11.2044 16.097 11.693C16.3413 12.151 16.4023 12.7006 16.2497 13.2196C16.0665 13.8608 15.639 14.3799 15.0283 14.6852C14.4482 14.9906 13.7764 15.0822 13.1352 14.8684C11.517 14.3799 10.6009 12.7006 11.0895 11.0212C11.6696 9.03653 13.5627 8.05946 16.8909 8.05946C18.4175 8.05946 214.077 8.05946 278.38 8.05946H296.12C299.448 8.05946 301.341 9.03653 301.922 11.0212C302.38 12.7006 301.494 14.3799 299.845 14.8684C299.204 15.0516 298.532 14.9906 297.952 14.6852C297.372 14.3799 296.945 13.8303 296.731 13.2196C296.578 12.7006 296.639 12.1815 296.883 11.693C297.128 11.2349 297.555 10.8685 298.074 10.7159C298.471 10.5937 298.899 10.6243 299.265 10.838C299.632 11.0517 299.906 11.3571 300.028 11.7846C300.212 12.4258 299.845 13.128 299.204 13.3112C298.899 13.4028 298.716 13.7387 298.807 14.044C298.899 14.3494 299.235 14.5326 299.54 14.441C300.822 14.044 301.525 12.7006 301.158 11.4487C300.975 10.7464 300.486 10.1663 299.845 9.79987C299.204 9.464 298.441 9.3724 297.738 9.58614C296.914 9.83041 296.242 10.38 295.845 11.1128C295.448 11.8456 295.357 12.7311 295.601 13.525C295.876 14.4715 296.517 15.2348 297.372 15.6928C297.922 15.9982 298.502 16.1203 299.112 16.1203C299.479 16.1203 299.815 16.0592 300.181 15.9676C302.441 15.3264 303.692 13.0059 303.051 10.7159Z" fill="#F8E0A4" stroke="#F8E0A4" stroke-width="0.1"/>
<path d="M9.94873 781.466C10.6815 784.031 13.0021 785.313 16.8799 785.313L34.6198 785.313C98.9235 785.313 294.582 785.313 296.109 785.313C299.987 785.313 302.338 784.031 303.04 781.466C303.712 779.176 302.43 776.855 300.17 776.153C299.254 775.878 298.246 775.97 297.392 776.458C296.506 776.916 295.895 777.68 295.59 778.626C295.346 779.451 295.437 780.306 295.834 781.038C296.262 781.802 296.934 782.351 297.727 782.596C298.43 782.809 299.193 782.718 299.834 782.382C300.475 782.015 300.964 781.435 301.178 780.733C301.544 779.451 300.842 778.107 299.559 777.741C299.254 777.649 298.918 777.832 298.827 778.138C298.735 778.443 298.918 778.779 299.224 778.871C299.865 779.054 300.231 779.756 300.048 780.397C299.926 780.794 299.651 781.13 299.285 781.344C298.918 781.557 298.491 781.588 298.094 781.466C297.575 781.313 297.178 780.977 296.903 780.489C296.659 780.031 296.598 779.481 296.75 778.962C296.934 778.321 297.361 777.802 297.972 777.497C298.552 777.191 299.224 777.1 299.865 777.313C301.483 777.802 302.399 779.481 301.911 781.161C301.33 783.145 299.437 784.122 296.109 784.122C294.582 784.122 98.9235 784.122 34.6198 784.122L16.8799 784.122C13.5517 784.122 11.6586 783.145 11.0785 781.161C10.6205 779.481 11.506 777.802 13.1548 777.313C13.796 777.13 14.4677 777.191 15.0479 777.496C15.628 777.802 16.0554 778.351 16.2692 778.962C16.4218 779.481 16.3608 780 16.1165 780.489C15.8722 780.947 15.4448 781.313 14.9257 781.466C14.5287 781.588 14.1013 781.557 13.7349 781.344C13.3685 781.13 13.0937 780.825 12.9716 780.397C12.7884 779.756 13.1548 779.054 13.796 778.871C14.1013 778.779 14.2845 778.443 14.1929 778.138C14.1013 777.832 13.7654 777.649 13.4601 777.741C12.1777 778.138 11.4754 779.481 11.8418 780.733C12.025 781.435 12.5136 782.015 13.1548 782.382C13.796 782.718 14.5593 782.809 15.2616 782.596C16.086 782.351 16.7577 781.802 17.1547 781.069C17.5516 780.336 17.6432 779.451 17.3989 778.657C17.1241 777.71 16.4829 776.947 15.628 776.489C15.0784 776.184 14.4982 776.061 13.8875 776.061C13.5211 776.061 13.1853 776.122 12.8189 776.214C10.5594 776.855 9.30753 779.176 9.94873 781.466Z" fill="#F8E0A4" stroke="#F8E0A4" stroke-width="0.1"/>
</svg>
