<svg width="313" height="80" viewBox="0 0 313 80" fill="none" xmlns="http://www.w3.org/2000/svg">
<rect x="0.5" y="0.5" width="312" height="79" rx="13.5" fill="black" fill-opacity="0.1" stroke="#F8E0A4"/>
<path d="M303.051 10.7159C302.318 8.15106 299.998 6.86865 296.12 6.86865H278.38C214.077 6.86865 18.4175 6.86865 16.8909 6.86865C13.0131 6.86865 10.662 8.15106 9.95974 10.7159C9.28801 13.0059 10.5704 15.3264 12.8299 16.0287C13.7459 16.3035 14.7535 16.2119 15.6084 15.7234C16.4939 15.2654 17.1046 14.502 17.4099 13.5555C17.6542 12.7311 17.5626 11.8762 17.1657 11.1433C16.7382 10.38 16.0665 9.83041 15.2726 9.58614C14.5703 9.3724 13.807 9.464 13.1658 9.79987C12.5246 10.1663 12.036 10.7464 11.8223 11.4487C11.4559 12.7311 12.1582 14.0746 13.4406 14.441C13.7459 14.5326 14.0818 14.3494 14.1734 14.044C14.265 13.7387 14.0818 13.4028 13.7764 13.3112C13.1352 13.128 12.7688 12.4258 12.952 11.7846C13.0742 11.3876 13.349 11.0517 13.7154 10.838C14.0818 10.6243 14.5092 10.5937 14.9062 10.7159C15.4252 10.8685 15.8222 11.2044 16.097 11.693C16.3413 12.151 16.4023 12.7006 16.2497 13.2196C16.0665 13.8608 15.639 14.3799 15.0283 14.6852C14.4482 14.9906 13.7764 15.0822 13.1352 14.8684C11.517 14.3799 10.6009 12.7006 11.0895 11.0212C11.6696 9.03653 13.5627 8.05946 16.8909 8.05946C18.4175 8.05946 214.077 8.05946 278.38 8.05946H296.12C299.448 8.05946 301.341 9.03653 301.922 11.0212C302.38 12.7006 301.494 14.3799 299.845 14.8684C299.204 15.0516 298.532 14.9906 297.952 14.6852C297.372 14.3799 296.945 13.8303 296.731 13.2196C296.578 12.7006 296.639 12.1815 296.883 11.693C297.128 11.2349 297.555 10.8685 298.074 10.7159C298.471 10.5937 298.899 10.6243 299.265 10.838C299.632 11.0517 299.906 11.3571 300.028 11.7846C300.212 12.4258 299.845 13.128 299.204 13.3112C298.899 13.4028 298.716 13.7387 298.807 14.044C298.899 14.3494 299.235 14.5326 299.54 14.441C300.822 14.044 301.525 12.7006 301.158 11.4487C300.975 10.7464 300.486 10.1663 299.845 9.79987C299.204 9.464 298.441 9.3724 297.738 9.58614C296.914 9.83041 296.242 10.38 295.845 11.1128C295.448 11.8456 295.357 12.7311 295.601 13.525C295.876 14.4715 296.517 15.2348 297.372 15.6928C297.922 15.9982 298.502 16.1203 299.112 16.1203C299.479 16.1203 299.815 16.0592 300.181 15.9676C302.441 15.3264 303.692 13.0059 303.051 10.7159Z" fill="#F8E0A4" stroke="#F8E0A4" stroke-width="0.1"/>
<path d="M9.94873 69.4657C10.6815 72.0306 13.0021 73.313 16.8799 73.313L34.6198 73.313C98.9235 73.313 294.582 73.313 296.109 73.313C299.987 73.313 302.338 72.0306 303.04 69.4658C303.712 67.1757 302.43 64.8552 300.17 64.1529C299.254 63.8781 298.246 63.9697 297.392 64.4583C296.506 64.9163 295.895 65.6796 295.59 66.6261C295.346 67.4505 295.437 68.3055 295.834 69.0383C296.262 69.8016 296.934 70.3512 297.727 70.5955C298.43 70.8092 299.193 70.7176 299.834 70.3818C300.475 70.0154 300.964 69.4352 301.178 68.733C301.544 67.4505 300.842 66.1071 299.559 65.7407C299.254 65.6491 298.918 65.8323 298.827 66.1376C298.735 66.4429 298.918 66.7788 299.224 66.8704C299.865 67.0536 300.231 67.7559 300.048 68.3971C299.926 68.794 299.651 69.1299 299.285 69.3436C298.918 69.5574 298.491 69.5879 298.094 69.4658C297.575 69.3131 297.178 68.9772 296.903 68.4887C296.659 68.0307 296.598 67.4811 296.75 66.962C296.934 66.3208 297.361 65.8017 297.972 65.4964C298.552 65.1911 299.224 65.0995 299.865 65.3132C301.483 65.8017 302.399 67.4811 301.911 69.1604C301.33 71.1451 299.437 72.1222 296.109 72.1222C294.582 72.1222 98.9235 72.1222 34.6198 72.1222L16.8799 72.1222C13.5517 72.1222 11.6586 71.1451 11.0785 69.1604C10.6205 67.4811 11.506 65.8017 13.1548 65.3132C13.796 65.13 14.4677 65.191 15.0479 65.4964C15.628 65.8017 16.0554 66.3513 16.2692 66.962C16.4218 67.4811 16.3608 68.0001 16.1165 68.4887C15.8722 68.9467 15.4448 69.3131 14.9257 69.4657C14.5287 69.5879 14.1013 69.5573 13.7349 69.3436C13.3685 69.1299 13.0937 68.8245 12.9716 68.3971C12.7884 67.7559 13.1548 67.0536 13.796 66.8704C14.1013 66.7788 14.2845 66.4429 14.1929 66.1376C14.1013 65.8322 13.7654 65.649 13.4601 65.7406C12.1777 66.1376 11.4754 67.4811 11.8418 68.7329C12.025 69.4352 12.5136 70.0153 13.1548 70.3817C13.796 70.7176 14.5593 70.8092 15.2616 70.5955C16.086 70.3512 16.7577 69.8016 17.1547 69.0688C17.5516 68.336 17.6432 67.4505 17.3989 66.6566C17.1241 65.7101 16.4829 64.9468 15.628 64.4888C15.0784 64.1834 14.4982 64.0613 13.8875 64.0613C13.5211 64.0613 13.1853 64.1224 12.8189 64.214C10.5594 64.8552 9.30753 67.1757 9.94873 69.4657Z" fill="#F8E0A4" stroke="#F8E0A4" stroke-width="0.1"/>
</svg>
