<svg width="48" height="53" viewBox="0 0 48 53" fill="none" xmlns="http://www.w3.org/2000/svg">
<path d="M31.9911 45.1775H31.7545L31.7415 45.4138C31.5176 49.4953 28.1421 52.733 24 52.733C19.8579 52.733 16.4824 49.4953 16.2585 45.4138L16.2456 45.1775H16.0089H6.23114C3.41756 45.1775 1.13892 42.9066 1.13892 40.0941C1.13892 37.29 3.4181 35.0108 6.22225 35.0108H6.47225V34.7608V24.0941C6.47225 16.6889 11.1083 10.1946 17.8653 7.67056L18.0278 7.60985V7.43637V7.20525C18.0278 3.91221 20.707 1.23303 24 1.23303C27.302 1.23303 29.9722 3.90333 29.9722 7.20525V7.43637V7.60985L30.1348 7.67056C36.8918 10.1946 41.5278 16.6889 41.5278 24.0941V34.7608V35.0108H41.7778C44.582 35.0108 46.8611 37.29 46.8611 40.0941C46.8611 42.898 44.5822 45.1775 41.7689 45.1775H31.9911ZM28.6754 45.453L28.7037 45.1775H28.4267H19.5823H19.3063L19.3335 45.4521C19.5682 47.8279 21.5683 49.6775 24.0089 49.6775C26.451 49.6775 28.4315 47.8266 28.6754 45.453ZM19.9764 10.1825L19.9751 10.1828C13.8332 11.9558 9.52781 17.6 9.52781 24.0941V34.7608C9.52781 36.5872 8.04862 38.0664 6.22225 38.0664C5.1064 38.0664 4.19447 38.9783 4.19447 40.0941C4.19447 41.2108 5.10721 42.1219 6.23114 42.1219H41.7689C42.8928 42.1219 43.8056 41.2108 43.8056 40.0941C43.8056 38.9783 42.8937 38.0664 41.7778 38.0664C39.9514 38.0664 38.4722 36.5872 38.4722 34.7608V24.0941C38.4722 17.6002 34.1672 11.9559 28.0251 10.1918C28.0249 10.1917 28.0248 10.1917 28.0246 10.1916L26.9167 9.87073V7.20525C26.9167 5.60106 25.6142 4.28859 24 4.28859C22.3958 4.28859 21.0834 5.59109 21.0834 7.20525V9.86948L19.9764 10.1825Z" fill="white" stroke="#FEFDF8" stroke-width="0.5"/>
</svg>
