<svg width="90" height="54" viewBox="0 0 90 54" fill="none" xmlns="http://www.w3.org/2000/svg">
<path fill-rule="evenodd" clip-rule="evenodd" d="M39.1928 7.0027C39.1928 3.69994 41.9299 0.962891 45.2326 0.962891C48.5354 0.962891 51.2724 3.70065 51.2724 7.00341V7.47425L51.6194 7.52067C68.6912 9.80493 81.8311 23.805 81.8311 40.7813V41.9609H8.63411V40.7813C8.63411 23.805 21.774 9.80493 38.8459 7.52067L39.1928 7.47425V7.0027ZM45.2326 3.38279C43.3181 3.38279 41.7422 4.88797 41.6737 6.80616L41.6572 7.26915L42.1176 7.21799C42.6382 7.16015 43.2224 7.15969 43.8353 7.15969H46.6907C46.9464 7.15969 47.2181 7.17362 47.51 7.1886L47.5283 7.18954C47.8234 7.20467 48.137 7.22044 48.4525 7.22044H48.8821L48.8515 6.79194C48.7155 4.88784 47.1498 3.38279 45.2326 3.38279ZM43.8353 9.57959C26.258 9.57959 12.3421 22.6759 11.4798 39.12L11.4578 39.541H79.1306L79.1068 39.1185C78.1831 22.6759 64.2683 9.57959 46.6907 9.57959H43.8353ZM60.1778 18.7887C60.3317 18.4195 60.3318 18.4196 60.3319 18.4196L60.1778 18.7887ZM60.3319 18.4196L60.3264 18.4174C59.8761 18.2372 59.5982 17.836 59.5452 17.3715C59.5547 16.6724 60.0627 16.1414 60.6799 16.0904H60.8486C60.8933 16.1025 60.936 16.1118 60.9732 16.1193C61.0041 16.1256 61.027 16.13 61.048 16.134C61.057 16.1358 61.0657 16.1374 61.0744 16.1391C61.0906 16.1423 61.1071 16.1456 61.1268 16.1498C61.2215 16.1701 61.2665 16.1881 61.2925 16.2054L61.3208 16.2243L61.3525 16.2384L61.357 16.2404L61.3776 16.2499C61.3902 16.2557 61.4072 16.2637 61.4286 16.2739C61.4392 16.279 61.451 16.2846 61.4638 16.2908C61.5407 16.328 61.6556 16.3852 61.8042 16.4637C62.1013 16.6205 62.5325 16.8621 63.0621 17.1977C64.1211 17.8689 65.5719 18.9156 67.1288 20.4124C70.1764 23.4006 73.77 28.2456 75.8166 35.5506V35.6126L75.832 35.6664C76.0062 36.2764 75.6199 36.9253 74.9524 37.116C74.3428 37.2902 73.6942 36.9044 73.5031 36.2376C71.5992 29.3605 68.2793 24.865 65.4376 22.1464C64.0195 20.7593 62.7525 19.8315 61.8353 19.2486C61.3765 18.957 61.0053 18.7517 60.7464 18.6183C60.617 18.5516 60.5157 18.5029 60.4455 18.4704C60.4104 18.4541 60.3831 18.4419 60.364 18.4335L60.3416 18.4237L60.335 18.4209L60.3319 18.4196ZM4.41633 50.8599C2.83056 49.5678 1.58802 47.8569 0.696264 46.0747C0.33141 45.292 0.891442 44.3405 1.7943 44.3405H88.5494C89.4817 44.3405 90.0571 45.2555 89.6497 46.0702L89.6476 46.0745C88.7181 47.9916 87.0195 49.643 85.0504 50.9564C83.0691 52.2167 80.9618 53.1394 78.9505 53.1394H9.81368C7.81276 53.1394 5.95905 52.2242 4.42869 50.8704L4.42262 50.8651L4.41633 50.8599ZM86.4423 46.7603H3.95334L4.45545 47.4059C4.90086 47.9786 5.52783 48.6046 6.02659 49.041L6.03096 49.0447C7.27947 50.1059 8.64508 50.7803 9.87444 50.7803H79.0112C79.6268 50.7803 80.4076 50.5953 81.2268 50.2832C82.0527 49.9686 82.9451 49.5143 83.7896 48.9513L83.7971 48.9461C84.4209 48.5094 85.1016 47.9522 85.656 47.4593L86.4423 46.7603Z" fill="white"/>
</svg>
