<svg width="161" height="120" viewBox="0 0 161 120" fill="none" xmlns="http://www.w3.org/2000/svg">
<rect x="0.684082" y="0.5" width="159" height="119" rx="3.5" fill="black" fill-opacity="0.1" stroke="#F8E0A4"/>
<path d="M155.098 4.96663C154.724 3.65554 153.538 3 151.555 3H142.487C109.616 3 9.5988 3 8.81839 3C6.83615 3 5.63431 3.65554 5.27532 4.96663C4.93194 6.13725 5.58749 7.32347 6.7425 7.68246C7.21074 7.82293 7.72581 7.77611 8.16284 7.52638C8.61548 7.29226 8.92764 6.90205 9.08373 6.4182C9.20859 5.99678 9.16177 5.55975 8.95886 5.18515C8.74035 4.79494 8.39697 4.514 7.99115 4.38913C7.63216 4.27987 7.24196 4.3267 6.91419 4.49839C6.58641 4.68569 6.33668 4.98224 6.22743 5.34123C6.04013 5.99677 6.39912 6.68354 7.05466 6.87083C7.21074 6.91766 7.38243 6.82401 7.42926 6.66793C7.47608 6.51185 7.38243 6.34016 7.22635 6.29333C6.89858 6.19968 6.71128 5.84069 6.80493 5.51292C6.86736 5.31001 7.00784 5.13832 7.19513 5.02907C7.38243 4.91981 7.60095 4.9042 7.80385 4.96663C8.06919 5.04467 8.2721 5.21636 8.41257 5.4661C8.53744 5.70022 8.56866 5.98117 8.49061 6.24651C8.39697 6.57428 8.17845 6.83962 7.86629 6.9957C7.56973 7.15178 7.22635 7.19861 6.89858 7.08935C6.07134 6.83962 5.6031 5.98117 5.85283 5.12272C6.14938 4.10818 7.11709 3.60872 8.81839 3.60872C9.5988 3.60872 109.616 3.60872 142.487 3.60872H151.555C153.257 3.60872 154.224 4.10818 154.521 5.12272C154.755 5.98117 154.302 6.83962 153.46 7.08935C153.132 7.183 152.788 7.15178 152.492 6.9957C152.195 6.83962 151.977 6.55867 151.868 6.24651C151.79 5.98117 151.821 5.71583 151.946 5.4661C152.07 5.23197 152.289 5.04467 152.554 4.96663C152.757 4.9042 152.976 4.91981 153.163 5.02907C153.35 5.13832 153.491 5.29441 153.553 5.51292C153.647 5.84069 153.46 6.19968 153.132 6.29333C152.976 6.34016 152.882 6.51185 152.929 6.66793C152.976 6.82401 153.147 6.91766 153.304 6.87083C153.959 6.66793 154.318 5.98117 154.131 5.34123C154.037 4.98224 153.787 4.68569 153.46 4.49839C153.132 4.3267 152.742 4.27987 152.383 4.38913C151.961 4.514 151.618 4.79494 151.415 5.16954C151.212 5.54414 151.165 5.99678 151.29 6.40259C151.431 6.88644 151.758 7.27665 152.195 7.51077C152.476 7.66685 152.773 7.72929 153.085 7.72929C153.272 7.72929 153.444 7.69807 153.631 7.65124C154.786 7.32347 155.426 6.13725 155.098 4.96663Z" fill="#F8E0A4" stroke="#F8E0A4" stroke-width="0.5"/>
<path d="M5.26968 115.033C5.64429 116.344 6.83052 117 8.81276 117L17.8811 117C50.752 117 150.769 117 151.55 117C153.532 117 154.734 116.344 155.093 115.033C155.436 113.863 154.781 112.677 153.626 112.318C153.157 112.177 152.642 112.224 152.205 112.474C151.753 112.708 151.441 113.098 151.284 113.582C151.16 114.003 151.206 114.44 151.409 114.815C151.628 115.205 151.971 115.486 152.377 115.611C152.736 115.72 153.126 115.673 153.454 115.502C153.782 115.314 154.031 115.018 154.141 114.659C154.328 114.003 153.969 113.316 153.314 113.129C153.157 113.082 152.986 113.176 152.939 113.332C152.892 113.488 152.986 113.66 153.142 113.707C153.47 113.8 153.657 114.159 153.563 114.487C153.501 114.69 153.36 114.862 153.173 114.971C152.986 115.08 152.767 115.096 152.564 115.033C152.299 114.955 152.096 114.784 151.956 114.534C151.831 114.3 151.8 114.019 151.878 113.753C151.971 113.426 152.19 113.16 152.502 113.004C152.798 112.848 153.142 112.801 153.47 112.911C154.297 113.16 154.765 114.019 154.515 114.877C154.219 115.892 153.251 116.391 151.55 116.391C150.769 116.391 50.752 116.391 17.8811 116.391L8.81276 116.391C7.11147 116.391 6.14375 115.892 5.8472 114.877C5.61308 114.019 6.0657 113.16 6.90855 112.911C7.23633 112.817 7.57971 112.848 7.87627 113.004C8.17282 113.16 8.39133 113.441 8.50058 113.753C8.57861 114.019 8.54741 114.284 8.42255 114.534C8.29768 114.768 8.07916 114.955 7.81383 115.033C7.61092 115.096 7.39241 115.08 7.20511 114.971C7.01781 114.862 6.87735 114.706 6.81491 114.487C6.72127 114.159 6.90855 113.8 7.23633 113.707C7.39241 113.66 7.48605 113.488 7.43922 113.332C7.3924 113.176 7.22072 113.082 7.06464 113.129C6.40909 113.332 6.05009 114.019 6.2374 114.659C6.33104 115.018 6.58078 115.314 6.90855 115.502C7.23633 115.673 7.62653 115.72 7.98552 115.611C8.40694 115.486 8.75032 115.205 8.95323 114.83C9.15614 114.456 9.20296 114.003 9.07809 113.597C8.93762 113.114 8.60985 112.723 8.17282 112.489C7.89188 112.333 7.59531 112.271 7.28314 112.271C7.09584 112.271 6.92416 112.302 6.73686 112.349C5.58185 112.677 4.94191 113.863 5.26968 115.033Z" fill="#F8E0A4" stroke="#F8E0A4" stroke-width="0.5"/>
</svg>
