<svg width="52" height="52" viewBox="0 0 52 52" fill="none" xmlns="http://www.w3.org/2000/svg">
<path d="M51.7582 18.0699V5.45235C51.7582 2.44506 49.3131 0 46.3058 0H12.245C9.35535 0 6.98874 2.32738 6.98874 5.19085L6.79261 38.1534H1.54946C0.830327 38.1534 0.241943 38.7418 0.241943 39.4609V45.1225C0.241943 48.8097 3.17078 51.83 6.81876 51.9869V52H36.2118V51.9869C36.3425 52 36.4733 52 36.604 52C40.3958 52 43.4816 48.9143 43.4816 45.1225V19.3643H50.4506C51.1698 19.3774 51.7582 18.8021 51.7582 18.0699ZM2.85698 45.1355V40.7815H29.7265V45.1355C29.7265 46.7438 30.2887 48.2213 31.217 49.398H7.11949C4.76596 49.398 2.85698 47.4891 2.85698 45.1355ZM40.8665 5.45235V45.1355C40.8665 47.4891 38.9576 49.398 36.604 49.398C34.2505 49.398 32.3415 47.4891 32.3415 45.1355V39.474C32.3415 38.7548 31.7531 38.1665 31.034 38.1665H9.42072L9.61685 5.20392C9.61685 3.77873 10.7936 2.61504 12.258 2.61504H41.6772C41.1542 3.45185 40.8665 4.41941 40.8665 5.45235ZM43.4816 16.7624V5.45235C43.4816 3.8964 44.7499 2.61504 46.3189 2.61504C47.8748 2.61504 49.1562 3.88333 49.1562 5.45235V16.7624H43.4816Z" fill="white"/>
<path d="M35.2703 9.68873H14.4154C13.6963 9.68873 13.1079 10.2771 13.1079 10.9962C13.1079 11.7154 13.6963 12.3038 14.4154 12.3038H35.2834C36.0025 12.3038 36.5909 11.7154 36.5909 10.9962C36.5909 10.2771 35.9895 9.68873 35.2703 9.68873Z" fill="white"/>
<path d="M27.033 19.6128H14.4154C13.6963 19.6128 13.1079 20.2012 13.1079 20.9203C13.1079 21.6394 13.6963 22.2278 14.4154 22.2278H27.033C27.7521 22.2278 28.3405 21.6394 28.3405 20.9203C28.3405 20.2012 27.7521 19.6128 27.033 19.6128Z" fill="white"/>
<path d="M27.033 29.5368H14.4154C13.6963 29.5368 13.1079 30.1252 13.1079 30.8443C13.1079 31.5635 13.6963 32.1518 14.4154 32.1518H27.033C27.7521 32.1518 28.3405 31.5635 28.3405 30.8443C28.3405 30.1252 27.7521 29.5368 27.033 29.5368Z" fill="white"/>
</svg>
