<svg width="336" height="17" viewBox="0 0 336 17" fill="none" xmlns="http://www.w3.org/2000/svg">
<path d="M332.949 16.8137C332.076 16.8137 331.332 16.1668 331.235 15.2613C331.202 14.8732 331.461 14.5174 331.849 14.4851C332.237 14.4527 332.593 14.7115 332.625 15.0996C332.625 15.2289 332.722 15.2936 332.755 15.326C332.787 15.3583 332.884 15.423 333.013 15.3906C333.596 15.326 333.854 14.7762 333.854 14.2587C333.951 10.8952 331.882 8.5666 331.235 7.95211L4.19816 7.95217C3.58368 8.56666 1.51382 10.8952 1.61085 14.2587C1.61085 14.7762 1.90192 15.3584 2.45173 15.3907C2.61343 15.423 2.77514 15.2937 2.80748 15.132C2.83982 14.7439 3.19558 14.4851 3.58368 14.5175C3.97177 14.5498 4.26285 14.9056 4.19816 15.2937C4.10114 16.2316 3.22792 16.9431 2.29002 16.8461C1.09339 16.6844 0.220169 15.6494 0.187827 14.2911C0.0584605 9.66627 3.32494 6.82022 3.45431 6.69085L3.64836 6.52915L331.687 6.52909L331.914 6.6908C332.043 6.82016 335.31 9.66621 335.18 14.291C335.148 15.6494 334.275 16.6843 333.078 16.8137C333.078 16.8137 333.013 16.8137 332.949 16.8137Z" fill="white"/>
<path d="M16.1321 10.0867L15.9058 9.92499C15.7764 9.79563 12.7363 7.14363 12.8333 2.87456C12.8657 1.58091 13.6742 0.610664 14.8385 0.481298C15.7441 0.384274 16.5526 1.0311 16.6496 1.969C16.682 2.3571 16.4232 2.68051 16.0351 2.7452C15.647 2.77754 15.2913 2.48647 15.2589 2.09837C15.2589 1.969 15.1296 1.87198 14.9679 1.87198C14.4827 1.93666 14.2563 2.42178 14.2563 2.90691C14.1593 5.947 16.0351 8.08153 16.6173 8.69602L319.107 8.69597C319.689 8.11382 321.565 5.97929 321.5 2.90685C321.5 2.45407 321.241 1.93661 320.756 1.90427C320.627 1.90427 320.497 2.00129 320.465 2.13066C320.433 2.51875 320.077 2.80983 319.689 2.74514C319.301 2.7128 319.01 2.35705 319.074 1.96895C319.171 1.06339 319.98 0.38422 320.885 0.481245C322.017 0.61061 322.858 1.58085 322.891 2.84217C322.988 7.14358 319.98 9.79558 319.85 9.8926L319.656 10.0543L16.1321 10.0867Z" fill="white"/>
</svg>
