<svg width="295" height="11" viewBox="0 0 295 11" fill="none" xmlns="http://www.w3.org/2000/svg">
<path d="M294.051 4.71588C293.318 2.15106 290.998 0.868652 287.12 0.868652H269.38C205.077 0.868652 9.41754 0.868652 7.89086 0.868652C4.0131 0.868652 1.66202 2.15106 0.959744 4.71588C0.288006 7.0059 1.57041 9.32644 3.8299 10.0287C4.7459 10.3035 5.75351 10.2119 6.60845 9.72338C7.49392 9.26538 8.10459 8.50204 8.40993 7.5555C8.6542 6.73109 8.5626 5.87615 8.16566 5.14335C7.73819 4.38001 7.06645 3.83041 6.27258 3.58614C5.57031 3.3724 4.80697 3.464 4.16577 3.79987C3.52456 4.16628 3.03603 4.74641 2.82229 5.44868C2.45589 6.73109 3.15816 8.07457 4.44057 8.44097C4.7459 8.53257 5.08177 8.34937 5.17337 8.04404C5.26497 7.7387 5.08177 7.40283 4.77644 7.31123C4.13523 7.12803 3.76883 6.42576 3.95203 5.78455C4.07417 5.38762 4.34897 5.05175 4.71537 4.83801C5.08177 4.62428 5.50924 4.59374 5.90618 4.71588C6.42525 4.86855 6.82218 5.20442 7.09699 5.69295C7.34125 6.15096 7.40232 6.70056 7.24965 7.21963C7.06645 7.86083 6.63898 8.3799 6.02831 8.68524C5.44818 8.99058 4.77644 9.08218 4.13523 8.86844C2.51695 8.3799 1.60095 6.70056 2.08949 5.02121C2.66962 3.03653 4.5627 2.05946 7.89086 2.05946C9.41754 2.05946 205.077 2.05946 269.38 2.05946H287.12C290.448 2.05946 292.341 3.03653 292.922 5.02121C293.38 6.70056 292.494 8.3799 290.845 8.86844C290.204 9.05164 289.532 8.99058 288.952 8.68524C288.372 8.3799 287.945 7.8303 287.731 7.21963C287.578 6.70056 287.639 6.18149 287.883 5.69295C288.128 5.23495 288.555 4.86855 289.074 4.71588C289.471 4.59374 289.899 4.62428 290.265 4.83801C290.632 5.05175 290.906 5.35708 291.028 5.78455C291.212 6.42576 290.845 7.12803 290.204 7.31123C289.899 7.40283 289.716 7.7387 289.807 8.04404C289.899 8.34937 290.235 8.53257 290.54 8.44097C291.822 8.04404 292.525 6.70056 292.158 5.44868C291.975 4.74641 291.486 4.16628 290.845 3.79987C290.204 3.464 289.441 3.3724 288.738 3.58614C287.914 3.83041 287.242 4.38001 286.845 5.11282C286.448 5.84562 286.357 6.73109 286.601 7.52497C286.876 8.47151 287.517 9.23484 288.372 9.69285C288.922 9.99818 289.502 10.1203 290.112 10.1203C290.479 10.1203 290.815 10.0592 291.181 9.96765C293.441 9.32644 294.692 7.0059 294.051 4.71588Z" fill="#F8E0A4" stroke="#F8E0A4" stroke-width="0.1"/>
</svg>
