<svg width="40" height="53" viewBox="0 0 40 53" fill="none" xmlns="http://www.w3.org/2000/svg">
<path d="M5.7449 0.288386C2.79035 0.288386 0.373535 2.70522 0.373535 5.65976V46.9111C0.373535 49.8657 2.79035 52.2825 5.7449 52.2825H25.7235C28.6781 52.2825 31.0949 49.8657 31.0949 46.9111V33.3734C31.1008 32.747 30.5394 32.1739 29.9131 32.1739C29.2867 32.1739 28.7254 32.747 28.7313 33.3734V41.6461H2.73717V8.5552H28.7372V16.8279C28.7313 17.4543 29.2926 18.0275 29.919 18.0275C30.5454 18.0275 31.1067 17.4543 31.1008 16.8279V5.65385C31.1008 2.6993 28.684 0.282471 25.7294 0.282471H5.7449V0.288386ZM5.7449 2.65202H25.7235C27.4135 2.65202 28.7313 3.96976 28.7313 5.65976V6.19748H2.73717V5.65976C2.73717 3.97567 4.0549 2.65202 5.7449 2.65202ZM35.1663 16.8161C34.7408 16.8398 34.339 17.1175 34.1617 17.5075C33.9844 17.8975 34.0376 18.382 34.3035 18.7188L36.4249 21.5611H21.0554C21.0199 21.5611 20.9785 21.5611 20.9431 21.5611C20.3226 21.5907 19.7849 22.1816 19.8144 22.7961C19.844 23.4166 20.4349 23.9543 21.0494 23.9247H38.4813C38.7767 23.9247 39.539 23.8597 39.8108 23.4402C40.0885 23.0147 40.0472 22.412 39.7163 22.028L36.1708 17.3007C35.9463 16.9816 35.5504 16.7984 35.1663 16.8161ZM20.9844 26.2707C20.559 26.2943 20.1572 26.572 19.9799 26.962C19.8026 27.352 19.8558 27.8366 20.1217 28.1734L23.6672 32.9007C24.0217 33.4325 24.849 33.5743 25.3631 33.1902C25.8772 32.8061 25.9658 31.973 25.5522 31.4825L23.4308 28.6579H38.7944C39.4208 28.6638 39.994 28.1025 39.994 27.4761C39.994 26.8498 39.4208 26.2884 38.7944 26.2943H30.5099C27.3485 26.2234 24.1281 26.3889 20.9844 26.2707ZM2.73717 44.0157H28.7372V46.917C28.7372 48.607 27.4194 49.9247 25.7294 49.9247H5.7449C4.0549 49.9247 2.73717 48.607 2.73717 46.917V44.0157ZM15.7372 45.1975C14.7563 45.1975 13.9644 45.9893 13.9644 46.9702C13.9644 47.9511 14.7563 48.7429 15.7372 48.7429C16.7181 48.7429 17.5099 47.9511 17.5099 46.9702C17.5099 45.9893 16.7181 45.1975 15.7372 45.1975Z" fill="white"/>
</svg>
