<svg width="54" height="54" viewBox="0 0 54 54" fill="none" xmlns="http://www.w3.org/2000/svg">
<path d="M27.1841 0.549805C12.8451 0.549805 1.18408 12.2108 1.18408 26.5498C1.18408 40.8888 12.8451 52.5498 27.1841 52.5498C41.5231 52.5498 53.1841 40.8888 53.1841 26.5498C53.1841 12.2108 41.5231 0.549805 27.1841 0.549805ZM27.1841 51.2498C20.4631 51.2498 14.3661 48.5458 9.90708 44.1778L11.9351 40.7003C14.4441 36.3908 19.1046 33.7128 24.0966 33.7128H30.2716C35.2701 33.7128 39.9306 36.3973 42.4396 40.7133L44.4546 44.1908C39.9956 48.5523 33.8986 51.2498 27.1841 51.2498ZM45.3906 43.2158L43.5576 40.0568C40.8146 35.3378 35.7251 32.4063 30.2651 32.4063H24.0901C18.6366 32.4063 13.5471 35.3313 10.8041 40.0438L8.96458 43.2093C4.94108 38.8153 2.48408 32.9653 2.48408 26.5498C2.48408 12.9323 13.5666 1.8498 27.1841 1.8498C40.8016 1.8498 51.8841 12.9323 51.8841 26.5498C51.8841 32.9718 49.4206 38.8218 45.3906 43.2158Z" fill="white"/>
<path d="M27.1841 7.52431C22.4456 7.52431 18.5911 11.3788 18.5911 16.1173V20.9403C18.5911 25.6788 22.4456 29.5333 27.1841 29.5333C31.9226 29.5333 35.7771 25.6788 35.7771 20.9403V16.1173C35.7771 11.3788 31.9226 7.52431 27.1841 7.52431ZM34.4771 20.9403C34.4771 24.9638 31.2076 28.2333 27.1841 28.2333C23.1606 28.2333 19.8911 24.9638 19.8911 20.9403V16.1173C19.8911 12.0938 23.1606 8.82431 27.1841 8.82431C31.2076 8.82431 34.4771 12.0938 34.4771 16.1173V20.9403Z" fill="white"/>
<path d="M27.1841 0.549805C12.8451 0.549805 1.18408 12.2108 1.18408 26.5498C1.18408 40.8888 12.8451 52.5498 27.1841 52.5498C41.5231 52.5498 53.1841 40.8888 53.1841 26.5498C53.1841 12.2108 41.5231 0.549805 27.1841 0.549805ZM27.1841 51.2498C20.4631 51.2498 14.3661 48.5458 9.90708 44.1778L11.9351 40.7003C14.4441 36.3908 19.1046 33.7128 24.0966 33.7128H30.2716C35.2701 33.7128 39.9306 36.3973 42.4396 40.7133L44.4546 44.1908C39.9956 48.5523 33.8986 51.2498 27.1841 51.2498ZM45.3906 43.2158L43.5576 40.0568C40.8146 35.3378 35.7251 32.4063 30.2651 32.4063H24.0901C18.6366 32.4063 13.5471 35.3313 10.8041 40.0438L8.96458 43.2093C4.94108 38.8153 2.48408 32.9653 2.48408 26.5498C2.48408 12.9323 13.5666 1.8498 27.1841 1.8498C40.8016 1.8498 51.8841 12.9323 51.8841 26.5498C51.8841 32.9718 49.4206 38.8218 45.3906 43.2158Z" stroke="white"/>
<path d="M27.1841 7.52431C22.4456 7.52431 18.5911 11.3788 18.5911 16.1173V20.9403C18.5911 25.6788 22.4456 29.5333 27.1841 29.5333C31.9226 29.5333 35.7771 25.6788 35.7771 20.9403V16.1173C35.7771 11.3788 31.9226 7.52431 27.1841 7.52431ZM34.4771 20.9403C34.4771 24.9638 31.2076 28.2333 27.1841 28.2333C23.1606 28.2333 19.8911 24.9638 19.8911 20.9403V16.1173C19.8911 12.0938 23.1606 8.82431 27.1841 8.82431C31.2076 8.82431 34.4771 12.0938 34.4771 16.1173V20.9403Z" stroke="white"/>
</svg>
