<svg width="33" height="32" viewBox="0 0 33 32" fill="none" xmlns="http://www.w3.org/2000/svg">
<path d="M32.4669 9.09609L29.3662 21.5025C29.1198 22.4846 28.2407 23.1724 27.2255 23.1724H8.10276C6.98092 23.1724 6.03931 22.3338 5.91057 21.223L3.67793 3.31034H2.15517C1.23931 3.31034 0.5 2.57103 0.5 1.65517C0.5 0.73931 1.23931 0 2.15517 0H5.11977C5.94736 0 6.64621 0.610575 6.76023 1.4308L7.62092 7.72414H31.3966C32.1138 7.72414 32.6398 8.40092 32.4669 9.09609Z" fill="white"/>
<path d="M7.12069 28.6897C7.12069 30.514 8.60667 32 10.431 32C12.2554 32 13.7414 30.514 13.7414 28.6897C13.7414 26.8653 12.2554 25.3793 10.431 25.3793C8.60667 25.3793 7.12069 26.8653 7.12069 28.6897Z" fill="white"/>
<path d="M26.9828 28.6897C26.9828 26.8653 25.4968 25.3793 23.6724 25.3793C21.848 25.3793 20.3621 26.8653 20.3621 28.6897C20.3621 30.514 21.848 32 23.6724 32C25.4968 32 26.9828 30.514 26.9828 28.6897Z" fill="white"/>
</svg>
