<svg width="27" height="32" viewBox="0 0 27 32" fill="none" xmlns="http://www.w3.org/2000/svg">
<path d="M26.2943 27.1999L24.9676 31.4305C24.848 31.7778 24.5178 32.0056 24.1534 31.9999H2.8467C2.48229 32.0056 2.15204 31.7778 2.03246 31.4305L0.705779 27.1942C-0.01735 24.9166 0.233183 22.8668 1.42891 21.2327C3.33637 18.6192 7.51003 17.2469 13.5 17.2469C19.4901 17.2469 23.6637 18.6305 25.5712 21.2327C26.7669 22.8498 27.0174 24.9337 26.2943 27.1999ZM13.5 15.2825C17.7192 15.2882 21.1413 11.8662 21.147 7.64696C21.1527 3.42775 17.7306 0.00570103 13.5114 7.09527e-06C9.29223 -0.00568683 5.87017 3.41637 5.86448 7.63557V7.64126C5.87017 11.8605 9.28084 15.2768 13.5 15.2825Z" fill="white"/>
</svg>
