<svg width="33" height="30" viewBox="0 0 33 30" fill="none" xmlns="http://www.w3.org/2000/svg">
<path d="M31.9205 12.5164L18.5977 1.43537C17.4127 0.41054 15.6193 0.41054 14.4343 1.43537L13.3134 2.36412C9.24611 5.75888 5.17881 9.15363 1.11151 12.5164C0.695174 12.8366 0.470992 13.349 0.503018 13.8615C0.503018 14.502 0.503018 15.1425 0.503018 15.815C0.503018 16.5837 0.7272 16.8078 1.49582 16.7758C2.42458 16.7758 3.3213 16.7758 4.25006 16.7758C4.69842 16.7758 4.76247 16.8719 4.76247 17.3203V22.3804C4.76247 23.9817 4.76247 25.5509 4.76247 27.1202C4.76247 28.4973 5.59515 29.33 6.97227 29.33C8.76572 29.33 10.5272 29.33 12.3206 29.33C12.4487 29.33 12.5768 29.33 12.7049 29.298V22.1242H20.2951V29.298C20.4232 29.33 20.5193 29.33 20.6474 29.33C22.4728 29.33 24.2663 29.33 26.0918 29.33C27.2127 29.394 28.1735 28.5293 28.2375 27.4084C28.2375 27.3124 28.2375 27.2483 28.2375 27.1522V17.3203C28.2375 16.8399 28.3016 16.7758 28.782 16.7758C29.7427 16.7758 30.7355 16.7758 31.6963 16.7758C32.0806 16.8399 32.4649 16.5837 32.497 16.1673C32.497 16.1033 32.497 16.0072 32.497 15.9431C32.497 15.2386 32.497 14.502 32.497 13.7974C32.529 13.285 32.3048 12.8366 31.9205 12.5164Z" fill="white"/>
</svg>
