<svg width="33" height="24" viewBox="0 0 33 24" fill="none" xmlns="http://www.w3.org/2000/svg">
<path d="M0.5 21.4284H32.5V23.6316H0.5V21.4284ZM17.5788 3.75694C21.1952 4.03045 24.4468 5.5955 26.8628 8.01146C30.0537 11.2023 31.1629 14.8187 31.1629 19.2251H1.79155C1.79155 14.8187 2.90076 11.2023 6.09164 8.01146C8.5076 5.5955 11.7593 4.03045 15.3756 3.75694V2.57176H13.3547V0.36853H19.5845V2.57176H17.5636L17.5788 3.75694ZM14.8742 8.11782L14.2816 5.99056L13.9473 6.08173C11.4706 6.76549 9.61681 7.6012 7.76306 9.40937C5.90931 11.2175 4.99763 13.0409 4.25309 15.4872L4.14672 15.8367L6.25878 16.4901L6.36515 16.1406C7.00332 14.0589 7.71747 12.5243 9.29772 10.9896C10.8932 9.45495 12.4278 8.78638 14.5247 8.20899L14.8742 8.11782Z" fill="white"/>
</svg>
