<svg width="27" height="32" viewBox="0 0 27 32" fill="none" xmlns="http://www.w3.org/2000/svg">
<path d="M25.1565 21.8517C22.7241 19.0325 24.4507 15.2563 23.2983 9.09159C22.5008 4.90068 18.2501 3.44922 15.6103 2.95078V2.1134C15.6103 0.945047 14.6653 0 13.4969 0C12.3286 0 11.3835 0.945047 11.3835 2.1134C11.3835 2.1134 11.3835 2.1134 11.3835 2.11738V2.95477C8.74376 3.4572 4.48507 4.90866 3.69952 9.09558C2.54712 15.2444 4.27772 19.0245 1.84133 21.8557C-0.595057 24.6869 0.369928 24.9939 0.369928 24.9939H26.6319C26.6319 24.9899 27.5929 24.6669 25.1565 21.8517Z" fill="white"/>
<path d="M13.5049 32C16.0848 32 18.1783 29.9065 18.1783 27.3266H8.8275C8.8275 29.9065 10.921 32 13.5009 32C13.5049 32 13.5049 32 13.5049 32Z" fill="white"/>
</svg>
