<svg width="22" height="22" viewBox="0 0 22 22" fill="none" xmlns="http://www.w3.org/2000/svg">
<path d="M0.863219 7.32256C0.863219 7.32256 1.37603 9.39944 3.27343 11.7327C4.76058 13.5789 7.52976 16.6814 10.2989 18.6557C12.5553 20.271 14.3501 20.8095 14.3501 20.8095C15.9911 21.5018 17.0937 21.0659 17.0937 21.0659C17.8885 20.8351 18.6065 20.2967 19.2475 19.7839C19.9654 19.1941 20.6577 18.5531 21.2475 17.8608C21.4526 17.6044 21.5551 17.3737 21.4782 17.0403C21.1962 16.3993 19.1962 14.5788 18.6578 14.1429C18.2732 13.8353 17.9142 13.5019 17.5039 13.2455C17.3245 13.143 17.145 13.0404 16.9655 12.9891C16.5552 12.9122 16.2732 13.2968 16.0168 13.5532C15.5296 14.0404 14.6835 15.2455 14.145 15.3993C13.6066 15.5788 12.0938 14.5788 11.6066 14.1686C9.99125 12.8353 8.27334 11.1686 7.50412 10.0661C7.14515 9.55329 6.09389 8.06613 6.27338 7.52768C6.42722 7.01487 7.63232 6.14309 8.11949 5.65592C8.3759 5.39952 8.76051 5.14311 8.68359 4.70722C8.65795 4.5021 8.55538 4.32261 8.42718 4.16877C8.17078 3.75852 7.83745 3.37391 7.52976 3.01495C7.09387 2.47649 5.27339 0.476531 4.63238 0.194485C4.32469 0.117563 4.06829 0.220125 3.81188 0.425249C3.09395 1.01498 2.45293 1.70728 1.88884 2.42521C1.37603 3.06623 0.837578 3.78416 0.606813 4.57902C0.606813 4.60466 0.196564 5.7072 0.863219 7.32256Z" fill="#743144"/>
</svg>
