<svg xmlns="http://www.w3.org/2000/svg" width="40.315" height="40.323" viewBox="0 0 40.315 40.323">
  <path id="Path_1158" data-name="Path 1158" d="M48.627,40.183A4.638,4.638,0,0,0,46.15,37.14c-.807-.475-2.03-1.262-3.213-2.023-1.11-.715-2.159-1.391-2.823-1.783-2.011-1.182-6.162,1-7.126,1.534h0c-.783,0-3.87-2.064-6.072-4.268s-4.271-5.295-4.268-6.074c.539-.965,2.718-5.111,1.534-7.125-.393-.667-1.073-1.72-1.794-2.843-.757-1.176-1.54-2.391-2.012-3.194a4.633,4.633,0,0,0-3.042-2.477,3.926,3.926,0,0,0-3.226,1.094c-1.787,1.5-5.971,5.029-5.166,8.7.941,4.285,5.86,12.93,11.413,18.483s14.2,10.473,18.482,11.413a4.377,4.377,0,0,0,.946.1c3.316,0,6.377-3.634,7.752-5.267a3.933,3.933,0,0,0,1.092-3.226ZM46.22,42.3c-1.194,1.417-4.359,5.177-7.013,4.595-3.576-.785-12.017-5.332-17.636-10.95S11.405,21.887,10.62,18.309c-.582-2.652,3.182-5.82,4.595-7.013a2.6,2.6,0,0,1,1.6-.733,1.349,1.349,0,0,1,.23.019c.849.145,1.524,1.1,1.851,1.655.49.833,1.283,2.064,2.049,3.253.71,1.1,1.381,2.145,1.757,2.784.424.721-.285,3.173-1.582,5.467-1.227,2.171,4.524,8.018,4.583,8.076s5.909,5.8,8.076,4.583c2.293-1.3,4.747-2.006,5.468-1.582.634.372,1.668,1.039,2.764,1.744,1.2.774,2.435,1.569,3.272,2.064.556.327,1.509,1,1.655,1.85a2.333,2.333,0,0,1-.714,1.825ZM32.585,10.333a.86.86,0,0,1,.86-.86,13.835,13.835,0,0,1,13.819,13.82.86.86,0,0,1-1.72,0,12.113,12.113,0,0,0-12.1-12.1A.86.86,0,0,1,32.585,10.333Zm0,6.879a.86.86,0,0,1,.86-.86,6.947,6.947,0,0,1,6.94,6.941.86.86,0,1,1-1.72,0,5.226,5.226,0,0,0-5.22-5.221.86.86,0,0,1-.86-.86Z" transform="translate(-8.597 -8.603)" fill="#fefdf8" stroke="#fefdf8" stroke-width="0.5"/>
</svg>
