<svg xmlns="http://www.w3.org/2000/svg" width="197.704" height="174.483" viewBox="0 0 197.704 174.483">
  <g id="Group_940" data-name="Group 940" transform="translate(-1030.884 -12054)">
    <g id="undraw_shopping_app_flsj" transform="translate(1034.884 12054)">
      <g id="Group_991" data-name="Group 991" transform="translate(-4)">
        <path id="Path_1029" data-name="Path 1029" d="M243,120.94h-.959V94.676a15.2,15.2,0,0,0-15.2-15.2H171.2a15.2,15.2,0,0,0-15.2,15.2V238.759a15.2,15.2,0,0,0,15.2,15.2h55.642a15.2,15.2,0,0,0,15.2-15.2V139.634H243Z" transform="translate(-156 -79.476)" fill="#e6e6e6"/>
        <path id="Path_1030" data-name="Path 1030" d="M240.9,96.107h-7.263a5.393,5.393,0,0,1-4.993,7.43H196.768a5.393,5.393,0,0,1-4.993-7.43h-6.784a11.352,11.352,0,0,0-11.352,11.352V251.33a11.352,11.352,0,0,0,11.352,11.352H240.9a11.352,11.352,0,0,0,11.352-11.352V107.459A11.352,11.352,0,0,0,240.9,96.107Z" transform="translate(-169.445 -92.153)" fill="#fff"/>
        <path id="Path_1031" data-name="Path 1031" d="M257.553,219.111h-3.338a.443.443,0,0,0-.443.443v1.465a.443.443,0,0,0,.443.443h.553v2.2H257v-2.2h.553a.443.443,0,0,0,.443-.443v-1.465a.443.443,0,0,0-.443-.443Z" transform="translate(-230.524 -185.908)" fill="#e6e6e6"/>
        <path id="Path_1032" data-name="Path 1032" d="M251.045,239.7a17.162,17.162,0,0,1-2.986-10.175.362.362,0,0,0-.283-.361v-.633h-3.526v.624H244.2a.362.362,0,0,0-.361.362q0,.013,0,.026a15.663,15.663,0,0,1-2.814,10.416,1,1,0,0,0-.18.6l.386,11.925a1.032,1.032,0,0,0,1.023,1h7.974a1.033,1.033,0,0,0,1.024-1.014l.149-11.578A2.09,2.09,0,0,0,251.045,239.7Z" transform="translate(-220.673 -193.09)" fill="#e6e6e6"/>
        <path id="Path_1033" data-name="Path 1033" d="M253.89,292.166h-6.941a.713.713,0,0,0-.7.821l1.049,6.818h6.023l1.274-6.795a.713.713,0,0,0-.7-.844Z" transform="translate(-224.78 -241.593)" fill="#fff"/>
        <path id="Path_1034" data-name="Path 1034" d="M413.837,369.345H410.5a.443.443,0,0,0-.443.443v1.465a.443.443,0,0,0,.443.443h.553v2.2h2.232v-2.2h.553a.443.443,0,0,0,.443-.443v-1.465A.443.443,0,0,0,413.837,369.345Z" transform="translate(-349.647 -300.421)" fill="#e6e6e6"/>
        <path id="Path_1035" data-name="Path 1035" d="M407.33,389.936a17.162,17.162,0,0,1-2.986-10.175.362.362,0,0,0-.283-.361v-.633h-3.526v.624h-.049a.362.362,0,0,0-.361.362q0,.013,0,.026a15.663,15.663,0,0,1-2.814,10.416,1,1,0,0,0-.18.6l.385,11.925a1.032,1.032,0,0,0,1.023,1h7.974a1.033,1.033,0,0,0,1.024-1.014l.149-11.578A2.09,2.09,0,0,0,407.33,389.936Z" transform="translate(-339.796 -307.602)" fill="#e6e6e6"/>
        <path id="Path_1036" data-name="Path 1036" d="M410.175,442.4h-6.941a.713.713,0,0,0-.7.821l1.049,6.818H409.6l1.274-6.795a.713.713,0,0,0-.7-.844Z" transform="translate(-343.904 -356.105)" fill="#fff"/>
        <path id="Path_1037" data-name="Path 1037" d="M244.186,581.733H242.6a.21.21,0,0,0-.21.21v.7a.21.21,0,0,0,.21.21h.262v1.041h1.059v-1.041h.262a.21.21,0,0,0,.21-.21v-.7A.21.21,0,0,0,244.186,581.733Z" transform="translate(-221.85 -462.307)" fill="#e6e6e6"/>
        <path id="Path_1038" data-name="Path 1038" d="M241.1,591.5a8.141,8.141,0,0,1-1.416-4.827.172.172,0,0,0-.134-.171v-.3h-1.672v.3h-.023a.172.172,0,0,0-.171.172s0,.008,0,.012a7.43,7.43,0,0,1-1.335,4.941.473.473,0,0,0-.086.287l.183,5.656a.49.49,0,0,0,.485.473h3.783a.49.49,0,0,0,.486-.481l.07-5.492A.991.991,0,0,0,241.1,591.5Z" transform="translate(-217.178 -465.714)" fill="#e6e6e6"/>
        <rect id="Rectangle_737" data-name="Rectangle 737" width="3.609" height="1.805" transform="translate(19.768 127.866)" fill="#fff"/>
        <path id="Path_1039" data-name="Path 1039" d="M275.186,581.733H273.6a.21.21,0,0,0-.21.21v.7a.21.21,0,0,0,.21.21h.262v1.041h1.059v-1.041h.262a.21.21,0,0,0,.21-.21v-.7A.21.21,0,0,0,275.186,581.733Z" transform="translate(-245.479 -462.307)" fill="#e6e6e6"/>
        <path id="Path_1040" data-name="Path 1040" d="M272.1,591.5a8.141,8.141,0,0,1-1.416-4.827.172.172,0,0,0-.134-.171v-.3h-1.672v.3h-.023a.172.172,0,0,0-.171.172s0,.008,0,.012a7.43,7.43,0,0,1-1.335,4.941.473.473,0,0,0-.086.287l.183,5.656a.49.49,0,0,0,.485.473h3.783a.49.49,0,0,0,.486-.481l.07-5.492A.991.991,0,0,0,272.1,591.5Z" transform="translate(-240.807 -465.714)" fill="#e6e6e6"/>
        <rect id="Rectangle_738" data-name="Rectangle 738" width="3.609" height="1.805" transform="translate(27.139 127.866)" fill="#fff"/>
        <path id="Path_1041" data-name="Path 1041" d="M306.186,581.733H304.6a.21.21,0,0,0-.21.21v.7a.21.21,0,0,0,.21.21h.262v1.041h1.059v-1.041h.262a.21.21,0,0,0,.21-.21v-.7A.21.21,0,0,0,306.186,581.733Z" transform="translate(-269.108 -462.307)" fill="#e6e6e6"/>
        <path id="Path_1042" data-name="Path 1042" d="M303.1,591.5a8.141,8.141,0,0,1-1.416-4.827.172.172,0,0,0-.134-.171v-.3h-1.672v.3h-.023a.172.172,0,0,0-.171.172s0,.008,0,.012a7.429,7.429,0,0,1-1.335,4.941.473.473,0,0,0-.086.287l.183,5.656a.49.49,0,0,0,.486.473h3.783a.49.49,0,0,0,.486-.481l.07-5.492A.991.991,0,0,0,303.1,591.5Z" transform="translate(-264.435 -465.714)" fill="#e6e6e6"/>
        <rect id="Rectangle_739" data-name="Rectangle 739" width="3.609" height="1.805" transform="translate(34.51 127.866)" fill="#fff"/>
        <path id="Path_1043" data-name="Path 1043" d="M389.448,523.613h-3.338a.443.443,0,0,0-.443.443v1.465a.443.443,0,0,0,.443.443h.553v2.2h2.232v-2.2h.553a.443.443,0,0,0,.443-.443v-1.465A.443.443,0,0,0,389.448,523.613Z" transform="translate(-331.057 -418.007)" fill="#e6e6e6"/>
        <path id="Path_1044" data-name="Path 1044" d="M382.94,544.2a17.162,17.162,0,0,1-2.986-10.175.362.362,0,0,0-.283-.361v-.633h-3.526v.624H376.1a.362.362,0,0,0-.361.362c0,.009,0,.018,0,.026a15.662,15.662,0,0,1-2.814,10.416,1,1,0,0,0-.18.6l.385,11.925a1.032,1.032,0,0,0,1.023,1h7.974a1.033,1.033,0,0,0,1.024-1.014L383.3,545.4A2.09,2.09,0,0,0,382.94,544.2Z" transform="translate(-321.206 -425.188)" fill="#e6e6e6"/>
        <path id="Path_1045" data-name="Path 1045" d="M385.785,596.668h-6.941a.713.713,0,0,0-.7.821l1.049,6.818h6.023l1.274-6.795a.713.713,0,0,0-.7-.844Z" transform="translate(-325.314 -473.692)" fill="#fff"/>
        <path id="Path_1046" data-name="Path 1046" d="M345.443,255.4h-19.9c1.391-7.522,1.071-16.6,0-26.372h19.9C344.4,238.795,344.089,247.877,345.443,255.4Z" transform="translate(-285.23 -193.467)" fill="#e6e6e6"/>
        <circle id="Ellipse_177" data-name="Ellipse 177" cx="4.795" cy="4.795" r="4.795" transform="translate(45.588 43.232)" fill="#fff"/>
        <path id="Path_1047" data-name="Path 1047" d="M268.813,402.609h-19.9c1.391-7.522,1.071-16.6,0-26.372h19.9C267.771,386,267.459,395.087,268.813,402.609Z" transform="translate(-226.821 -305.673)" fill="#e6e6e6"/>
        <circle id="Ellipse_178" data-name="Ellipse 178" cx="4.795" cy="4.795" r="4.795" transform="translate(27.367 78.235)" fill="#fff"/>
        <path id="Path_1048" data-name="Path 1048" d="M392.832,262.457h-19.9c1.391-7.522,1.071-16.6,0-26.372h19.9C391.79,245.853,391.478,254.935,392.832,262.457Z" transform="translate(-321.351 -198.847)" fill="#e6e6e6"/>
        <circle id="Ellipse_179" data-name="Ellipse 179" cx="4.795" cy="4.795" r="4.795" transform="translate(56.856 44.91)" fill="#fff"/>
        <path id="Path_1049" data-name="Path 1049" d="M392.832,257.416h-19.9c1.391-7.522,1.071-16.6,0-26.372h19.9C391.79,240.811,391.478,249.894,392.832,257.416Z" transform="translate(-321.351 -195.004)" fill="#e6e6e6"/>
        <circle id="Ellipse_180" data-name="Ellipse 180" cx="4.795" cy="4.795" r="4.795" transform="translate(56.856 43.711)" fill="#fff"/>
        <path id="Path_1050" data-name="Path 1050" d="M392.832,262.457h-19.9c1.391-7.522,1.071-16.6,0-26.372h19.9C391.79,245.853,391.478,254.935,392.832,262.457Z" transform="translate(-321.351 -198.847)" fill="#e6e6e6"/>
        <circle id="Ellipse_181" data-name="Ellipse 181" cx="4.795" cy="4.795" r="4.795" transform="translate(56.856 44.91)" fill="#fff"/>
        <rect id="Rectangle_740" data-name="Rectangle 740" width="65.211" height="7.192" transform="translate(10.825 60.494)" fill="#e6e6e6"/>
        <rect id="Rectangle_741" data-name="Rectangle 741" width="65.211" height="7.192" transform="translate(10.825 96.216)" fill="#e6e6e6"/>
        <rect id="Rectangle_742" data-name="Rectangle 742" width="65.211" height="7.192" transform="translate(10.825 131.939)" fill="#e6e6e6"/>
      </g>
      <g id="Group_997" data-name="Group 997" transform="translate(-16 -7.478)">
        <path id="Path_1051" data-name="Path 1051" d="M908.022,665.948,884.53,649.332c7.923-7.718,15.129-18.708,22.021-31.134l23.492,16.616C920.656,645.475,912.7,655.938,908.022,665.948Z" transform="translate(-757.209 -503.277)" fill="#ec685a"/>
        <ellipse id="Ellipse_182" data-name="Ellipse 182" cx="6.934" cy="6.934" rx="6.934" ry="6.934" transform="translate(143.886 131.113)" fill="#fff"/>
        <path id="Path_1055" data-name="Path 1055" d="M850.169,641.218h-4.827a.64.64,0,0,0-.64.64v2.119a.64.64,0,0,0,.64.64h.8v3.175h3.227v-3.175h.8a.64.64,0,0,0,.64-.64v-2.119A.64.64,0,0,0,850.169,641.218Z" transform="translate(-731.075 -518.382)" fill="#e6e6e6"/>
        <path id="Path_1056" data-name="Path 1056" d="M846.524,666.791a24.817,24.817,0,0,1-4.317-14.714.524.524,0,0,0-.409-.522v-.915h-5.1v.9h-.07a.523.523,0,0,0-.522.524c0,.013,0,.025,0,.038a22.648,22.648,0,0,1-4.069,15.062,1.442,1.442,0,0,0-.261.874l.557,17.243a1.493,1.493,0,0,0,1.48,1.441h11.531a1.493,1.493,0,0,0,1.481-1.466l.215-16.742A3.021,3.021,0,0,0,846.524,666.791Z" transform="translate(-722.595 -524.564)" fill="#ec685a"/>
        <path id="Path_1057" data-name="Path 1057" d="M852.406,643.226a1.381,1.381,0,0,1-2.762,0" transform="translate(-734.318 -519.699)" opacity="0.2" style="isolation: isolate"/>
        <path id="Path_1058" data-name="Path 1058" d="M848.234,714.273H838.2a1.031,1.031,0,0,0-1.019,1.187l1.517,9.859H847.4l1.842-9.825a1.031,1.031,0,0,0-1.013-1.22Z" transform="translate(-726.131 -566.319)" fill="#fff"/>
        <path id="Path_1059" data-name="Path 1059" d="M765.633,684.219H736.858c2.012-10.877,1.549-24.01,0-38.134h28.774C764.125,660.209,763.675,673.342,765.633,684.219Z" transform="translate(-660.311 -521.576)" fill="#ec685a"/>
        <ellipse id="Ellipse_183" data-name="Ellipse 183" cx="6.934" cy="6.934" rx="6.934" ry="6.934" transform="translate(84.174 135.603)" fill="#fff"/>
        <path id="Path_1071" data-name="Path 1071" d="M594.823,502.368H503.408l-19.358-91.51H467.529v-4.106h19.849l19.358,91.51h88.087Z" transform="translate(-429.948 -337.206)" fill="#3f3d56"/>
        <ellipse id="Ellipse_187" data-name="Ellipse 187" cx="8.799" cy="8.799" rx="8.799" ry="8.799" transform="translate(78.057 164.282)" fill="#3f3d56"/>
        <ellipse id="Ellipse_188" data-name="Ellipse 188" cx="8.799" cy="8.799" rx="8.799" ry="8.799" transform="translate(143.757 164.282)" fill="#3f3d56"/>
        <path id="Path_1072" data-name="Path 1072" d="M789.218,610.7H700.277l-15.693-77.551H803.945a4.217,4.217,0,0,1,4.166,4.871l-14.727,69.118a4.2,4.2,0,0,1-4.165,3.562Zm-87.976-1.173h87.976a3.028,3.028,0,0,0,3.006-2.571l14.727-69.118a3.043,3.043,0,0,0-3.006-3.516H686.008Z" transform="translate(-626.01 -447.468)" fill="#3f3d56"/>
        <path id="Path_1073" data-name="Path 1073" d="M604.9,531.909l-10.277-76.621,1.157-.191,10.277,76.621Z" transform="translate(-513.343 -368.929)" fill="#3f3d56"/>
        <path id="Path_1074" data-name="Path 1074" d="M788.5,531.324l-1.158-.188L797.32,455.1l1.158.188Z" transform="translate(-639.8 -368.932)" fill="#3f3d56"/>
        <rect id="Rectangle_744" data-name="Rectangle 744" width="1.173" height="76.621" transform="translate(120.302 86.264)" fill="#3f3d56"/>
        <rect id="Rectangle_745" data-name="Rectangle 745" width="1.173" height="113.566" transform="translate(64.563 107.967) rotate(-89.861)" fill="#3f3d56"/>
        <rect id="Rectangle_746" data-name="Rectangle 746" width="99.772" height="1.173" transform="translate(70.35 143.718) rotate(-0.392)" fill="#3f3d56"/>
        <ellipse id="Ellipse_189" data-name="Ellipse 189" cx="6.453" cy="3.52" rx="6.453" ry="3.52" transform="translate(32.888 67.492)" fill="#3f3d56"/>
      </g>
    </g>
    <path id="Path_1075" data-name="Path 1075" d="M197.189,752.393c-3.484,6.462-10.879,9.236-10.879,9.236s-1.746-7.7,1.739-14.165,10.879-9.236,10.879-9.236S200.674,745.931,197.189,752.393Z" transform="translate(1019.727 11466.232)" fill="#2f2e41"/>
    <path id="Path_1076" data-name="Path 1076" d="M160.713,774.369c-6.291,3.785-8.713,11.3-8.713,11.3s7.776,1.381,14.067-2.4,8.713-11.3,8.713-11.3S167,770.584,160.713,774.369Z" transform="translate(1053.808 11442.133)" fill="#ec685a"/>
    <rect id="Rectangle_747" data-name="Rectangle 747" width="158.555" height="1.149" transform="translate(1069.71 12227.172)" fill="#2f2e41"/>
  </g>
</svg>
