<svg xmlns="http://www.w3.org/2000/svg" width="208.594" height="142.04" viewBox="0 0 208.594 142.04">
  <g id="undraw_empty_cart_co35" transform="translate(13.099 -80.576)">
    <path id="Path_941" data-name="Path 941" d="M188.542,755.605c4.275,7.928,13.347,11.331,13.347,11.331s2.142-9.45-2.133-17.378-13.347-11.331-13.347-11.331S184.268,747.678,188.542,755.605Z" transform="translate(-184.319 -545.136)" fill="#2f2e41"/>
    <path id="Path_942" data-name="Path 942" d="M169.258,774.97c7.718,4.643,10.69,13.866,10.69,13.866s-9.54,1.694-17.258-2.949S152,772.021,152,772.021,161.54,770.326,169.258,774.97Z" transform="translate(-162.097 -567.108)" fill="#ec685a"/>
    <path id="Path_943" data-name="Path 943" d="M206.715,632.093H125.274v-.586h80.855V603.091H132.121l-3.6-7.49.528-.253,3.436,7.157h74.226Z" transform="translate(-76.55 -425.253)" fill="#2f2e41"/>
    <circle id="Ellipse_166" data-name="Ellipse 166" cx="6.152" cy="6.152" r="6.152" transform="translate(53.411 208.89)" fill="#3f3d56"/>
    <circle id="Ellipse_167" data-name="Ellipse 167" cx="6.152" cy="6.152" r="6.152" transform="translate(114.053 208.89)" fill="#3f3d56"/>
    <circle id="Ellipse_168" data-name="Ellipse 168" cx="3.808" cy="3.808" r="3.808" transform="translate(187.878 80.576)" fill="#3f3d56"/>
    <path id="Path_944" data-name="Path 944" d="M327,542.274H235.456l-19.807-64.743H347.395l-.12.381Zm-91.107-.586h90.677L346.6,478.117H216.44Z" transform="translate(-188.12 -374.104)" fill="#2f2e41"/>
    <path id="Path_945" data-name="Path 945" d="M180.061,470.434h-80.4l-17.4-57.419H197.977l-.105.338Z" transform="translate(-48.33 -305.634)" fill="#f2f2f2"/>
    <path id="Path_946" data-name="Path 946" d="M450.384,356.617l-.566-.15,3.866-14.573h22.49v.586H454.135Z" transform="translate(-289.468 -258.974)" fill="#2f2e41"/>
    <rect id="Rectangle_704" data-name="Rectangle 704" width="118.762" height="0.586" transform="translate(33.929 123.055)" fill="#2f2e41"/>
    <rect id="Rectangle_705" data-name="Rectangle 705" width="105.357" height="0.586" transform="translate(40.533 144.64)" fill="#2f2e41"/>
    <rect id="Rectangle_706" data-name="Rectangle 706" width="0.586" height="64.157" transform="translate(93.107 103.719)" fill="#2f2e41"/>
    <rect id="Rectangle_707" data-name="Rectangle 707" width="64.293" height="0.586" transform="matrix(0.065, -0.998, 0.998, 0.065, 115.72, 167.857)" fill="#2f2e41"/>
    <rect id="Rectangle_708" data-name="Rectangle 708" width="0.586" height="64.293" transform="translate(66.302 103.738) rotate(-3.729)" fill="#2f2e41"/>
    <path id="Path_1117" data-name="Path 1117" d="M0,0H186.627V1.421H0Z" transform="translate(-13.099 221.195)" fill="#2f2e41"/>
  </g>
</svg>
