<svg xmlns="http://www.w3.org/2000/svg" width="197.238" height="182.992" viewBox="0 0 197.238 182.992">
  <g id="Group_992" data-name="Group 992" transform="translate(-65.317 6.379)">
    <g id="Group_993" data-name="Group 993" transform="translate(82.963 20.338)">
      <path id="Path_1118" data-name="Path 1118" d="M152.244,168.112s-8.25,2.681-9.833,5.156S152.244,168.112,152.244,168.112Z" transform="translate(-135.854 -148.953)" fill="#d6d3cf"/>
      <path id="Path_1119" data-name="Path 1119" d="M150.785,156.059s-7.6-.737-9.91.523S150.785,156.059,150.785,156.059Z" transform="translate(-134.574 -139.578)" fill="#d6d3cf"/>
      <path id="Path_1120" data-name="Path 1120" d="M183.209,120.372s-3.824-8.665-2.9-9.522S183.209,120.372,183.209,120.372Z" transform="translate(-164.821 -105.155)" fill="#d6d3cf"/>
      <path id="Path_1121" data-name="Path 1121" d="M199.2,131.093s2.053-8.758,4.2-8.758S199.2,131.093,199.2,131.093Z" transform="translate(-179.367 -113.97)" fill="#d6d3cf"/>
      <path id="Path_1122" data-name="Path 1122" d="M204.31,149.582s7.057-4.208,21.516-2.923S204.31,149.582,204.31,149.582Z" transform="translate(-183.272 -132.372)" fill="#d6d3cf"/>
      <path id="Path_1123" data-name="Path 1123" d="M223.289,161.919s12.362-.156,13.056,1.09S223.289,161.919,223.289,161.919Z" transform="translate(-197.776 -144.215)" fill="#d6d3cf"/>
      <path id="Path_1124" data-name="Path 1124" d="M213.069,167.423s7.467,3.256,6.008,4.258S213.069,167.423,213.069,167.423Z" transform="translate(-189.966 -148.427)" fill="#d6d3cf"/>
      <path id="Path_1125" data-name="Path 1125" d="M265.628,183.953s6.2,2.436,4.82,4.06S265.628,183.953,265.628,183.953Z" transform="translate(-230.132 -161.059)" fill="#d6d3cf"/>
      <path id="Path_1126" data-name="Path 1126" d="M216.719,175.688s12.91,13.317,11.7,14.13S216.719,175.688,216.719,175.688Z" transform="translate(-192.755 -154.743)" fill="#d6d3cf"/>
      <path id="Path_1127" data-name="Path 1127" d="M206.5,171.556s5.435,8.541,4.326,9.371S206.5,171.556,206.5,171.556Z" transform="translate(-184.946 -151.585)" fill="#d6d3cf"/>
      <path id="Path_1128" data-name="Path 1128" d="M187.464,170.178s-4.892,13.619-1.89,13.479S187.464,170.178,187.464,170.178Z" transform="translate(-168.21 -150.532)" fill="#d6d3cf"/>
      <path id="Path_1129" data-name="Path 1129" d="M165.248,173.049s-8.211,8.861-7.46,9.795S165.248,173.049,165.248,173.049Z" transform="translate(-147.683 -152.726)" fill="#d6d3cf"/>
      <path id="Path_1130" data-name="Path 1130" d="M130.19,124.219s-7.159-7.979-13.779-7.205S130.19,124.219,130.19,124.219Z" transform="translate(-115.089 -109.863)" fill="#d6d3cf"/>
      <path id="Path_1131" data-name="Path 1131" d="M126.834,144.966s-9.467-.65-8.778.975S126.834,144.966,126.834,144.966Z" transform="translate(-117.329 -131.167)" fill="#d6d3cf"/>
      <path id="Path_1132" data-name="Path 1132" d="M160.52,113.886s-.516-2.274-1.377-1.787S160.52,113.886,160.52,113.886Z" transform="translate(-148.604 -106.096)" fill="#d6d3cf"/>
      <path id="Path_1133" data-name="Path 1133" d="M202.606,96.259s2.362-9.365,1.291-9.4S202.606,96.259,202.606,96.259Z" transform="translate(-181.97 -86.86)" fill="#d6d3cf"/>
      <path id="Path_1134" data-name="Path 1134" d="M248.838,126.149s1.033-2.436,2.066-1.787S248.838,126.149,248.838,126.149Z" transform="translate(-217.301 -115.435)" fill="#d6d3cf"/>
      <path id="Path_1135" data-name="Path 1135" d="M206.041,223.9s-1.377,9.582,1.2,9.42S206.041,223.9,206.041,223.9Z" transform="translate(-184.315 -191.588)" fill="#d6d3cf"/>
    </g>
    <g id="Group_996" data-name="Group 996" transform="translate(216.574 87.779)">
      <path id="Path_1118-2" data-name="Path 1118" d="M152.244,168.112s-8.25,2.681-9.833,5.156S152.244,168.112,152.244,168.112Z" transform="translate(-135.854 -148.953)" fill="#c1bdb7"/>
      <path id="Path_1119-2" data-name="Path 1119" d="M150.785,156.059s-7.6-.737-9.91.523S150.785,156.059,150.785,156.059Z" transform="translate(-134.574 -139.578)" fill="#c1bdb7"/>
      <path id="Path_1120-2" data-name="Path 1120" d="M183.209,120.372s-3.824-8.665-2.9-9.522S183.209,120.372,183.209,120.372Z" transform="translate(-164.821 -105.155)" fill="#c1bdb7"/>
      <path id="Path_1121-2" data-name="Path 1121" d="M199.2,131.093s2.053-8.758,4.2-8.758S199.2,131.093,199.2,131.093Z" transform="translate(-179.367 -113.97)" fill="#c1bdb7"/>
      <path id="Path_1122-2" data-name="Path 1122" d="M204.31,149.582s7.057-4.208,21.516-2.923S204.31,149.582,204.31,149.582Z" transform="translate(-183.272 -132.372)" fill="#c1bdb7"/>
      <path id="Path_1123-2" data-name="Path 1123" d="M223.289,161.919s12.362-.156,13.056,1.09S223.289,161.919,223.289,161.919Z" transform="translate(-197.776 -144.215)" fill="#c1bdb7"/>
      <path id="Path_1124-2" data-name="Path 1124" d="M213.069,167.423s7.467,3.256,6.008,4.258S213.069,167.423,213.069,167.423Z" transform="translate(-189.966 -148.427)" fill="#c1bdb7"/>
      <path id="Path_1125-2" data-name="Path 1125" d="M265.628,183.953s6.2,2.436,4.82,4.06S265.628,183.953,265.628,183.953Z" transform="translate(-230.132 -161.059)" fill="#c1bdb7"/>
      <path id="Path_1126-2" data-name="Path 1126" d="M216.719,175.688s12.91,13.317,11.7,14.13S216.719,175.688,216.719,175.688Z" transform="translate(-192.755 -154.743)" fill="#c1bdb7"/>
      <path id="Path_1127-2" data-name="Path 1127" d="M206.5,171.556s5.435,8.541,4.326,9.371S206.5,171.556,206.5,171.556Z" transform="translate(-184.946 -151.585)" fill="#c1bdb7"/>
      <path id="Path_1128-2" data-name="Path 1128" d="M187.464,170.178s-4.892,13.619-1.89,13.479S187.464,170.178,187.464,170.178Z" transform="translate(-168.21 -150.532)" fill="#c1bdb7"/>
      <path id="Path_1129-2" data-name="Path 1129" d="M165.248,173.049s-8.211,8.861-7.46,9.795S165.248,173.049,165.248,173.049Z" transform="translate(-147.683 -152.726)" fill="#c1bdb7"/>
      <path id="Path_1130-2" data-name="Path 1130" d="M130.19,124.219s-7.159-7.979-13.779-7.205S130.19,124.219,130.19,124.219Z" transform="translate(-115.089 -109.863)" fill="#c1bdb7"/>
      <path id="Path_1131-2" data-name="Path 1131" d="M126.834,144.966s-9.467-.65-8.778.975S126.834,144.966,126.834,144.966Z" transform="translate(-117.329 -131.167)" fill="#c1bdb7"/>
      <path id="Path_1132-2" data-name="Path 1132" d="M160.52,113.886s-.516-2.274-1.377-1.787S160.52,113.886,160.52,113.886Z" transform="translate(-148.604 -106.096)" fill="#c1bdb7"/>
      <path id="Path_1133-2" data-name="Path 1133" d="M202.606,96.259s2.362-9.365,1.291-9.4S202.606,96.259,202.606,96.259Z" transform="translate(-181.97 -86.86)" fill="#c1bdb7"/>
      <path id="Path_1134-2" data-name="Path 1134" d="M248.838,126.149s1.033-2.436,2.066-1.787S248.838,126.149,248.838,126.149Z" transform="translate(-217.301 -115.435)" fill="#c1bdb7"/>
      <path id="Path_1135-2" data-name="Path 1135" d="M206.041,223.9s-1.377,9.582,1.2,9.42S206.041,223.9,206.041,223.9Z" transform="translate(-184.315 -191.588)" fill="#c1bdb7"/>
    </g>
    <g id="Group_994" data-name="Group 994" transform="translate(197.177 -6.379)">
      <path id="Path_1136" data-name="Path 1136" d="M641.063,316.451s-13.492,4.385-16.08,8.432S641.063,316.451,641.063,316.451Z" transform="translate(-615.388 -285.119)" fill="#ec685a"/>
      <path id="Path_1137" data-name="Path 1137" d="M639.314,301.413s-12.434-1.206-16.206.855S639.314,301.413,639.314,301.413Z" transform="translate(-613.932 -274.461)" fill="#ec685a"/>
      <path id="Path_1138" data-name="Path 1138" d="M677.262,260.209s-6.254-14.169-4.739-15.572S677.262,260.209,677.262,260.209Z" transform="translate(-648.322 -235.323)" fill="#ec685a"/>
      <path id="Path_1139" data-name="Path 1139" d="M696.163,273.347s3.357-14.322,6.873-14.322S696.163,273.347,696.163,273.347Z" transform="translate(-664.859 -245.345)" fill="#ec685a"/>
      <path id="Path_1140" data-name="Path 1140" d="M702.574,291.062s21.414-10.674,22.666-5.008S702.574,291.062,702.574,291.062Z" transform="translate(-669.3 -262.918)" fill="#ec685a"/>
      <path id="Path_1141" data-name="Path 1141" d="M726.383,308.685s20.216-.255,21.352,1.782S726.383,308.685,726.383,308.685Z" transform="translate(-685.79 -279.734)" fill="#ec685a"/>
      <path id="Path_1142" data-name="Path 1142" d="M713.562,315.587s12.21,5.325,9.825,6.964S713.562,315.587,713.562,315.587Z" transform="translate(-676.91 -284.521)" fill="#ec685a"/>
      <path id="Path_1143" data-name="Path 1143" d="M779.5,336.324s10.133,3.984,7.882,6.64S779.5,336.324,779.5,336.324Z" transform="translate(-722.577 -298.884)" fill="#ec685a"/>
      <path id="Path_1144" data-name="Path 1144" d="M718.141,325.955s21.112,21.779,19.141,23.107S718.141,325.955,718.141,325.955Z" transform="translate(-680.082 -291.702)" fill="#ec685a"/>
      <path id="Path_1145" data-name="Path 1145" d="M705.321,320.771s8.889,13.968,7.075,15.326S705.321,320.771,705.321,320.771Z" transform="translate(-671.202 -288.111)" fill="#ec685a"/>
      <path id="Path_1146" data-name="Path 1146" d="M685.7,319.043s-6.32,13.6-1.411,13.374S685.7,319.043,685.7,319.043Z" transform="translate(-655.342 -286.915)" fill="#ec685a"/>
      <path id="Path_1147" data-name="Path 1147" d="M656.432,322.645s-13.428,14.491-12.2,16.018S656.432,322.645,656.432,322.645Z" transform="translate(-628.837 -289.409)" fill="#ec685a"/>
      <path id="Path_1148" data-name="Path 1148" d="M631.9,273.347a13.969,13.969,0,0,0-14.669-7.667C606.406,266.944,631.9,273.347,631.9,273.347Z" transform="translate(-608.336 -249.87)" fill="#ec685a"/>
      <path id="Path_1149" data-name="Path 1149" d="M608.74,287.465s-15.482-1.063-14.356,1.594S608.74,287.465,608.74,287.465Z" transform="translate(-594.326 -264.898)" fill="#ec685a"/>
      <path id="Path_1150" data-name="Path 1150" d="M648.24,249.133s-.845-3.718-2.252-2.921S648.24,249.133,648.24,249.133Z" transform="translate(-629.884 -236.393)" fill="#ec685a"/>
      <path id="Path_1151" data-name="Path 1151" d="M700.436,229.893s3.863-15.314,2.112-15.371S700.436,229.893,700.436,229.893Z" transform="translate(-667.819 -214.522)" fill="#ec685a"/>
      <path id="Path_1152" data-name="Path 1152" d="M758.434,264.532s1.689-3.984,3.378-2.922S758.434,264.532,758.434,264.532Z" transform="translate(-707.989 -247.011)" fill="#ec685a"/>
      <path id="Path_1153" data-name="Path 1153" d="M704.885,386.438s-2.252,15.67,1.97,15.4S704.885,386.438,704.885,386.438Z" transform="translate(-670.485 -333.593)" fill="#ec685a"/>
    </g>
    <g id="Group_2" data-name="Group 2" transform="translate(120.492 -0.143)">
      <path id="Rectangle_76" data-name="Rectangle 76" d="M636.59,169.6H638.1a.534.534,0,0,1,.542.542v20.278a.534.534,0,0,1-.542.542H636.59a.534.534,0,0,1-.542-.542V170.143A.548.548,0,0,1,636.59,169.6Z" transform="translate(-550.737 -129.61)" fill="#3f3d56" stroke="rgba(0,0,0,0)" stroke-width="1"/>
      <path id="Rectangle_80" data-name="Rectangle 80" d="M283.444,0h68.333a9.208,9.208,0,0,1,9.2,9.2V167.061a9.208,9.208,0,0,1-9.2,9.2H283.444a9.208,9.208,0,0,1-9.2-9.2V9.2A9.208,9.208,0,0,1,283.444,0Z" transform="translate(-274.248 -0.001)" fill="#322210" stroke="rgba(0,0,0,0)" stroke-width="1"/>
      <path id="Path_176" data-name="Path 176" d="M366.783,19.5h-9.951v1.2a5.661,5.661,0,0,1-5.659,5.659H319.53a5.681,5.681,0,0,1-5.683-5.659h0V19.5h-9.314a6.893,6.893,0,0,0-6.885,6.885V179.7a6.893,6.893,0,0,0,6.885,6.885h62.25a6.893,6.893,0,0,0,6.885-6.885V26.386a6.878,6.878,0,0,0-6.885-6.885Z" transform="translate(-292.13 -14.903)" fill="#fff" stroke="rgba(0,0,0,0)" stroke-width="1"/>
      <path id="Rectangle_81" data-name="Rectangle 81" d="M423.568,22.3h10.281a.921.921,0,0,1,.92.92v.637a.921.921,0,0,1-.92.92H423.568a.921.921,0,0,1-.92-.92v-.637A.921.921,0,0,1,423.568,22.3Z" transform="translate(-387.656 -17.043)" fill="#e6e8ec" stroke="rgba(0,0,0,0)" stroke-width="1"/>
      <circle id="Ellipse_5" data-name="Ellipse 5" cx="1.391" cy="1.391" r="1.391" transform="translate(48.951 5.093)" fill="#e6e8ec" stroke="rgba(0,0,0,0)" stroke-width="1"/>
      <circle id="Ellipse_11" data-name="Ellipse 11" cx="16.411" cy="16.411" r="16.411" transform="translate(27.47 73.874)" fill="#fff" stroke="rgba(0,0,0,0)" stroke-width="1"/>
      <path id="Path_222" data-name="Path 222" d="M409.706,302.13A21.929,21.929,0,1,1,387.777,280.2a21.918,21.918,0,0,1,21.929,21.929Zm-24.452,11.6,16.27-16.27a1.438,1.438,0,0,0,0-2h0l-2-1.981a1.438,1.438,0,0,0-2,0h0L384.24,306.751l-6.2-6.2a1.438,1.438,0,0,0-2,0l-2,2a1.438,1.438,0,0,0,0,2l9.2,9.2a1.444,1.444,0,0,0,2.028-.024Z" transform="translate(-344.249 -214.131)" fill="#ec685a" stroke="rgba(0,0,0,0)" stroke-width="1"/>
    </g>
    <g id="Group_995" data-name="Group 995" transform="translate(65.317 79.181) rotate(-11)">
      <path id="Path_1154" data-name="Path 1154" d="M1.3,0C-.454,1.136-.264,3.864.871,5.617s2.926,3,4.1,4.725A16.713,16.713,0,0,1,6.39,13.119a25.424,25.424,0,0,1,2.284,7.09,21.131,21.131,0,0,1-.638,7.03A62.416,62.416,0,0,1,3.577,40.187" transform="translate(20.547 37.993)" fill="none" stroke="#322210" stroke-width="1"/>
      <path id="Path_1155" data-name="Path 1155" d="M30.974,11.936c2.09,8.424-1.4,23.565-9.828,25.655S2.557,27.93.466,19.505a15.717,15.717,0,1,1,30.508-7.57Z" fill="#ec685a"/>
      <path id="Path_1156" data-name="Path 1156" d="M3.67,2.941A2.6,2.6,0,0,0,.73,3.67L0,.73,2.941,0Z" transform="translate(19.312 35.755)" fill="#ec685a"/>
      <path id="Path_1157" data-name="Path 1157" d="M0,.743A3.333,3.333,0,0,0,2.943,0" transform="translate(19.669 37.148)" fill="none" stroke="#322210" stroke-width="1"/>
      <ellipse id="Ellipse_191" data-name="Ellipse 191" cx="3.314" cy="3.976" rx="3.314" ry="3.976" transform="translate(16.291 4.653) rotate(-13.935)" fill="#fff" opacity="0.4" style="isolation: isolate"/>
    </g>
  </g>
</svg>
