<svg id="noun_Letter__309666" data-name="noun_Letter _309666" xmlns="http://www.w3.org/2000/svg" width="40.224" height="39.895" viewBox="0 0 40.224 39.895">
  <g id="Group_828" data-name="Group 828" transform="translate(0 13.65)">
    <path id="Path_568" data-name="Path 568" d="M39.872,37.479H1.752A1.037,1.037,0,0,1,.7,36.428V12.241a1.331,1.331,0,0,1,.526-.92.992.992,0,0,1,1.052.131L20.812,24.86,39.346,11.452a.992.992,0,0,1,1.052-.131.88.88,0,0,1,.526.92V36.559A1.016,1.016,0,0,1,39.872,37.479ZM2.8,35.507H38.952V14.213L21.469,26.963a.986.986,0,0,1-1.183,0L2.8,14.213Z" transform="translate(-0.7 -11.234)" fill="#fefdf8"/>
  </g>
  <g id="Group_829" data-name="Group 829" transform="translate(24.578 24.161)">
    <rect id="Rectangle_636" data-name="Rectangle 636" width="19.849" height="1.972" transform="translate(1.41 0) rotate(45.656)" fill="#fefdf8"/>
  </g>
  <g id="Group_830" data-name="Group 830" transform="translate(0.276 24.12)">
    <rect id="Rectangle_637" data-name="Rectangle 637" width="1.972" height="19.849" transform="translate(13.876 0) rotate(44.352)" fill="#fefdf8"/>
  </g>
  <g id="Group_831" data-name="Group 831" transform="translate(33.125 9.97)">
    <path id="Path_569" data-name="Path 569" d="M26.82,17.854a.483.483,0,0,1-.394-.131.88.88,0,0,1-.526-.92V9.441a1.331,1.331,0,0,1,.526-.92.992.992,0,0,1,1.052.131L32.6,12.333a.986.986,0,0,1,0,1.577l-5.127,3.681C27.214,17.722,27.083,17.854,26.82,17.854Zm1.052-6.441v3.549l2.5-1.709Z" transform="translate(-25.9 -8.434)" fill="#fefdf8"/>
  </g>
  <g id="Group_832" data-name="Group 832" transform="translate(11.913 0)">
    <path id="Path_570" data-name="Path 570" d="M25.191,8.014H10.732a.988.988,0,0,1-.92-.657.881.881,0,0,1,.394-1.052l7.23-5.258a.986.986,0,0,1,1.183,0l7.23,5.258a.881.881,0,0,1,.394,1.052A1.041,1.041,0,0,1,25.191,8.014ZM13.755,6.042H22.3L17.962,2.887Z" transform="translate(-9.762 -0.85)" fill="#fefdf8"/>
  </g>
  <g id="Group_833" data-name="Group 833" transform="translate(0.131 10.101)">
    <path id="Path_571" data-name="Path 571" d="M6.847,17.822c-.263,0-.394,0-.526-.131L1.194,14.01a.986.986,0,0,1,0-1.577L6.321,8.752a.992.992,0,0,1,1.052-.131.8.8,0,0,1,.394.789v7.361a1.331,1.331,0,0,1-.526.92A.483.483,0,0,1,6.847,17.822ZM3.429,13.09l2.5,1.709V11.25Z" transform="translate(-0.8 -8.534)" fill="#fefdf8"/>
  </g>
  <g id="Group_834" data-name="Group 834" transform="translate(5.127 5.061)">
    <path id="Path_572" data-name="Path 572" d="M19.585,29.15c-.263,0-.394,0-.526-.131L4.994,18.9a.937.937,0,0,1-.394-.789V5.752A1.037,1.037,0,0,1,5.652,4.7H33.519A1.037,1.037,0,0,1,34.57,5.752V17.976a.937.937,0,0,1-.394.789L20.242,28.887A.724.724,0,0,1,19.585,29.15ZM6.572,17.582l13.014,9.464L32.6,17.582V6.8H6.572Z" transform="translate(-4.6 -4.7)" fill="#fefdf8"/>
  </g>
  <g id="Group_835" data-name="Group 835" transform="translate(14.065 11.239)">
    <rect id="Rectangle_638" data-name="Rectangle 638" width="11.83" height="1.972" fill="#fefdf8"/>
  </g>
  <g id="Group_836" data-name="Group 836" transform="translate(14.065 16.365)">
    <rect id="Rectangle_639" data-name="Rectangle 639" width="11.83" height="1.972" fill="#fefdf8"/>
  </g>
</svg>
