<svg xmlns="http://www.w3.org/2000/svg" width="228.202" height="94.076" viewBox="0 0 228.202 94.076">
  <g id="Group_986" data-name="Group 986" transform="translate(14 -38.269)">
    <path id="Path_1105" data-name="Path 1105" d="M585.018,52.089l1.3-.225c.125-.022.248-.048.373-.071A10.663,10.663,0,0,1,593.5,32.137l-1.7,4.051,4.034-3.522.027.009a10.663,10.663,0,0,1,6.516,13.6h0c-.068.192-.148.375-.225.561a12.752,12.752,0,0,0,3.122-2.091c1.8-1.728,2.792-4.113,3.9-7.051,2.188-5.822,4.294-11.729,6.316-17.648A10.659,10.659,0,0,1,610.5,7.14c.108-.308.234-.6.367-.9.033-.073.067-.145.1-.217.135-.279.278-.552.435-.815.026-.043.054-.083.08-.126q.2-.332.431-.644c.056-.078.113-.156.171-.232.172-.224.349-.442.536-.65.063-.07.129-.135.193-.2q.216-.228.443-.441c.08-.075.159-.151.241-.223.021-.019.041-.039.062-.057l0,0A10.656,10.656,0,0,1,627.2,2.333L624.98,7.6l3.988-3.48a10.6,10.6,0,0,1,.394,12.559l.011,0c-.044.064-.093.123-.138.185q-.126.177-.258.348c-.113.146-.231.287-.351.426-.091.1-.18.211-.275.312-.138.148-.283.288-.428.427-.085.081-.166.166-.254.245q-.344.307-.711.583c-.086.064-.177.121-.264.183-.172.121-.345.24-.524.351-.111.068-.225.131-.338.2-.164.093-.329.184-.5.268-.119.06-.24.117-.361.172-.173.079-.348.152-.525.222-.119.047-.237.094-.357.136-.2.07-.4.131-.6.189-.1.029-.2.063-.306.089-.3.078-.612.144-.923.194-.059.01-.118.013-.177.022-.258.038-.517.068-.778.086-.112.008-.226.009-.338.013-.211.008-.423.012-.635.008-.124,0-.248-.009-.372-.016q-.31-.017-.621-.054c-.123-.014-.245-.028-.368-.047-.222-.034-.444-.078-.666-.126l-.044-.008q-1.28,3.746-2.608,7.476a10.656,10.656,0,0,1,15.049.8q.208.232.4.475l-3.687,4.077,4.992-1.993a10.627,10.627,0,0,1,.427,8.118,10.46,10.46,0,0,1-1.355,2.621,10.659,10.659,0,0,1-19.26-4.677c-.094.251-.184.5-.279.755-.974,2.592-2.187,5.818-4.621,8.15a18.7,18.7,0,0,1-5.629,3.432q-1.9.828-3.856,1.531a10.687,10.687,0,0,1-4.772,1.521c-2.055.571-4.136,1.047-6.236,1.415l-1.31.226c-1.177.2-2.384.409-3.581.648.173.051.345.1.517.16A10.667,10.667,0,0,1,589.575,66.2l-8.21,2.52,7.429,1.18a10.668,10.668,0,0,1-17.776,3.155q.113.379.227.757c.151.5.3,1,.444,1.491,1.955,6.717,1.113,12-2.37,14.877l-1.89-2.288c3.39-2.8,2.338-8.57,1.41-11.761-.141-.484-.288-.973-.436-1.465-1.273-4.23-2.717-9.024-.847-13.43C570.374,54.6,578.494,53.206,585.018,52.089Z" transform="translate(-419.467 40.564)" fill="#fefdf8"/>
    <path id="Path_1106" data-name="Path 1106" d="M332.427,259.77H251.02A10.066,10.066,0,0,1,240.954,249.7h0v-37.3a3.987,3.987,0,0,1,1.244-2.894l43.138-40.891a9.284,9.284,0,0,1,12.774,0l41.13,38.987a10.423,10.423,0,0,1,3.252,7.565V249.7a10.066,10.066,0,0,1-10.066,10.066Z" transform="translate(-191.127 -127.807)" fill="#5b4e40"/>
    <path id="Path_1107" data-name="Path 1107" d="M240.954,387.992H341.646v40.672a6.078,6.078,0,0,1-6.078,6.078H247.032a6.078,6.078,0,0,1-6.078-6.078h0V387.992Z" transform="translate(-191.127 -302.779)" fill="#322210" opacity="0.1" style="isolation: isolate"/>
    <path id="Path_1108" data-name="Path 1108" d="M240.454,376.492" transform="translate(-190.732 -293.712)" fill="none" stroke="#3f3d56" stroke-miterlimit="10" stroke-width="1"/>
    <rect id="Rectangle_755" data-name="Rectangle 755" width="74.885" height="74.885" rx="5" transform="translate(63.049 53.165)" fill="#ec685a"/>
    <path id="Path_1109" data-name="Path 1109" d="M378.339,395.942V437.1H303.454V395.942l37.442,18.1Z" transform="translate(-240.405 -309.048)" opacity="0.1" style="isolation: isolate"/>
    <path id="Path_1110" data-name="Path 1110" d="M291.223,405.338,243.248,382.15a1.946,1.946,0,0,0-2.794,1.752v39.9a6.078,6.078,0,0,0,6.078,6.078h89.383a6.078,6.078,0,0,0,6.078-6.078h0V384.586a2.375,2.375,0,0,0-3.409-2.138Z" transform="translate(-190.732 -298.02)" fill="#6f6458"/>
    <rect id="Rectangle_756" data-name="Rectangle 756" width="20.942" height="2.962" transform="translate(69.501 60.04)" fill="#f2f2f2"/>
    <rect id="Rectangle_757" data-name="Rectangle 757" width="62.192" height="1.692" transform="translate(67.808 70.828)" fill="#f2f2f2"/>
    <rect id="Rectangle_758" data-name="Rectangle 758" width="62.192" height="1.692" transform="translate(67.808 76.54)" fill="#f2f2f2"/>
    <rect id="Rectangle_759" data-name="Rectangle 759" width="62.192" height="1.692" transform="translate(67.808 82.251)" fill="#f2f2f2"/>
    <line id="Line_39" data-name="Line 39" x2="223.151" transform="translate(-8.949 131.846)" fill="none" stroke="#3f3d56" stroke-miterlimit="10" stroke-width="1"/>
    <g id="Group_989" data-name="Group 989" transform="translate(-14 99.216)">
      <path id="Path_1111" data-name="Path 1111" d="M0,485.353c0,12.472,7.825,22.565,17.494,22.565" transform="translate(0 -478.761)" fill="#46455b"/>
      <path id="Path_1112" data-name="Path 1112" d="M82.7,506.973c0-12.613,8.732-22.818,19.522-22.818" transform="translate(-65.205 -477.816)" fill="#ec685a"/>
      <path id="Path_1113" data-name="Path 1113" d="M29.964,490.7c0,11.848,4.989,21.434,11.155,21.434" transform="translate(-23.625 -482.975)" fill="#ec685a"/>
      <path id="Path_1114" data-name="Path 1114" d="M82.7,483.348c0-16.116,10.092-29.157,22.565-29.157" transform="translate(-65.205 -454.191)" fill="#46455b"/>
      <path id="Path_1115" data-name="Path 1115" d="M65.3,587.778s2.481-.076,3.229-.609,3.816-1.168,4-.314,3.728,4.247.927,4.269-6.508-.436-7.255-.891S65.3,587.778,65.3,587.778Z" transform="translate(-51.488 -558.463)" fill="#a8a8a8"/>
      <path id="Path_1116" data-name="Path 1116" d="M73.51,595.812c-2.8.023-6.508-.436-7.255-.891-.568-.346-.795-1.588-.87-2.161l-.083,0s.157,2,.9,2.456,4.454.913,7.255.891c.808-.006,1.088-.294,1.073-.72C74.42,595.647,74.112,595.808,73.51,595.812Z" transform="translate(-51.488 -563.447)" opacity="0.2" style="isolation: isolate"/>
    </g>
  </g>
</svg>
