<svg width="50" height="50" viewBox="0 0 50 50" fill="none" xmlns="http://www.w3.org/2000/svg">
<rect width="50" height="50" rx="10" fill="#E7ECF2"/>
<mask id="path-2-inside-1" fill="white">
<path fill-rule="evenodd" clip-rule="evenodd" d="M27.8526 24.8581C28.0484 24.999 28.2837 25.0748 28.525 25.0746C28.7735 25.0748 29.0152 24.9941 29.2137 24.8447L35.344 20.247C35.4868 20.1399 35.6027 20.0011 35.6825 19.8415C35.7623 19.6819 35.8038 19.5059 35.8038 19.3274C35.8038 19.149 35.7623 18.973 35.6825 18.8134C35.6027 18.6538 35.4868 18.515 35.344 18.4079L29.2137 13.8101C29.093 13.7196 28.9555 13.6537 28.8093 13.6162C28.6631 13.5788 28.5109 13.5705 28.3615 13.5918C28.0597 13.6349 27.7874 13.7962 27.6045 14.04C27.5139 14.1608 27.448 14.2982 27.4106 14.4444C27.3731 14.5907 27.3648 14.7428 27.3862 14.8923C27.4075 15.0417 27.4581 15.1854 27.535 15.3153C27.6119 15.4452 27.7136 15.5587 27.8344 15.6492L31.2059 18.1779H14.7295C14.4247 18.1779 14.1323 18.299 13.9167 18.5145C13.7012 18.7301 13.5801 19.0225 13.5801 19.3273C13.5801 19.6322 13.7012 19.9245 13.9167 20.1401C14.1323 20.3557 14.4247 20.4768 14.7295 20.4768H31.2062L27.8344 23.0056C27.6413 23.1504 27.4987 23.3523 27.4268 23.5827C27.3549 23.813 27.3573 24.0602 27.4338 24.2891C27.5102 24.518 27.6567 24.7171 27.8526 24.8581Z"/>
</mask>
<path fill-rule="evenodd" clip-rule="evenodd" d="M27.8526 24.8581C28.0484 24.999 28.2837 25.0748 28.525 25.0746C28.7735 25.0748 29.0152 24.9941 29.2137 24.8447L35.344 20.247C35.4868 20.1399 35.6027 20.0011 35.6825 19.8415C35.7623 19.6819 35.8038 19.5059 35.8038 19.3274C35.8038 19.149 35.7623 18.973 35.6825 18.8134C35.6027 18.6538 35.4868 18.515 35.344 18.4079L29.2137 13.8101C29.093 13.7196 28.9555 13.6537 28.8093 13.6162C28.6631 13.5788 28.5109 13.5705 28.3615 13.5918C28.0597 13.6349 27.7874 13.7962 27.6045 14.04C27.5139 14.1608 27.448 14.2982 27.4106 14.4444C27.3731 14.5907 27.3648 14.7428 27.3862 14.8923C27.4075 15.0417 27.4581 15.1854 27.535 15.3153C27.6119 15.4452 27.7136 15.5587 27.8344 15.6492L31.2059 18.1779H14.7295C14.4247 18.1779 14.1323 18.299 13.9167 18.5145C13.7012 18.7301 13.5801 19.0225 13.5801 19.3273C13.5801 19.6322 13.7012 19.9245 13.9167 20.1401C14.1323 20.3557 14.4247 20.4768 14.7295 20.4768H31.2062L27.8344 23.0056C27.6413 23.1504 27.4987 23.3523 27.4268 23.5827C27.3549 23.813 27.3573 24.0602 27.4338 24.2891C27.5102 24.518 27.6567 24.7171 27.8526 24.8581Z" fill="#743144"/>
<path d="M28.525 25.0746L28.5253 24.5746H28.5246L28.525 25.0746ZM29.2137 24.8447L28.9137 24.4447L28.9131 24.4452L29.2137 24.8447ZM35.344 20.247L35.644 20.647L35.344 20.247ZM35.6825 19.8415L35.2353 19.6179L35.2352 19.6179L35.6825 19.8415ZM35.6825 18.8134L35.2352 19.037L35.2353 19.037L35.6825 18.8134ZM35.344 18.4079L35.644 18.0079L35.344 18.4079ZM29.2137 13.8101L28.9137 14.2101L28.9137 14.2101L29.2137 13.8101ZM28.8093 13.6162L28.9334 13.1319L28.8093 13.6162ZM28.3615 13.5918L28.2908 13.0968V13.0968L28.3615 13.5918ZM27.6045 14.04L27.2045 13.74V13.74L27.6045 14.04ZM27.535 15.3153L27.9652 15.0606V15.0606L27.535 15.3153ZM27.8344 15.6492L28.1344 15.2492L28.1344 15.2492L27.8344 15.6492ZM31.2059 18.1779V18.6779H32.7059L31.5059 17.7779L31.2059 18.1779ZM13.9167 18.5145L13.5632 18.161L13.5632 18.161L13.9167 18.5145ZM13.9167 20.1401L14.2703 19.7865L13.9167 20.1401ZM31.2062 20.4768L31.5062 20.8768L32.7062 19.9768H31.2062V20.4768ZM27.8344 23.0056L27.5344 22.6056L27.8344 23.0056ZM27.4268 23.5827L27.9041 23.7317V23.7317L27.4268 23.5827ZM28.5246 24.5746C28.3882 24.5747 28.2553 24.5319 28.1447 24.4523L27.5605 25.2639C27.8415 25.4662 28.1791 25.5749 28.5254 25.5746L28.5246 24.5746ZM28.9131 24.4452C28.8013 24.5293 28.6652 24.5747 28.5253 24.5746L28.5247 25.5746C28.8817 25.5748 29.229 25.4589 29.5143 25.2443L28.9131 24.4452ZM35.044 19.847L28.9137 24.4447L29.5137 25.2447L35.644 20.647L35.044 19.847ZM35.2352 19.6179C35.1902 19.708 35.1247 19.7865 35.044 19.847L35.644 20.647C35.8489 20.4933 36.0152 20.2941 36.1297 20.0651L35.2352 19.6179ZM35.3038 19.3274C35.3038 19.4283 35.2803 19.5277 35.2353 19.6179L36.1297 20.0651C36.2442 19.8361 36.3038 19.5835 36.3038 19.3274H35.3038ZM35.2353 19.037C35.2803 19.1272 35.3038 19.2266 35.3038 19.3274H36.3038C36.3038 19.0714 36.2442 18.8188 36.1297 18.5898L35.2353 19.037ZM35.044 18.8079C35.1247 18.8684 35.1902 18.9468 35.2352 19.037L36.1297 18.5898C36.0152 18.3608 35.8489 18.1615 35.644 18.0079L35.044 18.8079ZM28.9137 14.2101L35.044 18.8079L35.644 18.0079L29.5137 13.4101L28.9137 14.2101ZM28.6852 14.1006C28.7679 14.1217 28.8455 14.159 28.9137 14.2101L29.5137 13.4101C29.3404 13.2802 29.1432 13.1856 28.9334 13.1319L28.6852 14.1006ZM28.4322 14.0868C28.5166 14.0747 28.6026 14.0794 28.6852 14.1006L28.9334 13.1319C28.7236 13.0781 28.5052 13.0662 28.2908 13.0968L28.4322 14.0868ZM28.0045 14.34C28.1079 14.2022 28.2617 14.1111 28.4322 14.0868L28.2908 13.0968C27.8577 13.1587 27.467 13.3901 27.2045 13.74L28.0045 14.34ZM27.8949 14.5685C27.9161 14.4859 27.9533 14.4083 28.0045 14.34L27.2045 13.74C27.0745 13.9133 26.98 14.1105 26.9262 14.3203L27.8949 14.5685ZM27.8811 14.8215C27.8691 14.7371 27.8738 14.6511 27.8949 14.5685L26.9262 14.3203C26.8725 14.5302 26.8606 14.7485 26.8912 14.963L27.8811 14.8215ZM27.9652 15.0606C27.9218 14.9872 27.8932 14.906 27.8811 14.8215L26.8912 14.963C26.9218 15.1774 26.9944 15.3837 27.1048 15.5701L27.9652 15.0606ZM28.1344 15.2492C28.0662 15.1981 28.0087 15.134 27.9652 15.0606L27.1048 15.5701C27.2151 15.7565 27.3611 15.9193 27.5344 16.0492L28.1344 15.2492ZM31.5059 17.7779L28.1344 15.2492L27.5344 16.0492L30.9059 18.5779L31.5059 17.7779ZM14.7295 18.6779H31.2059V17.6779H14.7295V18.6779ZM14.2703 18.8681C14.3921 18.7463 14.5573 18.6779 14.7295 18.6779V17.6779C14.2921 17.6779 13.8725 17.8517 13.5632 18.161L14.2703 18.8681ZM14.0801 19.3273C14.0801 19.1551 14.1485 18.9899 14.2703 18.8681L13.5632 18.161C13.2539 18.4703 13.0801 18.8899 13.0801 19.3273H14.0801ZM14.2703 19.7865C14.1485 19.6647 14.0801 19.4996 14.0801 19.3273H13.0801C13.0801 19.7648 13.2539 20.1843 13.5632 20.4936L14.2703 19.7865ZM14.7295 19.9768C14.5573 19.9768 14.3921 19.9083 14.2703 19.7865L13.5632 20.4936C13.8725 20.803 14.2921 20.9768 14.7295 20.9768V19.9768ZM31.2062 19.9768H14.7295V20.9768H31.2062V19.9768ZM28.1344 23.4056L31.5062 20.8768L30.9062 20.0768L27.5344 22.6056L28.1344 23.4056ZM27.9041 23.7317C27.9447 23.6015 28.0253 23.4874 28.1344 23.4056L27.5344 22.6056C27.2574 22.8134 27.0527 23.1031 26.9495 23.4337L27.9041 23.7317ZM27.908 24.1308C27.8649 24.0015 27.8635 23.8618 27.9041 23.7317L26.9495 23.4337C26.8464 23.7643 26.8498 24.1189 26.9595 24.4474L27.908 24.1308ZM28.1447 24.4523C28.034 24.3726 27.9512 24.2601 27.908 24.1308L26.9595 24.4474C27.0691 24.7759 27.2794 25.0616 27.5605 25.2639L28.1447 24.4523Z" fill="#D8D1E5" mask="url(#path-2-inside-1)"/>
<mask id="path-4-inside-2" fill="white">
<path fill-rule="evenodd" clip-rule="evenodd" d="M20.1697 35.5726C20.3682 35.722 20.61 35.8027 20.8584 35.8025C21.0998 35.8027 21.335 35.727 21.5309 35.586C21.7268 35.445 21.8733 35.2459 21.9497 35.017C22.0261 34.7881 22.0285 34.541 21.9566 34.3106C21.8847 34.0802 21.7421 33.8783 21.5491 33.7335L18.1772 31.2046H34.6526C34.9574 31.2046 35.2498 31.0835 35.4654 30.868C35.6809 30.6524 35.802 30.3601 35.802 30.0552C35.802 29.7504 35.6809 29.458 35.4654 29.2424C35.2498 29.0269 34.9574 28.9058 34.6526 28.9058H18.1775L21.549 26.3772C21.6698 26.2866 21.7715 26.1731 21.8484 26.0432C21.9253 25.9133 21.9759 25.7696 21.9972 25.6202C22.0186 25.4707 22.0103 25.3186 21.9728 25.1723C21.9354 25.0261 21.8695 24.8887 21.7789 24.7679C21.6883 24.6472 21.5749 24.5454 21.445 24.4685C21.3151 24.3916 21.1713 24.3411 21.0219 24.3197C20.8725 24.2984 20.7203 24.3067 20.5741 24.3441C20.4279 24.3816 20.2904 24.4475 20.1697 24.5381L14.0517 29.1265C14.0039 29.1614 13.9586 29.2001 13.9163 29.2424C13.7239 29.4348 13.6067 29.6884 13.5838 29.9575C13.581 29.99 13.5796 30.0226 13.5796 30.0553C13.5796 30.2338 13.6211 30.4098 13.7009 30.5694C13.7807 30.729 13.8966 30.8678 14.0394 30.9749L20.1697 35.5726Z"/>
</mask>
<path fill-rule="evenodd" clip-rule="evenodd" d="M20.1697 35.5726C20.3682 35.722 20.61 35.8027 20.8584 35.8025C21.0998 35.8027 21.335 35.727 21.5309 35.586C21.7268 35.445 21.8733 35.2459 21.9497 35.017C22.0261 34.7881 22.0285 34.541 21.9566 34.3106C21.8847 34.0802 21.7421 33.8783 21.5491 33.7335L18.1772 31.2046H34.6526C34.9574 31.2046 35.2498 31.0835 35.4654 30.868C35.6809 30.6524 35.802 30.3601 35.802 30.0552C35.802 29.7504 35.6809 29.458 35.4654 29.2424C35.2498 29.0269 34.9574 28.9058 34.6526 28.9058H18.1775L21.549 26.3772C21.6698 26.2866 21.7715 26.1731 21.8484 26.0432C21.9253 25.9133 21.9759 25.7696 21.9972 25.6202C22.0186 25.4707 22.0103 25.3186 21.9728 25.1723C21.9354 25.0261 21.8695 24.8887 21.7789 24.7679C21.6883 24.6472 21.5749 24.5454 21.445 24.4685C21.3151 24.3916 21.1713 24.3411 21.0219 24.3197C20.8725 24.2984 20.7203 24.3067 20.5741 24.3441C20.4279 24.3816 20.2904 24.4475 20.1697 24.5381L14.0517 29.1265C14.0039 29.1614 13.9586 29.2001 13.9163 29.2424C13.7239 29.4348 13.6067 29.6884 13.5838 29.9575C13.581 29.99 13.5796 30.0226 13.5796 30.0553C13.5796 30.2338 13.6211 30.4098 13.7009 30.5694C13.7807 30.729 13.8966 30.8678 14.0394 30.9749L20.1697 35.5726Z" fill="#743144"/>
<path d="M20.8584 35.8025L20.8589 35.3025L20.858 35.3025L20.8584 35.8025ZM20.1697 35.5726L20.4703 35.1731L20.4697 35.1726L20.1697 35.5726ZM21.9497 35.017L22.424 35.1753L22.424 35.1753L21.9497 35.017ZM21.9566 34.3106L21.4793 34.4596L21.4793 34.4596L21.9566 34.3106ZM21.5491 33.7335L21.2491 34.1335L21.2491 34.1335L21.5491 33.7335ZM18.1772 31.2046V30.7046H16.6772L17.8772 31.6046L18.1772 31.2046ZM18.1775 28.9058L17.8775 28.5058L16.6776 29.4058H18.1775V28.9058ZM21.549 26.3772L21.249 25.9772L21.249 25.9772L21.549 26.3772ZM21.8484 26.0432L21.4182 25.7885L21.4182 25.7885L21.8484 26.0432ZM21.9728 25.1723L22.4572 25.0482V25.0482L21.9728 25.1723ZM20.5741 24.3441L20.6982 24.8285L20.5741 24.3441ZM20.1697 24.5381L20.4697 24.9381L20.4697 24.9381L20.1697 24.5381ZM14.0517 29.1265L14.3464 29.5305L14.3517 29.5265L14.0517 29.1265ZM13.9163 29.2424L13.5627 28.8889H13.5627L13.9163 29.2424ZM13.5838 29.9575L14.0819 30L14.082 30L13.5838 29.9575ZM13.7009 30.5694L13.2537 30.793L13.2537 30.793L13.7009 30.5694ZM14.0394 30.9749L13.7394 31.3749L13.7394 31.3749L14.0394 30.9749ZM20.858 35.3025C20.7182 35.3026 20.5821 35.2572 20.4703 35.1731L19.869 35.9721C20.1543 36.1868 20.5018 36.3028 20.8588 36.3025L20.858 35.3025ZM21.2388 35.1802C21.1281 35.2598 20.9952 35.3026 20.8589 35.3025L20.858 36.3025C21.2043 36.3028 21.5419 36.1941 21.823 35.9918L21.2388 35.1802ZM21.4754 34.8587C21.4322 34.988 21.3495 35.1005 21.2388 35.1802L21.823 35.9918C22.1041 35.7895 22.3143 35.5038 22.424 35.1753L21.4754 34.8587ZM21.4793 34.4596C21.52 34.5897 21.5186 34.7294 21.4754 34.8587L22.424 35.1753C22.5336 34.8468 22.5371 34.4922 22.4339 34.1616L21.4793 34.4596ZM21.2491 34.1335C21.3581 34.2153 21.4387 34.3294 21.4793 34.4596L22.4339 34.1616C22.3307 33.831 22.1261 33.5413 21.8491 33.3335L21.2491 34.1335ZM17.8772 31.6046L21.2491 34.1335L21.8491 33.3335L18.4772 30.8046L17.8772 31.6046ZM34.6526 30.7046H18.1772V31.7046H34.6526V30.7046ZM35.1118 30.5144C34.99 30.6362 34.8248 30.7046 34.6526 30.7046V31.7046C35.09 31.7046 35.5096 31.5309 35.8189 31.2215L35.1118 30.5144ZM35.302 30.0552C35.302 30.2274 35.2336 30.3926 35.1118 30.5144L35.8189 31.2215C36.1282 30.9122 36.302 30.4927 36.302 30.0552H35.302ZM35.1118 29.596C35.2336 29.7178 35.302 29.883 35.302 30.0552H36.302C36.302 29.6177 36.1282 29.1982 35.8189 28.8889L35.1118 29.596ZM34.6526 29.4058C34.8248 29.4058 34.99 29.4742 35.1118 29.596L35.8189 28.8889C35.5096 28.5796 35.09 28.4058 34.6526 28.4058V29.4058ZM18.1775 29.4058H34.6526V28.4058H18.1775V29.4058ZM21.249 25.9772L17.8775 28.5058L18.4775 29.3058L21.849 26.7771L21.249 25.9772ZM21.4182 25.7885C21.3747 25.8619 21.3172 25.926 21.249 25.9772L21.849 26.7771C22.0223 26.6472 22.1683 26.4844 22.2786 26.298L21.4182 25.7885ZM21.5023 25.5494C21.4902 25.6339 21.4616 25.7151 21.4182 25.7885L22.2786 26.298C22.389 26.1116 22.4616 25.9053 22.4922 25.6909L21.5023 25.5494ZM21.4885 25.2964C21.5096 25.379 21.5143 25.465 21.5023 25.5494L22.4922 25.6909C22.5228 25.4764 22.5109 25.2581 22.4572 25.0482L21.4885 25.2964ZM21.3789 25.0679C21.4301 25.1362 21.4673 25.2138 21.4885 25.2964L22.4572 25.0482C22.4034 24.8384 22.3089 24.6412 22.1789 24.4679L21.3789 25.0679ZM21.1902 24.8988C21.2636 24.9422 21.3277 24.9997 21.3789 25.0679L22.1789 24.4679C22.0489 24.2947 21.8861 24.1487 21.6997 24.0383L21.1902 24.8988ZM20.9512 24.8147C21.0356 24.8268 21.1168 24.8553 21.1902 24.8988L21.6997 24.0383C21.5133 23.9279 21.307 23.8554 21.0926 23.8247L20.9512 24.8147ZM20.6982 24.8285C20.7808 24.8073 20.8668 24.8026 20.9512 24.8147L21.0926 23.8247C20.8782 23.7941 20.6598 23.806 20.45 23.8598L20.6982 24.8285ZM20.4697 24.9381C20.5379 24.8869 20.6156 24.8497 20.6982 24.8285L20.45 23.8598C20.2402 23.9135 20.043 24.0081 19.8697 24.1381L20.4697 24.9381ZM14.3517 29.5265L20.4697 24.9381L19.8697 24.1381L13.7517 28.7265L14.3517 29.5265ZM14.2698 29.596C14.2938 29.572 14.3194 29.5502 14.3464 29.5305L13.7571 28.7225C13.6885 28.7726 13.6235 28.8281 13.5627 28.8889L14.2698 29.596ZM14.082 30C14.0949 29.848 14.1611 29.7047 14.2698 29.596L13.5627 28.8889C13.2866 29.165 13.1185 29.5289 13.0856 29.915L14.082 30ZM14.0796 30.0553C14.0796 30.0368 14.0804 30.0184 14.0819 30L13.0856 29.9149C13.0816 29.9615 13.0796 30.0084 13.0796 30.0553H14.0796ZM14.1482 30.3458C14.1031 30.2556 14.0796 30.1562 14.0796 30.0553H13.0796C13.0796 30.3114 13.1392 30.564 13.2537 30.793L14.1482 30.3458ZM14.3394 30.5749C14.2587 30.5144 14.1932 30.436 14.1482 30.3458L13.2537 30.793C13.3682 31.022 13.5345 31.2212 13.7394 31.3749L14.3394 30.5749ZM20.4697 35.1726L14.3394 30.5749L13.7394 31.3749L19.8697 35.9726L20.4697 35.1726Z" fill="#D8D1E5" mask="url(#path-4-inside-2)"/>
</svg>
