<svg width="50" height="50" viewBox="0 0 50 50" fill="none" xmlns="http://www.w3.org/2000/svg">
<path d="M48.994 38.5158C33.14 38.5168 17.286 38.5178 1.432 38.5188C1.34 38.5188 1.248 38.5108 1.125 38.5048C1.125 29.4758 1.125 20.4588 1.125 11.4118C1.225 11.4018 1.328 11.3828 1.432 11.3828C17.286 11.3828 33.14 11.3838 48.994 11.3848C48.994 20.4278 48.994 29.4718 48.994 38.5158ZM30.604 22.7548C30.604 19.4328 30.604 16.2158 30.604 13.0048C21.285 13.0048 12.003 13.0048 2.721 13.0048C2.721 20.9898 2.721 28.9448 2.721 36.8938C12.037 36.8938 21.318 36.8938 30.597 36.8938C30.597 35.2438 30.597 33.6248 30.597 31.9388C29.388 32.7858 28.083 32.9628 26.714 32.9328C25.265 32.9008 23.815 32.9258 22.365 32.9248C22.202 32.9248 22.038 32.9108 21.898 32.9048C21.702 31.8118 22.05 30.9428 22.739 30.1928C23.203 29.6888 23.692 29.2068 24.164 28.7098C25.303 27.5078 25.302 27.2668 24.181 26.0548C23.62 25.4488 23.043 24.8568 22.51 24.2278C21.913 23.5248 21.74 22.6948 21.901 21.7618C23.337 21.7618 24.754 21.7828 26.169 21.7558C27.711 21.7278 29.229 21.7588 30.604 22.7548ZM35.441 22.6858C35.935 22.4618 36.371 22.2138 36.838 22.0648C37.308 21.9148 37.808 21.7898 38.297 21.7818C40.198 21.7488 42.1 21.7658 44.002 21.7658C44.06 21.7658 44.118 21.7888 44.168 21.7998C44.411 23.1168 43.78 24.0688 42.951 24.9458C42.437 25.4888 41.904 26.0168 41.423 26.5878C40.866 27.2488 40.884 27.5618 41.454 28.2228C41.8 28.6238 42.184 28.9908 42.543 29.3798C42.902 29.7688 43.273 30.1488 43.603 30.5618C44.146 31.2418 44.313 32.0258 44.171 32.8968C44.046 32.9078 43.94 32.9238 43.833 32.9238C42.087 32.9248 40.341 32.9278 38.595 32.9198C38.285 32.9188 37.96 32.9218 37.668 32.8338C36.918 32.6088 36.183 32.3348 35.455 32.0848C35.455 33.6428 35.455 35.2678 35.455 36.8868C39.45 36.8868 43.414 36.8868 47.374 36.8868C47.374 28.9058 47.374 20.9618 47.374 13.0038C43.384 13.0038 39.42 13.0038 35.44 13.0038C35.441 16.2428 35.441 19.4508 35.441 22.6858ZM31.31 26.5338C31.3 26.4248 31.306 26.3448 31.283 26.2738C30.804 24.7708 29.819 23.7718 28.263 23.4658C27.539 23.3238 26.775 23.3748 26.029 23.3588C25.337 23.3438 24.645 23.3558 23.835 23.3558C24.136 23.6858 24.354 23.9218 24.569 24.1608C25.05 24.6918 25.571 25.1928 26.002 25.7618C26.878 26.9178 26.87 27.9048 25.973 29.0418C25.521 29.6148 24.982 30.1188 24.484 30.6558C24.301 30.8528 24.124 31.0558 23.884 31.3228C25.193 31.3228 26.391 31.3388 27.589 31.3178C28.725 31.2978 29.669 30.8238 30.423 29.9858C30.887 29.4708 31.201 28.8738 31.332 28.1238C30.277 28.1238 29.271 28.1238 28.27 28.1238C28.27 27.5708 28.27 27.0678 28.27 26.5348C29.303 26.5338 30.298 26.5338 31.31 26.5338ZM42.238 23.3558C41.204 23.3558 40.307 23.3438 39.41 23.3598C38.851 23.3698 38.281 23.3608 37.737 23.4658C36.219 23.7588 34.88 25.1598 34.759 26.5548C35.767 26.5548 36.772 26.5548 37.779 26.5548C37.779 27.1078 37.779 27.6098 37.779 28.1468C36.746 28.1468 35.754 28.1468 34.759 28.1468C34.902 29.6958 36.529 31.2128 38.201 31.2978C39.46 31.3618 40.725 31.3188 41.988 31.3188C42.021 31.3188 42.055 31.2728 42.246 31.1338C41.818 30.7738 41.396 30.4708 41.038 30.1038C40.605 29.6598 40.183 29.1918 39.833 28.6818C39.269 27.8598 39.263 26.9748 39.804 26.1358C40.106 25.6678 40.48 25.2438 40.85 24.8248C41.266 24.3538 41.714 23.9078 42.238 23.3558ZM33.038 26.5128C33.209 26.0328 33.434 25.4228 33.642 24.8078C33.724 24.5638 33.823 24.3078 33.823 24.0578C33.835 20.5358 33.831 17.0128 33.831 13.4908C33.831 13.3268 33.831 13.1628 33.831 12.9998C33.267 12.9998 32.774 12.9998 32.258 12.9998C32.25 13.0958 32.237 13.1698 32.237 13.2448C32.236 16.9078 32.236 20.5698 32.237 24.2328C32.237 24.3408 32.238 24.4558 32.275 24.5538C32.544 25.2598 32.823 25.9638 33.038 26.5128ZM32.236 36.8948C32.79 36.8948 33.293 36.8948 33.797 36.8948C33.812 36.8208 33.828 36.7768 33.828 36.7328C33.83 34.6308 33.832 32.5288 33.827 30.4278C33.827 30.3088 33.788 30.1848 33.745 30.0718C33.489 29.3868 33.226 28.7028 33.02 28.1608C32.853 28.6318 32.625 29.2568 32.412 29.8858C32.335 30.1148 32.245 30.3558 32.243 30.5918C32.229 32.5378 32.235 34.4838 32.235 36.4298C32.236 36.5798 32.236 36.7308 32.236 36.8948Z" fill="#DB1E34"/>
<path d="M18.629 20.9269C14.389 20.9269 10.171 20.9269 5.91495 20.9269C5.91495 20.1549 5.91495 19.3879 5.91495 18.6029C6.53195 18.4989 7.44295 18.7829 7.44395 17.7649C7.44595 16.7369 6.52795 17.0449 5.90295 16.9499C5.90295 16.1619 5.90295 15.4039 5.90295 14.6079C10.129 14.6079 14.357 14.6079 18.625 14.6079C18.625 15.3599 18.625 16.1279 18.625 16.9789C18.373 16.9789 18.115 16.9669 17.858 16.9819C17.385 17.0079 17.088 17.3029 17.075 17.7389C17.062 18.1729 17.343 18.5059 17.803 18.5569C18.063 18.5859 18.329 18.5619 18.629 18.5619C18.629 19.3569 18.629 20.1109 18.629 20.9269ZM8.50495 16.1789C9.26895 17.2589 9.23095 18.2899 8.54495 19.3219C11.055 19.3219 13.507 19.3219 15.872 19.3219C15.738 18.7959 15.499 18.2789 15.503 17.7649C15.507 17.2349 15.748 16.7069 15.886 16.1789C13.5 16.1789 11.042 16.1789 8.50495 16.1789Z" fill="#DB1E34"/>
<path d="M12.278 27.3518C14.1 27.3518 15.923 27.3448 17.745 27.3558C18.472 27.3598 18.873 27.9728 18.542 28.5408C18.344 28.8808 18.019 28.9508 17.659 28.9508C16.21 28.9488 14.762 28.9498 13.313 28.9498C11.241 28.9498 9.16996 28.9498 7.09796 28.9498C6.95796 28.9498 6.81696 28.9568 6.67796 28.9418C6.19796 28.8928 5.87196 28.5528 5.88296 28.1248C5.89496 27.6898 6.22396 27.3628 6.71696 27.3588C8.19696 27.3458 9.67596 27.3528 11.156 27.3518C11.53 27.3508 11.904 27.3518 12.278 27.3518Z" fill="#DB1E34"/>
<path d="M12.286 30.5469C14.031 30.5469 15.775 30.5469 17.52 30.5479C17.676 30.5479 17.834 30.5399 17.986 30.5639C18.374 30.6249 18.599 30.8769 18.643 31.2509C18.687 31.6279 18.518 31.9289 18.152 32.0609C17.968 32.1269 17.756 32.1389 17.557 32.1399C14.037 32.1439 10.516 32.1429 6.99603 32.1429C6.87103 32.1429 6.74503 32.1499 6.62303 32.1329C6.18103 32.0729 5.86703 31.7189 5.88303 31.3109C5.89903 30.8929 6.22203 30.5649 6.67803 30.5549C7.42503 30.5389 8.17303 30.5479 8.92103 30.5479C10.043 30.5459 11.164 30.5469 12.286 30.5469Z" fill="#DB1E34"/>
<path d="M8.26307 25.7487C7.76407 25.7487 7.26507 25.7617 6.76707 25.7457C6.23807 25.7287 5.89707 25.4167 5.88407 24.9707C5.87007 24.5067 6.22107 24.1627 6.77207 24.1557C7.78507 24.1417 8.79907 24.1397 9.81207 24.1567C10.3491 24.1657 10.6611 24.4827 10.6601 24.9527C10.6591 25.4237 10.3491 25.7267 9.80807 25.7457C9.29207 25.7627 8.77707 25.7487 8.26307 25.7487Z" fill="#DB1E34"/>
</svg>
