<svg width="40" height="40" viewBox="0 0 40 40" fill="none" xmlns="http://www.w3.org/2000/svg">
<circle cx="20" cy="20" r="20" fill="#F9C9FF"/>
<path d="M20.0434 9.16669C14.1284 9.16669 9.30761 13.9875 9.30761 19.9025C9.30761 21.7984 9.80595 23.64 10.7376 25.265L9.22095 30.8334L14.9084 29.3384C16.4793 30.1942 18.2451 30.6492 20.0434 30.6492C25.9584 30.6492 30.7793 25.8284 30.7793 19.9134C30.7793 17.0425 29.6634 14.345 27.6376 12.3192C25.6118 10.2825 22.9143 9.16669 20.0434 9.16669ZM20.0543 10.9759C22.4376 10.9759 24.6693 11.9075 26.3593 13.5975C28.0384 15.2875 28.9701 17.53 28.9701 19.9134C28.9701 24.8317 24.9618 28.8292 20.0434 28.8292C18.4401 28.8292 16.8693 28.4067 15.5043 27.5834L15.1793 27.3992L11.7993 28.2875L12.6984 24.9942L12.4818 24.6475C11.5934 23.25 11.1168 21.5925 11.1168 19.9025C11.1276 14.9842 15.1251 10.9759 20.0543 10.9759ZM16.2409 14.9409C16.0676 14.9409 15.7751 15.0059 15.5259 15.2767C15.2876 15.5475 14.5834 16.2084 14.5834 17.5192C14.5834 18.8409 15.5476 20.1084 15.6668 20.2925C15.8184 20.4767 17.5734 23.185 20.2709 24.3334C20.9101 24.6259 21.4084 24.7884 21.7984 24.9075C22.4376 25.1134 23.0226 25.0809 23.4884 25.0159C24.0084 24.94 25.0701 24.3659 25.2976 23.7375C25.5251 23.1092 25.5251 22.5784 25.4601 22.4592C25.3843 22.3509 25.2109 22.2859 24.9401 22.1667C24.6693 22.015 23.3476 21.365 23.1093 21.2784C22.8601 21.1917 22.7084 21.1484 22.5026 21.4084C22.3293 21.6792 21.8093 22.2859 21.6576 22.4592C21.4951 22.6434 21.3434 22.665 21.0834 22.535C20.8018 22.3942 19.9351 22.1125 18.9168 21.2025C18.1151 20.4875 17.5843 19.61 17.4218 19.3392C17.2918 19.0792 17.4109 18.9167 17.5409 18.7975C17.6601 18.6784 17.8334 18.4834 17.9418 18.3209C18.0826 18.1692 18.1259 18.05 18.2126 17.8767C18.2993 17.6925 18.2559 17.5409 18.1909 17.4109C18.1259 17.2917 17.5843 15.9484 17.3568 15.4175C17.1401 14.8975 16.9234 14.9625 16.7501 14.9517C16.5984 14.9517 16.4251 14.9409 16.2409 14.9409Z" fill="#CD04F2"/>
</svg>
