<svg width="14" height="14" viewBox="0 0 14 14" fill="none" xmlns="http://www.w3.org/2000/svg">
<path d="M4.08333 7.00008H5.25V8.16675H4.08333V7.00008ZM12.25 3.50008V11.6667C12.25 11.9762 12.1271 12.2729 11.9083 12.4917C11.6895 12.7105 11.3928 12.8334 11.0833 12.8334H2.91667C2.26917 12.8334 1.75 12.3084 1.75 11.6667V3.50008C1.75 3.19066 1.87292 2.89392 2.09171 2.67512C2.3105 2.45633 2.60725 2.33341 2.91667 2.33341H3.5V1.16675H4.66667V2.33341H9.33333V1.16675H10.5V2.33341H11.0833C11.3928 2.33341 11.6895 2.45633 11.9083 2.67512C12.1271 2.89392 12.25 3.19066 12.25 3.50008ZM2.91667 4.66675H11.0833V3.50008H2.91667V4.66675ZM11.0833 11.6667V5.83342H2.91667V11.6667H11.0833ZM8.75 8.16675V7.00008H9.91667V8.16675H8.75ZM6.41667 8.16675V7.00008H7.58333V8.16675H6.41667ZM4.08333 9.33342H5.25V10.5001H4.08333V9.33342ZM8.75 10.5001V9.33342H9.91667V10.5001H8.75ZM6.41667 10.5001V9.33342H7.58333V10.5001H6.41667Z" fill="white"/>
</svg>
