<svg width="26" height="26" viewBox="0 0 26 26" fill="none" xmlns="http://www.w3.org/2000/svg">
<path d="M4.64282 7.42864H6.49997M6.49997 7.42864H21.3571M6.49997 7.42864V20.4286C6.49997 20.9212 6.69563 21.3936 7.04391 21.7418C7.39219 22.0901 7.86456 22.2858 8.35711 22.2858H17.6428C18.1354 22.2858 18.6077 22.0901 18.956 21.7418C19.3043 21.3936 19.5 20.9212 19.5 20.4286V7.42864H6.49997ZM9.28568 7.42864V5.5715C9.28568 5.07895 9.48134 4.60658 9.82962 4.2583C10.1779 3.91002 10.6503 3.71436 11.1428 3.71436H14.8571C15.3497 3.71436 15.822 3.91002 16.1703 4.2583C16.5186 4.60658 16.7143 5.07895 16.7143 5.5715V7.42864M11.1428 12.0715V17.6429M14.8571 12.0715V17.6429" stroke="#DB1E34" stroke-linecap="round" stroke-linejoin="round"/>
</svg>
