<svg width="40" height="40" viewBox="0 0 40 40" fill="none" xmlns="http://www.w3.org/2000/svg">
<path d="M19.9999 3.40002C10.8333 3.40002 3.33325 10.8834 3.33325 20.1C3.33325 28.4334 9.43325 35.35 17.3999 36.6V24.9334H13.1666V20.1H17.3999V16.4167C17.3999 12.2334 19.8833 9.93336 23.6999 9.93336C25.5166 9.93336 27.4166 10.25 27.4166 10.25V14.3667H25.3166C23.2499 14.3667 22.5999 15.65 22.5999 16.9667V20.1H27.2333L26.4833 24.9334H22.5999V36.6C26.5273 35.9798 30.1036 33.9759 32.6831 30.9501C35.2627 27.9244 36.6755 24.0761 36.6666 20.1C36.6666 10.8834 29.1666 3.40002 19.9999 3.40002Z" fill="#3B5999"/>
</svg>
