<svg width="24" height="24" viewBox="0 0 24 24" fill="none" xmlns="http://www.w3.org/2000/svg">
<path d="M22 10.8701L19.26 9.28009C19.5 9.07009 19.73 8.80009 19.9 8.50009C20.73 7.07009 20.24 5.23009 18.8 4.40009C17.94 3.90009 16.93 3.90009 16.08 4.26009L16.09 4.25009L15.21 4.64009L15.1 3.68009L15.09 3.69009C15 2.78009 14.47 1.90009 13.61 1.40009C12.17 0.575086 10.34 1.07009 9.5 2.50009C9.33 2.80009 9.22 3.13009 9.16 3.45009L6.41 1.87009C5.45 1.32009 4.23 1.64009 3.68 2.60009L2.18 5.20009C1.9 5.68009 2.07 6.29009 2.55 6.56009L4.28 7.56009L8.5 10.0001H2V20.0001C2 21.1101 2.9 22.0001 4 22.0001H20C21.11 22.0001 22 21.1101 22 20.0001V14.8701L22.73 13.6001C23.28 12.6401 22.96 11.4201 22 10.8701ZM16.44 6.50009C16.71 6.00009 17.33 5.86009 17.8 6.13009C18.28 6.41009 18.45 7.00009 18.17 7.50009C17.89 8.00009 17.28 8.14009 16.8 7.87009C16.33 7.59009 16.16 7.00009 16.44 6.50009ZM14.07 8.60009L21 12.6001L20 14.3301L13.07 10.3301L14.07 8.60009ZM11 20.0001H4V12.0001H11V20.0001ZM11.34 9.33009L4.41 5.33009L5.41 3.60009L12.34 7.60009L11.34 9.33009ZM11.61 4.87009C11.13 4.59009 10.97 4.00009 11.24 3.50009C11.5 3.00009 12.13 2.86009 12.61 3.13009C13.09 3.41009 13.25 4.00009 12.97 4.50009C12.7 5.00009 12.09 5.14009 11.61 4.87009ZM13 20.0001V12.6001L20 16.6401V20.0001H13Z" fill="#DB1E34"/>
</svg>
