<svg width="25" height="24" viewBox="0 0 25 24" fill="none" xmlns="http://www.w3.org/2000/svg">
<path d="M9.28978 23.3102C8.87838 23.1857 8.47324 23.0545 8.14492 22.7567C7.71474 22.3665 7.47006 21.8898 7.41316 21.319C7.40178 21.2024 7.40462 21.0846 7.40462 20.9668C7.40405 17.9517 7.40405 14.936 7.40405 11.9209C7.40405 11.8345 7.40405 11.7481 7.40405 11.6747C7.95657 11.6747 8.48747 11.6747 9.05478 11.6747C9.05478 11.7829 9.05478 11.8743 9.05478 11.9663C9.05478 14.9668 9.05421 17.9674 9.05592 20.9685C9.05592 21.0852 9.05421 21.2074 9.08721 21.3167C9.1555 21.5399 9.37798 21.6818 9.64087 21.6824C12.9617 21.6835 16.283 21.684 19.6038 21.6818C19.9726 21.6818 20.1922 21.444 20.1922 21.0566C20.1933 19.0098 20.1928 16.9625 20.1928 14.9158C20.1928 12.1721 20.1928 9.42778 20.1928 6.68404C20.1928 6.15301 19.9982 5.96404 19.4519 5.96404C17.7915 5.96404 16.1311 5.96404 14.4701 5.96404C14.3893 5.96404 14.3085 5.96404 14.2357 5.96404C14.1549 5.41619 14.0764 4.88404 13.9961 4.33619C14.0701 4.33619 14.1509 4.33619 14.2317 4.33619C15.9889 4.33619 17.7466 4.33563 19.5037 4.33619C20.8978 4.33675 21.8441 5.26871 21.8441 6.64198C21.8446 11.4257 21.8355 16.2089 21.8509 20.9926C21.8543 22.1007 21.1385 23.0848 19.9834 23.281C19.9623 23.2844 19.9441 23.3001 19.9242 23.3102C16.3798 23.3102 12.8348 23.3102 9.28978 23.3102Z" fill="#DB1E34"/>
<path d="M13.4568 5.87147C13.471 8.68138 11.1596 10.9715 8.28891 10.9911C5.44438 11.0107 3.10628 8.7268 3.08124 5.90511C3.05678 3.10138 5.40569 0.775395 8.26615 0.769788C11.1181 0.76362 13.4425 3.04867 13.4568 5.87147ZM8.28209 9.91446C10.5417 9.89539 12.3853 8.06736 12.3637 5.86698C12.342 3.63745 10.4956 1.83745 8.25022 1.8582C5.98211 1.87895 4.16238 3.69353 4.18742 5.90904C4.21246 8.1324 6.0538 9.93296 8.28209 9.91446Z" fill="#DB1E34"/>
<path d="M14.7586 11.9063C13.7919 11.9063 12.8251 11.9136 11.8583 11.899C11.7013 11.8968 11.5124 11.8346 11.3963 11.7347C11.0816 11.4639 11.2222 10.9631 11.629 10.8476C11.7064 10.8258 11.79 10.8185 11.8708 10.8185C13.7896 10.8168 15.7083 10.8162 17.6271 10.8196C17.7363 10.8196 17.8535 10.8336 17.9525 10.8746C18.1904 10.9721 18.3161 11.2233 18.2706 11.4678C18.2251 11.7134 17.989 11.9035 17.7033 11.9052C16.9818 11.9097 16.2603 11.9069 15.5393 11.9069C15.2793 11.9063 15.0192 11.9063 14.7586 11.9063Z" fill="#DB1E34"/>
<path d="M14.7616 14.1088C15.7449 14.1088 16.7276 14.1071 17.7108 14.1099C17.9908 14.1105 18.2184 14.2832 18.2753 14.5215C18.3339 14.7671 18.2241 15.0133 17.9828 15.126C17.8861 15.1714 17.7689 15.1927 17.6608 15.1933C15.7318 15.1972 13.8034 15.1955 11.8744 15.1972C11.603 15.1972 11.3907 15.0991 11.2803 14.8507C11.1933 14.6538 11.2138 14.4396 11.3839 14.3051C11.5125 14.2036 11.6969 14.12 11.8579 14.1172C12.8252 14.1004 13.7931 14.1088 14.7616 14.1088Z" fill="#DB1E34"/>
<path d="M14.786 17.5361C15.7687 17.5361 16.752 17.5338 17.7347 17.5378C18.0101 17.5389 18.232 17.7245 18.2781 17.9695C18.3259 18.2207 18.2069 18.4563 17.9611 18.5617C17.8758 18.5981 17.7739 18.6105 17.6795 18.6105C15.7363 18.6133 13.7925 18.6138 11.8493 18.6116C11.4823 18.611 11.2421 18.3946 11.2393 18.08C11.2359 17.7576 11.4823 17.5372 11.8595 17.5361C12.8348 17.5338 13.8107 17.5355 14.786 17.5355V17.5361Z" fill="#DB1E34"/>
<path d="M8.82328 5.34328C8.92855 5.34328 9.00821 5.34328 9.08788 5.34328C9.83158 5.34328 10.5753 5.3416 11.319 5.34384C11.6792 5.34496 11.925 5.56309 11.9284 5.87543C11.9318 6.19113 11.6951 6.41879 11.3332 6.42048C10.3295 6.42608 9.32516 6.42608 8.32141 6.42048C7.93618 6.41823 7.72507 6.19337 7.72394 5.80814C7.72223 4.96534 7.72223 4.12253 7.72394 3.28029C7.72451 2.9287 7.94813 2.67805 8.25938 2.66964C8.57576 2.66123 8.81759 2.91468 8.82101 3.27917C8.82727 3.87973 8.82271 4.48085 8.82328 5.08197C8.82328 5.16048 8.82328 5.23898 8.82328 5.34328Z" fill="#DB1E34"/>
</svg>
