<svg width="22" height="21" viewBox="0 0 22 21" fill="none" xmlns="http://www.w3.org/2000/svg">
<path d="M10.501 21C16.3003 21 21.0016 16.2988 21.0016 10.4995C21.0016 4.70016 16.3003 -0.00109863 10.501 -0.00109863C4.70173 -0.00109863 0.000473815 4.70016 0.000474793 10.4995C0.00047577 16.2988 4.70173 21 10.501 21Z" fill="#FFCB27"/>
<path d="M15.9952 1.53711C17.041 3.16982 17.6472 5.11073 17.6472 7.19309C17.6472 12.9926 12.9457 17.6937 7.14659 17.6937C5.13243 17.6937 3.25089 17.1262 1.6527 16.1431C3.51908 19.0566 6.78451 20.9878 10.5013 20.9878C16.3008 20.9878 21.0019 16.2863 21.0019 10.4871C21.0019 6.70176 18.9991 3.38497 15.9952 1.53711Z" fill="#F9C021"/>
<path d="M1.42784 11.6074C1.42784 6.22301 5.79255 1.8583 11.177 1.8583C14.3241 1.8583 17.1226 3.34997 18.9052 5.66431C17.2215 2.7416 14.0664 0.77417 10.4516 0.77417C5.06713 0.77417 0.702419 5.13888 0.702419 10.5233C0.702419 12.7606 1.45647 14.8211 2.72374 16.4664C1.89938 15.0358 1.42784 13.3766 1.42784 11.6074Z" fill="#FFD95F"/>
<path d="M17.0292 8.86327C16.9706 8.68392 16.8186 8.55551 16.6321 8.52856L12.7006 7.95724L10.9425 4.39499C10.8591 4.22574 10.6899 4.12048 10.5012 4.12048C10.3126 4.12048 10.1434 4.22574 10.06 4.39499L8.30183 7.95724L4.37077 8.52856C4.18384 8.55593 4.03185 8.68392 3.97333 8.86327C3.91523 9.04263 3.9628 9.2363 4.09795 9.36765L6.94278 12.1405L6.27126 16.056C6.23926 16.2421 6.31462 16.4265 6.46703 16.5372C6.61944 16.6479 6.81816 16.6622 6.98488 16.5747L10.5012 14.726L14.0176 16.5747C14.09 16.613 14.1687 16.6315 14.2471 16.6315C14.3485 16.6315 14.4496 16.5999 14.5359 16.5372C14.6887 16.4265 14.7636 16.2421 14.7316 16.056L14.0601 12.1405L16.905 9.36765C17.0397 9.2363 17.0877 9.04263 17.0292 8.86327Z" fill="white"/>
</svg>
