<svg width="94" height="93" viewBox="0 0 94 93" fill="none" xmlns="http://www.w3.org/2000/svg">
<path d="M46.5004 92.9999C72.1819 92.9999 93.0009 72.1809 93.0009 46.4994C93.0009 20.818 72.1819 -0.000976562 46.5004 -0.000976562C20.8189 -0.000976562 3.50985e-06 20.818 7.83946e-06 46.4994C1.21691e-05 72.1809 20.819 92.9999 46.5004 92.9999Z" fill="#FFCB27"/>
<path d="M70.8305 6.81079C75.4618 14.0411 78.1466 22.6361 78.1466 31.8576C78.1466 57.5402 57.3264 78.3585 31.6457 78.3585C22.7263 78.3585 14.3941 75.8452 7.3167 71.4918C15.5817 84.3937 30.0423 92.9458 46.5015 92.9458C72.1841 92.9458 93.0024 72.1257 93.0024 46.445C93.0024 29.6818 84.1333 14.9938 70.8305 6.81079Z" fill="#F9C021"/>
<path d="M6.3209 51.4061C6.3209 27.5619 25.6495 8.23329 49.4938 8.23329C63.4304 8.23329 75.8233 14.839 83.7173 25.0878C76.2614 12.1449 62.2894 3.43237 46.2813 3.43237C22.4371 3.43237 3.10847 22.761 3.10847 46.6052C3.10847 56.5128 6.44768 65.6374 12.0596 72.9236C8.40906 66.5882 6.3209 59.2405 6.3209 51.4061Z" fill="#FFD95F"/>
<path d="M75.4094 39.2538C75.1503 38.4596 74.4772 37.8909 73.6513 37.7716L56.2412 35.2416L48.4553 19.4666C48.0861 18.7171 47.3366 18.251 46.5014 18.251C45.6661 18.251 44.9166 18.7171 44.5474 19.4666L36.7616 35.2416L19.3533 37.7716C18.5255 37.8928 17.8525 38.4596 17.5933 39.2538C17.336 40.0481 17.5467 40.9057 18.1452 41.4874L30.7432 53.7666L27.7694 71.1059C27.6277 71.9299 27.9614 72.7466 28.6364 73.2369C29.3113 73.7272 30.1913 73.7906 30.9296 73.4028L46.5014 65.2161L62.0731 73.4028C62.3938 73.5725 62.7425 73.6545 63.0892 73.6545C63.5386 73.6545 63.986 73.5147 64.3683 73.2369C65.045 72.7466 65.3769 71.9299 65.2352 71.1059L62.2614 53.7666L74.8594 41.4874C75.456 40.9057 75.6686 40.0481 75.4094 39.2538Z" fill="white"/>
</svg>
