<svg width="40" height="40" viewBox="0 0 40 40" fill="none" xmlns="http://www.w3.org/2000/svg">
<path d="M6.66666 6.66675H33.3333C35.1833 6.66675 36.6667 8.15008 36.6667 10.0001V16.6667C34.8333 16.6667 33.3333 18.1667 33.3333 20.0001C33.3333 21.8501 34.8333 23.3334 36.6667 23.3334V30.0001C36.6667 31.8501 35.1833 33.3334 33.3333 33.3334H6.66666C4.83333 33.3334 3.33333 31.8501 3.33333 30.0001V23.3334C5.18333 23.3334 6.66666 21.8501 6.66666 20.0001C6.66666 18.1667 5.18333 16.6667 3.33333 16.6667V10.0001C3.33333 8.15008 4.83333 6.66675 6.66666 6.66675ZM6.66666 10.0001V14.2334C8.73333 15.4334 10 17.6167 10 20.0001C10 22.3834 8.73333 24.5834 6.66666 25.7667V30.0001H33.3333V25.7667C31.2667 24.5834 30 22.3834 30 20.0001C30 17.6167 31.2667 15.4334 33.3333 14.2334V10.0001H6.66666Z" fill="#DB1E34"/>
</svg>
