<svg width="40" height="40" viewBox="0 0 40 40" fill="none" xmlns="http://www.w3.org/2000/svg">
<path d="M4.64002 15.5978C6.46402 15.2738 7.49602 14.1458 7.90402 12.3738C10.1072 12.3738 12.3104 12.3738 14.5256 12.3738C14.9016 14.1506 15.9784 15.2306 17.7792 15.6226C17.7792 16.3258 17.7848 17.0322 17.7696 17.7378C17.768 17.8026 17.6432 17.901 17.5608 17.921C15.956 18.3194 14.9624 19.3162 14.5728 20.9242C14.5544 21.0002 14.4424 21.109 14.3736 21.1098C12.2192 21.1194 10.0656 21.1178 7.89682 21.1178C7.84162 20.9026 7.80642 20.697 7.73682 20.5034C7.24082 19.1202 6.28722 18.2458 4.84242 17.9242C4.77442 17.909 4.70722 17.8906 4.63922 17.8738C4.64002 17.1146 4.64002 16.3562 4.64002 15.5978ZM13.944 16.7386C13.9408 15.2242 12.7072 13.997 11.1984 14.0082C9.69842 14.0194 8.47842 15.241 8.47442 16.7354C8.47122 18.241 9.70642 19.4826 11.2096 19.4842C12.7184 19.4858 13.9472 18.2514 13.944 16.7386Z" fill="#DB1E34"/>
<path d="M12.1872 35.36C11.9464 35.1936 11.6784 35.0544 11.4736 34.8504C11.344 34.7216 11.248 34.5 11.2408 34.316C11.2152 33.5808 11.2304 32.844 11.2304 32.0896C17.0568 32.0896 22.8696 32.0896 28.7312 32.0896C28.7312 32.2424 28.7312 32.3976 28.7312 32.552C28.7312 32.9712 28.7072 33.392 28.7368 33.8088C28.7904 34.5744 28.488 35.096 27.7608 35.36C22.5696 35.36 17.3784 35.36 12.1872 35.36ZM19.9432 34.2672C20.4616 34.2672 20.98 34.2696 21.4984 34.2664C21.9032 34.2632 22.1504 34.0608 22.1608 33.7328C22.1712 33.3928 21.92 33.168 21.5016 33.1664C20.4848 33.1616 19.468 33.1616 18.452 33.1664C18.032 33.168 17.7808 33.3912 17.7896 33.7304C17.7984 34.0584 18.0456 34.2632 18.4488 34.2664C18.9464 34.2696 19.4448 34.2672 19.9432 34.2672ZM25.452 34.2664C25.8008 34.2664 26.1496 34.2736 26.4984 34.264C26.852 34.2544 27.0896 34.0288 27.0928 33.7216C27.0968 33.4168 26.8616 33.176 26.5088 33.1696C25.8016 33.1576 25.0936 33.1568 24.3864 33.1704C24.0296 33.1768 23.8032 33.4152 23.8088 33.7264C23.8152 34.0384 24.0464 34.2552 24.4056 34.2648C24.7544 34.2736 25.1032 34.2664 25.452 34.2664ZM14.4936 33.1648C14.1648 33.1648 13.836 33.16 13.5072 33.1664C13.1088 33.1744 12.856 33.3912 12.8544 33.7144C12.8528 34.0392 13.108 34.2632 13.5016 34.2664C14.1696 34.2712 14.8368 34.272 15.5048 34.2664C15.8896 34.2632 16.1272 34.0568 16.1384 33.7352C16.1496 33.4056 15.9048 33.1776 15.5096 33.1672C15.1712 33.1576 14.832 33.1648 14.4936 33.1648Z" fill="#DB1E34"/>
<path d="M4.63995 25.8985C4.87275 25.6409 5.09915 25.3769 5.33995 25.1273C5.68635 24.7689 6.03915 24.4169 6.39755 24.0705C6.68875 23.7889 6.97515 23.7865 7.26315 24.0689C7.78315 24.5785 8.29675 25.0937 8.80715 25.6121C9.06955 25.8785 9.08395 26.2081 8.86075 26.4353C8.63195 26.6681 8.31035 26.6553 8.03995 26.3889C7.84235 26.1937 7.65915 25.9841 7.46955 25.7809C7.44075 25.7913 7.41195 25.8017 7.38315 25.8121C7.38315 25.9129 7.38315 26.0145 7.38315 26.1153C7.38315 27.1217 7.38475 28.1289 7.38155 29.1353C7.38075 29.2633 7.37515 29.3977 7.33595 29.5177C7.25595 29.7641 7.06475 29.8865 6.81035 29.8769C6.55595 29.8673 6.37595 29.7329 6.31275 29.4801C6.28395 29.3657 6.28155 29.2433 6.28155 29.1249C6.27915 28.1281 6.27995 27.1313 6.27995 26.1345C6.27995 26.0305 6.27995 25.9257 6.27995 25.8217C6.25355 25.8105 6.22715 25.7993 6.20155 25.7881C6.03275 25.9657 5.86715 26.1465 5.69435 26.3201C5.27915 26.7353 4.95355 26.6969 4.64075 26.2001C4.63995 26.0977 4.63995 25.9977 4.63995 25.8985Z" fill="#DB1E34"/>
<path d="M4.63995 12.364C5.33595 12.364 6.03195 12.364 6.83595 12.364C6.64555 12.748 6.51195 13.096 6.31355 13.4024C5.92075 14.0072 5.31675 14.3248 4.64075 14.52C4.63995 13.8008 4.63995 13.0824 4.63995 12.364Z" fill="#DB1E34"/>
<path d="M4.63995 19.0112C5.64075 19.1336 6.71275 20.2032 6.72475 21.1072C6.02955 21.1072 5.33435 21.1072 4.63995 21.1072C4.63995 20.4088 4.63995 19.7096 4.63995 19.0112Z" fill="#DB1E34"/>
<path d="M28.7177 28.7832C28.7177 29.5344 28.7177 30.24 28.7177 30.9648C22.8897 30.9648 17.0753 30.9648 11.2401 30.9648C11.2401 28.0624 11.2401 25.1648 11.2401 22.2248C11.3601 22.2248 11.4761 22.2248 11.5913 22.2248C13.7473 22.2248 15.9041 22.2248 18.0601 22.2248C18.7313 22.2248 18.8849 22.0688 18.8849 21.3912C18.8849 18.2776 18.8849 15.1632 18.8849 12.0496C18.8849 11.432 18.7257 11.276 18.1017 11.276C15.9353 11.276 13.7689 11.276 11.6033 11.276C11.4865 11.276 11.3697 11.276 11.2369 11.276C11.2369 10.5296 11.2369 9.81764 11.2369 9.09204C17.0697 9.09204 22.8841 9.09204 28.7137 9.09204C28.7137 12.0064 28.7137 14.904 28.7137 17.8344C28.5793 17.8344 28.4625 17.8344 28.3457 17.8344C26.6089 17.8344 24.8721 17.8336 23.1345 17.8344C21.7929 17.8352 21.0657 18.5656 21.0649 19.9104C21.0649 22.2256 21.0625 24.5416 21.0657 26.8568C21.0673 27.8184 21.6201 28.5464 22.4977 28.7424C22.6705 28.7808 22.8545 28.7824 23.0329 28.7824C24.8097 28.7848 26.5865 28.784 28.3633 28.784C28.4713 28.7832 28.5793 28.7832 28.7177 28.7832Z" fill="#DB1E34"/>
<path d="M22.1929 22.2354C26.5689 22.2354 30.9177 22.2354 35.3081 22.2354C35.3081 22.3394 35.3081 22.4354 35.3081 22.5314C35.3081 23.9578 35.3089 25.385 35.3073 26.8114C35.3065 27.4194 35.0369 27.6937 34.4369 27.6945C30.6249 27.6953 26.8129 27.6953 23.0009 27.6945C22.4713 27.6945 22.1745 27.433 22.1721 26.9282C22.1633 25.4114 22.1697 23.8954 22.1705 22.3786C22.1705 22.341 22.1817 22.3026 22.1929 22.2354ZM24.9041 26.0514C25.2233 26.0514 25.5417 26.0514 25.8609 26.0514C25.8809 26.0514 25.9009 26.0514 25.9209 26.0506C26.2977 26.037 26.5433 25.8233 26.5473 25.5089C26.5505 25.1961 26.3009 24.9578 25.9329 24.9538C25.2457 24.9458 24.5577 24.945 23.8705 24.9538C23.4929 24.9586 23.2617 25.185 23.2665 25.513C23.2713 25.8402 23.5001 26.0425 23.8889 26.0497C24.2265 26.0561 24.5649 26.0514 24.9041 26.0514ZM32.5545 26.0514C32.8929 26.0514 33.2321 26.0562 33.5705 26.0506C33.9649 26.0442 34.2185 25.8202 34.2121 25.4962C34.2065 25.1826 33.9577 24.9578 33.5841 24.9538C32.9065 24.9466 32.2289 24.9466 31.5521 24.9538C31.1689 24.9578 30.9361 25.1721 30.9321 25.4969C30.9281 25.8361 31.1617 26.0434 31.5681 26.0506C31.8969 26.0562 32.2257 26.0514 32.5545 26.0514ZM28.7177 26.0449C28.7177 26.0441 28.7177 26.0425 28.7177 26.0417C28.9265 26.0417 29.1369 26.0577 29.3433 26.0378C29.6281 26.0097 29.8177 25.7922 29.8265 25.521C29.8353 25.2522 29.6585 24.997 29.3777 24.9762C28.9529 24.945 28.5233 24.9449 28.0985 24.9745C27.8185 24.9937 27.6377 25.249 27.6433 25.5154C27.6497 25.7946 27.8521 26.0153 28.1513 26.0417C28.3385 26.0585 28.5281 26.0449 28.7177 26.0449Z" fill="#DB1E34"/>
<path d="M28.7177 7.97685C22.8761 7.97685 17.0697 7.97685 11.2169 7.97685C11.2169 7.82245 11.2169 7.67765 11.2169 7.53285C11.2177 6.98405 11.2081 6.43525 11.2225 5.88645C11.2401 5.24405 11.7433 4.74085 12.3849 4.70165C12.4545 4.69765 12.5249 4.69845 12.5945 4.69845C17.5153 4.69845 22.4353 4.70005 27.3561 4.69605C27.9289 4.69525 28.3633 4.90325 28.6193 5.42805C28.6665 5.52485 28.7121 5.63525 28.7137 5.74005C28.7217 6.47605 28.7177 7.21285 28.7177 7.97685ZM20.0041 5.79125C19.1657 5.79125 18.3273 5.79125 17.4889 5.79125C16.9601 5.79125 16.6873 5.97845 16.6881 6.34085C16.6881 6.70405 16.9617 6.89365 17.4897 6.89365C19.1465 6.89445 20.8033 6.89445 22.4609 6.89205C22.5993 6.89205 22.7433 6.88885 22.8753 6.85285C23.1265 6.78405 23.2545 6.59205 23.2569 6.34085C23.2585 6.10165 23.1361 5.91685 22.9033 5.83845C22.7929 5.80085 22.6689 5.79365 22.5505 5.79365C21.7009 5.78965 20.8521 5.79125 20.0041 5.79125Z" fill="#DB1E34"/>
<path d="M35.3073 21.1041C30.9177 21.1041 26.5633 21.1041 22.1905 21.1041C22.1905 20.5561 22.1689 20.0209 22.1993 19.4889C22.2153 19.1993 22.4993 18.9801 22.7969 18.9481C22.8953 18.9377 22.9961 18.9409 23.0961 18.9409C26.8465 18.9409 30.5969 18.9409 34.3473 18.9409C35.0817 18.9409 35.3081 19.1681 35.3081 19.9073C35.3081 20.2945 35.3073 20.6825 35.3073 21.1041Z" fill="#DB1E34"/>
<path d="M33.748 14.2727C33.9384 14.0735 34.124 13.8695 34.3208 13.6768C34.5968 13.4064 34.9087 13.3888 35.1415 13.6192C35.3735 13.8487 35.3647 14.1703 35.0991 14.4415C34.5975 14.9551 34.0904 15.4639 33.5776 15.9671C33.2632 16.2759 32.9799 16.2767 32.6639 15.9679C32.1431 15.4591 31.6296 14.9431 31.12 14.4231C30.8728 14.1703 30.8672 13.8455 31.0872 13.6231C31.3104 13.3975 31.6312 13.4 31.8872 13.648C32.0936 13.8479 32.2832 14.0655 32.48 14.2751C32.508 14.2655 32.5359 14.2551 32.5639 14.2455C32.5639 14.1439 32.5639 14.0423 32.5639 13.9415C32.5639 12.9344 32.5624 11.9272 32.5656 10.92C32.5664 10.792 32.572 10.6576 32.6112 10.5376C32.6928 10.292 32.8848 10.1712 33.14 10.1824C33.3952 10.1936 33.5752 10.3288 33.6352 10.5824C33.6648 10.7064 33.6656 10.8392 33.6656 10.968C33.668 12.0544 33.6672 13.14 33.6672 14.2263C33.6936 14.2423 33.7208 14.2575 33.748 14.2727Z" fill="#DB1E34"/>
<path d="M17.7569 14.4505C16.8513 14.4169 15.7881 13.3537 15.6785 12.3745C16.3641 12.3745 17.0489 12.3745 17.7569 12.3745C17.7569 13.0721 17.7569 13.7609 17.7569 14.4505Z" fill="#DB1E34"/>
<path d="M17.7673 19.02C17.7673 19.7192 17.7673 20.3952 17.7673 21.0944C17.0697 21.0944 16.3769 21.0944 15.6841 21.0944C15.7857 20.1448 16.7633 19.1592 17.7673 19.02Z" fill="#DB1E34"/>
<path d="M12.8497 16.7561C12.8449 17.6593 12.1097 18.3897 11.2073 18.3865C10.3089 18.3833 9.5689 17.6441 9.5665 16.7473C9.5641 15.8385 10.3129 15.1017 11.2321 15.1089C12.1393 15.1161 12.8545 15.8433 12.8497 16.7561Z" fill="#DB1E34"/>
</svg>
