<svg width="146" height="31" viewBox="0 0 146 31" fill="none" xmlns="http://www.w3.org/2000/svg">
<path d="M31.5236 15.7293C31.3644 15.4693 31.1855 14.6908 30.1743 14.6296C29.2161 14.5713 27.3392 15.6322 26.6797 13.7331L26.8677 13.5269C27.1921 13.7973 27.794 14.0349 28.975 13.9004C30.197 13.7614 31.4387 14.3247 31.61 15.7203L31.5236 15.7293Z" fill="#DB1E34"/>
<path d="M28.5717 18.9134C29.7801 19.2526 30.7231 20.2791 30.2713 21.6776C30.2698 21.6761 30.2682 21.6761 30.2667 21.6746C30.2379 21.6582 30.2091 21.6433 30.1803 21.6268L30.2152 21.5641C30.1697 21.2637 30.3077 20.4778 29.395 20.0385C28.5354 19.6246 26.3992 19.8951 26.5129 17.9108L26.7813 17.7943C26.9814 18.1618 27.4498 18.5981 28.5717 18.9134Z" fill="#DB1E34"/>
<path d="M31.6146 15.8129C29.8969 15.5664 28.8144 18.761 26.6418 17.4043L26.6616 17.3355C28.8659 17.9646 29.8954 14.3232 31.5221 15.7308L31.6085 15.7218C31.6131 15.7517 31.6161 15.7846 31.6191 15.8144C31.6176 15.8129 31.6176 15.8129 31.6146 15.8129Z" fill="#DB1E34"/>
<path d="M30.4924 9.91543C28.9096 10.4324 29.0946 13.6613 26.6082 13.2355L26.5991 13.1623C28.8793 12.9113 28.4169 9.15938 30.4682 9.8467L30.4924 9.91543Z" fill="#DB1E34"/>
<path d="M30.215 21.5626L30.1801 21.6254C28.6914 20.8977 26.5173 23.2884 25.0664 21.2832L25.1089 21.2174C26.8993 22.616 29.2599 19.653 30.215 21.5626Z" fill="#DB1E34"/>
<path d="M27.1723 4.80084L27.2329 4.72015C27.2678 4.74555 27.3011 4.77394 27.3345 4.80084C27.333 4.80233 27.3314 4.80383 27.3299 4.80532C25.9427 5.82435 27.4542 8.8187 24.9815 9.38947L24.936 9.32224C26.9176 8.22252 25.0513 4.94876 27.2056 4.8098C27.195 4.80831 27.1844 4.80383 27.1723 4.80084Z" fill="#DB1E34"/>
<path d="M26.7401 26.459L26.6431 26.462C25.5333 25.313 22.6952 26.6084 22.1055 24.3179L22.1873 24.2656C23.3305 26.1482 26.6022 24.3522 26.7401 26.459Z" fill="#DB1E34"/>
<path d="M21.9326 6.36226C23.244 4.6051 20.3195 2.3175 22.2389 1.38513L22.3041 1.4195C21.5703 2.87035 23.943 4.98611 22.016 6.41754L21.9326 6.36226Z" fill="#DB1E34"/>
<path d="M17.2768 20.3224C17.4481 20.3224 20.5879 21.5387 20.5895 21.6104C20.5895 21.6866 19.0582 24.3866 15.9412 24.3866C12.5224 24.3866 11.3126 21.6686 11.311 21.6104C11.311 21.5536 14.3963 20.3224 14.6237 20.3224C14.8996 20.3224 15.641 20.5779 15.9502 20.5779C16.261 20.5779 16.9781 20.3224 17.2768 20.3224ZM15.9518 22.4576C18.2699 22.4576 19.137 22.0392 19.7677 21.8375C19.7677 21.8375 17.1798 21.0157 16.8356 21.0157C16.6279 21.0157 15.9518 21.2891 15.9518 21.2891C15.9518 21.2891 15.2013 21.0157 15.0649 21.0157C14.7071 21.0157 12.0145 21.8196 12.0145 21.8196C13.3987 22.2648 14.4402 22.4576 15.9518 22.4576ZM15.9684 23.8277C17.439 23.8277 18.7762 23.2106 19.3887 22.4576C18.7868 22.6443 16.8857 22.9223 15.9518 22.9223C15.0163 22.9223 13.1576 22.6443 12.5573 22.4576C13.1743 23.3586 14.3417 23.8277 15.9684 23.8277Z" fill="#DB1E34"/>
<path d="M21.6311 29.673L21.5614 29.6969C21.0444 28.1638 17.8712 28.3147 18.1744 25.9928L18.2821 25.9689C18.6444 28.0936 22.3148 27.6857 21.6311 29.673Z" fill="#DB1E34"/>
<path d="M17.9789 4.76792C18.4504 2.67756 14.918 1.67048 16.3204 0.0971069L16.3946 0.101589C16.2779 1.70933 19.254 2.76572 18.0911 4.78884L17.9789 4.76792Z" fill="#DB1E34"/>
<path d="M15.5864 30.7084C15.7047 29.0977 12.7165 28.0413 13.896 26.0092L14.0037 26.0301C13.5155 28.128 17.0646 29.135 15.6592 30.7129L15.5864 30.7084Z" fill="#DB1E34"/>
<path d="M10.4197 1.11316C10.9351 2.6432 14.0961 2.49677 13.8081 4.80379L13.6959 4.8262C13.3199 2.71642 9.66616 3.11985 10.3499 1.13707L10.4197 1.11316Z" fill="#DB1E34"/>
<path d="M9.74188 29.4235L9.67669 29.3891C10.4044 27.9517 8.07571 25.8583 9.92078 24.4284L10.0557 24.4404C8.72763 26.199 11.6628 28.4896 9.74188 29.4235Z" fill="#DB1E34"/>
<path d="M7.00389 21.4191L7.04634 21.4864C5.06027 22.5861 6.93111 25.8613 4.77524 26.0003L4.7146 25.9555C5.99114 24.8901 4.56148 21.9765 7.00389 21.4191Z" fill="#DB1E34"/>
<path d="M5.23908 4.34957L5.16479 4.30475C5.18602 4.27785 5.20876 4.25096 5.2315 4.22406C5.23302 4.22555 5.23453 4.22705 5.23453 4.22854C6.25941 5.58078 9.2567 4.12993 9.87223 6.48027L9.78733 6.53407C8.64269 4.66484 5.38008 6.45338 5.23908 4.34957Z" fill="#DB1E34"/>
<path d="M5.38171 17.6478C3.10001 17.8973 3.56394 21.6507 1.51571 20.9633L1.49146 20.8946C3.07273 20.3761 2.88777 17.1487 5.37414 17.5745L5.38171 17.6478Z" fill="#DB1E34"/>
<path d="M6.79775 9.53736C5.01635 8.27478 2.70887 11.1317 1.76587 9.24599L1.80074 9.18175C3.2865 9.91091 5.45904 7.5232 6.90993 9.51943L6.79775 9.53736Z" fill="#DB1E34"/>
<path d="M1.76579 9.24597C1.81127 9.54631 1.67331 10.3322 2.58447 10.7715C3.44106 11.1839 5.56964 10.9165 5.46806 12.8828L5.1421 12.9187C4.91166 12.5735 4.43409 12.185 3.40922 11.8967C2.19939 11.5575 1.2579 10.5325 1.7097 9.13391C1.71121 9.13541 1.71121 9.13541 1.71424 9.1369C1.74153 9.15483 1.77186 9.16828 1.80066 9.18322L1.76579 9.24597Z" fill="#DB1E34"/>
<path d="M27.4027 9.1175C26.0549 9.85712 25.3651 9.64943 25.0103 9.42979C25.0013 9.41485 24.9922 9.4014 24.9831 9.38795L24.9376 9.32071C24.316 8.40627 23.5564 7.59194 22.6923 6.9091C24.2523 7.39172 24.792 5.55687 25.4637 4.96965C26.1974 4.33313 26.8584 4.70518 27.1723 4.79931L27.2329 4.72012C26.1171 3.88189 24.8496 4.34807 24.0916 5.2909C23.229 6.36522 22.5588 6.52808 22.1328 6.4982C22.0934 6.47131 22.054 6.44441 22.0146 6.41752L21.9312 6.36223C21.0397 5.77651 20.0588 5.3178 19.0112 5.01298C20.497 4.78138 20.3075 2.96446 20.688 2.19197C21.1337 1.29396 21.9312 1.42993 22.2359 1.38511L22.3011 1.41947C22.3163 1.39108 22.3329 1.3612 22.3481 1.33431C22.3496 1.33281 22.3496 1.33132 22.3511 1.32982C20.9321 0.88605 19.8905 1.81244 19.5464 3.0048C19.1886 4.239 18.6807 4.66932 18.285 4.8292C18.2198 4.81575 18.1546 4.80081 18.0879 4.78736L17.9757 4.76644C17.3314 4.64691 16.6658 4.58415 15.9881 4.58415C15.5743 4.58415 15.1664 4.60806 14.7631 4.65289C16.023 3.87442 15.1482 2.28012 15.2028 1.42545C15.2635 0.427336 16.0533 0.251023 16.3171 0.0956277L16.3914 0.10011C16.3929 0.0702266 16.396 0.0388487 16.4005 0.00597673C16.4005 0.00448254 16.402 0.00298837 16.402 0C14.9178 0.124017 14.3159 1.37465 14.4614 2.60585C14.6115 3.87591 14.3098 4.46611 14.0066 4.76495C13.9399 4.7769 13.8717 4.78886 13.8065 4.8023L13.6943 4.82472V4.82621C12.6027 5.06229 11.5748 5.46273 10.6333 5.99914C11.5991 4.78138 10.1209 3.60995 9.83285 2.78516C9.50386 1.83934 10.1649 1.38062 10.3483 1.13558L10.4181 1.11167C10.4074 1.08179 10.3983 1.0519 10.3908 1.02053C10.3908 1.01903 10.3908 1.01754 10.3893 1.01455C9.06723 1.68992 8.99749 3.07204 9.60999 4.15383C10.2831 5.34768 10.1831 6.01707 9.99356 6.3951C9.95262 6.422 9.91169 6.45039 9.87075 6.47878L9.78737 6.53107C9.78889 6.53257 9.78889 6.53406 9.78889 6.53406C8.84891 7.193 8.0181 7.99687 7.3298 8.91429C7.95443 7.28564 6.01384 6.74474 5.40438 6.06489C4.73275 5.31481 5.16484 4.64243 5.23912 4.34658L5.16483 4.30175C4.29309 5.40446 4.76762 6.66405 5.72882 7.41563C6.93865 8.36145 7.00839 9.06969 6.93714 9.4776C6.92804 9.49105 6.91894 9.5045 6.90984 9.51794L6.79614 9.53438C6.81888 9.55082 6.84314 9.56725 6.86588 9.58518C6.22912 10.5833 5.75156 11.695 5.46805 12.8799L5.14209 12.9157C5.26035 13.098 5.31189 13.2668 5.33767 13.4028L5.31796 13.473C5.32554 13.476 5.33464 13.479 5.34222 13.4805C5.23154 14.1021 5.17242 14.7431 5.17242 15.3976C5.17242 15.9728 5.2179 16.5361 5.30431 17.0875L4.99655 17.1936C5.18151 17.3176 5.29522 17.455 5.37254 17.5731L5.38163 17.6463C5.39073 17.6448 5.39983 17.6448 5.40892 17.6433C5.65301 18.7953 6.07903 19.8801 6.65817 20.8648C5.34828 19.5618 4.07325 21.1711 3.18786 21.4699C2.2297 21.7942 1.76426 21.1427 1.51563 20.9634L1.49137 20.8947C1.46105 20.9051 1.43072 20.9141 1.39889 20.9215C1.39737 20.9215 1.39585 20.9215 1.39282 20.923C2.07809 22.226 3.48047 22.2947 4.57963 21.6911C5.9441 20.9425 6.63543 21.1651 6.98565 21.3877C6.99323 21.3982 6.99929 21.4086 7.00687 21.4191L7.04781 21.4863C7.04932 21.4863 7.05084 21.4863 7.05084 21.4849C7.67698 22.4038 8.44109 23.2211 9.31587 23.9069C7.73611 23.3989 7.19487 25.2487 6.51869 25.8374C5.75762 26.4993 5.07539 26.0735 4.77672 26.0003L4.71607 25.9554C4.69636 25.9734 4.67514 25.9898 4.65392 26.0048C4.6524 26.0063 4.65088 26.0077 4.64937 26.0077C5.78643 26.9536 7.10997 26.4889 7.89075 25.5177C8.76856 24.4269 9.4417 24.2775 9.86924 24.3118C9.90562 24.3358 9.94049 24.3612 9.97688 24.3866C9.95869 24.4 9.94049 24.4135 9.92382 24.4269L10.0587 24.4389C10.9532 25.0276 11.9432 25.4863 12.9969 25.7911C11.4823 26.0063 11.6794 27.8381 11.2928 28.6151C10.8486 29.5131 10.0512 29.3771 9.74644 29.422L9.68124 29.3876C9.6676 29.4175 9.65092 29.4459 9.63424 29.4728C9.63273 29.4742 9.63273 29.4757 9.63121 29.4772C11.0518 29.9225 12.0918 28.9931 12.436 27.8008C12.7983 26.5471 13.3198 26.1228 13.7171 25.9704C13.7792 25.9838 13.8414 25.9958 13.902 26.0077L14.0097 26.0287C14.654 26.1482 15.318 26.211 15.9957 26.211C16.4187 26.211 16.8341 26.187 17.245 26.1392C15.9502 26.9117 16.8356 28.5239 16.7811 29.3831C16.7189 30.3812 15.9305 30.556 15.6652 30.7114L15.5909 30.7069C15.5894 30.7383 15.5849 30.7682 15.5803 30.8011C15.5803 30.8041 15.5788 30.8041 15.5788 30.8071C17.063 30.683 17.6649 29.4324 17.5209 28.1997C17.3693 26.9072 17.6816 26.3185 17.9909 26.0257C18.053 26.0137 18.1137 26.0018 18.1774 25.9898L18.285 25.9659C19.3827 25.7298 20.4197 25.3264 21.3642 24.7855C20.3636 26.0107 21.8584 27.1911 22.148 28.0219C22.477 28.9677 21.816 29.4279 21.6325 29.67L21.5628 29.6939C21.5734 29.7223 21.5825 29.7522 21.5901 29.7835C21.5901 29.7865 21.5901 29.7865 21.5916 29.7895C22.9136 29.1142 22.9833 27.732 22.3724 26.6502C21.6886 25.4385 21.8038 24.7661 21.9979 24.391C22.0358 24.3671 22.0722 24.3402 22.1086 24.3163L22.192 24.264C22.1904 24.2625 22.1904 24.2625 22.1889 24.261C23.1365 23.5976 23.9718 22.7893 24.6616 21.8659C24.0067 23.514 25.967 24.0563 26.5795 24.7392C27.2511 25.4878 26.8175 26.1631 26.7432 26.4575L26.6447 26.4605C26.6811 26.4963 26.7159 26.5367 26.7478 26.58C26.7493 26.5815 26.7508 26.583 26.7508 26.5845C27.7105 25.4624 27.239 24.1594 26.2535 23.3899C25.0255 22.4307 24.9709 21.7165 25.0483 21.3115C25.0543 21.3011 25.0604 21.2936 25.068 21.2831L25.1104 21.2159C25.7517 20.2148 26.2323 19.0986 26.5143 17.9093L26.7826 17.7927C26.7038 17.6493 26.6659 17.5148 26.6447 17.4027L26.6644 17.334C26.6568 17.331 26.6477 17.328 26.6371 17.3265C26.7493 16.699 26.8084 16.0565 26.8084 15.399C26.8084 14.8328 26.7645 14.2754 26.6811 13.733L26.8691 13.5268C26.7508 13.4282 26.6705 13.3251 26.6098 13.234L26.6007 13.1608C26.5931 13.1623 26.584 13.1638 26.5765 13.1638C26.3354 12.0177 25.9139 10.9404 25.3424 9.95873C26.6462 11.2318 27.9152 9.63599 28.796 9.33715C29.7557 9.01142 30.2211 9.66437 30.4698 9.84517L30.494 9.9139C30.5243 9.90344 30.5547 9.89448 30.585 9.88701H30.591C29.9043 8.58408 28.5019 8.51535 27.4027 9.1175ZM12.2298 6.07236C13.3956 5.6256 14.6631 5.38055 15.9897 5.38055C17.2662 5.38055 18.4882 5.60767 19.6176 6.02156L19.6101 6.02305C20.0982 6.23373 19.8375 6.78807 19.8375 6.78807C19.0067 8.60649 16.587 11.1914 16.5127 11.2781C16.4051 11.3991 16.4566 11.5978 16.4566 11.5978C16.5536 12.3091 17.9105 17.9212 17.4648 18.359H14.463C14.0188 17.9212 15.3756 12.3091 15.4727 11.5978C15.4727 11.5978 15.5242 11.3991 15.4181 11.2781C15.3438 11.1914 12.9241 8.60649 12.0933 6.78807C12.0933 6.78807 11.8674 6.30844 12.2298 6.07236ZM25.6062 11.7831C25.4167 12.0252 25.2044 12.3061 25.0968 12.4107C24.9194 12.587 24.7238 12.5631 24.6268 12.466C24.5282 12.3688 23.1607 11.1974 21.393 11.1974C19.6267 11.1974 18.3987 12.4675 18.091 12.7185C17.8181 12.9411 17.809 13.0621 17.9621 13.2863C18.0379 13.3998 19.5828 14.8118 21.3915 14.8118C23.2396 14.8118 24.7769 13.9482 25.9715 12.8619C26.2096 13.7151 26.3354 14.6131 26.3354 15.541C26.3354 21.1517 21.7023 25.6999 15.9866 25.6999C10.2725 25.6999 5.63937 21.1517 5.63937 15.541C5.63937 14.6266 5.76217 13.7405 5.99413 12.8993C7.18274 13.9676 8.7064 14.8118 10.5318 14.8118C12.3405 14.8118 13.8853 13.3998 13.9611 13.2863C14.1143 13.0621 14.1052 12.9411 13.8323 12.7185C13.5245 12.4675 12.298 11.1974 10.5302 11.1974C8.76401 11.1974 7.39651 12.3688 7.29645 12.466C7.1979 12.5631 7.00384 12.587 6.82646 12.4107C6.72337 12.3106 6.53082 12.0566 6.34889 11.825C7.207 9.6838 8.78221 7.89825 10.7865 6.75371L15.0376 11.5575C14.983 12.2299 13.2501 18.2081 13.7443 18.6967C13.9187 18.867 15.9578 19.2555 15.9578 19.2555C15.9578 19.2555 17.997 18.867 18.1698 18.6967C18.6655 18.2081 16.9327 12.2299 16.8766 11.5575L21.1474 6.73279C23.1592 7.87135 24.7405 9.64794 25.6062 11.7831ZM21.5218 12.0536C20.6865 12.0536 19.6844 12.3494 18.893 12.6991C19.2553 12.3659 20.0179 11.7727 21.1913 11.7009C21.2702 11.6965 21.349 11.6935 21.4309 11.6935C22.4952 11.6935 23.2578 12.1836 23.7232 12.6184C23.1152 12.2239 22.2511 12.0536 21.5218 12.0536ZM22.0904 13.3864C22.0904 13.9079 21.6962 14.3292 21.208 14.3292C20.7198 14.3292 20.3241 13.9064 20.3241 13.3864C20.3241 13.1369 20.4151 12.9112 20.5652 12.7424C20.8957 12.702 21.2611 12.6766 21.6628 12.6766C21.7053 12.6766 21.7477 12.6781 21.7902 12.6781C21.9736 12.853 22.0904 13.104 22.0904 13.3864ZM20.2711 14.1873C19.5934 13.9377 19.0188 13.4895 18.7914 13.1757C19.0597 13.0681 19.4964 12.9217 20.0831 12.8156C19.9997 12.9815 19.9512 13.1667 19.9512 13.3625C19.9497 13.6777 20.071 13.9646 20.2711 14.1873ZM22.4467 12.7364C23.2532 12.85 23.9779 13.107 24.272 13.2803C24.0279 13.5179 23.2123 13.996 22.2571 14.2321C22.483 14.005 22.621 13.7002 22.621 13.364C22.6225 13.1354 22.5588 12.9217 22.4467 12.7364ZM11.8477 12.8156C12.4329 12.9217 12.8696 13.0681 13.1394 13.1757C12.9105 13.4895 12.3359 13.9392 11.6567 14.1873C11.8583 13.9646 11.9796 13.6777 11.9796 13.3625C11.9796 13.1667 11.9311 12.983 11.8477 12.8156ZM10.4074 12.0536C9.67669 12.0536 8.81404 12.2239 8.2061 12.6184C8.67153 12.1836 9.43412 11.6935 10.4984 11.6935C11.8068 11.6935 12.6497 12.3434 13.0363 12.6991C12.2434 12.3494 11.2428 12.0536 10.4074 12.0536ZM11.6036 13.3864C11.6036 13.9079 11.2095 14.3292 10.7198 14.3292C10.2316 14.3292 9.8374 13.9064 9.8374 13.3864C9.8374 13.104 9.95262 12.8515 10.1391 12.6796C10.1816 12.6781 10.224 12.6781 10.2664 12.6781C10.6667 12.6781 11.0336 12.7035 11.3641 12.7439C11.5127 12.9112 11.6036 13.1369 11.6036 13.3864ZM9.48112 12.7364C9.37045 12.9217 9.30525 13.1354 9.30525 13.364C9.30525 13.7002 9.44322 14.005 9.66911 14.2321C8.7155 13.9975 7.89985 13.5179 7.65424 13.2803C7.95139 13.107 8.67456 12.85 9.48112 12.7364Z" fill="#DB1E34"/>
<path d="M5.31807 13.4761C3.11369 12.847 2.08427 16.4883 0.45752 15.0808L0.462068 15.0076C2.12521 15.1271 3.20769 12.0745 5.3393 13.4058L5.31807 13.4761Z" fill="#DB1E34"/>
<path d="M0.457432 15.0793C0.616621 15.3393 0.795519 16.1177 1.80675 16.1805C2.76643 16.2373 4.6494 15.1734 5.30435 17.089L4.99507 17.195C4.64788 16.9634 4.05661 16.7886 3.00294 16.9082C1.75368 17.0501 0.484722 16.4584 0.358887 14.9956C0.360403 14.9956 0.363435 14.9971 0.364951 14.9971C0.396789 15.0016 0.428627 15.0046 0.460465 15.0076L0.457432 15.0793Z" fill="#DB1E34"/>
<path d="M49.3644 9.76265C49.3644 9.71339 49.3334 9.68524 49.2834 9.68524C49.1835 9.68524 48.2362 9.68524 48.1529 9.68524C46.9867 9.68524 46.4679 10.1966 46.4679 11.3389C46.4679 12.0379 46.4679 17.3696 46.4679 17.4611C46.4655 17.8645 46.5036 18.6269 46.2489 18.9834C46.0109 19.3142 45.5182 19.6144 44.7423 19.4479C43.9664 19.2813 43.3429 18.1906 43.3191 18.1624C43.2953 18.1366 43.2643 18.1132 43.2191 18.1343C43.212 18.1366 43.2048 18.1413 43.1953 18.1437C42.874 18.2915 41.3365 19.0092 41.0033 19.1617C40.9581 19.1828 40.9605 19.2414 40.9747 19.2649C41.8696 20.8506 43.2405 21.9882 45.3135 21.9882C49.3334 21.9882 49.3453 18.4908 49.362 17.515C49.3667 17.4025 49.3644 9.85178 49.3644 9.76265Z" fill="#DB1E34"/>
<path d="M58.0203 16.734H55.1809C55.1405 16.734 55.1119 16.6941 55.1262 16.6566L56.5447 13.0654C56.5637 13.0185 56.6304 13.0161 56.6518 13.063L58.0703 16.6566C58.087 16.6918 58.0608 16.734 58.0203 16.734ZM62.9851 21.7162L57.9275 9.6806C57.9037 9.62665 57.849 9.59381 57.7895 9.59381H56.5423C55.3761 9.59381 55.1857 9.88937 54.7359 10.966L50.2019 21.7185C50.19 21.7537 50.2114 21.7959 50.2685 21.7959H51.8822H51.9631C52.7128 21.7725 53.2269 21.5144 53.4411 20.9914L54.1837 19.1101C54.1932 19.089 54.2146 19.075 54.2361 19.075H58.958C58.9818 19.075 59.0033 19.089 59.0104 19.1101L60.0624 21.7701C60.0624 21.7701 60.0695 21.7959 60.1005 21.7959H62.9303C62.9732 21.7912 62.9993 21.7514 62.9851 21.7162Z" fill="#DB1E34"/>
<path d="M79.5408 16.734H76.7014C76.661 16.734 76.6324 16.6941 76.6467 16.6566L78.0652 13.0654C78.0842 13.0185 78.1509 13.0161 78.1723 13.063L79.5908 16.6566C79.6075 16.6918 79.5813 16.734 79.5408 16.734ZM84.5056 21.7162L79.448 9.6806C79.4242 9.62665 79.3695 9.59381 79.31 9.59381C79.31 9.59381 78.7149 9.59381 78.0628 9.59381C76.8966 9.59381 76.7062 9.88937 76.2564 10.966L71.7224 21.7185C71.7105 21.7537 71.7319 21.7959 71.7891 21.7959H73.4027H73.4836C74.2333 21.7725 74.7474 21.5144 74.9616 20.9914L75.7042 19.1101C75.7137 19.089 75.7351 19.075 75.7566 19.075H80.4786C80.5024 19.075 80.5238 19.089 80.5309 19.1101L81.5829 21.7701C81.5829 21.7701 81.59 21.7959 81.621 21.7959H84.4508C84.4937 21.7912 84.5198 21.7514 84.5056 21.7162Z" fill="#DB1E34"/>
<path d="M73.3716 9.68524H70.6298C70.5846 9.68524 70.5418 9.71339 70.5275 9.75561L67.4096 18.0428C67.3882 18.0968 67.3097 18.0968 67.2883 18.0428C67.2883 18.0428 64.4774 10.5742 64.4751 10.5672C64.268 9.96437 63.7634 9.68524 62.9066 9.68524C62.8447 9.68524 61.3263 9.68524 61.3263 9.68524C61.2477 9.68524 61.193 9.76499 61.2215 9.83771L65.7722 21.003C65.9983 21.5425 66.4957 21.7935 67.3073 21.7935H68.5235C68.583 21.7935 68.6116 21.7654 68.6306 21.7208L73.474 9.83536C73.5049 9.76499 73.4502 9.68524 73.3716 9.68524Z" fill="#DB1E34"/>
<path d="M110.569 15.777V15.7418C110.569 12.9927 108.534 10.7455 105.728 10.7455C102.922 10.7455 100.92 12.9575 100.92 15.7066V15.7418C100.92 18.4909 102.955 20.738 105.761 20.738C108.57 20.7404 110.569 18.5261 110.569 15.777ZM99.4829 15.777V15.7418C99.4829 12.4039 102.027 9.48358 105.764 9.48358C109.5 9.48358 112.009 12.3711 112.009 15.7066V15.7418C112.009 19.0797 109.465 22 105.728 22C101.991 22.0023 99.4829 19.1148 99.4829 15.777Z" fill="#DB1E34"/>
<path d="M124.002 9.73685C124 9.7087 123.976 9.68524 123.947 9.68524H122.674C122.646 9.68524 122.622 9.7087 122.619 9.73685L122.617 16.7292C122.617 19.3751 121.179 20.7239 118.916 20.7239C116.565 20.7239 115.163 19.2532 115.163 16.6448V9.74388C115.163 9.71339 115.137 9.68759 115.108 9.68759H114.62C114.037 9.68759 113.778 9.94326 113.778 10.5156V16.7316C113.778 20.1539 115.848 21.9882 118.883 21.9882C121.953 21.9882 124.002 20.1563 124.002 16.6284V9.73685Z" fill="#DB1E34"/>
<path d="M97.3957 9.73919C97.3957 9.7087 97.3695 9.68524 97.341 9.68524H96.8531C96.2747 9.68524 96.0153 9.93857 96.0105 10.5039V15.0685H88.9228V9.73919C88.9228 9.7087 88.8966 9.68524 88.868 9.68524H88.3801C87.8018 9.68524 87.5424 9.94326 87.5376 10.5062V10.4992V21.7396C87.5376 21.7677 87.5614 21.7912 87.5876 21.7935H88.0802C88.661 21.7935 88.9204 21.5402 88.9228 20.9725V16.3469H96.0105V21.7372C96.0105 21.7677 96.0367 21.7912 96.0653 21.7912H97.341C97.3695 21.7912 97.3933 21.7677 97.3957 21.7372V9.73919Z" fill="#DB1E34"/>
<path d="M130.845 15.0873C128.144 14.5173 127.513 13.877 127.513 12.737V12.7018C127.513 11.6134 128.531 10.7479 130.126 10.7479C131.352 10.7479 132.461 11.1232 133.568 11.9817C133.582 11.9934 133.596 12.0051 133.613 12.0169C133.644 12.0403 133.687 12.0403 133.706 12.0145C133.718 11.9981 134.565 10.9472 133.434 10.3022C132.499 9.76973 131.459 9.51874 130.162 9.51874C127.829 9.51874 126.128 10.9191 126.128 12.8214V12.8566C126.128 14.8457 127.425 15.7441 130.25 16.3493C132.83 16.8841 133.444 17.5245 133.444 18.648V18.6832C133.444 19.8771 132.356 20.7404 130.707 20.7404C129.034 20.7404 127.82 20.1891 126.561 19.0867L126.537 19.0679C126.513 19.0491 126.477 19.0515 126.458 19.0749C126.458 19.0749 125.668 19.9968 125.671 19.9944C125.652 20.0179 125.654 20.0531 125.678 20.0718L125.702 20.0906C127.158 21.3479 128.734 21.9718 130.652 21.9718C133.092 21.9718 134.846 20.6231 134.846 18.5495V18.5143C134.846 16.6589 133.582 15.6737 130.845 15.0873Z" fill="#DB1E34"/>
<path d="M145.737 9.68524H136.883C136.852 9.68524 136.826 9.71104 136.826 9.73919V21.7396C136.826 21.7701 136.852 21.7935 136.883 21.7935H145.737C145.768 21.7935 145.792 21.7701 145.792 21.7396V20.6043C145.792 20.5738 145.765 20.5503 145.737 20.5503H138.213V16.3141H144.073C144.651 16.3141 144.911 16.0607 144.916 15.5001V15.0685H138.213V10.9284H144.954C145.525 10.9261 145.784 10.6775 145.792 10.1239V9.73919C145.792 9.71104 145.765 9.68524 145.737 9.68524Z" fill="#DB1E34"/>
</svg>
