<svg id="Layer_1" data-name="Layer 1" xmlns="http://www.w3.org/2000/svg" viewBox="0 0 141.73 141.73"><defs><style>.cls-1{fill:#da1f33;}.cls-2{fill:none;}</style></defs><title>1</title><path class="cls-1" d="M107.51,42.78c-.37-.63-.8-2.5-3.19-2.65S97.61,42.54,96,38l.45-.49c.77.65,2.19,1.22,5,.89s5.83,1,6.24,4.37Z"/><path class="cls-1" d="M100.52,50.42c2.87.82,5.1,3.28,4,6.64h0l-.21-.12.08-.15c-.1-.72.22-2.61-1.93-3.66s-7.1-.35-6.83-5.11l.63-.28c.48.88,1.59,1.93,4.24,2.68"/><path class="cls-1" d="M107.73,43c-4.07-.6-6.63,7.08-11.77,3.82l0-.17c5.22,1.51,7.66-7.23,11.51-3.85l.21,0a1.79,1.79,0,0,1,0,.23h0"/><path class="cls-1" d="M105.07,28.81c-3.75,1.24-3.31,9-9.19,8l0-.17c5.39-.6,4.3-9.62,9.15-8Z"/><path class="cls-1" d="M104.41,56.79l-.08.15c-3.52-1.75-8.67,4-12.11-.82l.1-.16c4.24,3.36,9.83-3.76,12.09.83"/><path class="cls-1" d="M97.21,16.52l.15-.19.24.19h0c-3.28,2.45.29,9.64-5.56,11l-.11-.17c4.69-2.64.27-10.51,5.37-10.84l-.08,0"/><path class="cls-1" d="M96.19,68.55H96c-2.63-2.76-9.35.35-10.74-5.15l.19-.12c2.7,4.52,10.45.2,10.78,5.26"/><path class="cls-1" d="M84.81,20.27c3.1-4.22-3.82-9.71.72-11.95l.16.08C84,11.88,89.57,17,85,20.4Z"/><path class="cls-1" d="M70.68,62.23c3.49,0,6.65-1.48,8.1-3.29a40.48,40.48,0,0,1-8.14,1.12,39.42,39.42,0,0,1-8-1.12c1.46,2.16,4.22,3.29,8.07,3.29m0-3.29a22.46,22.46,0,0,0,9-1.49s-6.13-2-6.94-2a10.86,10.86,0,0,0-2.1.65,16.64,16.64,0,0,0-2.09-.65c-.85,0-7.23,1.93-7.23,1.93a27.17,27.17,0,0,0,9.32,1.53m3.14-5.13a77.86,77.86,0,0,1,7.85,3.09c0,.19-3.63,6.67-11,6.67a11.75,11.75,0,0,1-11-6.67,74.15,74.15,0,0,1,7.84-3.09c.66,0,2.41.61,3.14.61s2.44-.61,3.14-.61"/><path class="cls-1" d="M84.09,76.27l-.16.06c-1.23-3.68-8.74-3.32-8-8.9l.25-.06c.86,5.11,9.55,4.13,7.93,8.9"/><path class="cls-1" d="M75.44,16.44c1.12-5-7.24-7.44-3.92-11.22h.17c-.27,3.86,6.77,6.4,4,11.26Z"/><path class="cls-1" d="M69.78,78.76c.28-3.87-6.8-6.41-4-11.29l.26,0c-1.16,5,7.24,7.46,3.92,11.25Z"/><path class="cls-1" d="M57.55,7.66c1.22,3.68,8.7,3.33,8,8.87l-.26,0c-.89-5.06-9.54-4.1-7.93-8.86Z"/><path class="cls-1" d="M55.94,75.67l-.15-.08c1.72-3.45-3.79-8.48.57-11.92l.32,0c-3.14,4.23,3.81,9.73-.74,12"/><path class="cls-1" d="M49.46,56.44l.1.17c-4.7,2.64-.28,10.51-5.38,10.84L44,67.34c3-2.56-.36-9.56,5.42-10.9"/><path class="cls-1" d="M45.28,15.44l-.17-.11.15-.19h0c2.43,3.25,9.53-.24,11,5.41l-.2.12c-2.71-4.48-10.44-.19-10.77-5.24"/><path class="cls-1" d="M45.62,47.38c-5.4.6-4.3,9.62-9.16,8l-.05-.17c3.74-1.24,3.3-9,9.19-8Z"/><path class="cls-1" d="M49,27.9c-4.21-3-9.68,3.83-11.91-.7l.08-.15c3.52,1.75,8.66-4,12.1.81Z"/><path class="cls-1" d="M37.06,27.2c.11.72-.22,2.61,1.94,3.66s7.07.35,6.83,5.08l-.77.08c-.55-.83-1.68-1.76-4.11-2.45-2.86-.82-5.09-3.28-4-6.64h0l.2.11Z"/><path class="cls-1" d="M55.33,35.59a2.94,2.94,0,0,0-.42,1.5,3,3,0,0,0,.86,2.09A12.47,12.47,0,0,1,51,36.89a13.74,13.74,0,0,1,4.33-1.3m5,1.56a2.1,2.1,0,1,1-4.18,0,2.31,2.31,0,0,1,.71-1.7h.31a22.82,22.82,0,0,1,2.6.16,2.37,2.37,0,0,1,.56,1.55M57.52,34a10,10,0,0,0-5.21,1.35,7.81,7.81,0,0,1,5.43-2.22,8.64,8.64,0,0,1,6,2.42A16.43,16.43,0,0,0,57.52,34m3.41,1.83a15.64,15.64,0,0,1,3.06.86,8.23,8.23,0,0,1-3.51,2.43,3,3,0,0,0,.76-2,3,3,0,0,0-.31-1.31M86,35.59a13.66,13.66,0,0,1,4.33,1.3,12.39,12.39,0,0,1-4.77,2.29,3,3,0,0,0,.86-2.09,2.85,2.85,0,0,0-.42-1.5m-5.15,3.48a8.13,8.13,0,0,1-3.5-2.43,15.29,15.29,0,0,1,3-.86,3,3,0,0,0-.31,1.31,3,3,0,0,0,.76,2m4.31-1.92a2.1,2.1,0,1,1-4.18,0,2.38,2.38,0,0,1,.57-1.55,22.53,22.53,0,0,1,2.6-.16h.3a2.37,2.37,0,0,1,.71,1.7M83.83,34a16.43,16.43,0,0,0-6.22,1.55,8.63,8.63,0,0,1,5.44-2.4,5.24,5.24,0,0,1,.57,0,7.85,7.85,0,0,1,5.43,2.22A10.07,10.07,0,0,0,83.83,34m9.67-.65c-.44.58-1,1.25-1.2,1.5a.78.78,0,0,1-1.12.14,12.37,12.37,0,0,0-7.65-3c-4.18,0-7.09,3-7.82,3.65s-.66.83-.3,1.37c.18.27,3.84,3.66,8.12,3.66a16,16,0,0,0,10.84-4.68A24.5,24.5,0,1,1,47.08,36a15.93,15.93,0,0,0,10.74,4.6c4.28,0,7.94-3.39,8.12-3.66.36-.54.34-.83-.3-1.37S62,31.89,57.82,31.89a12.37,12.37,0,0,0-7.65,3,.78.78,0,0,1-1.12-.14c-.24-.23-.7-.85-1.13-1.4A24.58,24.58,0,0,1,58.43,21.21L68.5,32.76c-.13,1.61-4.24,16-3.06,17.15.41.41,5.24,1.34,5.24,1.34s4.82-.93,5.23-1.34c1.18-1.18-2.93-15.54-3.06-17.15L83,21.17A24.51,24.51,0,0,1,93.5,33.3M61.83,19.58a24.71,24.71,0,0,1,17.49-.12h0c1.16.51.54,1.84.54,1.84-2,4.37-7.69,10.57-7.87,10.78a1,1,0,0,0-.13.77c.23,1.71,3.44,15.19,2.39,16.24H67.12C66.07,48,69.28,34.56,69.51,32.85a1,1,0,0,0-.13-.77c-.17-.21-5.9-6.41-7.87-10.78,0,0-.53-1.16.32-1.72m35.93,7.31c-3.19,1.78-4.83,1.28-5.67.75L92,27.55l-.11-.17a25.94,25.94,0,0,0-5.32-5.79c3.7,1.16,5-3.25,6.57-4.66s3.3-.64,4-.41l.15-.19c-2.64-2-5.65-.89-7.44,1.37-2,2.58-3.63,3-4.64,2.9L85,20.41l-.19-.14A25.41,25.41,0,0,0,77.9,17c3.51-.55,3.06-4.92,4-6.77,1-2.16,2.94-1.84,3.66-1.94l.16.08a2.12,2.12,0,0,1,.11-.21h0c-3.36-1.06-5.83,1.16-6.64,4s-2,4-3,4.38l-.47-.1-.27,0a25.13,25.13,0,0,0-7.6-.27c3-1.87.91-5.7,1-7.76C69,6,70.89,5.6,71.52,5.22h.17l0-.23h0c-3.52.3-4.94,3.31-4.6,6.26s-.36,4.47-1.07,5.19l-.48.09-.26,0h0a25.29,25.29,0,0,0-7.25,2.81c2.28-2.92-1.21-5.74-1.9-7.72-.78-2.27.79-3.37,1.22-4l.17-.06a.79.79,0,0,1-.06-.22h0c-3.13,1.62-3.29,4.94-1.85,7.54,1.6,2.87,1.36,4.48.91,5.39l-.29.2-.2.12h0a26.15,26.15,0,0,0-5.83,5.72c1.48-3.91-3.11-5.21-4.55-6.84-1.6-1.8-.57-3.42-.4-4.13l-.17-.11C43,18,44.17,21,46.44,22.81c2.87,2.27,3,4,2.86,5l-.06.1-.27,0,.17.12a26.07,26.07,0,0,0-3.31,7.92l-.78.08a3.13,3.13,0,0,1,.47,1.17l-.05.17.06,0a26.77,26.77,0,0,0-.4,4.6A27.13,27.13,0,0,0,45.44,46l-.73.26a3.28,3.28,0,0,1,.89.91l0,.17h.06a26.15,26.15,0,0,0,3,7.74c-3.1-3.13-6.12.73-8.22,1.45-2.27.78-3.37-.79-4-1.22l-.06-.17-.21.07h0c1.62,3.13,4.94,3.3,7.55,1.85,3.23-1.8,4.86-1.27,5.69-.73l.05.07.1.17h0a25.81,25.81,0,0,0,5.36,5.82c-3.74-1.22-5,3.22-6.62,4.64-1.8,1.59-3.42.57-4.13.39L44,67.34l-.15.12h0c2.69,2.27,5.82,1.15,7.67-1.18,2.08-2.62,3.68-3,4.69-2.89.08.05.16.12.25.17l-.13.1.32,0a25.17,25.17,0,0,0,7,3.25c-3.59.52-3.12,4.92-4,6.78-1.06,2.16-3,1.84-3.67,1.94l-.15-.08-.11.21h0c3.36,1.07,5.83-1.16,6.64-4s2.09-4,3-4.4l.44.09.25,0a25.24,25.24,0,0,0,4.71.44,26.11,26.11,0,0,0,3-.17c-3.06,1.85-1,5.73-1.09,7.79-.15,2.4-2,2.82-2.64,3.19h-.18a1.79,1.79,0,0,1,0,.23h0c3.52-.3,4.94-3.3,4.6-6.26s.38-4.52,1.11-5.22l.45-.09.25-.05a25.2,25.2,0,0,0,7.29-2.84c-2.36,2.94,1.17,5.78,1.86,7.77.78,2.27-.79,3.38-1.22,4l-.16.06.06.22h0c3.13-1.62,3.3-4.94,1.85-7.54-1.62-2.91-1.35-4.53-.89-5.43l.27-.18.19-.12h0a25.79,25.79,0,0,0,5.85-5.76c-1.55,4,3.09,5.27,4.54,6.91,1.59,1.8.57,3.42.39,4.12H96a2.31,2.31,0,0,1,.24.29h0c2.27-2.7,1.16-5.83-1.18-7.68-2.9-2.3-3-4-2.85-5l0-.07.1-.16A26.08,26.08,0,0,0,95.65,48l.63-.28A3.37,3.37,0,0,1,96,46.8l0-.17-.06,0a26.14,26.14,0,0,0,.4-4.63,26.43,26.43,0,0,0-.3-4l.45-.49a3.13,3.13,0,0,1-.61-.71l0-.17h0a26,26,0,0,0-2.92-7.7c3.08,3,6.09-.78,8.17-1.5,2.27-.78,3.38.79,4,1.22l.06.17.22-.07h0c-1.62-3.13-4.94-3.3-7.54-1.85"/><path class="cls-1" d="M45.47,37.36C40.25,35.85,37.81,44.6,34,41.22V41c3.94.29,6.5-7,11.55-3.85Z"/><path class="cls-1" d="M34,41.22c.38.62.8,2.49,3.2,2.64s6.73-2.42,8.28,2.18l-.73.26c-.82-.56-2.22-1-4.72-.69-3,.34-6-1.08-6.26-4.6h0L34,41Z"/><path class="cls-2" d="M48,52.53s8.63.66,15.1-4.07a19.24,19.24,0,0,0,3-2.82c.83-1.16,3.74-4.23,7.72-1.24,0,0,4.15,4.39,8.13,5.56S88.09,52,93.41,52.28l-1.5,3.15-4,5.31-8.3,5.15-6.47,1.33-7.56-.33-7.55-2.83-5.89-4.64Z"/><path class="cls-1" d="M48,87.19a.12.12,0,0,0-.14-.13H45.93c-2,0-2.88.89-2.88,2.87v10.61a5.63,5.63,0,0,1-.37,2.64,2.36,2.36,0,0,1-2.58.81c-1.33-.29-2.39-2.18-2.43-2.23a.14.14,0,0,0-.17-.05l0,0-3.75,1.76a.15.15,0,0,0-.05.18c1.53,2.75,3.87,4.73,7.42,4.73,6.87,0,6.89-6.07,6.92-7.76V87.19"/><path class="cls-1" d="M71.28,107.92,62.64,87.05a.25.25,0,0,0-.24-.15H60.27c-2,0-2.32.51-3.09,2.38l-7.75,18.64c0,.06,0,.13.12.13h2.89A2.52,2.52,0,0,0,55,106.66l1.27-3.26a.11.11,0,0,1,.09-.07h8.08a.11.11,0,0,1,.09.07L66.3,108a.06.06,0,0,0,.06,0H71.2a.09.09,0,0,0,.08-.13M62.8,99.28H58a.1.1,0,0,1-.1-.13l2.43-6.23a.1.1,0,0,1,.18,0l2.43,6.23a.1.1,0,0,1-.09.13"/><path class="cls-1" d="M108.07,107.92,99.43,87.05a.24.24,0,0,0-.24-.15H97.06c-2,0-2.31.51-3.08,2.38l-7.76,18.64c0,.06,0,.13.12.13h2.9a2.51,2.51,0,0,0,2.52-1.39L93,103.4a.11.11,0,0,1,.1-.07h8.07a.11.11,0,0,1,.09.07l1.8,4.61a.06.06,0,0,0,.06,0H108a.09.09,0,0,0,.08-.13m-8.48-8.64H94.74a.1.1,0,0,1-.1-.13l2.43-6.23a.1.1,0,0,1,.18,0l2.43,6.23a.09.09,0,0,1-.09.13"/><path class="cls-1" d="M89,87.06H84.36a.2.2,0,0,0-.18.12l-5.33,14.37a.11.11,0,0,1-.21,0l-4.8-13c-.36-1-1.22-1.53-2.69-1.53h-2.7a.19.19,0,0,0-.18.26l7.78,19.36c.39.94,1.24,1.37,2.63,1.37h2.08a.18.18,0,0,0,.18-.12h0l8.28-20.61a.19.19,0,0,0-.18-.26"/><path class="cls-1" d="M41.49,126v-.06A10.64,10.64,0,0,1,52.23,115a10.53,10.53,0,0,1,10.68,10.79v.06a10.71,10.71,0,1,1-21.42.06m19,0v-.06a8.34,8.34,0,0,0-8.28-8.66c-4.8,0-8.22,3.83-8.22,8.6v.06a8.34,8.34,0,0,0,8.28,8.66c4.8,0,8.22-3.83,8.22-8.6"/><path class="cls-1" d="M83.41,115.47a.09.09,0,0,0-.09-.08H81.14a.09.09,0,0,0-.09.08V127.6c0,4.59-2.46,6.92-6.33,6.92S68.3,132,68.3,127.45v-12a.09.09,0,0,0-.09-.09h-.84c-1,0-1.44.44-1.44,1.43V127.6c0,5.94,3.54,9.11,8.73,9.11s8.75-3.17,8.75-9.29Z"/><path class="cls-1" d="M37.92,115.48a.09.09,0,0,0-.09-.09H37c-1,0-1.43.43-1.43,1.41v7.92H23.44v-9.24a.11.11,0,0,0-.1-.1h-.83c-1,0-1.43.45-1.44,1.43h0v19.49a.1.1,0,0,0,.09.09H22c1,0,1.43-.44,1.44-1.42v-8H35.55v9.35a.1.1,0,0,0,.1.09h2.18a.09.09,0,0,0,.09-.09Z"/><path class="cls-1" d="M95.11,124.75c-4.62-1-5.7-2.1-5.7-4.08v-.06c0-1.88,1.74-3.38,4.47-3.38a9.18,9.18,0,0,1,5.89,2.14l.07,0c.06,0,.13,0,.16,0s1.47-1.85-.46-3a10.81,10.81,0,0,0-5.6-1.35c-4,0-6.9,2.43-6.9,5.72v.06c0,3.45,2.22,5,7,6.06,4.41.93,5.46,2,5.46,4V131c0,2.06-1.86,3.56-4.68,3.56a9.91,9.91,0,0,1-7.09-2.87l0,0a.09.09,0,0,0-.13,0l-1.35,1.59a.11.11,0,0,0,0,.14l0,0h0a12.25,12.25,0,0,0,8.46,3.26c4.17,0,7.17-2.34,7.17-5.93v-.06c0-3.21-2.16-4.92-6.84-5.94"/><path class="cls-1" d="M120.57,115.39H105.43a.09.09,0,0,0-.09.09v20.81a.09.09,0,0,0,.09.09h15.14a.09.09,0,0,0,.09-.09v-2a.1.1,0,0,0-.09-.1H107.71v-7.34h10c1,0,1.43-.44,1.44-1.41v-.75H107.71v-7.18h11.52c1,0,1.42-.43,1.43-1.39v-.67a.09.09,0,0,0-.09-.09"/></svg>