<svg width="194" height="41" viewBox="0 0 194 41" fill="none" xmlns="http://www.w3.org/2000/svg">
<path d="M41.8876 20.8033C41.6761 20.4594 41.4383 19.4298 40.0947 19.3488C38.8215 19.2717 36.3275 20.6748 35.4512 18.1631L35.701 17.8904C36.1321 18.2481 36.9318 18.5623 38.5012 18.3844C40.1249 18.2006 41.7748 18.9457 42.0024 20.7914L41.8876 20.8033Z" fill="#DB1E34"/>
<path d="M37.9653 25.0143C39.5708 25.4629 40.8239 26.8206 40.2235 28.6703C40.2215 28.6683 40.2195 28.6683 40.2175 28.6663C40.1792 28.6446 40.141 28.6248 40.1027 28.6031L40.149 28.5201C40.0886 28.1229 40.2719 27.0834 39.0592 26.5024C37.9169 25.955 35.0785 26.3127 35.2296 23.6883L35.5861 23.5342C35.852 24.0203 36.4745 24.5974 37.9653 25.0143Z" fill="#DB1E34"/>
<path d="M42.0085 20.9139C39.726 20.5879 38.2877 24.8129 35.4009 23.0186L35.4271 22.9277C38.3562 23.7596 39.724 18.9437 41.8856 20.8052L42.0004 20.7934C42.0065 20.8329 42.0105 20.8764 42.0145 20.9159C42.0125 20.9139 42.0125 20.9139 42.0085 20.9139Z" fill="#DB1E34"/>
<path d="M40.5175 13.1138C38.4144 13.7975 38.6601 18.0681 35.3563 17.5049L35.3442 17.408C38.3741 17.076 37.7597 12.1138 40.4853 13.0229L40.5175 13.1138Z" fill="#DB1E34"/>
<path d="M40.149 28.5183L40.1027 28.6013C38.1244 27.6389 35.2356 30.8008 33.3077 28.1488L33.3641 28.0618C35.7433 29.9115 38.8799 25.9927 40.149 28.5183Z" fill="#DB1E34"/>
<path d="M36.1059 6.34939L36.1865 6.24268C36.2329 6.27627 36.2772 6.31382 36.3215 6.34939C36.3195 6.35136 36.3175 6.35334 36.3154 6.35532C34.4722 7.70307 36.4806 11.6633 33.195 12.4182L33.1345 12.3293C35.7675 10.8748 33.2876 6.54503 36.1503 6.36125C36.1362 6.35927 36.1221 6.35334 36.1059 6.34939Z" fill="#DB1E34"/>
<path d="M35.5317 34.9943L35.4028 34.9982C33.9281 33.4786 30.1569 35.1919 29.3733 32.1624L29.4821 32.0933C31.001 34.5832 35.3484 32.2079 35.5317 34.9943Z" fill="#DB1E34"/>
<path d="M29.1435 8.41443C30.8861 6.09045 27 3.06492 29.5504 1.83179L29.6371 1.87724C28.662 3.79611 31.8148 6.59437 29.2543 8.48755L29.1435 8.41443Z" fill="#DB1E34"/>
<path d="M22.957 26.8782C23.1847 26.8782 27.3568 28.4868 27.3588 28.5816C27.3588 28.6824 25.3241 32.2534 21.1823 32.2534C16.6395 32.2534 15.0319 28.6587 15.0299 28.5816C15.0299 28.5065 19.1295 26.8782 19.4316 26.8782C19.7983 26.8782 20.7834 27.2161 21.1943 27.2161C21.6073 27.2161 22.5602 26.8782 22.957 26.8782ZM21.1964 29.7021C24.2766 29.7021 25.4289 29.1488 26.2669 28.882C26.2669 28.882 22.8281 27.7951 22.3708 27.7951C22.0948 27.7951 21.1964 28.1568 21.1964 28.1568C21.1964 28.1568 20.1992 27.7951 20.0179 27.7951C19.5424 27.7951 15.9646 28.8583 15.9646 28.8583C17.8039 29.4472 19.1879 29.7021 21.1964 29.7021ZM21.2185 31.5143C23.1726 31.5143 24.9494 30.6981 25.7633 29.7021C24.9635 29.9492 22.4373 30.3167 21.1964 30.3167C19.9534 30.3167 17.4836 29.9492 16.6858 29.7021C17.5058 30.8938 19.0569 31.5143 21.2185 31.5143Z" fill="#DB1E34"/>
<path d="M28.7429 39.2449L28.6502 39.2765C27.9632 37.249 23.7469 37.4485 24.1498 34.3776L24.2928 34.3459C24.7743 37.1561 29.6514 36.6166 28.7429 39.2449Z" fill="#DB1E34"/>
<path d="M23.8899 6.30595C24.5164 3.54128 19.8226 2.20933 21.686 0.128418L21.7847 0.134346C21.6296 2.26071 25.5841 3.65787 24.0389 6.33361L23.8899 6.30595Z" fill="#DB1E34"/>
<path d="M20.7109 40.6145C20.868 38.4842 16.8974 37.087 18.4647 34.3994L18.6077 34.4271C17.9591 37.2016 22.675 38.5336 20.8076 40.6204L20.7109 40.6145Z" fill="#DB1E34"/>
<path d="M13.8455 1.47241C14.5305 3.49602 18.7307 3.30235 18.348 6.35357L18.1989 6.38321C17.6993 3.59285 12.8443 4.12642 13.7529 1.50403L13.8455 1.47241Z" fill="#DB1E34"/>
<path d="M12.9448 38.915L12.8582 38.8695C13.8251 36.9684 10.7308 34.1998 13.1825 32.3086L13.3618 32.3244C11.5971 34.6504 15.4972 37.6798 12.9448 38.915Z" fill="#DB1E34"/>
<path d="M9.3067 28.3286L9.3631 28.4175C6.72408 29.872 9.21 34.2038 6.34535 34.3876L6.26477 34.3283C7.961 32.9193 6.06131 29.0657 9.3067 28.3286Z" fill="#DB1E34"/>
<path d="M6.96175 5.75267L6.86304 5.69338C6.89124 5.65781 6.92146 5.62224 6.95168 5.58667C6.95369 5.58865 6.9557 5.59062 6.9557 5.5926C8.31752 7.38104 12.3002 5.46217 13.1181 8.5707L13.0053 8.64184C11.4843 6.16964 7.1491 8.53513 6.96175 5.75267Z" fill="#DB1E34"/>
<path d="M7.15106 23.3405C4.11921 23.6705 4.73566 28.6347 2.01404 27.7256L1.98181 27.6347C4.08295 26.949 3.83718 22.6805 7.14099 23.2437L7.15106 23.3405Z" fill="#DB1E34"/>
<path d="M9.03263 12.614C6.66557 10.9441 3.59947 14.7226 2.34644 12.2287L2.39277 12.1437C4.367 13.1081 7.2538 9.95012 9.1817 12.5903L9.03263 12.614Z" fill="#DB1E34"/>
<path d="M2.34653 12.2285C2.40696 12.6257 2.22364 13.6652 3.43436 14.2462C4.57257 14.7916 7.40095 14.4379 7.26598 17.0385L6.83285 17.086C6.52665 16.6295 5.89208 16.1157 4.53026 15.7343C2.92268 15.2857 1.67166 13.93 2.27199 12.0803C2.274 12.0823 2.274 12.0823 2.27803 12.0843C2.31429 12.108 2.35458 12.1258 2.39286 12.1455L2.34653 12.2285Z" fill="#DB1E34"/>
<path d="M36.4122 12.0586C34.6213 13.0368 33.7047 12.7621 33.2333 12.4717C33.2212 12.4519 33.2091 12.4341 33.197 12.4163L33.1366 12.3274C32.3106 11.118 31.3013 10.041 30.1531 9.13784C32.226 9.77615 32.9432 7.3494 33.8356 6.57276C34.8106 5.73091 35.689 6.22298 36.106 6.34748L36.1866 6.24274C34.7039 5.13411 33.0197 5.75067 32.0125 6.99764C30.8662 8.41851 29.9758 8.63392 29.4097 8.59439C29.3573 8.55882 29.305 8.52325 29.2526 8.48768L29.1418 8.41456C27.9572 7.6399 26.6538 7.03321 25.2618 6.63007C27.236 6.32377 26.9842 3.92073 27.4899 2.89905C28.0821 1.71137 29.1418 1.8912 29.5467 1.83192L29.6333 1.87737C29.6535 1.83982 29.6756 1.8003 29.6958 1.76473C29.6978 1.76275 29.6978 1.76077 29.6998 1.7588C27.8142 1.17187 26.4302 2.3971 25.9729 3.97409C25.4975 5.60641 24.8226 6.17555 24.2969 6.387C24.2102 6.36922 24.1236 6.34946 24.035 6.33167L23.8859 6.304C23.0297 6.14591 22.1453 6.06291 21.2449 6.06291C20.6949 6.06291 20.153 6.09453 19.6171 6.15382C21.2912 5.12423 20.1288 3.01565 20.2013 1.88527C20.2819 0.565187 21.3315 0.331998 21.682 0.126475L21.7807 0.132404C21.7827 0.0928803 21.7868 0.0513806 21.7928 0.0079047C21.7928 0.00592852 21.7948 0.00395235 21.7948 0C19.8226 0.164023 19.0228 1.81808 19.2162 3.44645C19.4157 5.1262 19.0148 5.90679 18.6119 6.30203C18.5232 6.31784 18.4326 6.33365 18.346 6.35143L18.1969 6.38107V6.38305C16.7464 6.69529 15.3806 7.2249 14.1296 7.93435C15.4128 6.32377 13.4487 4.77444 13.0659 3.68359C12.6288 2.43267 13.5071 1.82599 13.7508 1.50189L13.8435 1.47028C13.8294 1.43075 13.8173 1.39123 13.8073 1.34973C13.8073 1.34775 13.8072 1.34578 13.8052 1.34182C12.0486 2.23506 11.9559 4.06302 12.7698 5.49377C13.6642 7.07274 13.5313 7.95806 13.2794 8.45804C13.2251 8.49361 13.1707 8.53116 13.1163 8.5687L13.0055 8.63787C13.0075 8.63985 13.0075 8.64182 13.0075 8.64182C11.7585 9.51332 10.6545 10.5765 9.73993 11.7899C10.5699 9.63584 7.99133 8.92046 7.18149 8.0213C6.28906 7.02926 6.8632 6.13998 6.96191 5.7487L6.8632 5.68941C5.70485 7.14783 6.3354 8.81375 7.6126 9.80777C9.22019 11.0587 9.31286 11.9954 9.21817 12.5349C9.20609 12.5527 9.194 12.5705 9.18191 12.5882L9.03082 12.61C9.06104 12.6317 9.09327 12.6535 9.12349 12.6772C8.27739 13.9973 7.64282 15.4675 7.2661 17.0346L6.83298 17.0821C6.99011 17.3232 7.05861 17.5465 7.09286 17.7263L7.06667 17.8192C7.07674 17.8231 7.08883 17.8271 7.0989 17.8291C6.95184 18.6512 6.87327 19.4989 6.87327 20.3645C6.87327 21.1253 6.93371 21.8703 7.04854 22.5996L6.63959 22.7399C6.88536 22.9039 7.03645 23.0857 7.13919 23.2418L7.15128 23.3387C7.16336 23.3367 7.17545 23.3367 7.18754 23.3347C7.51188 24.8583 8.07795 26.293 8.8475 27.5953C7.10696 25.8721 5.41274 28.0005 4.23626 28.3957C2.96309 28.8245 2.34463 27.9629 2.01425 27.7258L1.98202 27.6349C1.94173 27.6487 1.90144 27.6605 1.85913 27.6704C1.85712 27.6704 1.8551 27.6704 1.85107 27.6724C2.76164 29.3956 4.62507 29.4865 6.0856 28.6882C7.89866 27.6981 8.81728 27.9925 9.28264 28.287C9.29271 28.3008 9.30077 28.3147 9.31084 28.3285L9.36523 28.4174C9.36725 28.4174 9.36926 28.4174 9.36926 28.4154C10.2013 29.6308 11.2166 30.7118 12.379 31.6188C10.2798 30.9469 9.56064 33.3934 8.66216 34.1721C7.65088 35.0475 6.74434 34.4843 6.34748 34.3875L6.2669 34.3282C6.24071 34.3519 6.21251 34.3736 6.18431 34.3934C6.18229 34.3954 6.18028 34.3973 6.17826 34.3973C7.68915 35.6483 9.44783 35.0337 10.4853 33.7491C11.6517 32.3065 12.5462 32.1089 13.1143 32.1544C13.1626 32.186 13.2089 32.2196 13.2573 32.2532C13.2331 32.271 13.2089 32.2888 13.1868 32.3065L13.3661 32.3223C14.5546 33.101 15.8701 33.7076 17.2702 34.1108C15.2577 34.3954 15.5196 36.8182 15.0059 37.8458C14.4156 39.0334 13.356 38.8536 12.9511 38.9129L12.8645 38.8674C12.8463 38.907 12.8242 38.9445 12.802 38.9801C12.8 38.9821 12.8 38.984 12.798 38.986C14.6856 39.5749 16.0675 38.3457 16.5248 36.7687C17.0063 35.1107 17.6993 34.5495 18.2271 34.3479C18.3097 34.3657 18.3923 34.3815 18.4729 34.3973L18.6159 34.425C19.4721 34.5831 20.3544 34.6661 21.2549 34.6661C21.817 34.6661 22.369 34.6345 22.9149 34.5712C21.1945 35.5929 22.371 37.7252 22.2984 38.8615C22.2159 40.1816 21.1683 40.4128 20.8158 40.6183L20.7171 40.6124C20.715 40.6539 20.709 40.6934 20.7029 40.7369C20.7029 40.7409 20.7009 40.7409 20.7009 40.7448C22.6732 40.5808 23.4729 38.9267 23.2815 37.2964C23.0801 35.587 23.4951 34.8084 23.906 34.421C23.9886 34.4052 24.0692 34.3894 24.1538 34.3736L24.2969 34.342C25.7554 34.0298 27.1333 33.4962 28.3883 32.7808C27.0588 34.4013 29.0451 35.9625 29.4299 37.0612C29.867 38.3121 28.9887 38.9208 28.7449 39.2409L28.6522 39.2726C28.6663 39.3101 28.6784 39.3496 28.6885 39.3911C28.6885 39.3951 28.6885 39.3951 28.6905 39.399C30.4472 38.5058 30.5398 36.6778 29.728 35.2471C28.8194 33.6444 28.9726 32.7551 29.2304 32.2591C29.2808 32.2275 29.3291 32.1919 29.3775 32.1603L29.4883 32.0911C29.4863 32.0892 29.4863 32.0892 29.4842 32.0872C30.7433 31.2098 31.8533 30.1406 32.7699 28.9194C31.8996 31.0991 34.5044 31.8164 35.3183 32.7196C36.2107 33.7096 35.6346 34.6029 35.5359 34.9922L35.4049 34.9961C35.4533 35.0435 35.4996 35.0969 35.5419 35.1542C35.5439 35.1562 35.5459 35.1582 35.5459 35.1601C36.8211 33.676 36.1946 31.9528 34.8852 30.9351C33.2534 29.6664 33.1809 28.7218 33.2836 28.1862C33.2917 28.1724 33.2997 28.1625 33.3098 28.1487L33.3662 28.0597C34.2184 26.7357 34.857 25.2595 35.2317 23.6865L35.5882 23.5323C35.4835 23.3426 35.4331 23.1647 35.4049 23.0165L35.4311 22.9256C35.421 22.9217 35.4089 22.9177 35.3948 22.9157C35.5439 22.0858 35.6225 21.236 35.6225 20.3665C35.6225 19.6175 35.5641 18.8804 35.4533 18.163L35.7031 17.8903C35.5459 17.7599 35.4392 17.6235 35.3586 17.503L35.3465 17.4062C35.3364 17.4081 35.3243 17.4101 35.3143 17.4101C34.994 15.8944 34.4339 14.4696 33.6744 13.1712C35.4069 14.8549 37.0931 12.7444 38.2635 12.3491C39.5387 11.9183 40.1572 12.7819 40.4875 13.021L40.5198 13.1119C40.5601 13.0981 40.6004 13.0862 40.6407 13.0764H40.6487C39.7361 11.3531 37.8727 11.2622 36.4122 12.0586ZM16.2509 8.03118C17.8 7.44031 19.4842 7.11621 21.2469 7.11621C22.9431 7.11621 24.5668 7.41659 26.0676 7.96399L26.0575 7.96597C26.7062 8.24461 26.3597 8.97777 26.3597 8.97777C25.2558 11.3828 22.0406 14.8016 21.9419 14.9162C21.7988 15.0763 21.8673 15.3391 21.8673 15.3391C21.9963 16.2797 23.7993 23.7023 23.207 24.2813H19.2183C18.628 23.7023 20.431 16.2797 20.5599 15.3391C20.5599 15.3391 20.6284 15.0763 20.4874 14.9162C20.3887 14.8016 17.1735 11.3828 16.0696 8.97777C16.0696 8.97777 15.7694 8.34342 16.2509 8.03118ZM34.025 15.5841C33.7732 15.9043 33.4911 16.2758 33.3481 16.4141C33.1124 16.6473 32.8525 16.6157 32.7236 16.4872C32.5926 16.3588 30.7755 14.8095 28.4266 14.8095C26.0797 14.8095 24.4479 16.4892 24.039 16.8212C23.6764 17.1157 23.6643 17.2757 23.8678 17.5722C23.9685 17.7224 26.0213 19.5898 28.4246 19.5898C30.8803 19.5898 32.923 18.4476 34.5105 17.0109C34.8267 18.1393 34.994 19.327 34.994 20.5542C34.994 27.9748 28.8376 33.9902 21.2428 33.9902C13.6501 33.9902 7.49375 27.9748 7.49375 20.5542C7.49375 19.3448 7.65692 18.1729 7.96514 17.0603C9.54453 18.4733 11.5691 19.5898 13.9946 19.5898C16.3979 19.5898 18.4507 17.7224 18.5514 17.5722C18.7549 17.2757 18.7428 17.1157 18.3802 16.8212C17.9713 16.4892 16.3415 14.8095 13.9926 14.8095C11.6457 14.8095 9.82857 16.3588 9.69561 16.4872C9.56467 16.6157 9.30681 16.6473 9.07111 16.4141C8.93412 16.2817 8.67828 15.9458 8.43654 15.6395C9.57676 12.8076 11.6698 10.4461 14.333 8.93232L19.9818 15.2857C19.9092 16.175 17.6066 24.0817 18.2634 24.7279C18.495 24.9532 21.2046 25.467 21.2046 25.467C21.2046 25.467 23.9141 24.9532 24.1438 24.7279C24.8025 24.0817 22.4999 16.175 22.4254 15.2857L28.1003 8.90465C30.7735 10.4105 32.8747 12.7602 34.025 15.5841ZM28.5979 15.9418C27.4879 15.9418 26.1563 16.3331 25.1047 16.7955C25.5861 16.3548 26.5994 15.5703 28.1587 15.4754C28.2634 15.4695 28.3682 15.4656 28.477 15.4656C29.8912 15.4656 30.9045 16.1137 31.5229 16.6888C30.7151 16.1671 29.5668 15.9418 28.5979 15.9418ZM29.3533 17.7046C29.3533 18.3943 28.8295 18.9515 28.1808 18.9515C27.5322 18.9515 27.0064 18.3923 27.0064 17.7046C27.0064 17.3745 27.1273 17.0761 27.3267 16.8528C27.7659 16.7995 28.2514 16.7659 28.7852 16.7659C28.8416 16.7659 28.898 16.7679 28.9544 16.7679C29.1982 16.9991 29.3533 17.3311 29.3533 17.7046ZM26.9359 18.7638C26.0354 18.4338 25.2719 17.8409 24.9697 17.4259C25.3263 17.2836 25.9065 17.09 26.6861 16.9497C26.5753 17.169 26.5108 17.4141 26.5108 17.673C26.5088 18.0899 26.67 18.4694 26.9359 18.7638ZM29.8267 16.8449C30.8984 16.9951 31.8614 17.335 32.2522 17.5643C31.9279 17.8785 30.844 18.5108 29.5749 18.8231C29.8751 18.5227 30.0584 18.1196 30.0584 17.6749C30.0604 17.3726 29.9758 17.09 29.8267 16.8449ZM15.7432 16.9497C16.5208 17.09 17.101 17.2836 17.4596 17.4259C17.1554 17.8409 16.3919 18.4358 15.4894 18.7638C15.7573 18.4694 15.9185 18.0899 15.9185 17.673C15.9185 17.4141 15.854 17.171 15.7432 16.9497ZM13.8294 15.9418C12.8584 15.9418 11.7121 16.1671 10.9043 16.6888C11.5228 16.1137 12.5361 15.4656 13.9503 15.4656C15.6888 15.4656 16.8089 16.3252 17.3226 16.7955C16.269 16.3331 14.9394 15.9418 13.8294 15.9418ZM15.4189 17.7046C15.4189 18.3943 14.8951 18.9515 14.2444 18.9515C13.5957 18.9515 13.0719 18.3923 13.0719 17.7046C13.0719 17.3311 13.2251 16.9971 13.4728 16.7698C13.5292 16.7679 13.5857 16.7679 13.6421 16.7679C14.1739 16.7679 14.6614 16.8015 15.1006 16.8548C15.298 17.0761 15.4189 17.3745 15.4189 17.7046ZM12.5985 16.8449C12.4515 17.09 12.3649 17.3726 12.3649 17.6749C12.3649 18.1196 12.5482 18.5227 12.8483 18.8231C11.5812 18.5128 10.4974 17.8785 10.171 17.5643C10.5659 17.335 11.5268 16.9951 12.5985 16.8449Z" fill="#DB1E34"/>
<path d="M7.06658 17.8231C4.13747 16.9911 2.76961 21.807 0.608032 19.9455L0.614076 19.8486C2.824 20.0067 4.26237 15.9694 7.09478 17.7302L7.06658 17.8231Z" fill="#DB1E34"/>
<path d="M0.607995 19.9437C0.819519 20.2875 1.05723 21.3171 2.40092 21.4001C3.67611 21.4752 6.17814 20.0682 7.04842 22.6016L6.63745 22.7419C6.17613 22.4356 5.39047 22.2044 3.99038 22.3625C2.33041 22.5503 0.644256 21.7677 0.477051 19.833C0.479065 19.833 0.483095 19.835 0.485109 19.835C0.527414 19.8409 0.56972 19.8449 0.612025 19.8488L0.607995 19.9437Z" fill="#DB1E34"/>
<path d="M65.5938 12.9117C65.5938 12.8466 65.5526 12.8093 65.4862 12.8093C65.3534 12.8093 64.0947 12.8093 63.984 12.8093C62.4344 12.8093 61.745 13.4856 61.745 14.9965C61.745 15.921 61.745 22.9725 61.745 23.0935C61.7418 23.6271 61.7924 24.6354 61.454 25.1069C61.1378 25.5444 60.4831 25.9414 59.4522 25.7212C58.4212 25.5009 57.5926 24.0583 57.561 24.0211C57.5293 23.987 57.4882 23.956 57.4281 23.9839C57.4187 23.987 57.4092 23.9932 57.3965 23.9963C56.9696 24.1917 54.9266 25.141 54.4838 25.3427C54.4238 25.3706 54.4269 25.4482 54.4459 25.4792C55.635 27.5764 57.4566 29.081 60.2112 29.081C65.5526 29.081 65.5684 24.4554 65.5906 23.1649C65.5969 23.016 65.5938 13.0296 65.5938 12.9117Z" fill="#DB1E34"/>
<path d="M77.0956 22.1319H73.3227C73.2689 22.1319 73.231 22.0792 73.25 22.0296L75.1348 17.2799C75.1601 17.2179 75.2487 17.2148 75.2771 17.2768L77.162 22.0296C77.1841 22.0761 77.1493 22.1319 77.0956 22.1319ZM83.6926 28.7213L76.9722 12.8033C76.9406 12.7319 76.8679 12.6885 76.7888 12.6885H75.1317C73.582 12.6885 73.329 13.0794 72.7313 14.5033L66.7067 28.7244C66.6909 28.7709 66.7194 28.8267 66.7953 28.8267H68.9395H69.047C70.0432 28.7957 70.7263 28.4545 71.0109 27.7627L71.9976 25.2746C72.0103 25.2467 72.0387 25.2281 72.0672 25.2281H78.3416C78.3732 25.2281 78.4017 25.2467 78.4112 25.2746L79.809 28.7926C79.809 28.7926 79.8185 28.8267 79.8596 28.8267H83.6198C83.6768 28.8205 83.7115 28.7678 83.6926 28.7213Z" fill="#DB1E34"/>
<path d="M105.691 22.1319H101.918C101.864 22.1319 101.826 22.0792 101.845 22.0296L103.73 17.2799C103.756 17.2179 103.844 17.2148 103.873 17.2768L105.757 22.0296C105.78 22.0761 105.745 22.1319 105.691 22.1319ZM112.288 28.7213L105.568 12.8033C105.536 12.7319 105.463 12.6885 105.384 12.6885C105.384 12.6885 104.594 12.6885 103.727 12.6885C102.177 12.6885 101.924 13.0794 101.327 14.5033L95.3022 28.7244C95.2864 28.7709 95.3148 28.8267 95.3907 28.8267H97.5349H97.6424C98.6386 28.7957 99.3217 28.4545 99.6064 27.7627L100.593 25.2746C100.606 25.2467 100.634 25.2281 100.663 25.2281H106.937C106.969 25.2281 106.997 25.2467 107.007 25.2746L108.404 28.7926C108.404 28.7926 108.414 28.8267 108.455 28.8267H112.215C112.272 28.8205 112.307 28.7678 112.288 28.7213Z" fill="#DB1E34"/>
<path d="M97.4938 12.8093H93.8506C93.7905 12.8093 93.7336 12.8466 93.7146 12.9024L89.5717 23.8629C89.5433 23.9342 89.4389 23.9342 89.4104 23.8629C89.4104 23.8629 85.6755 13.9851 85.6723 13.9758C85.3972 13.1785 84.7268 12.8093 83.5882 12.8093C83.506 12.8093 81.4883 12.8093 81.4883 12.8093C81.384 12.8093 81.3112 12.9148 81.3492 13.011L87.3959 27.778C87.6963 28.4915 88.3573 28.8235 89.4357 28.8235H91.0518C91.1308 28.8235 91.1688 28.7863 91.1941 28.7273L97.6298 13.0079C97.6709 12.9148 97.5982 12.8093 97.4938 12.8093Z" fill="#DB1E34"/>
<path d="M146.921 20.8662V20.8197C146.921 17.1838 144.217 14.2118 140.488 14.2118C136.76 14.2118 134.1 17.1373 134.1 20.7732V20.8197C134.1 24.4556 136.804 27.4276 140.532 27.4276C144.264 27.4308 146.921 24.5022 146.921 20.8662ZM132.19 20.8662V20.8197C132.19 16.4051 135.57 12.5427 140.536 12.5427C145.501 12.5427 148.834 16.3617 148.834 20.7732V20.8197C148.834 25.2343 145.453 29.0967 140.488 29.0967C135.523 29.0998 132.19 25.2808 132.19 20.8662Z" fill="#DB1E34"/>
<path d="M164.77 12.8776C164.767 12.8403 164.735 12.8093 164.697 12.8093H163.006C162.968 12.8093 162.936 12.8403 162.933 12.8776L162.93 22.1256C162.93 25.625 161.019 27.4088 158.012 27.4088C154.887 27.4088 153.025 25.4637 153.025 22.0139V12.8869C153.025 12.8466 152.99 12.8124 152.952 12.8124H152.304C151.529 12.8124 151.184 13.1506 151.184 13.9075V22.1287C151.184 26.655 153.935 29.081 157.968 29.081C162.047 29.081 164.77 26.6581 164.77 21.9922V12.8776Z" fill="#DB1E34"/>
<path d="M129.416 12.8807C129.416 12.8403 129.381 12.8093 129.344 12.8093H128.695C127.927 12.8093 127.582 13.1444 127.576 13.892V19.9292H118.158V12.8807C118.158 12.8403 118.123 12.8093 118.085 12.8093H117.437C116.668 12.8093 116.323 13.1506 116.317 13.8951V13.8858V28.7521C116.317 28.7894 116.349 28.8204 116.384 28.8235H117.038C117.81 28.8235 118.155 28.4884 118.158 27.7377V21.6199H127.576V28.749C127.576 28.7894 127.61 28.8204 127.648 28.8204H129.344C129.381 28.8204 129.413 28.7894 129.416 28.749V12.8807Z" fill="#DB1E34"/>
<path d="M173.862 19.954C170.273 19.2002 169.435 18.3532 169.435 16.8455V16.799C169.435 15.3595 170.788 14.2147 172.907 14.2147C174.536 14.2147 176.01 14.7111 177.48 15.8465C177.499 15.8621 177.518 15.8776 177.54 15.8931C177.582 15.9241 177.638 15.9241 177.664 15.89C177.68 15.8683 178.805 14.4784 177.303 13.6253C176.06 12.9211 174.678 12.5891 172.955 12.5891C169.855 12.5891 167.594 14.4412 167.594 16.9572V17.0037C167.594 19.6345 169.318 20.8227 173.072 21.6231C176.5 22.3304 177.316 23.1773 177.316 24.6633V24.7099C177.316 26.2889 175.871 27.4306 173.679 27.4306C171.456 27.4306 169.843 26.7016 168.17 25.2435L168.138 25.2187C168.107 25.1938 168.059 25.1969 168.034 25.228C168.034 25.228 166.984 26.4472 166.987 26.4441C166.962 26.4751 166.965 26.5216 166.997 26.5464L167.028 26.5713C168.964 28.2341 171.057 29.0593 173.606 29.0593C176.848 29.0593 179.179 27.2755 179.179 24.533V24.4865C179.179 22.0326 177.499 20.7296 173.862 19.954Z" fill="#DB1E34"/>
<path d="M193.65 12.8093H181.886C181.845 12.8093 181.81 12.8435 181.81 12.8807V28.7521C181.81 28.7925 181.845 28.8235 181.886 28.8235H193.65C193.691 28.8235 193.723 28.7925 193.723 28.7521V27.2506C193.723 27.2103 193.688 27.1793 193.65 27.1793H183.654V21.5765H191.44C192.208 21.5765 192.553 21.2414 192.559 20.5V19.9292H183.654V14.4536H192.61C193.369 14.4505 193.713 14.1216 193.723 13.3895V12.8807C193.723 12.8435 193.688 12.8093 193.65 12.8093Z" fill="#DB1E34"/>
</svg>
