<?xml version="1.0" encoding="utf-8"?>
<!-- Generator: Adobe Illustrator 24.3.0, SVG Export Plug-In . SVG Version: 6.00 Build 0)  -->
<svg version="1.1" id="Layer_1" xmlns="http://www.w3.org/2000/svg" xmlns:xlink="http://www.w3.org/1999/xlink" x="0px" y="0px"
	 viewBox="0 0 40 40" style="enable-background:new 0 0 40 40;" xml:space="preserve">
<style type="text/css">
	.st0{fill:#9DCD4F;}
</style>
<path class="st0" d="M9.17,11.67c-0.66,0-1.3-0.26-1.77-0.73c-0.47-0.47-0.73-1.1-0.73-1.77S6.93,7.87,7.4,7.4s1.1-0.73,1.77-0.73
	c0.66,0,1.3,0.26,1.77,0.73s0.73,1.1,0.73,1.77s-0.26,1.3-0.73,1.77C10.47,11.4,9.83,11.67,9.17,11.67z M35.68,19.3l-15-15
	c-0.6-0.6-1.43-0.97-2.35-0.97H6.67c-1.85,0-3.33,1.48-3.33,3.33v11.67c0,0.92,0.37,1.75,0.98,2.35l14.98,15
	c0.62,0.6,1.45,0.98,2.37,0.98c0.92,0,1.75-0.38,2.35-0.98l11.67-11.67c0.62-0.6,0.98-1.43,0.98-2.35
	C36.67,20.73,36.28,19.9,35.68,19.3z"/>
</svg>
