<?xml version="1.0" encoding="utf-8"?>
<!-- Generator: Adobe Illustrator 24.3.0, SVG Export Plug-In . SVG Version: 6.00 Build 0)  -->
<svg version="1.1" id="Layer_1" xmlns="http://www.w3.org/2000/svg" xmlns:xlink="http://www.w3.org/1999/xlink" x="0px" y="0px"
	 viewBox="0 0 136.97 36.53" style="enable-background:new 0 0 136.97 36.53;" xml:space="preserve">
<style type="text/css">
	.st0{fill:#8C837B;}
	.st1{fill:#E07C00;}
	.st2{fill:#3D3935;}
</style>
<g>
	<rect x="100.75" y="28.74" class="st0" width="6.49" height="0.24"/>
	<rect x="130.18" y="28.74" class="st0" width="6.49" height="0.24"/>
	<path class="st1" d="M62.95,0.49h19.73c5.37,0,9.76,4.4,9.76,9.77v15.88c0,5.37-4.39,9.77-9.76,9.77H62.95
		c-2.68,0-4.88-2.2-4.88-4.88c0-6.26-6.04-11.33-13.49-11.33h-6.82v0.64H2.69c-1.34,0-2.44-0.96-2.44-2.13
		c0-1.18,1.1-2.14,2.44-2.13h35.09v0.64h6.81c7.46,0,13.49-5.07,13.49-11.33C58.08,2.68,60.27,0.49,62.95,0.49"/>
	<g>
		<path class="st2" d="M105.77,7.72c0.08,0.02,0.2,0.03,0.36,0.03c0.63,0,1.1-0.27,1.42-0.82c0.31-0.55,0.47-1.24,0.47-2.09
			c0-1.5-0.21-2.55-0.63-3.15c-0.36-0.5-0.87-0.75-1.55-0.75c-0.68,0-1.27,0.17-1.78,0.52c-0.51,0.35-0.84,0.86-0.98,1.54
			c0.06-0.05,0.13-0.08,0.21-0.11s0.15-0.04,0.23-0.04c0.27,0,0.53,0.14,0.76,0.42c0.23,0.28,0.32,0.6,0.25,0.95
			c-0.06,0.35-0.22,0.64-0.48,0.84c-0.26,0.21-0.55,0.31-0.89,0.31c-0.56,0-0.92-0.27-1.08-0.83c-0.05-0.19-0.07-0.4-0.07-0.61
			c0-0.81,0.36-1.54,1.1-2.19c0.79-0.7,1.78-1.05,2.97-1.05c1.46,0,2.67,0.44,3.62,1.31c0.86,0.8,1.29,1.69,1.29,2.68
			c0,0.89-0.41,1.61-1.24,2.14c-0.71,0.46-1.68,0.77-2.9,0.95c1.46,0,2.58,0.32,3.36,0.95c0.84,0.7,1.26,1.73,1.26,3.09
			c0,1.62-0.75,2.91-2.26,3.87c-1.17,0.75-2.32,1.12-3.45,1.12c-1.23,0-2.29-0.41-3.16-1.23c-0.88-0.82-1.31-1.75-1.31-2.81
			c0-0.62,0.16-1.08,0.49-1.39c0.33-0.31,0.73-0.46,1.19-0.46c0.31,0,0.55,0.06,0.72,0.17c0.4,0.21,0.6,0.58,0.6,1.12
			c0,0.4-0.13,0.75-0.39,1.05c-0.26,0.29-0.6,0.44-1.04,0.44c-0.1,0-0.2-0.01-0.3-0.03c-0.11-0.02-0.21-0.04-0.3-0.07
			c-0.08,0.6,0.17,1.23,0.75,1.89c0.66,0.74,1.46,1.1,2.4,1.1c0.68,0,1.32-0.29,1.92-0.88c0.79-0.76,1.19-1.85,1.19-3.27
			c0-1.61-0.18-2.76-0.54-3.45c-0.36-0.69-0.86-1.04-1.49-1.04c-0.23,0-0.46,0.05-0.71,0.13c-0.25,0.09-0.51,0.17-0.76,0.24
			c-0.26,0.07-0.49,0.11-0.7,0.11c-0.39,0-0.61-0.15-0.68-0.44c0.02-0.18,0.09-0.3,0.23-0.38c0.14-0.07,0.32-0.11,0.54-0.11
			c0.19,0,0.41,0.03,0.67,0.07C105.3,7.65,105.54,7.69,105.77,7.72z"/>
		<path class="st2" d="M122.1,2.25c-0.08-0.32-0.28-0.59-0.58-0.81c-0.46-0.33-1.05-0.5-1.78-0.5c-0.76,0-1.39,0.31-1.89,0.93
			s-0.81,1.51-0.93,2.66c-0.03,0.27-0.05,0.58-0.05,0.92v3.13c0.28-0.71,0.59-1.22,0.95-1.51c0.47-0.39,1.14-0.58,2-0.58
			c1.12,0,2.07,0.45,2.86,1.34c0.78,0.89,1.17,2.08,1.17,3.55c0,1.69-0.45,3.02-1.34,3.99s-2.12,1.46-3.7,1.46
			c-1.62,0-2.81-0.66-3.57-1.97c-0.76-1.31-1.14-3.16-1.14-5.55c0-2.29,0.45-4.22,1.36-5.81c1.05-1.85,2.51-2.77,4.38-2.77
			c1.05,0,1.86,0.27,2.41,0.8c0.47,0.46,0.7,1.01,0.7,1.68c0,0.7-0.23,1.13-0.7,1.31c-0.24,0.08-0.44,0.12-0.6,0.12
			c-0.35,0-0.66-0.11-0.91-0.32s-0.39-0.49-0.39-0.83c0-0.4,0.1-0.74,0.3-1c0.2-0.26,0.48-0.39,0.84-0.39c0.1,0,0.19,0.01,0.29,0.04
			C121.88,2.16,121.98,2.2,122.1,2.25z M119.16,6.92c-0.89,0-1.52,0.5-1.89,1.51c-0.29,0.78-0.44,1.84-0.44,3.17
			c0,1.58,0.07,2.66,0.22,3.24c0.29,1.17,0.94,1.76,1.92,1.76c0.74,0,1.28-0.4,1.64-1.21c0.35-0.8,0.53-1.99,0.53-3.57
			c0-1.19-0.08-2.12-0.22-2.8C120.59,7.62,120.01,6.92,119.16,6.92z"/>
		<path class="st2" d="M131.24,16.82c-1.34,0-2.52-0.72-3.53-2.17c-1.09-1.56-1.63-3.52-1.63-5.89c0-2.37,0.54-4.32,1.61-5.86
			c1-1.46,2.19-2.19,3.55-2.19s2.55,0.72,3.55,2.17c1.09,1.56,1.63,3.52,1.63,5.88c0,2.37-0.52,4.3-1.57,5.8
			C133.81,16.07,132.6,16.82,131.24,16.82z M131.24,16.6c0.65,0,1.13-0.66,1.46-1.97c0.32-1.31,0.49-3.27,0.49-5.88
			c0-2.51-0.03-4.07-0.07-4.69c-0.16-2.09-0.79-3.13-1.87-3.13c-0.63,0-1.11,0.65-1.43,1.96c-0.32,1.3-0.49,3.26-0.49,5.86
			c0,2.52,0.03,4.1,0.07,4.71C129.56,15.55,130.17,16.6,131.24,16.6z"/>
	</g>
	<g>
		<path class="st1" d="M102.08,20c1.28,0,1.84,0.95,1.84,2.58c0,1.66-0.53,2.52-1.77,2.52h-0.93V20H102.08z M102.24,24.57
			c0.88,0,1.11-0.71,1.11-1.98c0-1.41-0.37-2.05-1.18-2.05h-0.39v4.04L102.24,24.57L102.24,24.57z"/>
		<path class="st1" d="M109.17,24.57v0.54h-2.16V20h2.12v0.54h-1.56v1.6h1.15v0.53h-1.15v1.9L109.17,24.57L109.17,24.57z"/>
		<path class="st1" d="M114.28,24.55c-0.1,0.28-0.43,0.63-0.89,0.63c-0.95,0-1.4-0.82-1.4-2.62c0-1.87,0.47-2.66,1.45-2.66
			c0.72,0,1.12,0.42,1.29,1.32l-0.52,0.15c-0.12-0.69-0.36-0.93-0.77-0.93c-0.63,0-0.88,0.65-0.88,2.12c0,1.5,0.29,2.09,0.92,2.09
			c0.46,0,0.72-0.39,0.8-0.88v-0.92h-0.85v-0.47h1.33v2.73h-0.47c0-0.45,0.01-0.55,0.01-0.56L114.28,24.55L114.28,24.55z"/>
		<path class="st1" d="M119.86,25.11l-0.77-1.93c-0.07,0.01-0.15,0.01-0.23,0.01h-0.39v1.92h-0.56V20h0.95
			c0.88,0,1.48,0.64,1.48,1.61c0,0.66-0.31,1.15-0.75,1.39l0.88,2.11L119.86,25.11L119.86,25.11z M118.86,22.7
			c0.54,0,0.92-0.42,0.92-1.09c0-0.64-0.36-1.07-0.92-1.07h-0.39v2.16H118.86z"/>
		<path class="st1" d="M125.73,24.57v0.54h-2.16V20h2.12v0.54h-1.56v1.6h1.15v0.53h-1.15v1.9L125.73,24.57L125.73,24.57z"/>
		<path class="st1" d="M131.03,24.57v0.54h-2.16V20h2.12v0.54h-1.56v1.6h1.15v0.53h-1.15v1.9L131.03,24.57L131.03,24.57z"/>
		<path class="st1" d="M135.92,21.21c-0.13-0.5-0.36-0.8-0.81-0.8c-0.39,0-0.64,0.28-0.64,0.71c0,0.45,0.47,0.82,0.95,1.19
			c0.57,0.47,1.03,0.89,1.03,1.58c0,0.76-0.52,1.34-1.26,1.34c-0.82,0-1.26-0.53-1.38-1.33l0.52-0.14c0.09,0.61,0.38,0.94,0.86,0.94
			c0.42,0,0.71-0.32,0.71-0.79c0-0.46-0.34-0.77-0.92-1.25c-0.58-0.46-1.06-0.88-1.06-1.55c0-0.62,0.45-1.2,1.21-1.2
			c0.71,0,1.14,0.47,1.3,1.17L135.92,21.21z"/>
	</g>
	<g>
		<path class="st0" d="M109.81,29.39h-1.01l-0.22,0.53h-0.25l0.88-2.02h0.22l0.88,2.02h-0.25L109.81,29.39z M109.72,29.18
			l-0.32-0.75c-0.04-0.1-0.09-0.24-0.1-0.24h0c0,0-0.05,0.14-0.1,0.24l-0.32,0.75H109.72z"/>
		<path class="st0" d="M113.19,29.92l-0.46-0.75c-0.03,0-0.07,0-0.1,0h-0.38v0.75h-0.24V27.9h0.62c0.47,0,0.75,0.25,0.75,0.64
			c0,0.29-0.15,0.49-0.42,0.58l0.49,0.8L113.19,29.92L113.19,29.92z M112.65,28.95c0.32,0,0.49-0.18,0.49-0.42
			c0-0.26-0.18-0.41-0.49-0.41h-0.4v0.83H112.65z"/>
		<path class="st0" d="M116.63,27.9v0.22h-0.68v1.8h-0.23v-1.8h-0.67V27.9H116.63z"/>
		<path class="st0" d="M118.4,29.92V27.9h0.24v2.02L118.4,29.92L118.4,29.92z"/>
		<path class="st0" d="M121.7,28.46c-0.04-0.24-0.25-0.39-0.51-0.39c-0.27,0-0.45,0.13-0.45,0.33c0,0.22,0.28,0.29,0.55,0.37
			c0.28,0.08,0.67,0.21,0.67,0.6c0,0.34-0.29,0.59-0.74,0.59c-0.43,0-0.71-0.25-0.77-0.59l0.23-0.06c0.03,0.23,0.22,0.44,0.55,0.44
			c0.3,0,0.48-0.16,0.48-0.37c0-0.3-0.35-0.35-0.63-0.44c-0.23-0.07-0.57-0.18-0.57-0.52c0-0.31,0.3-0.55,0.7-0.55
			c0.37,0,0.65,0.22,0.72,0.54L121.7,28.46z"/>
		<path class="st0" d="M125.01,29.39H124l-0.22,0.53h-0.25l0.88-2.02h0.22l0.88,2.02h-0.25L125.01,29.39z M124.92,29.18l-0.32-0.75
			c-0.04-0.1-0.09-0.24-0.1-0.24h0c0,0-0.05,0.14-0.1,0.24l-0.32,0.75H124.92z"/>
		<path class="st0" d="M128.87,27.9v2.02h-0.22l-0.9-1.21c-0.17-0.24-0.3-0.42-0.3-0.42h0c0,0,0,0.25,0,0.57v1.06h-0.24V27.9h0.22
			l0.9,1.21c0.15,0.21,0.3,0.41,0.3,0.41h0c0,0-0.01-0.27-0.01-0.56V27.9L128.87,27.9L128.87,27.9z"/>
	</g>
	<g>
		<path class="st2" d="M102.08,32.65c0.7,0,1.12,0.36,1.12,0.96c0,0.6-0.42,0.97-1.12,0.97h-0.57v1.09h-0.35v-3.03L102.08,32.65
			L102.08,32.65z M102.07,34.25c0.5,0,0.77-0.24,0.77-0.64c0-0.41-0.29-0.63-0.77-0.63h-0.56v1.27H102.07z"/>
		<path class="st2" d="M109.5,35.68v-3.03h0.35v3.03H109.5z"/>
		<path class="st2" d="M118.77,32.98L117,35.11c-0.13,0.15-0.22,0.25-0.22,0.25l0,0c0,0,0.17-0.01,0.39-0.01h1.6v0.33h-2.46v-0.33
			l1.8-2.13c0.09-0.1,0.23-0.23,0.23-0.23l0,0c0,0-0.17,0.01-0.39,0.01h-1.58v-0.33h2.42C118.77,32.65,118.77,32.98,118.77,32.98z"
			/>
		<path class="st2" d="M127.55,32.98l-1.77,2.12c-0.13,0.15-0.22,0.25-0.22,0.25l0,0c0,0,0.17-0.01,0.39-0.01h1.6v0.33h-2.46v-0.33
			l1.8-2.13c0.09-0.1,0.23-0.23,0.23-0.23l0,0c0,0-0.17,0.01-0.39,0.01h-1.58v-0.33h2.42L127.55,32.98L127.55,32.98z"/>
		<path class="st2" d="M135.86,34.89h-1.52l-0.34,0.79h-0.38l1.31-3.03h0.32l1.31,3.03h-0.38L135.86,34.89z M135.73,34.57
			l-0.48-1.12c-0.06-0.16-0.14-0.37-0.14-0.37h0c0,0-0.08,0.21-0.14,0.37l-0.48,1.12H135.73z"/>
	</g>
</g>
</svg>
