<svg id="Layer_1" data-name="Layer 1" xmlns="http://www.w3.org/2000/svg" viewBox="0 0 141.73 41.23"><defs><style>.cls-1{fill:#50b849;}.cls-2{fill:#fa6d9c;}</style></defs><title>1</title><path class="cls-1" d="M13.48,21a3.16,3.16,0,0,0-.5-2.21,3.33,3.33,0,0,0-2.48-1.28A3.18,3.18,0,0,0,8.16,18.6a3,3,0,0,0-.58,2.15c0,1.63,0,1.85.46,2.54a3,3,0,0,0,2.55,1.41,2.77,2.77,0,0,0,2.34-1.2,3.57,3.57,0,0,0,.55-2.29Zm-5.6-4.29a4.06,4.06,0,0,1,2.62-.87c2.82,0,4.64,2.06,4.63,5.21a5,5,0,0,1-1.46,4.07,4.43,4.43,0,0,1-3.11,1.24,4.91,4.91,0,0,1-2.7-.84c-.11-.11-.13-.11-.18-.11s-.09,0-.09.13v.07l0,3.94v.15c0,.64-.31,1-.86,1s-.81-.35-.81-1v0L6,17v-.13c0-.69.27-1,.8-1a.88.88,0,0,1,.86.84c0,.13,0,.13.06.13s.07,0,.09,0l.05,0Z"/><path class="cls-1" d="M17.86,23.71v.13c0,.53.08.75.37,1a.81.81,0,0,1-.42,1.5c-.91,0-1.59-1-1.58-2.34v-.13l0-11.23v-.13c0-.66.29-1,.84-1a.81.81,0,0,1,.79.92v.11Z"/><path class="cls-1" d="M26.35,18.34a2.92,2.92,0,0,0-2.24-1.09,3,3,0,0,0-2.92,2.44,7.36,7.36,0,0,0-.07,1.1,5.93,5.93,0,0,0,.24,1.89,3,3,0,0,0,2.75,1.82,2.8,2.8,0,0,0,2.38-1.23A3.73,3.73,0,0,0,27,20.89v-.22a3,3,0,0,0-.65-2.33m2.32,5.33a1,1,0,0,0,.39.88l.09.09a.62.62,0,0,1,.24.53.82.82,0,0,1-.75.88,1.63,1.63,0,0,1-1.38-.95.1.1,0,0,0-.11-.07s-.09,0-.18.09a4.53,4.53,0,0,1-2.87,1,4.82,4.82,0,0,1-3.62-1.73,5.09,5.09,0,0,1-1.05-3.55,5,5,0,0,1,1.11-3.52,4.65,4.65,0,0,1,6.17-.86.14.14,0,0,0,.11,0,.15.15,0,0,0,.1,0c.09,0,.14,0,.18-.19a.8.8,0,0,1,.77-.62.8.8,0,0,1,.82.86l0,7Z"/><path class="cls-1" d="M39.83,25v.09c0,.66-.31,1-.86,1s-.86-.29-.86-1V20.53a2.86,2.86,0,0,0-2.9-3.16,2.7,2.7,0,0,0-2.62,1.84A7.08,7.08,0,0,0,32.42,21v4.2a.88.88,0,0,1-.91,1c-.53,0-.83-.35-.83-1v-.11l0-7.91v-.11c0-1,.24-1.32.88-1.32a.84.84,0,0,1,.82.71c0,.11,0,.11.08.11a.53.53,0,0,0,.2-.09,4.26,4.26,0,0,1,2.63-.89,4.55,4.55,0,0,1,4.54,4.79V25Z"/><path class="cls-1" d="M48,20.18c.37,0,.42,0,.42-.18a2.9,2.9,0,0,0-5.79,0c0,.11.06.15.19.15H48Zm-5,1.66h-.15c-.11,0-.13,0-.13.13a2.88,2.88,0,0,0,2.85,2.63,3.11,3.11,0,0,0,2.09-.79.83.83,0,0,1,.62-.24.74.74,0,0,1,.77.79.83.83,0,0,1-.4.73,4.67,4.67,0,0,1-3.11,1.14c-2.7,0-4.59-2.09-4.58-5.1a8.81,8.81,0,0,1,.42-2.71,4.62,4.62,0,0,1,8.83,1.94c0,1.17-.29,1.47-1.31,1.47H43Z"/><path class="cls-1" d="M53.59,15.63c0,.25,0,.25.33.25,1,0,1.28.22,1.28.84a.82.82,0,0,1-.93.83h-.4c-.29,0-.31,0-.31.24v.05l-.06,5.79v.11c0,.63.13.81.64.9l.2,0a.77.77,0,0,1,.74.82c0,.55-.39.81-1.14.81-1.52,0-2.11-.58-2.11-2.12v0l.06-6.25v-.09c0-.2-.07-.25-.33-.25h-.09c-.75,0-1.1-.29-1.1-.81s.38-.86,1.13-.86h.11c.24,0,.31,0,.31-.26v-.13l0-3v-.13a.82.82,0,0,1,.84-.93.83.83,0,0,1,.83.93v.11l0,3.15Z"/><path class="cls-2" d="M61.39,27.08c0,.07,0,.07,0,.15-.66,1.76-2.49,3.39-3.79,3.39a.82.82,0,0,1-.75-.84.81.81,0,0,1,.55-.73l.2-.09a3.75,3.75,0,0,0,2.08-2.13l.66-1.58,0,0c0-.11,0-.09,0-.13a.1.1,0,0,0,0-.09c0-.11,0-.09,0-.13s0,0,0-.05l-3.66-7.6,0-.09a3.33,3.33,0,0,0-.16-.31.75.75,0,0,1,0-.22.83.83,0,0,1,.82-.84.88.88,0,0,1,.83.65l3.07,6.26v0c0,.09,0,.07.09.09s.13-.05.15-.13l2.44-6.08s0,0,0-.08c.18-.53.47-.8.89-.79a.8.8,0,0,1,.83.77.64.64,0,0,1-.07.28l0,.2-.05.07Z"/><path class="cls-2" d="M70.29,17.13a2.88,2.88,0,0,0-2.92,2.19,7.23,7.23,0,0,0-.06,1.08A13.24,13.24,0,0,0,67.39,22a2.89,2.89,0,0,0,5.64.21,7.64,7.64,0,0,0,.13-1.56v-.2c0-2.13-1.07-3.33-2.87-3.33m4.55,3.69c0,3.12-1.89,5.23-4.64,5.23a4.53,4.53,0,0,1-4.38-3.27,9.57,9.57,0,0,1-.21-2.07c0-2.34.63-3.57,2.34-4.6a4.27,4.27,0,0,1,2.32-.65c2.62,0,4.51,2.14,4.57,5.18Z"/><path class="cls-2" d="M81.89,18a3,3,0,0,0-4.39,1.79,8,8,0,0,0-.11,1.44,4.35,4.35,0,0,0,.21,1.82,3,3,0,0,0,2.75,1.79,2.9,2.9,0,0,0,2.8-2,6.75,6.75,0,0,0,.18-1.61c0-1.74-.39-2.64-1.44-3.26M85,25.89c0,3.06-2,5.17-4.73,5.16a4.47,4.47,0,0,1-3.69-1.88.85.85,0,0,1-.17-.49.82.82,0,0,1,.81-.79.86.86,0,0,1,.68.38,3.05,3.05,0,0,0,2.42,1.19,3.11,3.11,0,0,0,3-3.38c0-.44,0-.59-.11-.59a.11.11,0,0,0-.09,0l0,0a5,5,0,0,1-2.82.9A4.47,4.47,0,0,1,75.91,23a9.6,9.6,0,0,1-.15-1.7c0-2.29.67-3.61,2.28-4.62A4.24,4.24,0,0,1,80.35,16a5.07,5.07,0,0,1,2.84.93s.07,0,.09,0,.11,0,.13-.11a.78.78,0,0,1,.8-.72c.57,0,.83.33.83,1v8.74Z"/><path class="cls-2" d="M86.23,17V17c0-.66.33-1.06.86-1.06s.86.34.86,1V17l0,4.38v.11a2.88,2.88,0,0,0,2.9,3.15,2.7,2.7,0,0,0,2.65-1.86,7.84,7.84,0,0,0,.18-1.83V16.82a.89.89,0,0,1,.88-1c.53,0,.84.37.84,1v.09l0,7.73v.09c0,1-.25,1.34-.89,1.34a.85.85,0,0,1-.81-.71c0-.11,0-.11-.09-.11a.7.7,0,0,0-.17.09,4.3,4.3,0,0,1-2.65.87,4.53,4.53,0,0,1-4.54-4.77V17Z"/><path class="cls-2" d="M98.25,25v.13c0,.75-.24,1.05-.82,1.05s-.83-.31-.83-1V25l0-7.94V17c0-.77.29-1.15.84-1.14a.78.78,0,0,1,.7.39c.09.14.14.14.18.14s0,0,.13-.07a3.93,3.93,0,0,1,1.85-.59,3.37,3.37,0,0,1,2.11.78.84.84,0,0,1,.4.7.86.86,0,0,1-.82.86c-.15,0-.24-.05-.48-.2a2.16,2.16,0,0,0-1.21-.53c-1.28,0-2,1-2.06,2.55V25Z"/><path class="cls-2" d="M106.2,15.57c0,.24,0,.24.33.24,1,0,1.28.23,1.28.84a.82.82,0,0,1-.93.84h-.4c-.28,0-.31,0-.31.24v0l-.06,5.79v.11c0,.64.13.82.64.91l.2,0a.78.78,0,0,1,.75.82c0,.55-.4.81-1.15.81-1.52,0-2.11-.58-2.11-2.12v0l.06-6.26v-.09c0-.19-.07-.24-.33-.24h-.09c-.75,0-1.1-.29-1.09-.82s.37-.85,1.12-.85h.11c.24,0,.31-.05.31-.27v-.13l0-3v-.14a.81.81,0,0,1,.84-.92.83.83,0,0,1,.83.93v.11l0,3.15Z"/><path class="cls-2" d="M113.08,29.09a3.15,3.15,0,0,1,0-.44c-.14-3.47,3.6-4.64,6.48-3.75-1,.84-.88,2.26-1,3.7,0,.12,0,.24,0,.37s0,.11,0,.18h0a.14.14,0,0,1,0,.06,2.78,2.78,0,0,1-3,2.28,2.82,2.82,0,0,1-2.37-2.3v0c0-.05,0-.09,0-.14"/><path class="cls-1" d="M111.79,19a2.69,2.69,0,0,1,.32-.27c2.72-2,5.68.66,6.53,3.68-1.23-.44-2.3.45-3.5,1.15a1.89,1.89,0,0,1-.3.19l-.16.07h0l-.06,0a2.72,2.72,0,0,1-3.47-1.44,3,3,0,0,1,.57-3.33h0l.11-.08"/><path class="cls-1" d="M126,9.22c-.89-1.16-3.14-1.11-4.18-.57h0a2.66,2.66,0,0,0-.76.56,3,3,0,0,0-.17,3.9l0,.05h0a1.71,1.71,0,0,0,.11.14,1.94,1.94,0,0,0,.27.23A6.49,6.49,0,0,1,123.47,16l.1.63v0h0v0l.1-.63c.3-1,1.24-1.63,2.09-2.42a3.08,3.08,0,0,0,.27-.24,1.71,1.71,0,0,0,.11-.14h0a.1.1,0,0,0,0-.05A3.13,3.13,0,0,0,126,9.22Z"/><path class="cls-1" d="M125.71,29.44l0-.05h0a1.71,1.71,0,0,0-.11-.14l-.27-.24a6.49,6.49,0,0,1-2.08-2.41l-.1-.67h0l-.1.66A6.46,6.46,0,0,1,120.91,29a3.08,3.08,0,0,0-.27.24.49.49,0,0,0-.11.14h0l0,0a3.15,3.15,0,0,0,.15,3.91c.88,1.16,3.14,1.11,4.17.57h0a2.57,2.57,0,0,0,.77-.56A3,3,0,0,0,125.71,29.44Z"/><path class="cls-2" d="M133.05,29.14c0-.14,0-.29,0-.43.15-3.47-3.58-4.67-6.47-3.8,1,.85.88,2.27.95,3.71a2.26,2.26,0,0,0,0,.37,1.13,1.13,0,0,0,0,.18h0s0,0,0,.07a2.78,2.78,0,0,0,3,2.29A2.82,2.82,0,0,0,133,29.26v0a.66.66,0,0,1,0-.14"/><path class="cls-2" d="M113.21,13.08c0,.14,0,.29,0,.44-.15,3.47,3.58,4.66,6.47,3.79-1-.85-.87-2.27-1-3.71a2.32,2.32,0,0,0,0-.37,1.13,1.13,0,0,0,0-.18h0a.14.14,0,0,1,0-.06,2.78,2.78,0,0,0-3-2.3A2.82,2.82,0,0,0,113.23,13v0c0,.05,0,.09,0,.14"/><path class="cls-2" d="M133.18,13.13a3.25,3.25,0,0,1,0,.44c.14,3.47-3.6,4.64-6.48,3.76,1-.85.88-2.27,1-3.71,0-.12,0-.24,0-.36s0-.12,0-.18v0a.14.14,0,0,0,0-.06,2.78,2.78,0,0,1,3-2.28,2.82,2.82,0,0,1,2.37,2.3v0a.62.62,0,0,0,0,.13"/><path class="cls-1" d="M134.93,19a2.08,2.08,0,0,0-.32-.27c-2.71-2-5.68.63-6.54,3.65,1.23-.44,2.29.45,3.49,1.17l.3.19a.76.76,0,0,0,.16.06h0l.06,0a2.71,2.71,0,0,0,3.47-1.42,3,3,0,0,0-.55-3.34h0l-.11-.08"/></svg>