<?xml version="1.0" encoding="utf-8"?>
<!-- Generator: Adobe Illustrator 24.3.0, SVG Export Plug-In . SVG Version: 6.00 Build 0)  -->
<svg version="1.1" id="Layer_1" xmlns="http://www.w3.org/2000/svg" xmlns:xlink="http://www.w3.org/1999/xlink" x="0px" y="0px"
	 viewBox="0 0 40 40" style="enable-background:new 0 0 40 40;" xml:space="preserve">
<style type="text/css">
	.st0{fill:#9DCD4F;}
</style>
<path class="st0" d="M11,18c2.33,4.67,6.33,8.5,11,11l3.67-3.67c0.5-0.5,1.17-0.67,1.67-0.33c1.83,0.67,3.83,1,6,1
	c1,0,1.67,0.67,1.67,1.67v5.67c0,1-0.67,1.67-1.67,1.67C17.67,35,5,22.33,5,6.67C5,5.67,5.83,5,6.67,5h5.83c1,0,1.67,0.67,1.67,1.67
	c0,2,0.33,4,1,6c0.17,0.5,0,1.17-0.33,1.67L11,18z M23.33,5c-1,0-1.67,0.67-1.67,1.67s0.67,1.67,1.67,1.67S25,7.67,25,6.67
	S24.33,5,23.33,5z M28.33,5c-1,0-1.67,0.67-1.67,1.67s0.67,1.67,1.67,1.67S30,7.67,30,6.67S29.33,5,28.33,5z M33.33,5
	c-1,0-1.67,0.67-1.67,1.67s0.67,1.67,1.67,1.67S35,7.67,35,6.67S34.33,5,33.33,5z M23.33,10c-1,0-1.67,0.67-1.67,1.67
	s0.67,1.67,1.67,1.67S25,12.67,25,11.67S24.33,10,23.33,10z M28.33,10c-1,0-1.67,0.67-1.67,1.67s0.67,1.67,1.67,1.67
	S30,12.67,30,11.67S29.33,10,28.33,10z M33.33,10c-1,0-1.67,0.67-1.67,1.67s0.67,1.67,1.67,1.67S35,12.67,35,11.67
	S34.33,10,33.33,10z M23.33,15c-1,0-1.67,0.67-1.67,1.67s0.67,1.67,1.67,1.67S25,17.67,25,16.67S24.33,15,23.33,15z M28.33,15
	c-1,0-1.67,0.67-1.67,1.67s0.67,1.67,1.67,1.67S30,17.67,30,16.67S29.33,15,28.33,15z M33.33,15c-1,0-1.67,0.67-1.67,1.67
	s0.67,1.67,1.67,1.67S35,17.67,35,16.67S34.33,15,33.33,15z"/>
</svg>
