<svg width="40" height="40" viewBox="0 0 40 40" fill="none" xmlns="http://www.w3.org/2000/svg">
<circle cx="20" cy="20" r="20" fill="#FFE7BD"/>
<path d="M28.6667 24.7917C27.3667 24.7917 25.9583 24.575 24.7667 24.1417H24.4417C24.1167 24.1417 23.9 24.25 23.6833 24.4667L21.3 26.85C18.2667 25.225 15.6667 22.7333 14.15 19.7L16.5333 17.3167C16.8583 16.9917 16.9667 16.5583 16.75 16.2333C16.425 15.0417 16.2083 13.6333 16.2083 12.3333C16.2083 11.7917 15.6667 11.25 15.125 11.25H11.3333C10.7917 11.25 10.25 11.7917 10.25 12.3333C10.25 22.5167 18.4833 30.75 28.6667 30.75C29.2083 30.75 29.75 30.2083 29.75 29.6667V25.875C29.75 25.3333 29.2083 24.7917 28.6667 24.7917ZM12.4167 13.4167H14.0417C14.15 14.3917 14.3667 15.3667 14.5833 16.2333L13.2833 17.5333C12.85 16.2333 12.525 14.825 12.4167 13.4167ZM27.5833 28.5833C26.175 28.475 24.7667 28.15 23.4667 27.7167L24.7667 26.4167C25.6333 26.6333 26.6083 26.85 27.5833 26.85V28.5833ZM23.25 12.3333C23.25 12.9833 22.8167 13.4167 22.1667 13.4167C21.5167 13.4167 21.0833 12.9833 21.0833 12.3333C21.0833 11.6833 21.5167 11.25 22.1667 11.25C22.8167 11.25 23.25 11.6833 23.25 12.3333ZM26.5 12.3333C26.5 12.9833 26.0667 13.4167 25.4167 13.4167C24.7667 13.4167 24.3333 12.9833 24.3333 12.3333C24.3333 11.6833 24.7667 11.25 25.4167 11.25C26.0667 11.25 26.5 11.6833 26.5 12.3333ZM29.75 12.3333C29.75 12.9833 29.3167 13.4167 28.6667 13.4167C28.0167 13.4167 27.5833 12.9833 27.5833 12.3333C27.5833 11.6833 28.0167 11.25 28.6667 11.25C29.3167 11.25 29.75 11.6833 29.75 12.3333ZM23.25 15.5833C23.25 16.2333 22.8167 16.6667 22.1667 16.6667C21.5167 16.6667 21.0833 16.2333 21.0833 15.5833C21.0833 14.9333 21.5167 14.5 22.1667 14.5C22.8167 14.5 23.25 14.9333 23.25 15.5833ZM26.5 15.5833C26.5 16.2333 26.0667 16.6667 25.4167 16.6667C24.7667 16.6667 24.3333 16.2333 24.3333 15.5833C24.3333 14.9333 24.7667 14.5 25.4167 14.5C26.0667 14.5 26.5 14.9333 26.5 15.5833ZM29.75 15.5833C29.75 16.2333 29.3167 16.6667 28.6667 16.6667C28.0167 16.6667 27.5833 16.2333 27.5833 15.5833C27.5833 14.9333 28.0167 14.5 28.6667 14.5C29.3167 14.5 29.75 14.9333 29.75 15.5833ZM23.25 18.8333C23.25 19.4833 22.8167 19.9167 22.1667 19.9167C21.5167 19.9167 21.0833 19.4833 21.0833 18.8333C21.0833 18.1833 21.5167 17.75 22.1667 17.75C22.8167 17.75 23.25 18.1833 23.25 18.8333ZM26.5 18.8333C26.5 19.4833 26.0667 19.9167 25.4167 19.9167C24.7667 19.9167 24.3333 19.4833 24.3333 18.8333C24.3333 18.1833 24.7667 17.75 25.4167 17.75C26.0667 17.75 26.5 18.1833 26.5 18.8333ZM29.75 18.8333C29.75 19.4833 29.3167 19.9167 28.6667 19.9167C28.0167 19.9167 27.5833 19.4833 27.5833 18.8333C27.5833 18.1833 28.0167 17.75 28.6667 17.75C29.3167 17.75 29.75 18.1833 29.75 18.8333Z" fill="#FFAA2D"/>
</svg>
