<svg width="101" height="101" viewBox="0 0 101 101" fill="none" xmlns="http://www.w3.org/2000/svg">
<g opacity="0.6">
<path d="M50.4999 8.83325C27.5833 8.83325 8.83325 27.5833 8.83325 50.4999C8.83325 73.4166 27.5833 92.1666 50.4999 92.1666C73.4166 92.1666 92.1666 73.4166 92.1666 50.4999C92.1666 27.5833 73.4166 8.83325 50.4999 8.83325ZM50.4999 83.8333C32.1249 83.8333 17.1666 68.8749 17.1666 50.4999C17.1666 32.1249 32.1249 17.1666 50.4999 17.1666C68.8749 17.1666 83.8333 32.1249 83.8333 50.4999C83.8333 68.8749 68.8749 83.8333 50.4999 83.8333ZM69.6249 32.0833L42.1666 59.5416L31.3749 48.7916L25.4999 54.6666L42.1666 71.3333L75.4999 37.9999L69.6249 32.0833Z" fill="#00B373"/>
</g>
</svg>
