<svg width="101" height="101" viewBox="0 0 101 101" fill="none" xmlns="http://www.w3.org/2000/svg">
<g opacity="0.7">
<path d="M50.4999 83.8335C32.1249 83.8335 17.1666 68.8752 17.1666 50.5002C17.1666 32.1252 32.1249 17.1668 50.4999 17.1668C68.8749 17.1668 83.8333 32.1252 83.8333 50.5002C83.8333 68.8752 68.8749 83.8335 50.4999 83.8335ZM50.4999 8.8335C27.4583 8.8335 8.83325 27.4585 8.83325 50.5002C8.83325 73.5418 27.4583 92.1668 50.4999 92.1668C73.5416 92.1668 92.1666 73.5418 92.1666 50.5002C92.1666 27.4585 73.5416 8.8335 50.4999 8.8335ZM61.2916 33.8335L50.4999 44.6252L39.7083 33.8335L33.8333 39.7085L44.6249 50.5002L33.8333 61.2918L39.7083 67.1668L50.4999 56.3752L61.2916 67.1668L67.1666 61.2918L56.3749 50.5002L67.1666 39.7085L61.2916 33.8335Z" fill="#DB1E34"/>
</g>
</svg>
