<svg width="40" height="40" viewBox="0 0 40 40" fill="none" xmlns="http://www.w3.org/2000/svg">
<path d="M6.66666 6.6665H33.3333C35.1833 6.6665 36.6667 8.14984 36.6667 9.99984V16.6665C34.8333 16.6665 33.3333 18.1665 33.3333 19.9998C33.3333 21.8498 34.8333 23.3332 36.6667 23.3332V29.9998C36.6667 31.8498 35.1833 33.3332 33.3333 33.3332H6.66666C4.83333 33.3332 3.33333 31.8498 3.33333 29.9998V23.3332C5.18333 23.3332 6.66666 21.8498 6.66666 19.9998C6.66666 18.1665 5.18333 16.6665 3.33333 16.6665V9.99984C3.33333 8.14984 4.83333 6.6665 6.66666 6.6665ZM6.66666 9.99984V14.2332C8.73333 15.4332 10 17.6165 10 19.9998C10 22.3832 8.73333 24.5832 6.66666 25.7665V29.9998H33.3333V25.7665C31.2667 24.5832 30 22.3832 30 19.9998C30 17.6165 31.2667 15.4332 33.3333 14.2332V9.99984H6.66666Z" fill="#DB1E34"/>
</svg>
