<svg width="40" height="40" viewBox="0 0 40 40" fill="none" xmlns="http://www.w3.org/2000/svg">
<path d="M34.9419 16.3726C34.8035 15.9425 34.444 15.6346 34.0028 15.57L24.7026 14.2001L20.5435 5.65823C20.3463 5.25239 19.946 5 19.4998 5C19.0536 5 18.6532 5.25239 18.456 5.65823L14.2969 14.2001L4.99777 15.57C4.55557 15.6356 4.19603 15.9425 4.0576 16.3726C3.92016 16.8027 4.0327 17.2671 4.3524 17.5821L11.082 24.231L9.49348 33.6198C9.41779 34.066 9.59606 34.5082 9.9566 34.7737C10.3171 35.0392 10.7872 35.0736 11.1816 34.8636L19.4998 30.4306L27.8179 34.8636C27.9892 34.9554 28.1755 34.9999 28.3607 34.9999C28.6007 34.9999 28.8398 34.9241 29.0439 34.7737C29.4055 34.5082 29.5828 34.066 29.5071 33.6198L27.9185 24.231L34.6481 17.5821C34.9668 17.2671 35.0804 16.8027 34.9419 16.3726Z" fill="#DB1E34"/>
</svg>
