<svg width="40" height="40" viewBox="0 0 40 40" fill="none" xmlns="http://www.w3.org/2000/svg">
<path d="M33.3333 23.3333H6.66666V13.3333H15.1333L11.6667 18.0499L14.3667 19.9999L18.3333 14.5999L20 12.3333L21.6667 14.5999L25.6333 19.9999L28.3333 18.0499L24.8667 13.3333H33.3333V23.3333ZM33.3333 31.6666H6.66666V28.3333H33.3333V31.6666ZM15 6.66659C15.442 6.66659 15.8659 6.84218 16.1785 7.15474C16.4911 7.4673 16.6667 7.89122 16.6667 8.33325C16.6667 8.77528 16.4911 9.1992 16.1785 9.51176C15.8659 9.82432 15.442 9.99992 15 9.99992C14.558 9.99992 14.134 9.82432 13.8215 9.51176C13.5089 9.1992 13.3333 8.77528 13.3333 8.33325C13.3333 7.89122 13.5089 7.4673 13.8215 7.15474C14.134 6.84218 14.558 6.66659 15 6.66659ZM25 6.66659C25.442 6.66659 25.8659 6.84218 26.1785 7.15474C26.4911 7.4673 26.6667 7.89122 26.6667 8.33325C26.6667 8.77528 26.4911 9.1992 26.1785 9.51176C25.8659 9.82432 25.442 9.99992 25 9.99992C24.558 9.99992 24.134 9.82432 23.8215 9.51176C23.5089 9.1992 23.3333 8.77528 23.3333 8.33325C23.3333 7.89122 23.5089 7.4673 23.8215 7.15474C24.134 6.84218 24.558 6.66659 25 6.66659ZM33.3333 9.99992H29.7C29.8833 9.48325 30 8.91658 30 8.33325C30 7.00717 29.4732 5.7354 28.5355 4.79772C27.5978 3.86004 26.3261 3.33325 25 3.33325C23.25 3.33325 21.7333 4.23325 20.8333 5.58325L20 6.66659L19.1667 5.56659C18.2667 4.23325 16.75 3.33325 15 3.33325C13.6739 3.33325 12.4021 3.86004 11.4645 4.79772C10.5268 5.7354 10 7.00717 10 8.33325C10 8.91658 10.1167 9.48325 10.3 9.99992H6.66666C4.81666 9.99992 3.33333 11.4833 3.33333 13.3333V31.6666C3.33333 33.5166 4.81666 34.9999 6.66666 34.9999H33.3333C35.1833 34.9999 36.6667 33.5166 36.6667 31.6666V13.3333C36.6667 11.4833 35.1833 9.99992 33.3333 9.99992Z" fill="#DB1E34"/>
</svg>
