<svg width="32" height="31" viewBox="0 0 32 31" fill="none" xmlns="http://www.w3.org/2000/svg">
<path d="M31.1646 15.7293C31.0054 15.4693 30.8265 14.6908 29.8153 14.6296C28.8571 14.5713 26.9802 15.6322 26.3207 13.7331L26.5087 13.5269C26.8332 13.7973 27.435 14.0349 28.6161 13.9004C29.838 13.7614 31.0797 14.3247 31.251 15.7203L31.1646 15.7293Z" fill="#DB1E34"/>
<path d="M28.2128 18.9134C29.4211 19.2526 30.3641 20.2791 29.9123 21.6776C29.9108 21.6761 29.9092 21.6761 29.9077 21.6746C29.8789 21.6582 29.8501 21.6433 29.8213 21.6268L29.8562 21.5641C29.8107 21.2637 29.9487 20.4778 29.036 20.0385C28.1764 19.6246 26.0402 19.8951 26.1539 17.9108L26.4223 17.7943C26.6224 18.1618 27.0909 18.5981 28.2128 18.9134Z" fill="#DB1E34"/>
<path d="M31.2556 15.8129C29.5379 15.5664 28.4554 18.761 26.2829 17.4043L26.3026 17.3355C28.507 17.9646 29.5364 14.3232 31.1631 15.7308L31.2496 15.7218C31.2541 15.7517 31.2571 15.7846 31.2602 15.8144C31.2587 15.8129 31.2587 15.8129 31.2556 15.8129Z" fill="#DB1E34"/>
<path d="M30.1336 9.91543C28.5508 10.4324 28.7357 13.6613 26.2493 13.2355L26.2403 13.1623C28.5204 12.9113 28.058 9.15938 30.1093 9.8467L30.1336 9.91543Z" fill="#DB1E34"/>
<path d="M29.8562 21.5626L29.8214 21.6254C28.3326 20.8977 26.1585 23.2884 24.7076 21.2832L24.7501 21.2174C26.5406 22.616 28.9011 19.653 29.8562 21.5626Z" fill="#DB1E34"/>
<path d="M26.8134 4.80084L26.8741 4.72015C26.909 4.74555 26.9423 4.77394 26.9757 4.80084C26.9741 4.80233 26.9726 4.80383 26.9711 4.80532C25.5839 5.82435 27.0954 8.8187 24.6227 9.38947L24.5772 9.32224C26.5587 8.22252 24.6924 4.94876 26.8468 4.8098C26.8362 4.80831 26.8256 4.80383 26.8134 4.80084Z" fill="#DB1E34"/>
<path d="M26.3814 26.459L26.2843 26.462C25.1746 25.313 22.3365 26.6084 21.7467 24.3179L21.8286 24.2656C22.9717 26.1482 26.2434 24.3522 26.3814 26.459Z" fill="#DB1E34"/>
<path d="M21.5738 6.36226C22.8852 4.6051 19.9606 2.3175 21.88 1.38513L21.9452 1.4195C21.2114 2.87035 23.5841 4.98611 21.6572 6.41754L21.5738 6.36226Z" fill="#DB1E34"/>
<path d="M16.9179 20.3224C17.0892 20.3224 20.229 21.5387 20.2305 21.6104C20.2305 21.6866 18.6993 24.3866 15.5822 24.3866C12.1635 24.3866 10.9536 21.6686 10.9521 21.6104C10.9521 21.5536 14.0374 20.3224 14.2648 20.3224C14.5407 20.3224 15.2821 20.5779 15.5913 20.5779C15.9021 20.5779 16.6192 20.3224 16.9179 20.3224ZM15.5928 22.4576C17.9109 22.4576 18.7781 22.0392 19.4088 21.8375C19.4088 21.8375 16.8209 21.0157 16.4767 21.0157C16.269 21.0157 15.5928 21.2891 15.5928 21.2891C15.5928 21.2891 14.8424 21.0157 14.7059 21.0157C14.3481 21.0157 11.6556 21.8196 11.6556 21.8196C13.0398 22.2648 14.0813 22.4576 15.5928 22.4576ZM15.6095 23.8277C17.0801 23.8277 18.4173 23.2106 19.0298 22.4576C18.4279 22.6443 16.5268 22.9223 15.5928 22.9223C14.6574 22.9223 12.7987 22.6443 12.1983 22.4576C12.8154 23.3586 13.9828 23.8277 15.6095 23.8277Z" fill="#DB1E34"/>
<path d="M21.2721 29.673L21.2024 29.6969C20.6854 28.1638 17.5123 28.3147 17.8155 25.9928L17.9231 25.9689C18.2855 28.0936 21.9559 27.6857 21.2721 29.673Z" fill="#DB1E34"/>
<path d="M17.62 4.76792C18.0915 2.67756 14.559 1.67048 15.9614 0.0971069L16.0357 0.101589C15.9189 1.70933 18.895 2.76572 17.7322 4.78884L17.62 4.76792Z" fill="#DB1E34"/>
<path d="M15.2275 30.7084C15.3458 29.0977 12.3576 28.0413 13.5371 26.0092L13.6448 26.0301C13.1566 28.128 16.7057 29.135 15.3003 30.7129L15.2275 30.7084Z" fill="#DB1E34"/>
<path d="M10.0608 1.11316C10.5763 2.6432 13.7373 2.49677 13.4492 4.80379L13.337 4.8262C12.9611 2.71642 9.3073 3.11985 9.99105 1.13707L10.0608 1.11316Z" fill="#DB1E34"/>
<path d="M9.38295 29.4235L9.31776 29.3891C10.0455 27.9517 7.71678 25.8583 9.56185 24.4284L9.69678 24.4404C8.36869 26.199 11.3038 28.4896 9.38295 29.4235Z" fill="#DB1E34"/>
<path d="M6.64499 21.4191L6.68744 21.4864C4.70137 22.5861 6.57221 25.8613 4.41634 26.0003L4.3557 25.9555C5.63224 24.8901 4.20258 21.9765 6.64499 21.4191Z" fill="#DB1E34"/>
<path d="M4.88025 4.34957L4.80596 4.30475C4.82719 4.27785 4.84993 4.25096 4.87267 4.22406C4.87419 4.22555 4.8757 4.22705 4.8757 4.22854C5.90057 5.58078 8.89787 4.12993 9.5134 6.48027L9.4285 6.53407C8.28386 4.66484 5.02125 6.45338 4.88025 4.34957Z" fill="#DB1E34"/>
<path d="M5.02272 17.6478C2.74102 17.8973 3.20494 21.6507 1.15672 20.9633L1.13246 20.8946C2.71373 20.3761 2.52877 17.1487 5.01514 17.5745L5.02272 17.6478Z" fill="#DB1E34"/>
<path d="M6.43878 9.53736C4.65738 8.27478 2.34991 11.1317 1.4069 9.24599L1.44177 9.18175C2.92753 9.91091 5.10008 7.5232 6.55097 9.51943L6.43878 9.53736Z" fill="#DB1E34"/>
<path d="M1.40686 9.24597C1.45235 9.54631 1.31438 10.3322 2.22554 10.7715C3.08213 11.1839 5.21071 10.9165 5.10913 12.8828L4.78317 12.9187C4.55273 12.5735 4.07516 12.185 3.05029 11.8967C1.84046 11.5575 0.898975 10.5325 1.35077 9.13391C1.35228 9.13541 1.35228 9.13541 1.35532 9.1369C1.3826 9.15483 1.41293 9.16828 1.44173 9.18322L1.40686 9.24597Z" fill="#DB1E34"/>
<path d="M27.0439 9.1175C25.6961 9.85712 25.0063 9.64943 24.6516 9.42979C24.6425 9.41485 24.6334 9.4014 24.6243 9.38795L24.5788 9.32071C23.9572 8.40627 23.1976 7.59194 22.3335 6.9091C23.8935 7.39172 24.4333 5.55687 25.1049 4.96965C25.8387 4.33313 26.4997 4.70518 26.8135 4.79931L26.8741 4.72012C25.7583 3.88189 24.4909 4.34807 23.7328 5.2909C22.8702 6.36522 22.2001 6.52808 21.774 6.4982C21.7346 6.47131 21.6952 6.44441 21.6558 6.41752L21.5724 6.36223C20.681 5.77651 19.7 5.3178 18.6524 5.01298C20.1382 4.78138 19.9487 2.96446 20.3292 2.19197C20.7749 1.29396 21.5724 1.42993 21.8771 1.38511L21.9423 1.41947C21.9575 1.39108 21.9742 1.3612 21.9893 1.33431C21.9908 1.33281 21.9908 1.33132 21.9924 1.32982C20.5733 0.88605 19.5318 1.81244 19.1876 3.0048C18.8298 4.239 18.3219 4.66932 17.9262 4.8292C17.861 4.81575 17.7958 4.80081 17.7291 4.78736L17.6169 4.76644C16.9726 4.64691 16.3071 4.58415 15.6294 4.58415C15.2155 4.58415 14.8076 4.60806 14.4044 4.65289C15.6642 3.87442 14.7895 2.28012 14.844 1.42545C14.9047 0.427336 15.6946 0.251023 15.9584 0.0956277L16.0326 0.10011C16.0342 0.0702266 16.0372 0.0388487 16.0417 0.00597673C16.0417 0.00448254 16.0433 0.00298837 16.0433 0C14.559 0.124017 13.9571 1.37465 14.1027 2.60585C14.2528 3.87591 13.9511 4.46611 13.6478 4.76495C13.5811 4.7769 13.5129 4.78886 13.4477 4.8023L13.3355 4.82472V4.82621C12.244 5.06229 11.216 5.46273 10.2746 5.99914C11.2403 4.78138 9.76213 3.60995 9.47407 2.78516C9.14508 1.83934 9.80609 1.38062 9.98954 1.13558L10.0593 1.11167C10.0487 1.08179 10.0396 1.0519 10.032 1.02053C10.032 1.01903 10.032 1.01754 10.0305 1.01455C8.70845 1.68992 8.63871 3.07204 9.25121 4.15383C9.92435 5.34768 9.82429 6.01707 9.63478 6.3951C9.59384 6.422 9.55291 6.45039 9.51197 6.47878L9.42859 6.53107C9.43011 6.53257 9.43011 6.53406 9.43011 6.53406C8.49013 7.193 7.65932 7.99687 6.97102 8.91429C7.59565 7.28564 5.65506 6.74474 5.0456 6.06489C4.37397 5.31481 4.80606 4.64243 4.88034 4.34658L4.80606 4.30175C3.93431 5.40446 4.40884 6.66405 5.37004 7.41563C6.57987 8.36145 6.64961 9.06969 6.57836 9.4776C6.56926 9.49105 6.56016 9.5045 6.55106 9.51794L6.43736 9.53438C6.4601 9.55082 6.48436 9.56725 6.5071 9.58518C5.87034 10.5833 5.39278 11.695 5.10927 12.8799L4.78331 12.9157C4.90157 13.098 4.95311 13.2668 4.97889 13.4028L4.95918 13.473C4.96676 13.476 4.97586 13.479 4.98344 13.4805C4.87276 14.1021 4.81364 14.7431 4.81364 15.3976C4.81364 15.9728 4.85912 16.5361 4.94553 17.0875L4.63777 17.1936C4.82273 17.3176 4.93644 17.455 5.01376 17.5731L5.02285 17.6463C5.03195 17.6448 5.04105 17.6448 5.05014 17.6433C5.29423 18.7953 5.72025 19.8801 6.29939 20.8648C4.9895 19.5618 3.71447 21.1711 2.82908 21.4699C1.87092 21.7942 1.40548 21.1427 1.15685 20.9634L1.13259 20.8947C1.10227 20.9051 1.07194 20.9141 1.04011 20.9215C1.03859 20.9215 1.03707 20.9215 1.03404 20.923C1.71931 22.226 3.12169 22.2947 4.22085 21.6911C5.58532 20.9425 6.27665 21.1651 6.62687 21.3877C6.63445 21.3982 6.64051 21.4086 6.64809 21.4191L6.68903 21.4863C6.69054 21.4863 6.69206 21.4863 6.69206 21.4849C7.3182 22.4038 8.08231 23.2211 8.95709 23.9069C7.37733 23.3989 6.83609 25.2487 6.15991 25.8374C5.39884 26.4993 4.71661 26.0735 4.41794 26.0003L4.35729 25.9554C4.33758 25.9734 4.31636 25.9898 4.29514 26.0048C4.29362 26.0063 4.2921 26.0077 4.29059 26.0077C5.42765 26.9536 6.75119 26.4889 7.53197 25.5177C8.40978 24.4269 9.08292 24.2775 9.51046 24.3118C9.54684 24.3358 9.58171 24.3612 9.6181 24.3866C9.59991 24.4 9.58171 24.4135 9.56504 24.4269L9.69997 24.4389C10.5945 25.0276 11.5845 25.4863 12.6381 25.7911C11.1236 26.0063 11.3207 27.8381 10.9341 28.6151C10.4898 29.5131 9.69239 29.3771 9.38766 29.422L9.32246 29.3876C9.30882 29.4175 9.29214 29.4459 9.27546 29.4728C9.27395 29.4742 9.27395 29.4757 9.27243 29.4772C10.693 29.9225 11.733 28.9931 12.0772 27.8008C12.4395 26.5471 12.9611 26.1228 13.3583 25.9704C13.4204 25.9838 13.4826 25.9958 13.5432 26.0077L13.6509 26.0287C14.2952 26.1482 14.9593 26.211 15.6369 26.211C16.0599 26.211 16.4753 26.187 16.8862 26.1392C15.5915 26.9117 16.4769 28.5239 16.4223 29.3831C16.3601 30.3812 15.5718 30.556 15.3064 30.7114L15.2322 30.7069C15.2306 30.7383 15.2261 30.7682 15.2215 30.8011C15.2215 30.8041 15.22 30.8041 15.22 30.8071C16.7043 30.683 17.3062 29.4324 17.1621 28.1997C17.0105 26.9072 17.3228 26.3185 17.6321 26.0257C17.6943 26.0137 17.7549 26.0018 17.8186 25.9898L17.9262 25.9659C19.0239 25.7298 20.0609 25.3264 21.0054 24.7855C20.0048 26.0107 21.4996 27.1911 21.7892 28.0219C22.1182 28.9677 21.4572 29.4279 21.2737 29.67L21.204 29.6939C21.2146 29.7223 21.2237 29.7522 21.2313 29.7835C21.2313 29.7865 21.2313 29.7865 21.2328 29.7895C22.5548 29.1142 22.6246 27.732 22.0136 26.6502C21.3298 25.4385 21.4451 24.7661 21.6391 24.391C21.677 24.3671 21.7134 24.3402 21.7498 24.3163L21.8332 24.264C21.8317 24.2625 21.8317 24.2625 21.8301 24.261C22.7777 23.5976 23.6131 22.7893 24.3029 21.8659C23.6479 23.514 25.6082 24.0563 26.2207 24.7392C26.8923 25.4878 26.4587 26.1631 26.3845 26.4575L26.2859 26.4605C26.3223 26.4963 26.3572 26.5367 26.389 26.58C26.3905 26.5815 26.392 26.583 26.392 26.5845C27.3517 25.4624 26.8802 24.1594 25.8948 23.3899C24.6667 22.4307 24.6122 21.7165 24.6895 21.3115C24.6955 21.3011 24.7016 21.2936 24.7092 21.2831L24.7516 21.2159C25.3929 20.2148 25.8735 19.0986 26.1555 17.9093L26.4239 17.7927C26.345 17.6493 26.3071 17.5148 26.2859 17.4027L26.3056 17.334C26.298 17.331 26.2889 17.328 26.2783 17.3265C26.3905 16.699 26.4496 16.0565 26.4496 15.399C26.4496 14.8328 26.4057 14.2754 26.3223 13.733L26.5103 13.5268C26.392 13.4282 26.3117 13.3251 26.251 13.234L26.2419 13.1608C26.2344 13.1623 26.2253 13.1638 26.2177 13.1638C25.9766 12.0177 25.5552 10.9404 24.9836 9.95873C26.2874 11.2318 27.5564 9.63599 28.4372 9.33715C29.3969 9.01142 29.8623 9.66437 30.111 9.84517L30.1352 9.9139C30.1656 9.90344 30.1959 9.89448 30.2262 9.88701H30.2323C29.5455 8.58408 28.1431 8.51535 27.0439 9.1175ZM11.871 6.07236C13.0369 5.6256 14.3043 5.38055 15.6309 5.38055C16.9074 5.38055 18.1294 5.60767 19.2589 6.02156L19.2513 6.02305C19.7395 6.23373 19.4787 6.78807 19.4787 6.78807C18.6479 8.60649 16.2282 11.1914 16.1539 11.2781C16.0463 11.3991 16.0978 11.5978 16.0978 11.5978C16.1949 12.3091 17.5518 17.9212 17.106 18.359H14.1042C13.66 17.9212 15.0169 12.3091 15.1139 11.5978C15.1139 11.5978 15.1654 11.3991 15.0593 11.2781C14.985 11.1914 12.5654 8.60649 11.7345 6.78807C11.7345 6.78807 11.5087 6.30844 11.871 6.07236ZM25.2474 11.7831C25.0579 12.0252 24.8456 12.3061 24.738 12.4107C24.5606 12.587 24.365 12.5631 24.268 12.466C24.1695 12.3688 22.8019 11.1974 21.0342 11.1974C19.268 11.1974 18.0399 12.4675 17.7322 12.7185C17.4593 12.9411 17.4502 13.0621 17.6033 13.2863C17.6791 13.3998 19.224 14.8118 21.0327 14.8118C22.8808 14.8118 24.4181 13.9482 25.6128 12.8619C25.8508 13.7151 25.9766 14.6131 25.9766 15.541C25.9766 21.1517 21.3435 25.6999 15.6278 25.6999C9.91374 25.6999 5.28059 21.1517 5.28059 15.541C5.28059 14.6266 5.40339 13.7405 5.63535 12.8993C6.82396 13.9676 8.34762 14.8118 10.173 14.8118C11.9817 14.8118 13.5266 13.3998 13.6024 13.2863C13.7555 13.0621 13.7464 12.9411 13.4735 12.7185C13.1657 12.4675 11.9392 11.1974 10.1715 11.1974C8.40523 11.1974 7.03773 12.3688 6.93767 12.466C6.83912 12.5631 6.64506 12.587 6.46768 12.4107C6.36459 12.3106 6.17204 12.0566 5.99011 11.825C6.84822 9.6838 8.42343 7.89825 10.4277 6.75371L14.6788 11.5575C14.6242 12.2299 12.8913 18.2081 13.3856 18.6967C13.5599 18.867 15.599 19.2555 15.599 19.2555C15.599 19.2555 17.6382 18.867 17.811 18.6967C18.3068 18.2081 16.5739 12.2299 16.5178 11.5575L20.7886 6.73279C22.8004 7.87135 24.3817 9.64794 25.2474 11.7831ZM21.1631 12.0536C20.3277 12.0536 19.3256 12.3494 18.5342 12.6991C18.8965 12.3659 19.6591 11.7727 20.8326 11.7009C20.9114 11.6965 20.9902 11.6935 21.0721 11.6935C22.1364 11.6935 22.899 12.1836 23.3644 12.6184C22.7565 12.2239 21.8923 12.0536 21.1631 12.0536ZM21.7316 13.3864C21.7316 13.9079 21.3374 14.3292 20.8492 14.3292C20.3611 14.3292 19.9654 13.9064 19.9654 13.3864C19.9654 13.1369 20.0563 12.9112 20.2064 12.7424C20.5369 12.702 20.9023 12.6766 21.3041 12.6766C21.3465 12.6766 21.389 12.6781 21.4314 12.6781C21.6149 12.853 21.7316 13.104 21.7316 13.3864ZM19.9123 14.1873C19.2346 13.9377 18.66 13.4895 18.4326 13.1757C18.7009 13.0681 19.1376 12.9217 19.7243 12.8156C19.6409 12.9815 19.5924 13.1667 19.5924 13.3625C19.5909 13.6777 19.7122 13.9646 19.9123 14.1873ZM22.0879 12.7364C22.8944 12.85 23.6191 13.107 23.9132 13.2803C23.6691 13.5179 22.8535 13.996 21.8984 14.2321C22.1243 14.005 22.2622 13.7002 22.2622 13.364C22.2637 13.1354 22.2001 12.9217 22.0879 12.7364ZM11.4889 12.8156C12.0742 12.9217 12.5108 13.0681 12.7806 13.1757C12.5517 13.4895 11.9771 13.9392 11.2979 14.1873C11.4996 13.9646 11.6208 13.6777 11.6208 13.3625C11.6208 13.1667 11.5723 12.983 11.4889 12.8156ZM10.0487 12.0536C9.31791 12.0536 8.45526 12.2239 7.84732 12.6184C8.31275 12.1836 9.07534 11.6935 10.1396 11.6935C11.448 11.6935 12.291 12.3434 12.6776 12.6991C11.8846 12.3494 10.884 12.0536 10.0487 12.0536ZM11.2449 13.3864C11.2449 13.9079 10.8507 14.3292 10.361 14.3292C9.8728 14.3292 9.47862 13.9064 9.47862 13.3864C9.47862 13.104 9.59384 12.8515 9.78032 12.6796C9.82277 12.6781 9.86522 12.6781 9.90767 12.6781C10.3079 12.6781 10.6748 12.7035 11.0053 12.7439C11.1539 12.9112 11.2449 13.1369 11.2449 13.3864ZM9.12234 12.7364C9.01167 12.9217 8.94647 13.1354 8.94647 13.364C8.94647 13.7002 9.08444 14.005 9.31033 14.2321C8.35672 13.9975 7.54107 13.5179 7.29546 13.2803C7.59261 13.107 8.31578 12.85 9.12234 12.7364Z" fill="#DB1E34"/>
<path d="M4.95914 13.4761C2.75475 12.847 1.72534 16.4883 0.0985804 15.0808L0.103128 15.0076C1.76627 15.1271 2.84875 12.0745 4.98036 13.4058L4.95914 13.4761Z" fill="#DB1E34"/>
<path d="M0.0985456 15.0793C0.257734 15.3393 0.436632 16.1177 1.44786 16.1805C2.40754 16.2373 4.29051 15.1734 4.94546 17.089L4.63618 17.195C4.289 16.9634 3.69773 16.7886 2.64405 16.9082C1.3948 17.0501 0.125835 16.4584 0 14.9956C0.00151608 14.9956 0.00454839 14.9971 0.00606447 14.9971C0.0379022 15.0016 0.0697407 15.0046 0.101578 15.0076L0.0985456 15.0793Z" fill="#DB1E34"/>
</svg>
