<svg width="40" height="40" viewBox="0 0 40 40" fill="none" xmlns="http://www.w3.org/2000/svg">
<path d="M6.66666 9.99992V33.3333H30V36.6666H4.99999C3.99999 36.6666 3.33333 35.9999 3.33333 34.9999V9.99992H6.66666ZM20.1667 17.6666L17 14.6666L21.3333 13.9999L23.3333 9.99992L25.3333 13.9999L29.6667 14.6666L26.5 17.8333L27.1667 22.1666L23.3333 19.9999L19.3333 21.9999L20.1667 17.6666ZM13.3333 3.33325H33.3333C35.1833 3.33325 36.6667 4.83325 36.6667 6.66659V26.6666C36.6667 28.5166 35.1833 29.9999 33.3333 29.9999H13.3333C11.5 29.9999 10 28.5166 10 26.6666V6.66659C10 4.83325 11.5 3.33325 13.3333 3.33325ZM13.3333 6.66659V26.6666H33.3333V6.66659H13.3333Z" fill="#DB1E34"/>
</svg>
