<svg width="200" height="201" viewBox="0 0 200 201" fill="none" xmlns="http://www.w3.org/2000/svg">
<path d="M61.1203 0H55.5602V5.55512H61.1203V0Z" fill="black"/>
<path d="M88.9005 0H83.3403V5.55512H88.9005V0Z" fill="black"/>
<path d="M127.78 0H122.22V5.55512H127.78V0Z" fill="black"/>
<path d="M77.7801 11.1102V5.55512H72.22V0H66.6598V5.55512V11.1102V16.6446H72.22V11.1102H77.7801Z" fill="black"/>
<path d="M133.34 5.55518H127.78V11.1103H133.34V5.55518Z" fill="black"/>
<path d="M144.44 16.6447V22.1998H150V16.6447V11.1103V5.55518H144.44V11.1103V16.6447Z" fill="black"/>
<path d="M55.5602 16.6447V11.1104H50V16.6447V22.1999H55.5602V16.6447Z" fill="black"/>
<path d="M144.461 0H138.9V5.55512H144.461V0Z" fill="black"/>
<path d="M133.34 22.1999H138.9V16.6447V11.1104H133.34V16.6447V22.1999Z" fill="black"/>
<path d="M66.6804 22.1997H61.1202V27.7548H66.6804V22.1997Z" fill="black"/>
<path d="M88.9005 22.1997H83.3403V27.7548H88.9005V22.1997Z" fill="black"/>
<path d="M61.1203 27.7549H55.5602V33.31H61.1203V27.7549Z" fill="black"/>
<path d="M111.12 27.7549H105.56V33.31H111.12V27.7549Z" fill="black"/>
<path d="M55.5602 33.3101H50V38.8652H55.5602V33.3101Z" fill="black"/>
<path d="M116.681 33.3101H111.12V38.8652H116.681V33.3101Z" fill="black"/>
<path d="M72.2199 38.8444V33.31V27.7549H66.6598V33.31V38.8444V44.3995H72.2199V38.8444Z" fill="black"/>
<path d="M83.3402 38.8444V33.31V27.7549H77.78V33.31V38.8444V44.3995H83.3402V38.8444Z" fill="black"/>
<path d="M111.12 38.8442H105.56V44.3994V49.9545H111.12V44.3994V38.8442Z" fill="black"/>
<path d="M44.4606 49.9546H38.9004V55.5097H44.4606V49.9546Z" fill="black"/>
<path d="M111.12 55.5097V61.0648H116.681V55.5097V49.9546H111.12V55.5097Z" fill="black"/>
<path d="M155.56 49.9545H150V44.3994H144.44V49.9545H138.9V55.5097H144.44V61.0648H150H155.56V55.5097V49.9545Z" fill="black"/>
<path d="M5.56017 55.5098H0V61.0649H5.56017V55.5098Z" fill="black"/>
<path d="M27.78 55.5097V49.9546H22.2198V55.5097V61.0648H27.78V55.5097Z" fill="black"/>
<path d="M138.9 55.5098H133.34V61.0649H138.9V55.5098Z" fill="black"/>
<path d="M166.681 55.5098H161.12V61.0649H166.681V55.5098Z" fill="black"/>
<path d="M22.2199 66.5992V61.0648H16.6598V55.5097V49.9546H11.1203H5.56018V55.5097H11.1203V61.0648V66.5992H16.6598H22.2199Z" fill="black"/>
<path d="M127.78 61.0649H122.22V66.6201H127.78V61.0649Z" fill="black"/>
<path d="M183.34 66.5992V61.0648V55.5097V49.9546H177.78V55.5097H172.22V61.0648V66.5992V72.1544H177.78V66.5992H183.34Z" fill="black"/>
<path d="M11.1203 66.5991H5.56018V72.1542H11.1203V66.5991Z" fill="black"/>
<path d="M150 27.7549H144.44V33.31H150V27.7549Z" fill="black"/>
<path d="M144.461 33.3101H138.9V38.8652H144.461V33.3101Z" fill="black"/>
<path d="M27.78 66.5991H22.2198V72.1542H27.78V66.5991Z" fill="black"/>
<path d="M66.6597 66.5993V61.0649H61.1202V66.5993V72.1545V77.7096H66.6597V72.1545H72.2198V66.5993H66.6597Z" fill="black"/>
<path d="M161.12 72.1545V66.5993V61.0649H155.56V66.5993H150V72.1545H155.56H161.12Z" fill="black"/>
<path d="M16.6805 72.1543H11.1204V77.7094H16.6805V72.1543Z" fill="black"/>
<path d="M33.3403 77.7096V83.2647H38.9005H44.4399H50.0001H55.5602V77.7096V72.1545H50.0001V77.7096H44.4399H38.9005V72.1545H44.4399V66.5993V61.0649H38.9005H33.3403V66.5993V72.1545H27.7802V77.7096H33.3403Z" fill="black"/>
<path d="M144.44 77.7094H150V72.1543H144.44H138.901V77.7094V83.2645H133.34V88.8197V94.3541H138.901V88.8197H144.44V83.2645V77.7094Z" fill="black"/>
<path d="M166.68 77.7095H161.12H155.56V83.2646H161.12H166.68V88.8197H172.22H177.78V83.2646V77.7095H172.22H166.68Z" fill="black"/>
<path d="M5.56017 83.2646V77.7095H0V83.2646V88.8197H5.56017V83.2646Z" fill="black"/>
<path d="M66.6804 83.2646H61.1202V88.8198H66.6804V83.2646Z" fill="black"/>
<path d="M100 83.2645V88.8196H105.56H111.12H116.681V83.2645V77.7094H122.22H127.78H133.34V72.1542V66.5991H127.78V72.1542H122.22H116.681V66.5991H111.12V72.1542V77.7094H105.56V83.2645H100Z" fill="black"/>
<path d="M150 88.8198H144.44V94.3542V99.9093H150V94.3542H155.56V88.8198V83.2646H150V88.8198Z" fill="black"/>
<path d="M61.1203 94.3542V88.8198H55.5602H50V94.3542H55.5602H61.1203Z" fill="black"/>
<path d="M72.2199 94.3542V99.9093H77.7801V105.464V111.02V116.575H83.3402V122.13H88.9004H94.4606H100.021V116.575V111.02H94.4606V116.575H88.9004V111.02H83.3402V105.464V99.9093H88.9004H94.4606V105.464H100.021V111.02H105.581H111.141V116.575H116.701V111.02H122.261V105.464H116.701V99.9093H111.141V105.464H105.581V99.9093H100V94.3542H94.4398H88.8797V88.7991V83.2439V77.6888H94.4398V83.2439H100V77.6888H105.56V72.1337V66.5786H100V72.1337H94.4398V66.5786H100V61.0235H105.56V55.4683H100V49.9547H94.4398V55.5098H88.8797V49.9547H94.4398V44.3996H100V38.8444V33.2893V27.7342V22.1791H105.56H111.12H116.68V27.7342H122.241V33.2893H127.801V38.8444H122.241V44.3996H116.68V49.9547H122.241V55.5098H127.801V49.9547H133.361V44.3996V38.8444V33.2893V27.7342H127.801V22.1791V16.6447V11.1103H122.241V5.55518H116.68H111.12H105.56V11.1103H111.12V16.6654H105.56H100H94.4398V11.1103V5.55518H88.8797V11.1103H83.3195H77.7593V16.6654H72.1992V22.2205H77.7593H83.3195V16.6447H88.8797V22.1998H94.4398V27.7549V33.31H88.8797V38.8652V44.4203H83.3195V49.9754H77.7593V44.4203H72.1992V49.9754H66.639V44.4203H61.0788V49.9754H55.5187H50V55.5305H55.5602H61.1203H66.6805H72.2407H77.8008V61.0857V66.6408V72.1959H72.2407V77.751V83.3061V88.8613H66.6805V94.4164H72.2199V94.3542ZM83.3402 66.5993V61.0442H88.9004V66.5993V72.1544H83.3402V66.5993ZM77.7801 77.7096H83.3402V83.2647H77.7801V77.7096ZM83.3402 88.8198V94.3749H77.7801V88.8198H83.3402Z" fill="black"/>
<path d="M122.22 94.3542H127.78V88.8198H122.22H116.681V94.3542H122.22Z" fill="black"/>
<path d="M5.56017 94.354H0V99.9091H5.56017V94.354Z" fill="black"/>
<path d="M61.1203 99.9091H55.5602V105.464H61.1203V111.019H66.6598H72.2199V105.464H66.6598V99.9091V94.354H61.1203V99.9091Z" fill="black"/>
<path d="M38.9005 105.464H44.4399H50.0001V99.9093V94.3542H44.4399V88.8198H38.9005H33.3403H27.7802V94.3542H33.3403V99.9093H38.9005V105.464Z" fill="black"/>
<path d="M127.78 99.9092H122.22V105.464H127.78V99.9092Z" fill="black"/>
<path d="M150 99.9091V105.464H144.44V111.019H150H155.56V116.574H161.12V122.13V127.685V133.24V138.795H155.56V144.35H150V138.795H155.56V133.24H150H144.44H138.88V138.795H144.44V144.35H138.88V149.905H133.32V155.46V161.015H138.88V155.46H144.44V161.015H138.88V166.571H144.44V172.126H138.88V177.681H144.44V183.236H150V177.681H155.56V172.126H161.12V177.681H155.56V183.236H161.12V188.791H166.681V194.346H161.12V188.791H155.56V194.346H150V199.901H155.56H161.12H166.681H172.241H177.801H183.361V194.346H188.921V188.791H183.361H177.801V194.346H172.241V188.791H177.801V183.236H172.241H166.681V177.681V172.126H172.241V161.015H177.801H183.361V155.46H188.921V149.864H183.361H177.801V155.419H172.241V149.864H177.801V144.309H172.241H166.681V138.754V133.198V127.643V122.088H172.241V127.643V133.198H177.801V127.643V122.088H183.361V116.533H177.801H172.241H166.681V110.978H161.12V105.423H166.681V110.978H172.241V105.423H177.801V99.9091H172.241V94.354H166.681H161.12H155.56V99.9091H150ZM166.681 166.529H150V149.864H166.66V166.529H166.681Z" fill="black"/>
<path d="M138.9 105.464H144.44V99.9092H138.9H133.34V105.464V111.019H138.9V105.464Z" fill="black"/>
<path d="M183.34 105.464H177.78V111.019H183.34V105.464Z" fill="black"/>
<path d="M38.9004 111.02H33.3402V116.575H38.9004V111.02Z" fill="black"/>
<path d="M133.34 111.02H127.78V116.575H133.34V111.02Z" fill="black"/>
<path d="M111.12 116.554H105.56V122.109H111.12V116.554Z" fill="black"/>
<path d="M138.9 122.109H144.44V116.554H138.9H133.34V122.109V127.664H138.9V122.109Z" fill="black"/>
<path d="M150 122.109H144.44V127.664H150V122.109Z" fill="black"/>
<path d="M83.3402 127.664H77.78V133.219H83.3402V127.664Z" fill="black"/>
<path d="M94.4606 127.664H88.9004V133.219H94.4606V127.664Z" fill="black"/>
<path d="M105.56 127.664H100V133.219H105.56V127.664Z" fill="black"/>
<path d="M88.9005 133.219H83.3403V138.774H88.9005V133.219Z" fill="black"/>
<path d="M100 133.219H94.4398V138.774H100V133.219Z" fill="black"/>
<path d="M27.7801 138.774V133.219V127.664V122.109V116.554H22.2199H16.6597V111.019V105.464H22.2199V111.019H27.7801H33.3402V105.464V99.9092H27.7801H22.2199V94.3541V88.8197V83.2646V77.7095H16.6597V83.2646V88.8197V94.3541V99.9092H11.1203H5.56017V105.464H11.1203V111.019H5.56017V105.464H0V111.019V116.554H5.56017V122.109H0V127.664V133.219V138.774V144.309V149.864H5.56017H11.1203H16.6597V144.309H11.1203V138.774H5.56017V133.219V127.664H11.1203H16.6597V122.109H22.2199V127.664V133.219V138.774H16.6597V144.309H22.2199H27.7801V149.864H33.3402V144.309H38.9004V138.774H33.3402H27.7801Z" fill="black"/>
<path d="M83.3402 144.309V138.774H77.78V133.219H72.2199V138.774H66.6597V133.219H72.2199V127.664V122.109V116.554H66.6597H61.1203V122.109H66.6597V127.664H61.1203H55.5601H50H44.4398V122.109H50H55.5601V116.554H61.1203V111.019H55.5601V105.464H50V111.019V116.554H44.4398H38.9004V122.109V127.664H33.3402V133.219H38.9004V138.774H44.4398V133.219H50V138.774H55.5601V133.219H61.1203V138.774V144.309H55.5601H50V138.774H44.4398V144.309V149.864H50H55.5601V155.419H50V160.974H55.5601V166.529H61.1203V160.974V155.419V149.864H66.6597V144.309H72.2199V149.864H77.78V144.309H83.3402Z" fill="black"/>
<path d="M116.681 144.309H122.22V138.774H127.78H133.34V133.219V127.664H127.78V133.219H122.22H116.681V127.664H111.12V133.219V138.774H116.681V144.309Z" fill="black"/>
<path d="M138.9 138.774H133.34V144.33H138.9V138.774Z" fill="black"/>
<path d="M111.12 144.309V138.774H105.56V144.309V149.864H111.12V144.309Z" fill="black"/>
<path d="M133.34 144.309H127.78V149.864H133.34V144.309Z" fill="black"/>
<path d="M122.22 155.419H127.78V149.864H122.22H116.681H111.12V155.419H116.681H122.22Z" fill="black"/>
<path d="M72.22 155.419H66.6598V160.974H72.22H77.7801V155.419H72.22Z" fill="black"/>
<path d="M161.12 155.419H155.56V160.974H161.12V155.419Z" fill="black"/>
<path d="M83.3402 160.974H77.78V166.529H83.3402V160.974Z" fill="black"/>
<path d="M183.34 166.529H177.78V172.084H183.34V166.529Z" fill="black"/>
<path d="M55.5602 172.063H50V177.619H55.5602V172.063Z" fill="black"/>
<path d="M77.7801 172.064V166.529H72.22V172.064V177.619V183.174H77.7801V177.619V172.064Z" fill="black"/>
<path d="M133.34 172.063H127.78V177.619H133.34V172.063Z" fill="black"/>
<path d="M66.6804 177.619H61.1202V183.174H66.6804V177.619Z" fill="black"/>
<path d="M88.9005 177.619H83.3403V183.174H88.9005V177.619Z" fill="black"/>
<path d="M61.1203 183.174H55.5602H50V188.729V194.263H55.5602V188.729H61.1203V183.174Z" fill="black"/>
<path d="M83.3402 183.174H77.78V188.729H83.3402V183.174Z" fill="black"/>
<path d="M116.68 183.174H122.241V177.619H116.68H111.12V183.174V188.729H105.56V183.174H99.9999V177.619H105.56H111.12V172.064H116.68H122.241H127.801V166.509H122.241H116.68H111.12V160.954V155.399H105.56V149.864H99.9999H94.4398V144.309H88.8796H83.3194V149.864H77.7593V155.419H83.3194H88.8796V160.974V166.53V172.085V177.64H94.4398V183.195H88.8796V188.75V194.305H94.4398V188.75H99.9999V194.305H105.56H111.12H116.68V188.75V183.174ZM94.4398 166.53H99.9999V160.974H94.4398V155.419H99.9999V160.974H105.56V166.53V172.085H99.9999H94.4398V166.53Z" fill="black"/>
<path d="M72.2199 188.729H66.6598V194.284H72.2199V188.729Z" fill="black"/>
<path d="M66.6804 194.263H61.1202V199.818H66.6804V194.263Z" fill="black"/>
<path d="M77.7801 194.263H72.22V199.818H77.7801H83.3403H88.9005V194.263H83.3403H77.7801Z" fill="black"/>
<path d="M100 194.263H94.4398V199.818H100V194.263Z" fill="black"/>
<path d="M188.9 127.664H183.34V133.219V138.774H188.9V133.219V127.664Z" fill="black"/>
<path d="M188.9 111.019H183.34V116.554H188.9H194.44V122.109H200V116.554V111.019V105.464H194.44V111.019H188.9Z" fill="black"/>
<path d="M194.44 105.464V99.9091H188.9V94.354H183.34V99.9091V105.464H188.9H194.44Z" fill="black"/>
<path d="M188.9 72.1543H183.34H177.78V77.7094H183.34V83.2645V88.8197H188.9V83.2645H194.44V77.7094H200V72.1543H194.44H188.9Z" fill="black"/>
<path d="M194.44 138.774H188.9V144.309H194.44V149.864V155.419H200V149.864V144.309V138.774V133.219H194.44V138.774Z" fill="black"/>
<path d="M138.9 177.619H133.34V183.174H138.9V177.619Z" fill="black"/>
<path d="M155.56 183.174H150V188.729H155.56V183.174Z" fill="black"/>
<path d="M144.44 188.729V183.174H138.9V188.729H133.34V183.174H127.78V188.729H122.22V194.263H116.681V199.818H122.22H127.78V194.263H133.34V199.818H138.9V194.263H144.44H150V188.729H144.44Z" fill="black"/>
<path d="M188.9 172.063H183.34V177.619H188.9V172.063Z" fill="black"/>
<path d="M194.44 177.619H188.9V183.174H194.44V188.729V194.263H200V188.729V183.174V177.619V172.063H194.44V177.619Z" fill="black"/>
<path d="M44.4398 0H0V44.3995H44.4398V0ZM38.9004 38.8444H5.56017V5.55512H38.9004V38.8444Z" fill="black"/>
<path d="M33.3403 11.1104H11.1204V33.3101H33.3403V11.1104Z" fill="black"/>
<path d="M0 201H44.4398V156.58H0V201ZM5.56017 162.135H38.9004V195.445H5.56017V162.135Z" fill="black"/>
<path d="M33.3403 167.69H11.1204V189.89H33.3403V167.69Z" fill="black"/>
<path d="M155.56 0V44.3995H200V0H155.56ZM194.44 38.8444H161.12V5.55512H194.46V38.8444H194.44Z" fill="black"/>
<path d="M188.9 11.1104H166.68V33.3101H188.9V11.1104Z" fill="black"/>
</svg>
