<svg width="40" height="40" viewBox="0 0 40 40" fill="none" xmlns="http://www.w3.org/2000/svg">
<path d="M25 28.3335V23.3335H30V20.0002L36.6667 25.8335L30 31.6668V28.3335H25ZM28.3333 30.0002V35.0002H23.3333V38.3335L16.6667 32.5002L23.3333 26.6668V30.0002H28.3333ZM20 13.3335C16.3167 13.3335 13.3333 16.3335 13.3333 20.0002C13.3333 23.1835 15.5833 25.9002 18.6833 26.5335L26.6667 19.7668C26.55 16.1835 23.6 13.3335 20 13.3335ZM20 23.3335C18.1667 23.3335 16.6667 21.8502 16.6667 20.0002C16.6667 18.1502 18.1667 16.6668 20 16.6668C21.8333 16.6668 23.3333 18.1668 23.3333 20.0002C23.3333 21.8335 21.85 23.3335 20 23.3335ZM36.1 14.5502L32.7667 8.7835C32.5667 8.41683 32.1333 8.26683 31.75 8.41683L27.6 10.0835C26.75 9.40016 25.8333 8.85016 24.7833 8.41683L24.1667 4.0335C24.1 3.6335 23.75 3.3335 23.3333 3.3335H16.6667C16.25 3.3335 15.9 3.6335 15.8333 4.0335L15.2167 8.45016C14.1667 8.8835 13.2667 9.4335 12.4 10.1168L8.33333 8.41683C7.95 8.26683 7.5 8.41683 7.31666 8.7835L3.98333 14.5502C3.76666 14.9002 3.85 15.3668 4.16666 15.6168L7.61666 18.3335L7.5 20.0002L7.61666 21.6668L4.1 24.3835C3.76666 24.6335 3.68333 25.1002 3.9 25.4502L7.23333 31.2168C7.41666 31.6668 7.9 31.8502 8.33333 31.6668L12.5 30.0002C12.9 30.3168 13.3333 30.6168 13.7667 30.8835L16.5167 28.5502C15.2333 28.0002 14.1 27.1835 13.1833 26.1335L9.16666 27.8002L7.88333 25.6335L11.3333 23.0002C10.6667 21.0502 10.6667 18.9502 11.3333 17.0002L7.81666 14.4168L9.06666 12.2502L13.0833 13.9168C14.3833 12.4168 16.1333 11.3668 18.0833 10.9502L18.75 6.66683H21.25L21.8667 11.0335C23.8167 11.4335 25.5667 12.5002 26.8667 13.9835L30.8833 12.3168L32.1333 14.4835L28.6667 17.0002C28.8167 17.4335 28.9333 17.8835 29 18.3335H32.3333L35.8333 15.6168C36.2 15.3835 36.3 14.9168 36.1 14.5502ZM20 13.3335C16.3167 13.3335 13.3333 16.3335 13.3333 20.0002C13.3333 23.1835 15.5833 25.9002 18.6833 26.5335L26.6667 19.7668C26.55 16.1835 23.6 13.3335 20 13.3335ZM20 23.3335C18.1667 23.3335 16.6667 21.8502 16.6667 20.0002C16.6667 18.1502 18.1667 16.6668 20 16.6668C21.8333 16.6668 23.3333 18.1668 23.3333 20.0002C23.3333 21.8335 21.85 23.3335 20 23.3335ZM20 13.3335C16.3167 13.3335 13.3333 16.3335 13.3333 20.0002C13.3333 23.1835 15.5833 25.9002 18.6833 26.5335L26.6667 19.7668C26.55 16.1835 23.6 13.3335 20 13.3335ZM20 23.3335C18.1667 23.3335 16.6667 21.8502 16.6667 20.0002C16.6667 18.1502 18.1667 16.6668 20 16.6668C21.8333 16.6668 23.3333 18.1668 23.3333 20.0002C23.3333 21.8335 21.85 23.3335 20 23.3335Z" fill="#DB1E34"/>
</svg>
