<svg width="50" height="50" viewBox="0 0 50 50" fill="none" xmlns="http://www.w3.org/2000/svg">
<path d="M4.50005 19.5138C4.67205 19.5218 4.84405 19.5368 5.01705 19.5368C11.06 19.5378 17.102 19.5378 23.145 19.5378C23.315 19.5378 23.484 19.5378 23.677 19.5378C23.677 19.9528 23.677 20.3188 23.677 20.7348C19.822 20.7348 15.984 20.7348 12.121 20.7348C12.121 22.0818 12.121 23.3798 12.121 24.7128C12.246 24.6988 12.36 24.6888 12.472 24.6728C13.343 24.5448 14.08 24.9248 14.505 25.6908C14.571 25.8098 14.751 25.9378 14.88 25.9388C18.181 25.9518 21.482 25.9498 24.782 25.9478C24.859 25.9478 24.937 25.9278 25.033 25.9138C25.033 23.3428 25.033 20.7818 25.033 18.1788C24.158 18.1788 23.312 18.1788 22.443 18.1788C22.443 16.4908 22.443 14.8458 22.443 13.1518C24.349 13.1518 26.243 13.1518 28.179 13.1518C28.179 11.6598 28.179 10.2148 28.179 8.6748C28.364 8.8048 28.478 8.8818 28.588 8.9648C30.259 10.2178 31.934 11.4668 33.597 12.7308C33.824 12.9028 33.967 12.9198 34.206 12.7378C35.856 11.4788 37.521 10.2388 39.181 8.9928C39.306 8.8998 39.434 8.8108 39.612 8.6838C39.612 10.1858 39.612 11.6278 39.612 13.1168C41.54 13.1168 43.434 13.1168 45.357 13.1168C45.357 14.8188 45.357 16.4728 45.357 18.1778C44.524 18.1778 43.694 18.1778 42.825 18.1778C42.825 21.6148 42.825 25.0018 42.825 28.4118C36.895 28.4118 31.006 28.4118 25.071 28.4118C25.071 27.9998 25.071 27.6068 25.071 27.1738C24.9 27.1658 24.772 27.1538 24.644 27.1538C21.423 27.1528 18.202 27.1558 14.981 27.1478C14.71 27.1468 14.575 27.2388 14.418 27.4658C14.198 27.7848 13.88 28.0358 13.604 28.3168C14.3 29.0178 15.046 29.7688 15.799 30.5278C15.49 30.8428 15.222 31.1148 14.927 31.4158C14.012 30.4828 13.112 29.5648 12.129 28.5628C12.129 32.4598 12.129 36.2238 12.129 40.0128C19.818 40.0128 27.502 40.0128 35.219 40.0128C35.219 36.5898 35.219 33.1868 35.219 29.7498C35.627 29.7498 36.003 29.7498 36.405 29.7498C36.405 33.5678 36.405 37.3798 36.405 41.2418C25.758 41.2418 15.128 41.2418 4.49805 41.2418C4.50005 33.9978 4.50005 26.7558 4.50005 19.5138ZM7.23005 30.5068C7.96805 29.7608 8.68405 29.0378 9.39305 28.3208C8.91205 28.1478 8.50705 27.8278 8.24405 27.3308C8.19905 27.2468 8.06605 27.1618 7.97105 27.1598C7.22905 27.1458 6.48605 27.1518 5.72905 27.1518C5.72905 31.4638 5.72905 35.7388 5.72905 40.0138C7.45805 40.0138 9.15605 40.0138 10.861 40.0138C10.861 36.2278 10.861 32.4628 10.861 28.6518C9.90805 29.5768 8.99505 30.4628 8.07105 31.3598C7.83305 31.1178 7.57305 30.8548 7.23005 30.5068ZM36.464 18.1988C36.464 21.2128 36.464 24.2048 36.464 27.1948C38.2 27.1948 39.905 27.1948 41.599 27.1948C41.599 24.1748 41.599 21.1918 41.599 18.1988C39.873 18.1988 38.177 18.1988 36.464 18.1988ZM31.362 27.2048C31.362 24.1868 31.362 21.2028 31.362 18.1998C29.663 18.1998 27.993 18.1998 26.295 18.1998C26.295 21.2078 26.295 24.1928 26.295 27.2048C27.981 27.2048 29.651 27.2048 31.362 27.2048ZM32.621 14.3578C32.621 18.6508 32.621 22.9218 32.621 27.1928C33.504 27.1928 34.357 27.1928 35.203 27.1928C35.203 22.8938 35.203 18.6318 35.203 14.3578C34.33 14.3578 33.485 14.3578 32.621 14.3578ZM10.883 20.7718C9.13305 20.7718 7.42705 20.7718 5.71705 20.7718C5.71705 22.5028 5.71705 24.2018 5.71705 25.9478C6.43505 25.9478 7.13605 25.9388 7.83805 25.9528C8.07205 25.9578 8.18005 25.8748 8.28305 25.6638C8.62905 24.9558 9.34905 24.5648 10.075 24.6658C10.344 24.7028 10.608 24.7718 10.884 24.8278C10.883 23.4818 10.883 22.1408 10.883 20.7718ZM23.649 16.9488C26.235 16.9488 28.793 16.9488 31.356 16.9488C31.356 16.0668 31.356 15.2128 31.356 14.3548C28.772 14.3548 26.224 14.3548 23.649 14.3548C23.649 15.2188 23.649 16.0638 23.649 16.9488ZM36.458 14.3568C36.458 15.2318 36.458 16.0868 36.458 16.9498C39.041 16.9498 41.599 16.9498 44.156 16.9498C44.156 16.0688 44.156 15.2138 44.156 14.3568C41.577 14.3568 39.029 14.3568 36.458 14.3568ZM38.396 13.1128C38.396 12.4408 38.396 11.7928 38.396 11.0838C37.514 11.7688 36.684 12.4138 35.784 13.1128C36.726 13.1128 37.558 13.1128 38.396 13.1128ZM32.103 13.1098C31.169 12.4058 30.313 11.7608 29.416 11.0848C29.416 11.8118 29.416 12.4548 29.416 13.1098C30.295 13.1098 31.148 13.1098 32.103 13.1098ZM13.497 26.5078C13.498 26.1628 13.19 25.8438 12.843 25.8308C12.476 25.8178 12.156 26.1308 12.155 26.5038C12.154 26.8798 12.468 27.1888 12.839 27.1788C13.189 27.1698 13.496 26.8568 13.497 26.5078ZM10.613 26.4938C10.606 26.1438 10.299 25.8368 9.94905 25.8318C9.57805 25.8268 9.27105 26.1398 9.27805 26.5178C9.28405 26.8808 9.57505 27.1738 9.93405 27.1778C10.301 27.1828 10.62 26.8608 10.613 26.4938Z" fill="#DB1E34"/>
<path d="M22.443 38.6406C22.443 38.2476 22.443 37.8816 22.443 37.4956C26.277 37.4956 30.086 37.4956 33.924 37.4956C33.924 37.8716 33.924 38.2376 33.924 38.6406C30.113 38.6406 26.296 38.6406 22.443 38.6406Z" fill="#DB1E34"/>
<path d="M32.6061 36.0807C32.6061 35.6997 32.6061 35.3437 32.6061 34.9517C33.0111 34.9517 33.4131 34.9517 33.8441 34.9517C33.8441 35.3127 33.8441 35.6777 33.8441 36.0807C33.4411 36.0807 33.0311 36.0807 32.6061 36.0807Z" fill="#DB1E34"/>
<path d="M30.053 36.088C30.053 35.667 30.053 35.314 30.053 34.939C30.441 34.939 30.807 34.939 31.202 34.939C31.202 35.321 31.202 35.696 31.202 36.088C30.81 36.088 30.435 36.088 30.053 36.088Z" fill="#DB1E34"/>
<path d="M27.576 36.0967C27.576 35.7117 27.576 35.3467 27.576 34.9487C27.9451 34.9487 28.3211 34.9487 28.7231 34.9487C28.7231 35.3267 28.7231 35.7017 28.7231 36.0967C28.3321 36.0967 27.9681 36.0967 27.576 36.0967Z" fill="#DB1E34"/>
<path d="M32.621 14.3579C33.485 14.3579 34.329 14.3579 35.203 14.3579C35.203 18.6329 35.203 22.8939 35.203 27.1929C34.357 27.1929 33.504 27.1929 32.621 27.1929C32.621 22.9219 32.621 18.6509 32.621 14.3579Z" fill="white"/>
</svg>
