<svg width="50" height="50" viewBox="0 0 50 50" fill="none" xmlns="http://www.w3.org/2000/svg">
<path d="M2.78704 49.3001C2.41004 49.0451 2.30504 48.6871 2.30904 48.2421C2.32504 46.4231 2.31204 44.6041 2.31704 42.7841C2.32504 39.5051 4.66004 37.1711 7.94204 37.1611C9.28304 37.1571 10.625 37.1601 12.029 37.1601C12.029 36.4781 12.053 35.8341 12.01 35.1951C12.001 35.0601 11.768 34.8961 11.604 34.8241C9.87704 34.0651 8.42804 32.9461 7.23204 31.4921C6.89504 31.0821 6.89204 30.6921 7.22004 30.3991C7.53704 30.1161 7.94204 30.1681 8.30504 30.5401C8.41504 30.6531 8.50504 30.7891 8.62504 30.8901C9.45804 31.5861 10.23 32.3841 11.146 32.9481C14.949 35.2911 20.217 34.6031 23.337 31.4191C23.43 31.3241 23.45 31.1331 23.458 30.9851C23.467 30.8151 23.406 30.6421 23.406 30.4711C23.402 28.6681 23.402 26.8641 23.404 25.0611C23.405 24.3431 23.56 24.1491 24.264 23.9791C24.967 23.8091 25.671 23.6441 26.363 23.4801C26.363 21.0481 26.363 18.6671 26.363 16.2301C21.047 18.7171 15.81 18.2301 10.684 16.0481C10.096 16.9751 9.58004 17.9351 8.92204 18.7841C8.23604 19.6691 7.25904 20.1761 6.15704 20.3661C6.13104 20.4141 6.10304 20.4411 6.10304 20.4681C6.13504 22.2211 6.10504 23.9781 6.23204 25.7241C6.29104 26.5391 6.65304 27.3331 6.88104 28.1361C6.93304 28.3181 7.03304 28.4941 7.04504 28.6771C7.07004 29.0561 6.87104 29.3091 6.50404 29.4091C6.09704 29.5191 5.80304 29.3271 5.67104 28.9681C5.40004 28.2281 5.14604 27.4801 4.94404 26.7191C4.84904 26.3611 4.69304 26.2091 4.33604 26.1371C2.88704 25.8441 1.69304 24.6461 1.43804 23.2721C1.12804 21.6051 2.08904 19.9531 3.74604 19.3081C3.89104 19.2511 4.03804 19.1991 4.23404 19.1261C4.09104 18.7931 3.95604 18.4791 3.82104 18.1651C2.89104 15.9991 2.24004 13.7671 2.21804 11.3861C2.19204 8.70413 4.30704 6.65913 6.97704 6.79413C7.24704 6.80813 7.43704 6.79413 7.59604 6.51213C9.40504 3.30813 12.215 2.18313 15.777 2.53413C18.104 2.76313 20.441 2.91013 22.775 3.05313C23.433 3.09313 24.1 2.99913 24.762 2.94813C25.354 2.90313 25.708 3.11013 25.757 3.56213C25.805 4.00713 25.497 4.35213 24.915 4.37713C23.653 4.43113 22.384 4.51413 21.126 4.44613C19.17 4.33913 17.219 4.11713 15.267 3.94013C13.073 3.74113 11.15 4.30713 9.68204 6.01413C9.24604 6.52013 8.93304 7.14013 8.60904 7.73213C8.28004 8.33113 8.12604 8.43413 7.44404 8.31113C5.25104 7.91313 3.56904 9.38513 3.66204 11.6231C3.76604 14.1351 4.58004 16.4471 5.63904 18.6941C5.75804 18.9461 5.91404 18.9521 6.13204 18.8941C7.03004 18.6541 7.75304 18.1361 8.21504 17.3511C8.65104 16.6091 9.01004 15.8131 9.32004 15.0081C9.61404 14.2461 9.93704 14.0721 10.673 14.4211C14.105 16.0491 17.69 16.8451 21.49 16.2561C23.772 15.9021 25.907 15.1551 27.617 13.5051C29.282 11.8991 29.884 9.86413 29.933 7.62413C29.969 5.96513 29.668 4.35513 29.144 2.71913C28.908 2.87813 28.695 3.02713 28.477 3.16713C28.036 3.45013 27.638 3.40413 27.392 3.04713C27.158 2.70813 27.246 2.32213 27.626 2.01313C28.054 1.66413 28.479 1.31113 28.908 0.963132C29.423 0.544132 29.931 0.639132 30.161 1.24913C31.291 4.25013 31.813 7.31413 30.984 10.4881C30.537 12.1991 29.656 13.6591 28.31 14.8151C27.972 15.1051 27.823 15.3971 27.829 15.8581C27.857 18.0881 27.842 20.3191 27.842 22.5491C27.842 22.7211 27.842 22.8921 27.842 23.1281C28.916 22.8741 29.939 22.6341 30.962 22.3901C33.927 21.6841 36.892 20.9751 39.857 20.2711C40.699 20.0711 41.047 20.3511 41.048 21.2181C41.049 25.5841 41.049 29.9501 41.048 34.3171C41.048 35.1611 40.706 35.4321 39.887 35.2431C39.182 35.0801 38.48 34.9101 37.733 34.7331C37.681 34.9531 37.642 35.1331 37.595 35.3111C37.308 36.3951 36.765 37.3311 35.904 38.0511C35.612 38.2951 35.534 38.5431 35.536 38.8991C35.547 42.0151 35.537 45.1321 35.549 48.2481C35.551 48.6921 35.46 49.0561 35.067 49.3011C24.303 49.3001 13.545 49.3001 2.78704 49.3001ZM39.586 21.8281C39.213 21.9141 38.907 21.9831 38.602 22.0551C34.165 23.1071 29.728 24.1631 25.289 25.2071C24.957 25.2851 24.823 25.4121 24.837 25.7711C24.867 26.5291 24.846 27.2881 24.846 28.0471C24.846 28.7551 24.846 29.4631 24.846 30.1851C29.782 31.3581 34.667 32.5181 39.586 33.6871C39.586 29.6961 39.586 25.7961 39.586 21.8281ZM7.01404 38.7211C5.42604 38.9031 3.92004 40.3781 3.83604 42.0281C3.74004 43.9201 3.78204 45.8191 3.76704 47.7151C3.76704 47.7561 3.80404 47.7971 3.83704 47.8651C5.00004 47.8651 6.16804 47.8661 7.33704 47.8631C7.41404 47.8631 7.51704 47.8651 7.56304 47.8201C8.09004 47.3121 8.60904 46.7941 9.17604 46.2341C8.56804 46.0781 8.06304 45.9561 7.56204 45.8191C6.98604 45.6621 6.84104 45.4731 6.86004 44.8721C6.90404 43.5131 6.97004 42.1551 7.00904 40.7961C7.03104 40.1041 7.01404 39.4111 7.01404 38.7211ZM25.374 38.6921C25.374 38.8801 25.369 39.0371 25.375 39.1931C25.443 41.0581 25.516 42.9221 25.582 44.7871C25.607 45.4971 25.467 45.6771 24.783 45.8531C24.305 45.9761 23.826 46.0941 23.32 46.2211C24.601 47.8221 24.687 47.8651 26.592 47.8651C26.908 47.8651 27.225 47.8651 27.541 47.8651C27.913 47.8651 28.286 47.8651 28.69 47.8651C28.69 46.1331 28.692 44.4741 28.688 42.8161C28.687 42.5801 28.662 42.3431 28.635 42.1081C28.427 40.3541 27.189 39.0381 25.374 38.6921ZM27.15 32.2191C26.468 32.0541 25.844 31.8911 25.213 31.7621C25.109 31.7411 24.945 31.8361 24.861 31.9271C23.678 33.2111 22.303 34.2191 20.687 34.8911C20.585 34.9331 20.441 35.0451 20.438 35.1281C20.418 35.7981 20.427 36.4691 20.427 37.1611C21.857 37.1611 23.214 37.1601 24.571 37.1611C26.055 37.1631 27.356 37.6401 28.446 38.6611C28.499 38.7111 28.562 38.7501 28.648 38.8161C28.743 38.3551 28.695 38.0171 28.348 37.6861C27.721 37.0881 27.326 36.3321 27.084 35.4971C26.771 34.4201 26.828 33.3471 27.15 32.2191ZM34.075 41.4361C32.75 41.4361 31.452 41.4361 30.168 41.4361C30.168 43.5981 30.168 45.7211 30.168 47.8271C31.497 47.8271 32.784 47.8271 34.075 47.8271C34.075 45.6771 34.075 43.5651 34.075 41.4361ZM8.54604 38.6031C8.46704 40.5981 8.38904 42.5491 8.31104 44.5211C9.06104 44.7091 9.77904 44.8841 10.495 45.0691C11.429 45.3111 11.576 45.8691 10.892 46.5571C10.487 46.9641 10.081 47.3691 9.61504 47.8361C10.647 47.8361 11.567 47.8361 12.478 47.8361C12.49 47.7921 12.5 47.7751 12.497 47.7621C11.66 44.7871 10.823 41.8111 9.97404 38.8391C9.94604 38.7411 9.78704 38.6221 9.68104 38.6141C9.32404 38.5861 8.96204 38.6031 8.54604 38.6031ZM23.9 38.6021C23.561 38.6021 23.278 38.6271 23.001 38.5961C22.628 38.5541 22.495 38.7081 22.396 39.0631C21.618 41.8581 20.813 44.6461 20.02 47.4361C19.984 47.5631 19.97 47.6971 19.939 47.8651C20.449 47.8651 20.905 47.8651 21.362 47.8651C21.82 47.8651 22.279 47.8651 22.763 47.8651C22.727 47.7641 22.726 47.7451 22.716 47.7351C22.306 47.3191 21.893 46.9061 21.485 46.4881C20.898 45.8861 21.053 45.3151 21.867 45.0981C22.611 44.9001 23.359 44.7161 24.137 44.5181C24.057 42.5481 23.98 40.5991 23.9 38.6021ZM34.096 39.9131C34.096 38.6731 34.103 37.4621 34.082 36.2511C34.08 36.1611 33.885 36.0001 33.777 35.9991C32.673 35.9801 31.568 35.9771 30.464 36.0021C30.349 36.0051 30.156 36.2031 30.142 36.3271C30.099 36.7011 30.126 37.0831 30.126 37.4611C30.126 38.2771 30.126 39.0921 30.126 39.9131C31.475 39.9131 32.762 39.9131 34.096 39.9131ZM18.961 35.5331C18.011 35.6231 17.12 35.7741 16.228 35.7731C15.326 35.7721 14.424 35.6221 13.489 35.5341C13.489 36.1151 13.475 36.6831 13.5 37.2491C13.505 37.3721 13.622 37.5361 13.734 37.6021C14.469 38.0341 15.21 38.4561 15.965 38.8531C16.101 38.9251 16.338 38.9291 16.472 38.8581C17.226 38.4621 17.967 38.0381 18.704 37.6101C18.812 37.5481 18.945 37.4141 18.949 37.3081C18.973 36.7141 18.961 36.1181 18.961 35.5331ZM35.688 36.2331C35.907 35.6461 36.127 35.0581 36.371 34.4061C33.712 33.7751 31.16 33.1681 28.582 32.5561C28.201 33.6521 28.21 34.6711 28.74 35.7431C29.101 34.8161 29.762 34.5121 30.638 34.5291C31.601 34.5481 32.564 34.5321 33.527 34.5341C34.819 34.5361 35.311 34.9351 35.688 36.2331ZM17.569 39.9121C18.394 40.7421 19.195 41.5471 19.973 42.3281C20.305 41.1601 20.661 39.9091 21.038 38.5811C20.578 38.6101 20.142 38.5281 19.813 38.6791C19.004 39.0531 18.244 39.5331 17.569 39.9121ZM15.012 39.9321C13.801 39.5341 12.936 38.3141 11.429 38.6511C11.794 39.9291 12.152 41.1851 12.51 42.4401C13.347 41.6021 14.145 40.8011 15.012 39.9321ZM4.59004 24.6961C4.59004 23.3041 4.59004 21.9421 4.59004 20.5681C3.50104 20.8611 2.77904 21.7271 2.80404 22.6711C2.82804 23.6201 3.55204 24.4491 4.59004 24.6961ZM17.546 42.3071C17.068 41.8151 16.632 41.3671 16.236 40.9601C15.779 41.3911 15.312 41.8331 14.815 42.3021C15.26 42.8701 15.698 43.4291 16.16 44.0181C16.663 43.3961 17.118 42.8341 17.546 42.3071ZM18.635 47.0161C18.912 46.0411 19.166 45.1541 19.41 44.2641C19.431 44.1881 19.406 44.0741 19.359 44.0081C19.16 43.7301 18.945 43.4641 18.711 43.1631C18.108 43.9091 17.635 44.4951 17.14 45.1071C17.627 45.7291 18.1 46.3331 18.635 47.0161ZM13.739 43.2661C13.617 43.4191 13.548 43.5581 13.436 43.6381C13.026 43.9311 12.982 44.2781 13.145 44.7411C13.37 45.3801 13.525 46.0431 13.715 46.6951C13.744 46.7951 13.803 46.8861 13.863 47.0141C14.361 46.3961 14.815 45.8331 15.287 45.2481C14.775 44.5921 14.282 43.9611 13.739 43.2661ZM16.268 46.3361C15.85 46.8541 15.473 47.3211 15.067 47.8241C15.892 47.8241 16.63 47.8241 17.434 47.8241C17.031 47.3091 16.673 46.8521 16.268 46.3361Z" fill="#DB1E34"/>
<path d="M19.204 30.2293C17.808 30.2313 16.72 29.1593 16.722 27.7833C16.724 26.4083 17.821 25.3343 19.212 25.3443C20.582 25.3553 21.667 26.4213 21.677 27.7673C21.688 29.1323 20.589 30.2263 19.204 30.2293ZM19.185 26.7903C18.607 26.7953 18.15 27.2523 18.163 27.8103C18.176 28.3443 18.636 28.7873 19.184 28.7933C19.742 28.8003 20.237 28.3273 20.237 27.7873C20.237 27.2363 19.761 26.7843 19.185 26.7903Z" fill="#DB1E34"/>
<path d="M46.027 26.288C46.58 26.288 47.134 26.277 47.687 26.291C48.207 26.304 48.524 26.584 48.529 26.998C48.533 27.414 48.214 27.72 47.702 27.728C46.595 27.744 45.488 27.743 44.381 27.729C43.862 27.723 43.545 27.43 43.54 27.013C43.535 26.596 43.85 26.306 44.366 26.292C44.919 26.276 45.473 26.288 46.027 26.288Z" fill="#DB1E34"/>
<path d="M47.7549 20.0213C47.6649 20.1323 47.538 20.3813 47.335 20.5213C46.478 21.1123 45.602 21.6763 44.724 22.2373C44.32 22.4953 43.919 22.4253 43.676 22.0893C43.436 21.7573 43.51 21.3313 43.906 21.0623C44.808 20.4523 45.715 19.8483 46.641 19.2783C47.165 18.9553 47.7749 19.3073 47.7549 20.0213Z" fill="#DB1E34"/>
<path d="M47.758 34.0302C47.765 34.6412 47.19 35.0502 46.76 34.7882C45.75 34.1752 44.767 33.5162 43.794 32.8452C43.484 32.6312 43.457 32.2752 43.657 31.9542C43.872 31.6092 44.231 31.4972 44.562 31.7002C45.556 32.3102 46.527 32.9582 47.491 33.6152C47.64 33.7172 47.705 33.9442 47.758 34.0302Z" fill="#DB1E34"/>
<path d="M23.2091 21.6461C23.2091 21.8991 23.2241 22.1521 23.2061 22.4031C23.1761 22.8111 22.8811 23.1041 22.5101 23.0941C22.1071 23.0831 21.8311 22.8571 21.8031 22.4651C21.7631 21.9001 21.7601 21.3271 21.8111 20.7641C21.8461 20.3751 22.1381 20.1431 22.5411 20.1701C22.9351 20.1961 23.1771 20.4351 23.2041 20.8411C23.2221 21.1081 23.2071 21.3771 23.2071 21.6461C23.2081 21.6461 23.2091 21.6461 23.2091 21.6461Z" fill="#DB1E34"/>
<path d="M14.0671 21.5943C14.0671 21.3263 14.0461 21.0563 14.0721 20.7903C14.1101 20.4063 14.3591 20.1923 14.7301 20.1693C15.0831 20.1473 15.3961 20.3283 15.4241 20.6783C15.4751 21.3173 15.4751 21.9663 15.4161 22.6043C15.3841 22.9533 15.0581 23.1203 14.7061 23.0883C14.3591 23.0563 14.1111 22.8563 14.0761 22.4923C14.0471 22.1953 14.0701 21.8943 14.0701 21.5943C14.0691 21.5943 14.0681 21.5943 14.0671 21.5943Z" fill="#DB1E34"/>
<path d="M17.5691 39.9121C18.2441 39.5331 19.0041 39.0531 19.8141 38.6791C20.1421 38.5271 20.5791 38.6091 21.0391 38.5811C20.6611 39.9091 20.3061 41.1601 19.9741 42.3281C19.1951 41.5471 18.3941 40.7421 17.5691 39.9121Z" fill="white"/>
<path d="M16.268 46.3364C16.672 46.8524 17.03 47.3094 17.434 47.8244C16.629 47.8244 15.891 47.8244 15.067 47.8244C15.473 47.3204 15.85 46.8544 16.268 46.3364Z" fill="white"/>
</svg>
