<svg width="40" height="40" viewBox="0 0 40 40" fill="none" xmlns="http://www.w3.org/2000/svg">
<path d="M16.6667 3.33341L10 3.33341C8.15 3.33341 6.66667 4.83341 6.66667 6.66675L6.66667 33.3334C6.66667 35.1667 8.15 36.6667 10 36.6667L16.6667 36.6667C16.6667 34.8167 18.1667 33.3334 20 33.3334C21.8333 33.3334 23.3333 34.8167 23.3333 36.6667L30 36.6667C31.8333 36.6667 33.3333 35.1667 33.3333 33.3334L33.3333 6.66674C33.3333 4.83341 31.8333 3.33341 30 3.33341L23.3333 3.33341C23.3333 5.16675 21.8333 6.66675 20 6.66675C18.1667 6.66675 16.6667 5.16675 16.6667 3.33341ZM14.2333 6.66675C15.3833 8.65008 17.55 10.0001 20 10.0001C22.45 10.0001 24.6167 8.65008 25.7667 6.66675L30 6.66675L30 33.3334L25.7667 33.3334C24.6167 31.3501 22.45 30.0001 20 30.0001C17.5 30.0001 15.3833 31.3334 14.2333 33.3334L10 33.3334L10 6.66675L14.2333 6.66675ZM25 21.6667L25 18.3334L28.3333 18.3334L28.3333 21.6667L25 21.6667ZM18.3333 21.6667L18.3333 18.3334L21.6667 18.3334L21.6667 21.6667L18.3333 21.6667ZM11.6667 21.6667L11.6667 18.3334L15 18.3334L15 21.6667L11.6667 21.6667Z" fill="#DB1E34"/>
</svg>
